<svg id="Layer_1" data-name="Layer 1" xmlns="http://www.w3.org/2000/svg" xmlns:xlink="http://www.w3.org/1999/xlink" viewBox="0 0 107.62 55.22"><defs><style>.cls-1{fill:none;}.cls-2{clip-path:url(#clip-path);}.cls-3{fill:#36454f;}</style></defs><title>Boat Sales Logo [2019]</title><g class="cls-2"><path class="cls-3" d="M84.77,38.42,83.55,28.09l-8.33-2.57-8.34,2.57L65.66,38.42a33.58,33.58,0,0,0,8.59-3.26V33.25h1.93v1.91a33.73,33.73,0,0,0,8.59,3.26" transform="translate(-21 -22.78)"/><path class="cls-3" d="M60.81,47.58c4.72-1.79,8.94-.6,13.3.4V43.06a49.39,49.39,0,0,1-10.22,2.3c-1.4.18-2.64.29-3.61.36a12.72,12.72,0,0,0,.53,1.86" transform="translate(-21 -22.78)"/><path class="cls-3" d="M80.75,48.91A17.59,17.59,0,0,0,90,46.19c0-.16.07-.31.11-.48-1-.07-2.21-.18-3.61-.36a49.39,49.39,0,0,1-10.22-2.3v5.19s.51.18,1.36.42a21.69,21.69,0,0,0,3.14.25" transform="translate(-21 -22.78)"/><path class="cls-3" d="M76.25,42.41a48.94,48.94,0,0,0,10.3,2.34c1.42.18,2.67.29,3.64.36a28.62,28.62,0,0,0,.34-4.65s-5.79,2-14.28-4.21Z" transform="translate(-21 -22.78)"/><path class="cls-3" d="M65.84,27l9.38-2.89L84.59,27,86,38.66l1.18.17L85.64,26,75.22,22.78,64.8,26,63.28,38.83l1.18-.17Z" transform="translate(-21 -22.78)"/><path class="cls-3" d="M63.81,44.76a49,49,0,0,0,10.3-2.35V36.25c-8.49,6.21-14.28,4.21-14.28,4.21a28.67,28.67,0,0,0,.34,4.66c1-.07,2.22-.18,3.64-.36" transform="translate(-21 -22.78)"/><path class="cls-3" d="M80,50.52c-8.08,0-14.72-5.8-23.72,1.82,0,0,6.67-2.17,10.63-1.33s22.65,3.69,26.38-7c0,0-5.2,6.49-13.29,6.48" transform="translate(-21 -22.78)"/><path class="cls-3" d="M128.36,59.67a4.15,4.15,0,0,0-1.41-.9,5.08,5.08,0,0,0-1.78-.3,4.17,4.17,0,0,0-1.55.26,3.38,3.38,0,0,0-1.12.72,3,3,0,0,0-.7,1,3,3,0,0,0-.24,1.19,3.11,3.11,0,0,0,.24,1.3,2.57,2.57,0,0,0,.63.87,3.08,3.08,0,0,0,.89.57,9.88,9.88,0,0,0,1,.39l1,.33a4.13,4.13,0,0,1,.9.38,1.93,1.93,0,0,1,.63.57,1.43,1.43,0,0,1,.24.86,2.3,2.3,0,0,1-.17.88,2,2,0,0,1-.46.67,2.3,2.3,0,0,1-.75.43,2.84,2.84,0,0,1-1,.16,3,3,0,0,1-1.14-.19,3.73,3.73,0,0,1-.8-.4c-.22-.15-.4-.28-.55-.4a.7.7,0,0,0-.39-.19.38.38,0,0,0-.21.07.75.75,0,0,0-.16.15l-.45.74A4.92,4.92,0,0,0,122.65,70a5.12,5.12,0,0,0,2.06.41,4.55,4.55,0,0,0,1.66-.29,3.69,3.69,0,0,0,1.23-.78,3.43,3.43,0,0,0,.76-1.17,4,4,0,0,0,.26-1.43,2.76,2.76,0,0,0-.24-1.22,2.54,2.54,0,0,0-.64-.84,3.56,3.56,0,0,0-.89-.57c-.34-.15-.68-.28-1-.4l-1-.35a4.68,4.68,0,0,1-.9-.39,2.12,2.12,0,0,1-.63-.55,1.3,1.3,0,0,1-.24-.81,1.7,1.7,0,0,1,.14-.71,1.54,1.54,0,0,1,.41-.58,1.86,1.86,0,0,1,.68-.38,2.67,2.67,0,0,1,.93-.14,3,3,0,0,1,1,.13,4.25,4.25,0,0,1,.67.31c.19.11.34.21.47.3a.52.52,0,0,0,.32.14.33.33,0,0,0,.21-.06.55.55,0,0,0,.15-.18ZM110.59,58.6V70.26h7.19V69h-5.6V65h4.53V63.75h-4.53V59.88h5.6V58.6Zm-8.74,0h-1.58V70.26h6.63V68.93h-5.05ZM91,61.19c0-.14.11-.3.17-.49s.11-.39.17-.62a8,8,0,0,0,.35,1.1l1.83,4.75H89.21Zm1.15-2.59H90.58L85.92,70.26h1.22a.49.49,0,0,0,.34-.12.63.63,0,0,0,.2-.26l1.09-2.81H94l1.09,2.81a.6.6,0,0,0,.2.27.51.51,0,0,0,.34.11h1.22ZM83,59.67a4.15,4.15,0,0,0-1.41-.9,5,5,0,0,0-1.78-.3,4.11,4.11,0,0,0-1.54.26,3.42,3.42,0,0,0-1.13.72,3.11,3.11,0,0,0-.69,1,3,3,0,0,0-.24,1.19,3.11,3.11,0,0,0,.24,1.3,2.57,2.57,0,0,0,.63.87,3,3,0,0,0,.89.57,8.94,8.94,0,0,0,1,.39l1,.33a4.26,4.26,0,0,1,.89.38,1.93,1.93,0,0,1,.63.57,1.43,1.43,0,0,1,.24.86,2.3,2.3,0,0,1-.16.88,2,2,0,0,1-.47.67,2.15,2.15,0,0,1-.74.43,2.89,2.89,0,0,1-1,.16,3,3,0,0,1-1.14-.19,4,4,0,0,1-.8-.4c-.22-.15-.4-.28-.55-.4a.64.64,0,0,0-.39-.19.37.37,0,0,0-.2.07.46.46,0,0,0-.16.15l-.46.74A4.92,4.92,0,0,0,77.32,70a5.13,5.13,0,0,0,2.07.41A4.49,4.49,0,0,0,81,70.1a3.5,3.5,0,0,0,1.23-.78A3.29,3.29,0,0,0,83,68.15a4,4,0,0,0,.26-1.43,2.76,2.76,0,0,0-.24-1.22,2.65,2.65,0,0,0-.63-.84,3.62,3.62,0,0,0-.9-.57c-.33-.15-.67-.28-1-.4l-1-.35a4.87,4.87,0,0,1-.89-.39,2,2,0,0,1-.64-.55,1.3,1.3,0,0,1-.24-.81,1.87,1.87,0,0,1,.14-.71,1.66,1.66,0,0,1,.41-.58,1.94,1.94,0,0,1,.68-.38,2.7,2.7,0,0,1,.94-.14,3,3,0,0,1,.95.13,4.39,4.39,0,0,1,.68.31c.18.11.34.21.46.3a.52.52,0,0,0,.32.14.33.33,0,0,0,.21-.06.57.57,0,0,0,.16-.18ZM58.84,58.6v1.32h3.78V70.26H64.2V59.92H68V58.6Zm-7,2.59c.05-.14.1-.3.16-.49s.12-.39.18-.62a8,8,0,0,0,.35,1.1l1.83,4.75H50ZM53,58.6h-1.6L46.75,70.26H48a.5.5,0,0,0,.34-.12.53.53,0,0,0,.19-.26l1.09-2.81h5.24l1.09,2.81a.66.66,0,0,0,.19.27.53.53,0,0,0,.34.11h1.23ZM42.4,66.35a3.92,3.92,0,0,1-.83,1.44,3.52,3.52,0,0,1-1.3.91,4.84,4.84,0,0,1-3.41,0,3.56,3.56,0,0,1-1.31-.91,3.92,3.92,0,0,1-.83-1.44,5.7,5.7,0,0,1-.29-1.92,5.8,5.8,0,0,1,.29-1.93,3.92,3.92,0,0,1,.83-1.44,3.56,3.56,0,0,1,1.31-.91,4.7,4.7,0,0,1,3.41,0,3.52,3.52,0,0,1,1.3.91,3.92,3.92,0,0,1,.83,1.44,5.8,5.8,0,0,1,.29,1.93,5.7,5.7,0,0,1-.29,1.92M43.9,62a5.69,5.69,0,0,0-1.17-1.89,5.4,5.4,0,0,0-1.82-1.24,6.15,6.15,0,0,0-2.35-.43,6.06,6.06,0,0,0-2.34.43,5.4,5.4,0,0,0-1.82,1.24A5.69,5.69,0,0,0,33.23,62a7.23,7.23,0,0,0,0,4.8,5.69,5.69,0,0,0,1.17,1.89,5.35,5.35,0,0,0,1.82,1.22,6.06,6.06,0,0,0,2.34.44,6.15,6.15,0,0,0,2.35-.44,5.35,5.35,0,0,0,1.82-1.22,5.69,5.69,0,0,0,1.17-1.89,7.23,7.23,0,0,0,0-4.8M22.58,59.84h2.14a3.12,3.12,0,0,1,1.92.48,1.79,1.79,0,0,1,.62,1.51,2,2,0,0,1-.16.81,1.68,1.68,0,0,1-.47.63,2.36,2.36,0,0,1-.81.4,4,4,0,0,1-1.16.15H22.58Zm2.51,5.1a3,3,0,0,1,1.94.53,1.75,1.75,0,0,1,.63,1.43,2.37,2.37,0,0,1-.14.85,1.68,1.68,0,0,1-.46.66,2.13,2.13,0,0,1-.8.44A3.94,3.94,0,0,1,25.1,69H22.58V64.94Zm0,5.32A5.69,5.69,0,0,0,26.86,70a3.77,3.77,0,0,0,1.29-.68,3.13,3.13,0,0,0,.8-1,3.32,3.32,0,0,0,.27-1.35,2.42,2.42,0,0,0-.65-1.76,3.6,3.6,0,0,0-1.93-.92,3.54,3.54,0,0,0,1-.44,2.74,2.74,0,0,0,.69-.61,2.54,2.54,0,0,0,.4-.74,2.58,2.58,0,0,0,.14-.83,3.2,3.2,0,0,0-.24-1.27,2.39,2.39,0,0,0-.74-1,3.62,3.62,0,0,0-1.28-.6,7.19,7.19,0,0,0-1.85-.21H21V70.26Z" transform="translate(-21 -22.78)"/><path class="cls-3" d="M126.14,75a1.12,1.12,0,0,0-.4-.25,1.35,1.35,0,0,0-.5-.09,1.18,1.18,0,0,0-.43.08,1,1,0,0,0-.32.2.87.87,0,0,0-.19.28,1,1,0,0,0-.07.34,1,1,0,0,0,.07.36.64.64,0,0,0,.18.25,1.2,1.2,0,0,0,.25.16l.28.1.29.09.25.11a.93.93,0,0,1,.18.16.45.45,0,0,1,.06.24.66.66,0,0,1,0,.25.8.8,0,0,1-.13.19.72.72,0,0,1-.21.12.82.82,0,0,1-.28,0,1,1,0,0,1-.32,0,.9.9,0,0,1-.22-.11.74.74,0,0,1-.16-.12.21.21,0,0,0-.11,0l-.06,0,0,0-.13.21a1.21,1.21,0,0,0,.45.31,1.32,1.32,0,0,0,.57.12,1.36,1.36,0,0,0,.47-.08,1,1,0,0,0,.34-.22.83.83,0,0,0,.22-.33,1.29,1.29,0,0,0,.07-.4.71.71,0,0,0-.07-.34.69.69,0,0,0-.18-.24.87.87,0,0,0-.25-.15c-.09,0-.19-.08-.28-.12l-.29-.09-.25-.11a.71.71,0,0,1-.18-.16.39.39,0,0,1-.07-.23.58.58,0,0,1,0-.19.52.52,0,0,1,.12-.17.49.49,0,0,1,.19-.1.68.68,0,0,1,.26,0,.77.77,0,0,1,.27,0l.19.08.13.09a.18.18,0,0,0,.09,0l.06,0,0-.05Zm-6.3-.3V78h2V77.6h-1.57V76.49h1.27v-.35h-1.27V75.06h1.57V74.7Zm-4.89,0v.37H116V78h.44V75.07h1.06V74.7Zm-3.27.72s0-.08,0-.13a1,1,0,0,0,0-.18,2.28,2.28,0,0,0,.1.31l.51,1.33h-1.22Zm.32-.72h-.45L110.24,78h.34a.17.17,0,0,0,.1,0s0-.05.06-.07l.3-.79h1.47l.3.79a.13.13,0,0,0,.06.07.12.12,0,0,0,.09,0h.34Zm-6,0v.37h1.06V78h.44V75.07h1V74.7Zm-2.17.3a1.12,1.12,0,0,0-.4-.25,1.31,1.31,0,0,0-.5-.09,1.18,1.18,0,0,0-.43.08.83.83,0,0,0-.31.2.9.9,0,0,0-.2.28,1,1,0,0,0-.07.34,1,1,0,0,0,.07.36.76.76,0,0,0,.18.25,1.2,1.2,0,0,0,.25.16l.28.1.29.09.25.11a.93.93,0,0,1,.18.16.45.45,0,0,1,.06.24.66.66,0,0,1,0,.25.8.8,0,0,1-.13.19.72.72,0,0,1-.21.12.82.82,0,0,1-.28,0,1,1,0,0,1-.32,0,.9.9,0,0,1-.22-.11.74.74,0,0,1-.16-.12.21.21,0,0,0-.11,0l-.06,0,0,0-.13.21a1.29,1.29,0,0,0,.45.31,1.42,1.42,0,0,0,1,0,.91.91,0,0,0,.34-.22.83.83,0,0,0,.22-.33,1.29,1.29,0,0,0,.07-.4.71.71,0,0,0-.07-.34.69.69,0,0,0-.18-.24.87.87,0,0,0-.25-.15c-.09,0-.19-.08-.28-.12l-.29-.09-.25-.11a.93.93,0,0,1-.18-.16.39.39,0,0,1-.07-.23.58.58,0,0,1,0-.19.52.52,0,0,1,.12-.17.49.49,0,0,1,.19-.1.68.68,0,0,1,.26,0,.77.77,0,0,1,.27,0l.19.08.13.09a.18.18,0,0,0,.09,0l.06,0,0-.05Zm-6.3-.3V78h2V77.6H98V76.49h1.26v-.35H98V75.06h1.56V74.7Zm-7.26,0V78h2V77.6H90.74V76.49H92v-.35H90.74V75.06h1.57V74.7ZM86,75.05h.48a.94.94,0,0,1,.58.14.55.55,0,0,1,.19.44.67.67,0,0,1,0,.26.8.8,0,0,1-.15.21.66.66,0,0,1-.25.13,1.16,1.16,0,0,1-.34,0H86Zm.33,1.55a.41.41,0,0,1,.14,0l.09.08.84,1.17a.2.2,0,0,0,.18.09H88l-1-1.29a.33.33,0,0,0-.15-.14,1.51,1.51,0,0,0,.34-.13,1.09,1.09,0,0,0,.26-.21.89.89,0,0,0,.15-.27.83.83,0,0,0,.06-.32.87.87,0,0,0-.07-.37.7.7,0,0,0-.22-.29,1,1,0,0,0-.37-.18,2.12,2.12,0,0,0-.54-.06h-.92V78H86V76.6Zm-5.11.94a1,1,0,0,1-.27-.19.72.72,0,0,1-.16-.3,1.06,1.06,0,0,1-.06-.37v-2h-.44v2a1.55,1.55,0,0,0,.09.53,1,1,0,0,0,.26.41,1.11,1.11,0,0,0,.41.28,1.51,1.51,0,0,0,1.08,0,1.2,1.2,0,0,0,.41-.28,1.15,1.15,0,0,0,.26-.41,1.55,1.55,0,0,0,.09-.53v-2h-.44v2a1.16,1.16,0,0,1-.06.38.92.92,0,0,1-.17.29.66.66,0,0,1-.27.19.86.86,0,0,1-.36.07.87.87,0,0,1-.37-.07M77.8,75a1.12,1.12,0,0,0-.4-.25,1.35,1.35,0,0,0-.5-.09,1.18,1.18,0,0,0-.43.08.87.87,0,0,0-.51.48.91.91,0,0,0,0,.7.64.64,0,0,0,.18.25,1.2,1.2,0,0,0,.25.16l.28.1.29.09.25.11a.93.93,0,0,1,.18.16.45.45,0,0,1,.06.24.66.66,0,0,1,0,.25.8.8,0,0,1-.13.19.72.72,0,0,1-.21.12.82.82,0,0,1-.28,0,1,1,0,0,1-.32,0,1.23,1.23,0,0,1-.23-.11l-.15-.12a.21.21,0,0,0-.11,0l-.06,0,0,0-.13.21a1.21,1.21,0,0,0,.45.31,1.32,1.32,0,0,0,.57.12,1.36,1.36,0,0,0,.47-.08,1,1,0,0,0,.34-.22.83.83,0,0,0,.22-.33,1.29,1.29,0,0,0,.07-.4.71.71,0,0,0-.07-.34.69.69,0,0,0-.18-.24.87.87,0,0,0-.25-.15c-.09,0-.19-.08-.28-.12L76.8,76l-.25-.11a.57.57,0,0,1-.18-.16.39.39,0,0,1-.07-.23.58.58,0,0,1,0-.19.52.52,0,0,1,.12-.17.49.49,0,0,1,.19-.1.68.68,0,0,1,.26,0,.77.77,0,0,1,.27,0l.19.08.13.09a.18.18,0,0,0,.09,0l0,0,0-.05Zm-4.53-.3h-.44V78h.44Zm-5,0V78h2V77.6H68.68V76.49H70v-.35H68.68V75.06h1.56V74.7Zm-3.77,0H64V78h1.86v-.37H64.46Zm-6.19,2.17a1.2,1.2,0,0,1-.23.4,1.05,1.05,0,0,1-.37.25,1.19,1.19,0,0,1-.47.08h-.78V75.05h.78a1.19,1.19,0,0,1,.47.09,1.05,1.05,0,0,1,.37.25,1.2,1.2,0,0,1,.23.4,1.86,1.86,0,0,1,0,1.08m.42-1.21a1.5,1.5,0,0,0-.33-.51,1.39,1.39,0,0,0-.51-.34,1.93,1.93,0,0,0-.65-.11H56V78H57.2a1.71,1.71,0,0,0,.65-.12,1.25,1.25,0,0,0,.51-.33,1.5,1.5,0,0,0,.33-.51,2.1,2.1,0,0,0,0-1.34m-7.8-1h-.23V78h.39V75.53a.37.37,0,0,1,0-.11l1.89,2.46a.13.13,0,0,0,.07.06.11.11,0,0,0,.08,0h.23V74.7h-.39v2.42s0,.07,0,.11L51,74.77a.17.17,0,0,0-.06-.06h-.09m-4.14.72s0-.08,0-.13,0-.11.05-.18a1.41,1.41,0,0,0,.1.31l.51,1.33H46.24Zm.32-.72h-.44L45.32,78h.34a.17.17,0,0,0,.1,0l.05-.07.31-.79h1.46l.31.79a.18.18,0,0,0,0,.07.17.17,0,0,0,.1,0h.34Zm-5.15,0h-.44V78h1.86v-.37H41.92Zm-5,0V78h2V77.6H37.41V76.49h1.27v-.35H37.41V75.06H39V74.7Zm-4.49,0H32V78h.44V76.47h.29l.07,0,0,0s0,0,0,0l1.12,1.3a.08.08,0,0,1,0,0l0,0h.51l-1.3-1.55-.1-.1a.07.07,0,1,1,0-.12l.09-.09,1.24-1.4h-.38a.2.2,0,0,0-.11,0,.25.25,0,0,0-.1.08L32.88,76a.25.25,0,0,1-.1.08l-.13,0h-.17Zm-4.39.72s0-.08,0-.13a1,1,0,0,0,.05-.18c0,.13.07.23.1.31l.51,1.33H27.57Zm.32-.72H28L26.65,78H27a.14.14,0,0,0,.09,0,.19.19,0,0,0,.06-.07l.3-.79h1.47l.3.79a.13.13,0,0,0,.06.07.12.12,0,0,0,.09,0h.34Zm-5.15,0h-.44V78h1.85v-.37H23.26Z" transform="translate(-21 -22.78)"/></g></svg>
