<?xml version="1.0" encoding="UTF-8" standalone="no"?>
<svg
   xmlns:dc="http://purl.org/dc/elements/1.1/"
   xmlns:cc="http://creativecommons.org/ns#"
   xmlns:rdf="http://www.w3.org/1999/02/22-rdf-syntax-ns#"
   xmlns:svg="http://www.w3.org/2000/svg"
   xmlns="http://www.w3.org/2000/svg"
   viewBox="0 0 683.52081 130.66927"
   xml:space="preserve"
   id="svg2"
   version="1.1"><metadata
     id="metadata8"><rdf:RDF><cc:Work
         rdf:about=""><dc:format>image/svg+xml</dc:format><dc:type
           rdf:resource="http://purl.org/dc/dcmitype/StillImage" /><dc:title></dc:title></cc:Work></rdf:RDF></metadata><defs
     id="defs6" /><g
     transform="matrix(1.3333333,0,0,-1.3333333,7.0666665e-4,133.42916)"
     id="g10"><g
       transform="scale(0.1)"
       id="g12"><g
         transform="scale(10)"
         id="g28"><g
           id="text32"
           style="font-variant:normal;font-weight:300;font-size:50.15869904px;font-family:Lato;-inkscape-font-specification:Lato-Light;writing-mode:lr-tb;fill:#ffffff;fill-opacity:1;fill-rule:nonzero;stroke:none"
           transform="matrix(0.99684,0,0,-1,140.869,39.9195)"
           aria-label="BOAT SALES " /><g
           id="text36"
           style="font-variant:normal;font-weight:normal;font-size:20px;font-family:Lato;-inkscape-font-specification:Lato-Regular;writing-mode:lr-tb;fill:#ffffff;fill-opacity:1;fill-rule:nonzero;stroke:none"
           transform="matrix(1,0,0,-1,178.894,3.65)"
           aria-label="LAKELAND LEISURE ESTATES "><path
             d="m -116.19336,-96.421875 -34.54883,10.650391 -5.0332,42.550781 c 1.3247,-0.1602 2.63554,-0.351619 3.93164,-0.574219 l 4.55664,-38.515625 31.09375,-9.583984 31.093751,9.583984 4.558593,38.515625 c 1.2957,0.2226 2.606641,0.414019 3.931641,0.574219 l -5.033203,-42.550781 z m 0,9.054687 -27.63867,8.519532 -4.05469,34.279297 c 12.7071,-2.7969 23.4075,-8.0343 28.5,-10.8125 v -6.333985 h 6.38867 v 6.333985 c 5.0929,2.7782 15.79185,8.0156 28.49805,10.8125 l -4.052734,-34.279297 z M 24.5,-72.158203 c -2.483343,0 -4.759497,0.43527 -6.826172,1.304687 -2.066675,0.869418 -3.840879,2.097189 -5.324219,3.685547 -1.483338,1.57164 -2.6412719,3.478328 -3.474609,5.71875 -0.8166698,2.223703 -1.2246094,4.698539 -1.2246094,7.423828 0,2.742009 0.4079396,5.232235 1.2246094,7.472657 0.8333371,2.223702 1.991271,4.130391 3.474609,5.71875 1.48334,1.571639 3.257544,2.792692 5.324219,3.662109 2.066675,0.852698 4.342829,1.279297 6.826172,1.279297 2.516676,0 4.808325,-0.426599 6.875,-1.279297 2.066675,-0.869417 3.84088,-2.09047 5.324219,-3.662109 1.483339,-1.588359 2.634502,-3.495048 3.451172,-5.71875 0.81667,-2.240422 1.224609,-4.730648 1.224609,-7.472657 0,-2.725289 -0.407939,-5.200125 -1.224609,-7.423828 -0.81667,-2.240422 -1.967833,-4.153829 -3.451172,-5.742187 -1.483339,-1.588359 -3.257544,-2.809412 -5.324219,-3.66211 -2.066675,-0.869417 -4.358324,-1.304687 -6.875,-1.304687 z m 143.64844,0 c -1.63334,0 -3.09167,0.259037 -4.375,0.777344 -1.26668,0.501586 -2.3345,1.178552 -3.20117,2.03125 -0.86667,0.835978 -1.52461,1.806664 -1.97461,2.910156 -0.45,1.103491 -0.67383,2.248458 -0.67383,3.435547 0,1.52148 0.25,2.792606 0.75,3.8125 0.51667,1.003174 1.1901,1.847701 2.02344,2.533203 0.83334,0.668783 1.77617,1.219588 2.82617,1.654297 1.06667,0.434708 2.15871,0.828577 3.27539,1.179687 1.11667,0.351112 2.2,0.710295 3.25,1.078125 1.06666,0.367831 2.01627,0.82716 2.84961,1.378906 0.83334,0.535026 1.5,1.211992 2,2.03125 0.51666,0.80254 0.77539,1.830018 0.77539,3.083985 0,1.15365 -0.20156,2.241825 -0.60156,3.261719 -0.4,1.003174 -0.98333,1.87176 -1.75,2.607422 -0.75,0.73566 -1.67344,1.32115 -2.77344,1.755859 -1.10001,0.417989 -2.35,0.626953 -3.75,0.626953 -1.01668,0 -1.92656,-0.100147 -2.72656,-0.300781 -0.80001,-0.200636 -1.50834,-0.442331 -2.125,-0.726563 -0.61668,-0.300952 -1.15834,-0.618733 -1.625,-0.953125 -0.46667,-0.35111 -0.86589,-0.668892 -1.19922,-0.953125 -0.33334,-0.300952 -0.61628,-0.553271 -0.84961,-0.753906 -0.23334,-0.200635 -0.42617,-0.300781 -0.57617,-0.300781 -0.26667,0 -0.49922,0.126159 -0.69922,0.376953 l -0.69922,1.103516 c 1.26667,1.437882 2.74048,2.574178 4.42383,3.410156 1.68333,0.819259 3.69204,1.228515 6.02539,1.228515 1.8,0 3.40077,-0.274425 4.80078,-0.826171 1.4,-0.568466 2.58215,-1.33886 3.54883,-2.308594 0.96667,-0.969735 1.70117,-2.10603 2.20117,-3.410156 0.51667,-1.320846 0.77344,-2.72485 0.77344,-4.212891 0,-1.454603 -0.25677,-2.666984 -0.77344,-3.636719 -0.5,-0.986455 -1.16666,-1.813639 -2,-2.482422 -0.83334,-0.668782 -1.7849,-1.221541 -2.85156,-1.65625 -1.05001,-0.451428 -2.13334,-0.860685 -3.25,-1.228515 -1.11668,-0.367831 -2.20677,-0.735686 -3.27344,-1.103516 -1.05001,-0.38455 -1.99285,-0.852551 -2.82617,-1.404297 -0.83334,-0.551745 -1.50873,-1.220039 -2.02539,-2.005859 -0.50001,-0.78582 -0.75,-1.780567 -0.75,-2.984375 0,-0.919577 0.16666,-1.798788 0.5,-2.634766 0.35,-0.835979 0.84999,-1.571688 1.5,-2.207031 0.66666,-0.635343 1.48449,-1.136076 2.45117,-1.503906 0.98333,-0.36783 2.11705,-0.550782 3.40039,-0.550782 1.28334,0 2.35793,0.158892 3.22461,0.476563 0.88334,0.317672 1.61589,0.668184 2.19922,1.052734 0.58334,0.367831 1.04166,0.709673 1.375,1.027344 0.35,0.300952 0.63294,0.451172 0.84961,0.451172 0.28333,0 0.50038,-0.141549 0.65039,-0.425781 l 0.59961,-1.154297 c -1.20001,-1.203809 -2.53334,-2.096456 -4,-2.681641 -1.45002,-0.585185 -3.09049,-0.878906 -4.92383,-0.878906 z m 155.67383,0 c -1.63334,0 -3.09166,0.259037 -4.375,0.777344 -1.26668,0.501586 -2.33451,1.178552 -3.20118,2.03125 -0.86667,0.835978 -1.52461,1.806664 -1.97461,2.910156 -0.45,1.103491 -0.67382,2.248458 -0.67382,3.435547 0,1.52148 0.24999,2.792606 0.75,3.8125 0.51666,1.003174 1.1901,1.847701 2.02343,2.533203 0.83334,0.668783 1.77617,1.219588 2.82618,1.654297 1.06667,0.434708 2.15871,0.828577 3.27539,1.179687 1.11666,0.351112 2.19999,0.710295 3.25,1.078125 1.06666,0.367831 2.01627,0.82716 2.84961,1.378906 0.83333,0.535026 1.49999,1.211992 2,2.03125 0.51667,0.80254 0.77539,1.830018 0.77539,3.083985 0,1.15365 -0.20156,2.241825 -0.60157,3.261719 -0.4,1.003174 -0.98332,1.87176 -1.75,2.607422 -0.75,0.73566 -1.67343,1.32115 -2.77343,1.755859 -1.10001,0.417989 -2.35,0.626953 -3.75,0.626953 -1.01668,0 -1.92657,-0.100147 -2.72657,-0.300781 -0.8,-0.200636 -1.50832,-0.442331 -2.125,-0.726563 -0.61666,-0.300952 -1.15832,-0.618733 -1.625,-0.953125 -0.46667,-0.35111 -0.86589,-0.668892 -1.19921,-0.953125 -0.33334,-0.300952 -0.61628,-0.553271 -0.84961,-0.753906 -0.23334,-0.200635 -0.42618,-0.300781 -0.57618,-0.300781 -0.26667,0 -0.49922,0.126159 -0.69921,0.376953 l -0.69922,1.103516 c 1.26667,1.437882 2.74048,2.574178 4.42382,3.410156 1.68334,0.819259 3.69205,1.228515 6.0254,1.228515 1.8,0 3.40078,-0.274425 4.80078,-0.826171 1.4,-0.568466 2.58215,-1.33886 3.54882,-2.308594 0.96667,-0.969735 1.70118,-2.10603 2.20118,-3.410156 0.51667,-1.320846 0.77343,-2.72485 0.77343,-4.212891 0,-1.454603 -0.25676,-2.666984 -0.77343,-3.636719 -0.5,-0.986455 -1.16666,-1.813639 -2,-2.482422 -0.83333,-0.668782 -1.78489,-1.221541 -2.85157,-1.65625 -1.05,-0.451428 -2.13332,-0.860685 -3.25,-1.228515 -1.11666,-0.367831 -2.20676,-0.735686 -3.27343,-1.103516 -1.05,-0.38455 -1.99284,-0.852551 -2.82618,-1.404297 -0.83334,-0.551745 -1.50873,-1.220039 -2.02539,-2.005859 -0.5,-0.78582 -0.75,-1.780567 -0.75,-2.984375 0,-0.919577 0.16667,-1.798788 0.5,-2.634766 0.35001,-0.835979 0.85,-1.571688 1.5,-2.207031 0.66667,-0.635343 1.4845,-1.136076 2.45118,-1.503906 0.98333,-0.36783 2.11705,-0.550782 3.40039,-0.550782 1.28334,0 2.35793,0.158892 3.22461,0.476563 0.88333,0.317672 1.61588,0.668184 2.19921,1.052734 0.58334,0.367831 1.04168,0.709673 1.375,1.027344 0.35001,0.300952 0.63295,0.451172 0.84961,0.451172 0.28334,0 0.50039,-0.141549 0.65039,-0.425781 l 0.59961,-1.154297 c -1.2,-1.203809 -2.53332,-2.096456 -4,-2.681641 -1.45,-0.585185 -3.09048,-0.878906 -4.92382,-0.878906 z m -356.597661,0.402344 v 35.486328 h 11.47461 c 1.88334,0 3.567442,-0.217635 5.050781,-0.652344 1.483339,-0.451428 2.733329,-1.095662 3.75,-1.931641 1.016671,-0.835978 1.790883,-1.854785 2.324219,-3.058593 0.5333355,-1.203809 0.800781,-2.55774 0.800781,-4.0625 0,-2.35746 -0.749994,-4.255477 -2.25,-5.69336 -1.500005,-1.437882 -3.642437,-2.365214 -6.425781,-2.783203 1.150004,-0.284233 2.167444,-0.695442 3.050781,-1.230469 0.900004,-0.551745 1.658722,-1.194026 2.275391,-1.929687 0.616669,-0.735661 1.083723,-1.538786 1.40039,-2.408203 0.333335,-0.869418 0.5,-1.772689 0.5,-2.708985 0,-1.421162 -0.243227,-2.692288 -0.726562,-3.8125 -0.466669,-1.12021 -1.181768,-2.064884 -2.148438,-2.833984 -0.96667,-0.78582 -2.192442,-1.378028 -3.675781,-1.779297 -1.466673,-0.40127 -3.207935,-0.601562 -5.224609,-0.601562 z m 101.875,0 L 54.625,-36.269531 h 1.949219 c 0.233334,0 0.432942,-0.06741 0.599609,-0.201172 0.166667,-0.133757 0.284895,-0.292648 0.351563,-0.476563 l 4.148437,-10.30664 h 17.375 l 4.175781,10.30664 c 0.08334,0.200635 0.199612,0.368197 0.34961,0.501954 0.150004,0.117036 0.342838,0.175781 0.576172,0.175781 H 86.125 L 71.650391,-71.755859 Z m 25.923829,0 v 2.18164 h 12.500002 v 33.304688 h 2.55078 v -33.304688 h 12.42383 v -2.18164 z m 110.625002,0 -14.47656,35.486328 h 1.95117 c 0.23333,0 0.43294,-0.06741 0.59961,-0.201172 0.16666,-0.133757 0.28293,-0.292648 0.34961,-0.476563 l 4.15039,-10.30664 h 17.375 l 4.17578,10.30664 c 0.0833,0.200635 0.1996,0.368197 0.34961,0.501954 0.14999,0.117036 0.34088,0.175781 0.57422,0.175781 h 1.97461 l -14.47461,-35.486328 z m 33.17383,0 v 35.486328 h 19.32421 v -2.181641 h -16.77343 v -33.304687 z m 36.125,0 v 35.486328 h 21.19921 v -2.13086 h -18.625 v -14.796875 h 15.5 v -2.082031 h -15.5 V -69.625 h 18.625 v -2.130859 z M 24.5,-69.951172 c 2.133341,0 4.074212,0.367855 5.824219,1.103516 1.750007,0.718941 3.241271,1.763761 4.474609,3.134765 1.250005,1.371004 2.217055,3.042716 2.900391,5.015625 0.683336,1.972909 1.02539,4.197379 1.02539,6.671875 0,2.491216 -0.342054,4.722404 -1.02539,6.695313 -0.683336,1.956189 -1.650386,3.621183 -2.900391,4.992187 -1.233338,1.371005 -2.724602,2.415825 -4.474609,3.134766 C 28.574212,-38.484184 26.633341,-38.125 24.5,-38.125 c -2.100009,0 -4.025384,-0.359184 -5.775391,-1.078125 -1.73334,-0.718941 -3.233328,-1.763761 -4.5,-3.134766 -1.250005,-1.371004 -2.225778,-3.035998 -2.925781,-4.992187 -0.683336,-1.972909 -1.023437,-4.204097 -1.023437,-6.695313 0,-2.474496 0.340101,-4.698966 1.023437,-6.671875 0.700003,-1.972909 1.675776,-3.644621 2.925781,-5.015625 1.266672,-1.371004 2.76666,-2.415824 4.5,-3.134765 1.750007,-0.735661 3.675382,-1.103516 5.775391,-1.103516 z m -54.724609,0.226563 h 7.625 c 3.150012,0 5.474604,0.61822 6.974609,1.855468 1.516673,1.220528 2.275391,3.025118 2.275391,5.416016 0,0.919576 -0.17539,1.814176 -0.525391,2.683594 -0.350002,0.869417 -0.900388,1.648482 -1.650391,2.333984 -0.733336,0.685502 -1.682938,1.236308 -2.849609,1.654297 -1.150005,0.417989 -2.542441,0.626953 -4.175781,0.626953 h -7.673828 z M 70.375,-69.199219 c 0.116663,0.40127 0.232939,0.786466 0.349609,1.154297 0.116664,0.351111 0.23294,0.668893 0.34961,0.953125 l 7.224609,17.931641 H 62.449219 l 7.224609,-17.90625 c 0.11667,-0.300952 0.234899,-0.627405 0.351563,-0.978516 0.11667,-0.367831 0.232939,-0.753027 0.349609,-1.154297 z m 136.54688,0 c 0.11667,0.40127 0.2349,0.786466 0.35156,1.154297 0.11667,0.351111 0.23295,0.668893 0.34961,0.953125 l 7.22461,17.931641 h -15.84961 l 7.22461,-17.90625 c 0.11666,-0.300952 0.23294,-0.627405 0.34961,-0.978516 0.11667,-0.367831 0.23294,-0.753027 0.34961,-1.154297 z m -237.146489,15.925781 h 8.90039 c 1.48334,10e-7 2.807938,0.167562 3.97461,0.501954 1.166671,0.334391 2.149216,0.819734 2.949218,1.455078 0.800004,0.618624 1.409504,1.378393 1.826172,2.28125 0.433335,0.886137 0.648438,1.889555 0.648438,3.009765 0,2.441057 -0.791661,4.339075 -2.375,5.69336 -1.58334,1.337565 -3.93215,2.005859 -7.048828,2.005859 h -8.875 z m -82.537111,1.480469 v 20.423828 c 11.3027,4.1477 24.002933,6.494138 34.144532,7.773438 4.713,0.5957 8.865266,0.966865 12.072266,1.197265 0.672,-4.023399 1.111328,-9.07144 1.111328,-15.43164 0,0 -19.168325,6.625009 -47.328126,-13.962891 z m -7.09766,0.02734 c -28.161,20.5878 -47.33007,13.962891 -47.33007,13.962891 0,6.3606 0.43938,11.40814 1.11328,15.43164 3.2066,-0.2305 7.35936,-0.600812 12.07226,-1.195312 10.1418,-1.2805 22.84064,-3.626991 34.14453,-7.775391 z m 7.09766,22.542969 v 17.185547 c 0,0 1.68047,0.604756 4.50977,1.410156 3.4066,0.502 6.86725,0.8214249 10.406247,0.8281249 12.2946,0.0214 22.697219,-4.2011909 30.574219,-9.0253909 0.122,-0.5125 0.244422,-1.026184 0.357422,-1.583984 -3.205,-0.2332 -7.306079,-0.602653 -11.955079,-1.189453 -10.0299,-1.2687 -22.543379,-3.5547 -33.892579,-7.625 z m -7.09766,0.02734 c -11.3504,4.070299 -23.86287,6.3562 -33.89257,7.625 -4.6488,0.5867 -8.74958,0.957006 -11.95508,1.191406 0.507,2.4891 1.10858,4.500056 1.73828,6.160156 15.6582,-5.9238 29.66088,-1.971541 44.10937,1.318359 z m 63.667974,3.255859 c 0,0 -17.240094,21.5070342 -44.058594,21.4589842 -26.8187,-0.04687 -48.80393,-19.2273132 -78.64453,6.0605469 0,0 22.11328,-7.200385 35.23828,-4.421875 13.125,2.77930003 75.071844,12.2469238 87.464844,-23.0976561 z m 229.298826,11.449219 c -0.71333,0 -1.34706,0.110078 -1.90039,0.330078 -0.54667,0.22 -1.00557,0.514192 -1.37891,0.880859 -0.37333,0.366667 -0.65937,0.786432 -0.85937,1.259766 -0.19333,0.473333 -0.29102,0.962083 -0.29102,1.46875 0,0.6333331 0.0977,1.1682289 0.29102,1.6015622 0.2,0.4266667 0.4593,0.7816928 0.7793,1.0683594 0.32,0.2866667 0.68317,0.5211719 1.08984,0.7011719 0.41333,0.18 0.8331,0.3404688 1.25977,0.4804687 0.43333,0.1333334 0.8531,0.2651042 1.25976,0.3984376 0.41334,0.1266666 0.77961,0.2840364 1.09961,0.4707031 0.32,0.1866666 0.57815,0.4192187 0.77149,0.6992187 0.2,0.2733334 0.29882,0.6272136 0.29882,1.0605469 0,0.3933333 -0.0659,0.7503125 -0.19922,1.0703125 -0.13333,0.32 -0.32674,0.5967448 -0.58007,0.8300781 -0.24667,0.2266667 -0.55016,0.4026302 -0.91016,0.5292969 -0.36,0.1266667 -0.77047,0.1914062 -1.23047,0.1914062 -0.55333,10e-8 -1.02349,-0.074036 -1.41015,-0.2207031 -0.38,-0.1533333 -0.70519,-0.32 -0.97852,-0.5 -0.26667,-0.18 -0.48992,-0.3435677 -0.66992,-0.4902343 -0.18,-0.1533334 -0.34047,-0.2304688 -0.48047,-0.2304688 -0.0933,0 -0.17977,0.026745 -0.25977,0.080078 -0.0733,0.046667 -0.13807,0.1063542 -0.1914,0.1796875 l -0.5586,0.9199219 c 0.54,0.5733333 1.18922,1.03109375 1.94922,1.37109375 0.76667,0.33333333 1.61435,0.5 2.54102,0.5 0.76,0 1.43596,-0.11627604 2.02929,-0.34960937 0.6,-0.23333334 1.1031,-0.55427084 1.50977,-0.96093748 0.41333,-0.4066667 0.72612,-0.8830209 0.93945,-1.4296875 0.21334,-0.5533334 0.32032,-1.1428646 0.32032,-1.7695313 0,-0.5933333 -0.0988,-1.0933333 -0.29883,-1.5 -0.19334,-0.4066666 -0.45459,-0.75125 -0.78125,-1.03125 -0.32,-0.28 -0.68628,-0.5094531 -1.09961,-0.6894531 -0.40667,-0.1866667 -0.82643,-0.3533333 -1.25977,-0.5 -0.42666,-0.1466667 -0.84643,-0.2865885 -1.25976,-0.4199219 -0.40667,-0.14 -0.77295,-0.3035677 -1.09961,-0.4902344 -0.32,-0.1866666 -0.58125,-0.4099218 -0.78125,-0.6699218 -0.19334,-0.2666667 -0.28906,-0.6000004 -0.28906,-1.0000004 0,-0.313333 0.0566,-0.602474 0.16992,-0.86914 0.11333,-0.273334 0.28,-0.510938 0.5,-0.710938 0.22666,-0.2 0.50651,-0.355416 0.83984,-0.46875 0.33333,-0.12 0.71706,-0.18164 1.15039,-0.18164 0.46,0 0.84992,0.05659 1.16992,0.169921 0.32667,0.113334 0.60342,0.24086 0.83008,0.38086 0.23334,0.133333 0.42169,0.255807 0.56836,0.36914 0.15333,0.113334 0.28706,0.171876 0.40039,0.171876 0.10667,0 0.1931,-0.02365 0.25977,-0.07031 0.0667,-0.05333 0.1314,-0.130469 0.1914,-0.230469 l 0.46875,-0.919922 c -0.49333,-0.48 -1.06851,-0.846276 -1.72851,-1.099609 -0.66,-0.253333 -1.39141,-0.380859 -2.19141,-0.380859 z m 81.38086,0 c -0.71333,0 -1.34706,0.110078 -1.90039,0.330078 -0.54667,0.22 -1.00753,0.514192 -1.38086,0.880859 -0.37333,0.366667 -0.65937,0.786432 -0.85937,1.259766 -0.19334,0.473333 -0.28907,0.962083 -0.28907,1.46875 0,0.6333331 0.0957,1.1682289 0.28907,1.6015622 0.2,0.4266667 0.45929,0.7816928 0.77929,1.0683594 0.32,0.2866667 0.68513,0.5211719 1.0918,0.7011719 0.41333,0.18 0.8331,0.3404688 1.25977,0.4804687 0.43333,0.1333334 0.85309,0.2651042 1.25976,0.3984376 0.41333,0.1266666 0.77961,0.2840364 1.09961,0.4707031 0.32,0.1866666 0.5762,0.4192187 0.76953,0.6992187 0.2,0.2733334 0.30078,0.6272136 0.30078,1.0605469 0,0.3933333 -0.0678,0.7503125 -0.20117,1.0703125 -0.13333,0.32 -0.32674,0.5967448 -0.58008,0.8300781 -0.24666,0.2266667 -0.5482,0.4026302 -0.9082,0.5292969 -0.36,0.1266667 -0.77047,0.1914062 -1.23047,0.1914062 -0.55333,10e-8 -1.02349,-0.074036 -1.41016,-0.2207031 -0.38,-0.1533333 -0.70713,-0.32 -0.98046,-0.5 -0.26667,-0.18 -0.48993,-0.3435677 -0.66993,-0.4902343 -0.18,-0.1533334 -0.34046,-0.2304688 -0.48046,-0.2304688 -0.0933,0 -0.17977,0.026745 -0.25977,0.080078 -0.0733,0.046667 -0.13612,0.1063542 -0.18945,0.1796875 l -0.56055,0.9199219 c 0.54,0.5733333 1.19117,1.03109375 1.95117,1.37109375 0.76667,0.33333333 1.6124,0.5 2.53906,0.5 0.76,0 1.43597,-0.11627604 2.0293,-0.34960937 0.6,-0.23333334 1.10505,-0.55427084 1.51172,-0.96093748 0.41333,-0.4066667 0.72612,-0.8830209 0.93945,-1.4296875 0.21334,-0.5533334 0.32032,-1.1428646 0.32032,-1.7695313 0,-0.5933333 -0.10079,-1.0933333 -0.30079,-1.5 -0.19333,-0.4066666 -0.45263,-0.75125 -0.77929,-1.03125 -0.32,-0.28 -0.68823,-0.5094531 -1.10156,-0.6894531 -0.40667,-0.1866667 -0.82644,-0.3533333 -1.25977,-0.5 -0.42667,-0.1466667 -0.84643,-0.2865885 -1.25977,-0.4199219 -0.40666,-0.14 -0.77294,-0.3035677 -1.09961,-0.4902344 -0.32,-0.1866666 -0.57929,-0.4099218 -0.77929,-0.6699218 -0.19334,-0.2666667 -0.29102,-0.6000004 -0.29102,-1.0000004 0,-0.313333 0.0566,-0.602474 0.16992,-0.86914 0.11334,-0.273334 0.28,-0.510938 0.5,-0.710938 0.22667,-0.2 0.50651,-0.355416 0.83985,-0.46875 0.33333,-0.12 0.71705,-0.18164 1.15039,-0.18164 0.46,0 0.84992,0.05659 1.16992,0.169921 0.32667,0.113334 0.60341,0.24086 0.83008,0.38086 0.23333,0.133333 0.42364,0.255807 0.57031,0.36914 0.15333,0.113334 0.28706,0.171876 0.40039,0.171876 0.10667,0 0.1931,-0.02365 0.25977,-0.07031 0.0667,-0.05333 0.12945,-0.130469 0.18945,-0.230469 l 0.4707,-0.919922 c -0.49333,-0.48 -1.07047,-0.846276 -1.73047,-1.099609 -0.66,-0.253333 -1.38945,-0.380859 -2.18945,-0.380859 z m 70.2793,0 c -0.71334,0 -1.34706,0.110078 -1.90039,0.330078 -0.54667,0.22 -1.00753,0.514192 -1.38086,0.880859 -0.37334,0.366667 -0.65938,0.786432 -0.85938,1.259766 -0.19333,0.473333 -0.28906,0.962083 -0.28906,1.46875 0,0.6333331 0.0957,1.1682289 0.28906,1.6015622 0.2,0.4266667 0.4593,0.7816928 0.7793,1.0683594 0.32,0.2866667 0.68513,0.5211719 1.0918,0.7011719 0.41333,0.18 0.8331,0.3404688 1.25976,0.4804687 0.43334,0.1333334 0.8531,0.2651042 1.25977,0.3984376 0.41333,0.1266666 0.77961,0.2840364 1.09961,0.4707031 0.32,0.1866666 0.5762,0.4192187 0.76953,0.6992187 0.2,0.2733334 0.30078,0.6272136 0.30078,1.0605469 0,0.3933333 -0.0678,0.7503125 -0.20117,1.0703125 -0.13334,0.32 -0.32675,0.5967448 -0.58008,0.8300781 -0.24667,0.2266667 -0.5482,0.4026302 -0.9082,0.5292969 -0.36,0.1266667 -0.77047,0.1914062 -1.23047,0.1914062 -0.55334,10e-8 -1.02349,-0.074036 -1.41016,-0.2207031 -0.38,-0.1533333 -0.70713,-0.32 -0.98047,-0.5 -0.26666,-0.18 -0.48992,-0.3435677 -0.66992,-0.4902343 -0.18,-0.1533334 -0.34047,-0.2304688 -0.48047,-0.2304688 -0.0933,0 -0.17976,0.026745 -0.25976,0.080078 -0.0733,0.046667 -0.13612,0.1063542 -0.18946,0.1796875 l -0.56054,0.9199219 c 0.54,0.5733333 1.19117,1.03109375 1.95117,1.37109375 0.76667,0.33333333 1.61239,0.5 2.53906,0.5 0.76,0 1.43596,-0.11627604 2.0293,-0.34960937 0.6,-0.23333334 1.10505,-0.55427084 1.51172,-0.96093748 0.41333,-0.4066667 0.72612,-0.8830209 0.93945,-1.4296875 0.21333,-0.5533334 0.32031,-1.1428646 0.32031,-1.7695313 0,-0.5933333 -0.10078,-1.0933333 -0.30078,-1.5 -0.19333,-0.4066666 -0.45263,-0.75125 -0.7793,-1.03125 -0.32,-0.28 -0.68822,-0.5094531 -1.10156,-0.6894531 -0.40666,-0.1866667 -0.82643,-0.3533333 -1.25976,-0.5 -0.42667,-0.1466667 -0.84644,-0.2865885 -1.25977,-0.4199219 -0.40667,-0.14 -0.77294,-0.3035677 -1.09961,-0.4902344 -0.32,-0.1866666 -0.5793,-0.4099218 -0.7793,-0.6699218 -0.19333,-0.2666667 -0.29101,-0.6000004 -0.29101,-1.0000004 0,-0.313333 0.0566,-0.602474 0.16992,-0.86914 0.11333,-0.273334 0.28,-0.510938 0.5,-0.710938 0.22667,-0.2 0.50651,-0.355416 0.83984,-0.46875 0.33334,-0.12 0.71706,-0.18164 1.1504,-0.18164 0.45999,0 0.84992,0.05659 1.16992,0.169921 0.32666,0.113334 0.60341,0.24086 0.83008,0.38086 0.23333,0.133333 0.42364,0.255807 0.57031,0.36914 0.15333,0.113334 0.28705,0.171876 0.40039,0.171876 0.10666,0 0.1931,-0.02365 0.25976,-0.07031 0.0667,-0.05333 0.12946,-0.130469 0.18946,-0.230469 l 0.4707,-0.919922 c -0.49333,-0.48 -1.07047,-0.846276 -1.73047,-1.099609 -0.66,-0.253333 -1.38945,-0.380859 -2.18945,-0.380859 z M 1.7402344,-14.330078 V 0 h 8.140625 V -1.6308594 H 3.6796875 V -14.330078 Z m 17.0703126,0 L 13.080078,0 h 1.5 C 14.746745,0 14.886667,-0.04729167 15,-0.140625 c 0.113333,-0.0933333 0.193568,-0.2003125 0.240234,-0.3203125 l 1.339844,-3.4589844 h 6.429688 l 1.339843,3.4589844 c 0.05333,0.13333333 0.133568,0.24341146 0.240235,0.33007812 C 24.69651,-0.04419271 24.836432,0 25.009766,0 h 1.5 l -5.730469,-14.330078 z m 12.410156,0 V 0 h 1.929688 v -6.5605469 h 0.878906 c 0.16,0 0.293724,0.01125 0.400391,0.03125 0.113333,0.013333 0.211015,0.040078 0.291015,0.080078 0.08667,0.04 0.15875,0.088437 0.21875,0.1484376 0.06667,0.053333 0.137604,0.1211718 0.210938,0.2011718 l 4.949218,5.68945315 c 0.05333,0.06 0.106823,0.11658854 0.160157,0.16992187 0.05333,0.0533333 0.109921,0.0975261 0.169922,0.13085938 0.06667,0.03333333 0.143802,0.06007813 0.230468,0.08007812 C 40.746823,-0.00929688 40.853802,0 40.980469,0 h 1.679687 l -5.701172,-6.7890625 c -0.153333,-0.18 -0.299453,-0.3311719 -0.439453,-0.4511719 -0.14,-0.12 -0.303567,-0.2095312 -0.490234,-0.2695312 0.14,-0.066667 0.270625,-0.153099 0.390625,-0.2597656 0.126667,-0.1066667 0.260391,-0.2372917 0.40039,-0.390625 l 5.458985,-6.1699218 h -1.650391 c -0.213333,0 -0.389297,0.03604 -0.529297,0.109375 -0.133333,0.06667 -0.273255,0.184896 -0.419921,0.351562 l -4.769532,5.3984379 c -0.133333,0.1533333 -0.276354,0.2634114 -0.429687,0.3300781 -0.146667,0.06 -0.348229,0.089844 -0.601563,0.089844 h -0.728515 v -6.2792968 z m 16.119141,0 V 0 h 8.830078 v -1.5800781 h -6.88086 v -4.890625 h 5.570313 V -7.9902344 H 49.289062 V -12.75 h 6.88086 v -1.580078 z m 14.320312,0 V 0 h 8.138672 V -1.6308594 H 63.599609 V -14.330078 Z m 17.06836,0 L 73,0 h 1.5 c 0.166667,0 0.306589,-0.04729167 0.419922,-0.140625 0.113333,-0.0933333 0.193568,-0.2003125 0.240234,-0.3203125 L 76.5,-3.9199219 h 6.429688 l 1.339843,3.4589844 c 0.05333,0.13333333 0.133568,0.24341146 0.240235,0.33007812 C 84.616432,-0.04419271 84.756354,0 84.929688,0 h 1.5 l -5.730469,-14.330078 z m 12.210937,0 V 0 h 1.699219 v -10.210938 c 0,-0.133333 -0.0031,-0.279453 -0.0098,-0.439453 -0.0067,-0.16 -0.01596,-0.323567 -0.0293,-0.490234 l 8.289061,10.79101562 c 0.1,0.12666667 0.20078,0.21619792 0.30078,0.26953126 C 101.29612,-0.02674479 101.42674,0 101.58008,0 h 0.97851 v -14.330078 h -1.69921 v 10.1503905 c 0,0.1533333 0.003,0.3138021 0.01,0.4804687 0.007,0.16 0.021,0.3266667 0.041,0.5 L 92.609375,-14 c -0.106667,-0.133333 -0.204349,-0.219766 -0.291016,-0.259766 -0.08,-0.04667 -0.205573,-0.07031 -0.378906,-0.07031 z m 17.820317,0 V 0 h 5.35937 c 1.05333,0 2.01224,-0.16976562 2.87891,-0.50976562 0.86666,-0.34666667 1.61047,-0.83427088 2.23047,-1.46093748 0.62,-0.6266667 1.1014,-1.3797656 1.4414,-2.2597657 0.34,-0.88 0.50977,-1.8563541 0.50977,-2.9296874 0,-1.0733334 -0.16977,-2.0496875 -0.50977,-2.9296878 -0.34,-0.88 -0.8214,-1.633099 -1.4414,-2.259765 -0.62,-0.633334 -1.36381,-1.120938 -2.23047,-1.460938 -0.86667,-0.346667 -1.82558,-0.519531 -2.87891,-0.519531 z m 24.31835,0 V 0 h 8.14063 v -1.6308594 h -6.19922 V -14.330078 Z m 12.98047,0 V 0 h 8.83008 v -1.5800781 h -6.8789 v -4.890625 h 5.56835 v -1.5195313 h -5.56835 V -12.75 h 6.8789 v -1.580078 z m 14.67969,0 V 0 h 1.93945 v -14.330078 z m 21.64063,0 v 8.7109374 c 0,0.8266666 0.13062,1.5921614 0.39062,2.2988281 0.26667,0.7066667 0.64534,1.3198438 1.13867,1.8398437 0.49334,0.51333338 1.09412,0.91760422 1.80078,1.21093755 0.70667,0.29333333 1.49891,0.43945313 2.37891,0.43945313 0.88,-10e-9 1.67419,-0.1461198 2.38086,-0.43945313 0.70667,-0.29333333 1.3024,-0.69760417 1.78906,-1.21093755 0.49334,-0.5199999 0.87086,-1.133177 1.13086,-1.8398437 0.26667,-0.7066667 0.40039,-1.4721615 0.40039,-2.2988281 v -8.7109374 h -1.92968 v 8.7109374 c 0,0.6 -0.0864,1.1484375 -0.25977,1.6484375 -0.16667,0.5 -0.41357,0.9310156 -0.74023,1.2910156 -0.32,0.36 -0.71303,0.6398437 -1.17969,0.8398437 -0.46667,0.2000001 -0.99847,0.3007813 -1.5918,0.3007813 -0.59333,0 -1.12628,-0.1007812 -1.59961,-0.3007813 -0.46667,-0.2066666 -0.86279,-0.4896093 -1.18945,-0.8496093 -0.32,-0.36 -0.5669,-0.7910157 -0.74024,-1.2910157 -0.16666,-0.5 -0.25,-1.0503906 -0.25,-1.6503906 v -8.6992186 z m 17.64062,0 V 0 h 1.92969 v -5.9804688 h 1.46875 c 0.26667,0 0.46823,0.037995 0.60156,0.1113282 0.13333,0.066667 0.25581,0.1798437 0.36914,0.3398437 l 3.72071,5.11914065 C 208.27604,-0.13682292 208.53534,0 208.88867,0 h 1.72071 l -4.18165,-5.6894531 c -0.18666,-0.2666667 -0.39867,-0.4713281 -0.63867,-0.6113281 0.55334,-0.1266667 1.04714,-0.3119271 1.48047,-0.5585938 0.44,-0.2466667 0.80938,-0.5439583 1.10938,-0.890625 0.30666,-0.3533333 0.53922,-0.7494531 0.69921,-1.1894531 0.16,-0.44 0.24024,-0.9132552 0.24024,-1.4199219 0,-0.606667 -0.10388,-1.153958 -0.31055,-1.640625 -0.20666,-0.493333 -0.52565,-0.913099 -0.95898,-1.259766 -0.42667,-0.346666 -0.97086,-0.611015 -1.63086,-0.791015 -0.66,-0.186667 -1.44294,-0.279297 -2.34961,-0.279297 z m 15.37891,0 V 0 h 8.83008 v -1.5800781 h -6.87891 v -4.890625 h 5.56836 v -1.5195313 h -5.56836 V -12.75 h 6.87891 v -1.580078 z m 20.8789,0 V 0 h 8.83008 v -1.5800781 h -6.8789 v -4.890625 h 5.56836 v -1.5195313 h -5.56836 V -12.75 h 6.8789 v -1.580078 z m 26.16016,0 v 1.630859 h 4.65039 V 0 h 1.93945 v -12.699219 h 4.63086 v -1.630859 z m 18.73047,0 L 275.4375,0 h 1.5 c 0.16667,0 0.30659,-0.04729167 0.41992,-0.140625 0.11334,-0.0933333 0.19357,-0.2003125 0.24024,-0.3203125 l 1.33984,-3.4589844 h 6.43164 l 1.33984,3.4589844 c 0.0533,0.13333333 0.13357,0.24341146 0.24024,0.33007812 C 287.05589,-0.04419271 287.19581,0 287.36914,0 h 1.5 l -5.73047,-14.330078 z m 9.42969,0 v 1.630859 h 4.65039 V 0 h 1.93945 v -12.699219 h 4.63086 v -1.630859 z m 15.96093,0 V 0 h 8.83008 v -1.5800781 h -6.88086 v -4.890625 h 5.57031 v -1.5195313 h -5.57031 V -12.75 h 6.88086 v -1.580078 z m -104.60937,1.529297 h 2.11914 c 1.11333,0 1.94976,0.217057 2.50976,0.65039 0.56667,0.433334 0.84961,1.076355 0.84961,1.929688 0,0.4199999 -0.0721,0.8037238 -0.21875,1.1503905 -0.14666,0.3466667 -0.36682,0.6470573 -0.66015,0.9003906 -0.28667,0.2466667 -0.64675,0.4400782 -1.08008,0.5800781 -0.42667,0.1333334 -0.92357,0.1992188 -1.49023,0.1992188 h -2.0293 z m -91.24024,0.04101 h 3.41016 c 0.76667,0 1.46318,0.125573 2.08984,0.378907 0.62667,0.253333 1.15961,0.621562 1.59961,1.101562 0.44,0.48 0.77953,1.066432 1.01953,1.7597658 0.24001,0.6933333 0.36133,1.479375 0.36133,2.359375 0,0.8799999 -0.12133,1.6660416 -0.36133,2.359375 -0.24,0.6933333 -0.57953,1.2817187 -1.01953,1.7617187 -0.44,0.4733333 -0.97294,0.8365104 -1.59961,1.0898437 -0.62666,0.2533334 -1.32317,0.3789063 -2.08984,0.3789063 h -3.41016 z M 19.789062,-12.5 c 0.140001,0.54 0.284974,0.989609 0.431641,1.349609 l 2.25,5.8300785 h -5.351562 l 2.25,-5.8203125 c 0.06667,-0.173333 0.134505,-0.372943 0.201171,-0.599609 0.07333,-0.233334 0.145417,-0.486433 0.21875,-0.759766 z m 59.919922,0 c 0.14,0.54 0.283021,0.989609 0.429688,1.349609 l 2.25,5.8300785 h -5.34961 l 2.25,-5.8203125 c 0.06667,-0.173333 0.134506,-0.372943 0.201172,-0.599609 0.07333,-0.233334 0.145417,-0.486433 0.21875,-0.759766 z m 202.439456,0 c 0.14,0.54 0.28302,0.989609 0.42968,1.349609 l 2.25,5.8300785 h -5.3496 l 2.25,-5.8203125 c 0.0667,-0.173333 0.13255,-0.372943 0.19921,-0.599609 0.0733,-0.233334 0.14737,-0.486433 0.22071,-0.759766 z"
             id="path885" /></g></g></g></g></svg>