<svg id="Layer_1" data-name="Layer 1" xmlns="http://www.w3.org/2000/svg" xmlns:xlink="http://www.w3.org/1999/xlink" viewBox="0 0 95.16 64.47"><defs><style>.cls-1{fill:none;}.cls-2{clip-path:url(#clip-path);}.cls-3{fill:#028d96;}</style></defs><title>Deganwy Marina Logo [2019]</title><g class="cls-2"><path class="cls-3" d="M78.41,46.07V17.8a.27.27,0,0,0-.27-.27.28.28,0,0,0-.28.27V46.07H59.94s17.56,10.88,29,0Z" transform="translate(-27 -17.53)"/><path class="cls-3" d="M77.11,43.82V21.52s-8.44,16.63-13,22.32c0,0,13-.12,13,0" transform="translate(-27 -17.53)"/><path class="cls-3" d="M78.08,19.63s6.58,9.66,1.1,24.15h8.71s6.65-16.53-9.81-24.15" transform="translate(-27 -17.53)"/><path class="cls-3" d="M79.42,52.68a6.63,6.63,0,0,1-9.27,0c-2,3.84-9.57,2.44-9.57,2.44,6.4,2.68,9.69-1,9.69-1a5.36,5.36,0,0,0,1.32,1.05,5.81,5.81,0,0,0,1.34.55,7,7,0,0,0,1.11.21,7.65,7.65,0,0,0,2.15-.1,6.72,6.72,0,0,0,1.25-.39,5.64,5.64,0,0,0,1.33-.81,6.2,6.2,0,0,0,.52-.5s3.3,3.71,9.7,1c0,0-7.62,1.4-9.57-2.44" transform="translate(-27 -17.53)"/><path class="cls-3" d="M122.16,62.42h-1.42a.46.46,0,0,0-.33.12.92.92,0,0,0-.2.25l-2.69,4.58a4.52,4.52,0,0,0-.27.54,5.38,5.38,0,0,0-.2.51c-.06-.17-.13-.34-.2-.51s-.17-.35-.28-.54l-2.7-4.58a1,1,0,0,0-.21-.27.51.51,0,0,0-.34-.1h-1.4l4.32,7.1v4.69h1.59V69.52ZM96.9,74.21h1.44l3-9c0-.08,0-.17.08-.27s0-.21.08-.32a4.9,4.9,0,0,0,.16.59l3,9h1.43l3.68-11.79h-1.25a.5.5,0,0,0-.34.11.56.56,0,0,0-.19.26L105.54,71a3.1,3.1,0,0,0-.11.46l-.09.52c-.08-.37-.17-.69-.26-1l-2.76-8.2a.64.64,0,0,0-.19-.27.58.58,0,0,0-.35-.1h-.47a.55.55,0,0,0-.35.12.62.62,0,0,0-.19.25L98,71a4.49,4.49,0,0,0-.13.47l-.12.54c0-.18-.07-.36-.1-.53L97.53,71l-2.44-8.2a.5.5,0,0,0-.19-.27.56.56,0,0,0-.35-.1H93.23ZM81,62.42h-.82V74.21h1.39V65.44l0-.4,6.82,8.88a1,1,0,0,0,.25.22.63.63,0,0,0,.32.07h.81V62.42h-1.4v8.35c0,.13,0,.26,0,.39a3.19,3.19,0,0,0,0,.42L81.5,62.69a.92.92,0,0,0-.24-.22.62.62,0,0,0-.31,0M70.79,65c0-.14.11-.31.16-.5s.12-.39.18-.62A7.65,7.65,0,0,0,71.49,65l1.85,4.8H68.93ZM72,62.42H70.32L65.61,74.21h1.23a.51.51,0,0,0,.35-.12.63.63,0,0,0,.2-.26L68.49,71h5.29l1.1,2.85a.68.68,0,0,0,.2.27.54.54,0,0,0,.35.11h1.23ZM56.42,72.73a4.06,4.06,0,0,1-1.37-.93,4.26,4.26,0,0,1-.89-1.49,5.85,5.85,0,0,1-.32-2,5.54,5.54,0,0,1,.31-1.93A4.07,4.07,0,0,1,55,64.92,4,4,0,0,1,56.39,64a4.94,4.94,0,0,1,1.81-.32,5,5,0,0,1,2,.36,5,5,0,0,1,.62.32l.46.28a.6.6,0,0,0,.29.09A.4.4,0,0,0,62,64.5l.46-.73a7.05,7.05,0,0,0-.82-.62,5.6,5.6,0,0,0-1-.47,6.77,6.77,0,0,0-1.12-.29,7.5,7.5,0,0,0-1.3-.11,6.78,6.78,0,0,0-2.49.44,5.28,5.28,0,0,0-3.11,3.14,6.69,6.69,0,0,0-.43,2.46,6.62,6.62,0,0,0,.44,2.44,5.35,5.35,0,0,0,3,3.14,6.24,6.24,0,0,0,2.36.44,11.45,11.45,0,0,0,1.36-.08A7.13,7.13,0,0,0,60.58,74a5.79,5.79,0,0,0,1-.4,5.14,5.14,0,0,0,.92-.56V68.54H58.91v.9a.29.29,0,0,0,.1.23.33.33,0,0,0,.25.09h1.82v2.6c-.2.11-.41.2-.62.29a5.85,5.85,0,0,1-.67.22A5.57,5.57,0,0,1,59,73a7.89,7.89,0,0,1-.88,0,4.65,4.65,0,0,1-1.74-.32M41.37,62.42V74.21h7.26v-1.3H43v-4h4.59V67.63H43V63.72h5.66v-1.3Zm-6.08,7.84a4.09,4.09,0,0,1-.84,1.44,3.45,3.45,0,0,1-1.32.9,4.54,4.54,0,0,1-1.72.32H28.6V63.71h2.81a4.54,4.54,0,0,1,1.72.31,3.59,3.59,0,0,1,1.32.91,4.09,4.09,0,0,1,.84,1.44,6.2,6.2,0,0,1,.29,1.95,6.13,6.13,0,0,1-.29,1.94m1.51-4.35A5.37,5.37,0,0,0,35.62,64a5.24,5.24,0,0,0-1.84-1.2,6.41,6.41,0,0,0-2.37-.42H27V74.21h4.41a6.21,6.21,0,0,0,2.37-.43,5.36,5.36,0,0,0,1.84-1.19,5.42,5.42,0,0,0,1.18-1.86,6.66,6.66,0,0,0,.42-2.41,6.59,6.59,0,0,0-.42-2.41" transform="translate(-27 -17.53)"/><path class="cls-3" d="M86.14,79.43a1.27,1.27,0,0,0,0-.14.84.84,0,0,0,0-.17c0,.12.07.23.1.31l.52,1.34H85.62Zm.32-.73H86L84.69,82H85a.17.17,0,0,0,.1,0,.14.14,0,0,0,.05-.08l.31-.79H87l.3.79a.24.24,0,0,0,.06.08.15.15,0,0,0,.1,0h.34Zm-6.54,0h-.23V82h.39V79.55a.49.49,0,0,0,0-.12L82,81.92l.07.06.09,0h.23V78.7H82v2.45a.45.45,0,0,0,0,.11l-1.91-2.49L80,78.71h-.09m-3,0h-.45V82h.45Zm-4.9.35h.49a.94.94,0,0,1,.58.15.53.53,0,0,1,.19.45.58.58,0,0,1,0,.26.51.51,0,0,1-.15.21.73.73,0,0,1-.25.13,1.16,1.16,0,0,1-.34,0H72Zm.34,1.57a.26.26,0,0,1,.14,0,.15.15,0,0,1,.08.08l.86,1.18a.2.2,0,0,0,.18.09H74l-1-1.31a.47.47,0,0,0-.14-.14,1.26,1.26,0,0,0,.34-.13,1,1,0,0,0,.25-.21.74.74,0,0,0,.16-.27.88.88,0,0,0,.06-.33,1,1,0,0,0-.07-.38.77.77,0,0,0-.22-.29,1,1,0,0,0-.38-.18,2.12,2.12,0,0,0-.54-.06h-.93V82H72V80.62Zm-4.78-1.19s0-.08,0-.14a1.54,1.54,0,0,1,.05-.17,1.62,1.62,0,0,0,.1.31l.51,1.34H67.06Zm.32-.73h-.45L66.13,82h.35a.14.14,0,0,0,.09,0,.16.16,0,0,0,.06-.08l.31-.79h1.48l.31.79a.22.22,0,0,0,0,.08.17.17,0,0,0,.1,0h.34ZM62,80.81l-1.14-2a.17.17,0,0,0-.06-.06h-.42V82h.39V79.47s0-.08,0-.12l1.15,2.07a.19.19,0,0,0,.16.11h.07a.18.18,0,0,0,.16-.11l1.13-2.06v.11a.38.38,0,0,0,0,.1V82h.39V78.7h-.42a.17.17,0,0,0-.06.06l-1.12,2a.61.61,0,0,0-.05.12.5.5,0,0,0,0,.13s0-.09,0-.13L62,80.81" transform="translate(-27 -17.53)"/></g></svg>
