<?xml version="1.0" encoding="UTF-8" standalone="no"?>
<svg
   xmlns:dc="http://purl.org/dc/elements/1.1/"
   xmlns:cc="http://creativecommons.org/ns#"
   xmlns:rdf="http://www.w3.org/1999/02/22-rdf-syntax-ns#"
   xmlns:svg="http://www.w3.org/2000/svg"
   xmlns="http://www.w3.org/2000/svg"
   height="165.37582"
   width="739.59998"
   xml:space="preserve"
   viewBox="0 0 739.59999 165.37582"
   y="0px"
   x="0px"
   id="Layer_1"
   version="1.1"><metadata
   id="metadata58"><rdf:RDF><cc:Work
       rdf:about=""><dc:format>image/svg+xml</dc:format><dc:type
         rdf:resource="http://purl.org/dc/dcmitype/StillImage" /><dc:title></dc:title></cc:Work></rdf:RDF></metadata><defs
   id="defs56" />
<g
   style="fill:#ffffff"
   transform="translate(-302,-363)"
   id="g51">
	<path
   style="fill:#ffffff"
   id="path35"
   d="m 926.1,484.9 v 15 h 9 V 499 h -7.9 v -6.3 h 6.6 v -0.9 h -6.6 v -6.1 h 7.9 v -0.9 h -9 z m -13.9,0.8 h 2.8 c 1.3,0 2.4,0.3 3.1,0.8 0.7,0.5 1,1.3 1,2.4 0,0.5 -0.1,1 -0.3,1.4 -0.2,0.4 -0.5,0.8 -0.8,1.1 -0.4,0.3 -0.8,0.5 -1.3,0.7 -0.5,0.2 -1.1,0.2 -1.8,0.2 h -2.6 v -6.6 z m 1.9,7.4 c 0.1,0 0.3,0 0.4,0 0.1,0 0.2,0 0.3,0.1 l 0.2,0.1 0.2,0.2 4.8,6.1 c 0.1,0.1 0.1,0.2 0.2,0.2 0.1,0 0.2,0.1 0.3,0.1 h 0.9 l -5.2,-6.5 c -0.1,-0.2 -0.3,-0.3 -0.5,-0.4 0.7,-0.1 1.2,-0.2 1.8,-0.5 0.5,-0.2 1,-0.5 1.3,-0.9 0.4,-0.4 0.7,-0.8 0.9,-1.2 0.2,-0.5 0.3,-1 0.3,-1.6 0,-1.3 -0.4,-2.3 -1.3,-2.9 -0.9,-0.7 -2.2,-1 -3.9,-1 H 911 v 15 h 1.1 v -6.8 z m -17,5.6 c -0.6,-0.3 -1.1,-0.6 -1.4,-1.1 -0.4,-0.4 -0.7,-1 -0.9,-1.6 -0.2,-0.6 -0.3,-1.3 -0.3,-2 v -9.3 h -1.1 v 9.3 c 0,0.8 0.1,1.6 0.4,2.3 0.3,0.7 0.6,1.3 1.1,1.9 0.5,0.5 1.1,1 1.8,1.3 0.7,0.3 1.5,0.5 2.4,0.5 0.9,0 1.7,-0.2 2.4,-0.5 0.7,-0.3 1.3,-0.7 1.8,-1.3 0.5,-0.5 0.9,-1.2 1.1,-1.9 0.2,-0.7 0.4,-1.5 0.4,-2.3 v -9.3 h -1.1 v 9.3 c 0,0.7 -0.1,1.4 -0.3,2 -0.2,0.6 -0.5,1.1 -0.9,1.6 -0.4,0.4 -0.9,0.8 -1.4,1 -0.6,0.3 -1.2,0.4 -1.9,0.4 -0.9,0.1 -1.6,0 -2.1,-0.3 z m -9.5,-12.5 c -0.5,-0.5 -1.1,-0.9 -1.7,-1.1 -0.6,-0.2 -1.3,-0.4 -2.1,-0.4 -0.7,0 -1.3,0.1 -1.9,0.3 -0.5,0.2 -1,0.5 -1.4,0.9 -0.4,0.4 -0.6,0.8 -0.8,1.2 -0.2,0.5 -0.3,1 -0.3,1.5 0,0.6 0.1,1.2 0.3,1.6 0.2,0.4 0.5,0.8 0.9,1.1 0.4,0.3 0.8,0.5 1.2,0.7 0.5,0.2 0.9,0.3 1.4,0.5 0.5,0.1 0.9,0.3 1.4,0.5 0.4,0.2 0.9,0.3 1.2,0.6 0.4,0.2 0.6,0.5 0.9,0.9 0.2,0.3 0.3,0.8 0.3,1.3 0,0.5 -0.1,0.9 -0.3,1.4 -0.2,0.4 -0.4,0.8 -0.7,1.1 -0.3,0.3 -0.7,0.6 -1.2,0.7 -0.5,0.2 -1,0.3 -1.6,0.3 -0.4,0 -0.8,0 -1.2,-0.1 -0.4,-0.1 -0.6,-0.2 -0.9,-0.3 -0.3,-0.1 -0.5,-0.3 -0.7,-0.4 -0.2,-0.1 -0.4,-0.3 -0.5,-0.4 -0.1,-0.1 -0.3,-0.2 -0.4,-0.3 -0.1,-0.1 -0.2,-0.1 -0.2,-0.1 -0.1,0 -0.2,0.1 -0.3,0.2 l -0.3,0.5 c 0.5,0.6 1.2,1.1 1.9,1.4 0.7,0.3 1.6,0.5 2.6,0.5 0.8,0 1.4,-0.1 2,-0.4 0.6,-0.2 1.1,-0.6 1.5,-1 0.4,-0.4 0.7,-0.9 0.9,-1.4 0.2,-0.6 0.3,-1.1 0.3,-1.8 0,-0.6 -0.1,-1.1 -0.3,-1.5 -0.2,-0.4 -0.5,-0.8 -0.9,-1 -0.4,-0.3 -0.8,-0.5 -1.2,-0.7 -0.5,-0.2 -0.9,-0.4 -1.4,-0.5 -0.5,-0.2 -0.9,-0.3 -1.4,-0.5 -0.4,-0.2 -0.9,-0.4 -1.2,-0.6 -0.3,-0.2 -0.6,-0.5 -0.9,-0.8 -0.3,-0.3 -0.3,-0.8 -0.3,-1.3 0,-0.4 0.1,-0.8 0.2,-1.1 0.1,-0.4 0.4,-0.7 0.6,-0.9 0.3,-0.3 0.6,-0.5 1,-0.6 0.4,-0.2 0.9,-0.2 1.4,-0.2 0.5,0 1,0.1 1.4,0.2 0.4,0.1 0.7,0.3 0.9,0.4 0.2,0.2 0.4,0.3 0.6,0.4 0.1,0.1 0.3,0.2 0.4,0.2 0.1,0 0.2,-0.1 0.3,-0.2 z m -14.2,-1.3 h -1.1 v 15 h 1.1 z m -15.5,0 v 15 h 9 V 499 H 859 v -6.3 h 6.6 v -0.9 H 859 v -6.1 h 7.9 v -0.9 h -9 z m -11.8,0 H 845 v 15 h 8.2 V 499 h -7.1 z M 830,495.2 c -0.3,0.8 -0.7,1.5 -1.2,2.1 -0.5,0.6 -1.2,1 -1.9,1.3 -0.7,0.3 -1.6,0.4 -2.5,0.4 H 820 v -13.3 h 4.4 c 0.9,0 1.7,0.1 2.5,0.4 0.7,0.3 1.4,0.7 1.9,1.3 0.5,0.6 0.9,1.3 1.2,2.1 0.3,0.8 0.4,1.8 0.4,2.8 0,1.1 -0.1,2.1 -0.4,2.9 z m 1,-6 c -0.3,-0.9 -0.8,-1.7 -1.5,-2.4 -0.6,-0.7 -1.4,-1.2 -2.3,-1.5 -0.9,-0.3 -1.9,-0.5 -2.9,-0.5 h -5.5 v 15 h 5.5 c 1.1,0 2,-0.2 2.9,-0.5 0.9,-0.3 1.6,-0.8 2.3,-1.5 0.6,-0.7 1.1,-1.4 1.5,-2.4 0.3,-0.9 0.5,-2 0.5,-3.1 0.1,-1.1 -0.1,-2.1 -0.5,-3.1 z m -29.7,-4.3 h -0.5 v 15 h 1 v -12.6 c 0,-0.2 0,-0.4 0,-0.6 l 9.8,13 0.2,0.2 c 0.1,0 0.1,0 0.2,0 h 0.5 v -15 h -0.9 v 12.6 c 0,0.2 0,0.4 0,0.6 l -9.7,-13 -0.2,-0.2 c -0.2,0 -0.3,0 -0.4,0 z m -12.2,1.9 c 0,-0.1 0.1,-0.3 0.1,-0.4 0,-0.2 0.1,-0.3 0.1,-0.5 0.1,0.3 0.2,0.6 0.3,0.9 l 3.1,7.6 H 786 Z m 0.9,-1.9 h -1.1 l -6.1,15 h 0.8 c 0.1,0 0.2,0 0.3,-0.1 l 0.1,-0.2 1.8,-4.4 h 7.4 l 1.8,4.4 0.1,0.2 c 0.1,0.1 0.1,0.1 0.2,0.1 h 0.8 z m -17.1,0 h -1.1 v 15 H 780 V 499 h -7.1 z m -15.5,0 v 15 h 9 V 499 h -7.9 v -6.3 h 6.6 v -0.9 h -6.6 v -6.1 h 7.9 v -0.9 h -9 z m -14.5,0 h -1.1 v 15 h 1.1 v -7.2 h 1 c 0.2,0 0.3,0 0.4,0 0.1,0 0.2,0 0.3,0.1 l 0.2,0.1 0.2,0.2 6.3,6.5 c 0.1,0.1 0.2,0.2 0.2,0.2 0.1,0 0.2,0.1 0.4,0.1 h 0.9 l -6.9,-7.2 c -0.1,-0.1 -0.2,-0.3 -0.4,-0.3 -0.2,0 -0.3,-0.2 -0.4,-0.2 0.1,0 0.2,-0.1 0.3,-0.2 0.1,-0.1 0.2,-0.2 0.4,-0.3 l 6.6,-6.7 h -0.9 c -0.1,0 -0.3,0 -0.4,0.1 -0.1,0 -0.2,0.1 -0.3,0.2 l -6.1,6.2 -0.2,0.2 -0.2,0.1 c -0.1,0 -0.2,0 -0.3,0.1 -0.1,0 -0.2,0 -0.4,0 h -0.9 v -7 z m -12.7,1.9 c 0,-0.1 0.1,-0.3 0.1,-0.4 0,-0.2 0.1,-0.3 0.1,-0.5 0.1,0.3 0.2,0.6 0.3,0.9 l 3.1,7.6 h -6.7 z m 0.8,-1.9 h -1.1 l -6.1,15 h 0.8 c 0.1,0 0.2,0 0.3,-0.1 l 0.1,-0.2 1.8,-4.4 h 7.4 l 1.8,4.4 0.1,0.2 c 0.1,0.1 0.1,0.1 0.2,0.1 h 0.8 z m -17,0 h -1.1 v 15 h 8.2 V 499 H 714 Z" />
	<path
   style="fill:#ffffff"
   id="path37"
   d="m 1041.3,486.1 c -0.5,-0.5 -1.1,-0.9 -1.8,-1.2 -0.7,-0.3 -1.5,-0.4 -2.3,-0.4 -0.8,0 -1.4,0.1 -2,0.3 -0.6,0.2 -1.1,0.5 -1.5,0.9 -0.4,0.4 -0.7,0.8 -0.9,1.3 -0.2,0.5 -0.3,1 -0.3,1.6 0,0.7 0.1,1.2 0.3,1.7 0.2,0.5 0.5,0.8 0.8,1.1 0.3,0.3 0.7,0.6 1.2,0.7 0.4,0.2 0.9,0.4 1.3,0.5 0.5,0.1 0.9,0.3 1.3,0.4 0.4,0.1 0.8,0.3 1.2,0.5 0.3,0.2 0.6,0.4 0.8,0.7 0.2,0.3 0.3,0.7 0.3,1.1 0,0.4 -0.1,0.8 -0.2,1.1 -0.1,0.3 -0.3,0.6 -0.6,0.9 -0.3,0.2 -0.6,0.4 -1,0.6 -0.4,0.1 -0.8,0.2 -1.3,0.2 -0.4,0 -0.7,0 -1.1,-0.1 -0.4,-0.1 -0.6,-0.2 -0.8,-0.3 -0.2,-0.1 -0.5,-0.2 -0.7,-0.4 -0.2,-0.1 -0.4,-0.3 -0.5,-0.4 -0.1,-0.1 -0.3,-0.2 -0.4,-0.3 -0.1,-0.1 -0.2,-0.1 -0.3,-0.1 -0.1,0 -0.2,0 -0.3,0.1 l -0.2,0.2 -0.6,1 c 0.6,0.6 1.3,1.1 2.1,1.4 0.8,0.4 1.7,0.5 2.7,0.5 0.8,0 1.5,-0.1 2.2,-0.4 0.6,-0.2 1.2,-0.6 1.6,-1 0.4,-0.4 0.8,-0.9 1,-1.5 0.2,-0.6 0.3,-1.2 0.3,-1.9 0,-0.6 -0.1,-1.2 -0.3,-1.6 -0.2,-0.4 -0.5,-0.8 -0.8,-1.1 -0.3,-0.3 -0.7,-0.5 -1.2,-0.7 -0.4,-0.2 -0.9,-0.4 -1.3,-0.5 -0.5,-0.2 -0.9,-0.3 -1.3,-0.5 -0.4,-0.1 -0.8,-0.3 -1.2,-0.5 -0.3,-0.2 -0.6,-0.4 -0.8,-0.7 -0.2,-0.3 -0.3,-0.6 -0.3,-1.1 0,-0.3 0.1,-0.6 0.2,-0.9 0.1,-0.3 0.3,-0.5 0.5,-0.7 0.2,-0.2 0.5,-0.4 0.9,-0.5 0.4,-0.1 0.8,-0.2 1.2,-0.2 0.5,0 0.9,0.1 1.2,0.2 0.3,0.1 0.6,0.3 0.9,0.4 0.2,0.1 0.4,0.3 0.6,0.4 0.2,0.1 0.3,0.2 0.4,0.2 0.1,0 0.2,0 0.3,-0.1 0.1,-0.1 0.1,-0.1 0.2,-0.2 z m -22.6,-1.4 v 15.2 h 9.4 v -1.7 h -7.3 V 493 h 5.9 v -1.6 h -5.9 v -5.1 h 7.3 v -1.7 h -9.4 z m -16.3,0 v 1.7 h 4.9 v 13.5 h 2 v -13.5 h 4.9 v -1.7 z m -8.6,3.4 c 0.1,-0.2 0.2,-0.4 0.2,-0.6 0,-0.2 0.1,-0.5 0.2,-0.8 0.1,0.3 0.2,0.5 0.2,0.8 0.1,0.2 0.2,0.5 0.2,0.6 l 2.4,6.2 h -5.7 z m 1.5,-3.4 h -2.1 l -6.1,15.2 h 1.6 c 0.2,0 0.3,0 0.4,-0.1 0.1,-0.1 0.2,-0.2 0.2,-0.3 l 1.4,-3.7 h 6.8 l 1.4,3.7 c 0.1,0.1 0.1,0.3 0.3,0.4 0.1,0.1 0.3,0.1 0.4,0.1 h 1.6 z m -21.1,0 v 1.7 h 4.9 v 13.5 h 2 v -13.5 h 4.9 v -1.7 z m -3.7,1.4 c -0.5,-0.5 -1.1,-0.9 -1.8,-1.2 -0.7,-0.3 -1.5,-0.4 -2.3,-0.4 -0.8,0 -1.4,0.1 -2,0.3 -0.6,0.2 -1.1,0.5 -1.5,0.9 -0.4,0.4 -0.7,0.8 -0.9,1.3 -0.2,0.5 -0.3,1 -0.3,1.6 0,0.7 0.1,1.2 0.3,1.7 0.2,0.5 0.5,0.8 0.8,1.1 0.3,0.3 0.7,0.6 1.2,0.7 0.4,0.2 0.9,0.4 1.3,0.5 0.5,0.1 0.9,0.3 1.3,0.4 0.4,0.1 0.8,0.3 1.2,0.5 0.3,0.2 0.6,0.4 0.8,0.7 0.2,0.3 0.3,0.7 0.3,1.1 0,0.4 -0.1,0.8 -0.2,1.1 -0.1,0.3 -0.3,0.6 -0.6,0.9 -0.3,0.2 -0.6,0.4 -1,0.6 -0.4,0.1 -0.8,0.2 -1.3,0.2 -0.4,0 -0.7,0 -1.1,-0.1 -0.4,-0.1 -0.6,-0.2 -0.8,-0.3 -0.2,-0.1 -0.5,-0.2 -0.7,-0.4 -0.2,-0.1 -0.4,-0.3 -0.5,-0.4 -0.1,-0.1 -0.3,-0.2 -0.4,-0.3 -0.1,-0.1 -0.2,-0.1 -0.3,-0.1 -0.1,0 -0.2,0 -0.3,0.1 l -0.2,0.2 -0.6,1 c 0.6,0.6 1.3,1.1 2.1,1.4 0.8,0.4 1.7,0.5 2.7,0.5 0.8,0 1.5,-0.1 2.2,-0.4 0.6,-0.2 1.2,-0.6 1.6,-1 0.4,-0.4 0.8,-0.9 1,-1.5 0.2,-0.6 0.3,-1.2 0.3,-1.9 0,-0.6 -0.1,-1.2 -0.3,-1.6 -0.2,-0.4 -0.5,-0.8 -0.8,-1.1 -0.3,-0.3 -0.7,-0.5 -1.2,-0.7 -0.4,-0.2 -0.9,-0.4 -1.3,-0.5 -0.5,-0.2 -0.9,-0.3 -1.3,-0.5 -0.4,-0.1 -0.8,-0.3 -1.2,-0.5 -0.3,-0.2 -0.6,-0.4 -0.8,-0.7 -0.2,-0.3 -0.3,-0.6 -0.3,-1.1 0,-0.3 0.1,-0.6 0.2,-0.9 0.1,-0.3 0.3,-0.5 0.5,-0.7 0.2,-0.2 0.5,-0.4 0.9,-0.5 0.4,-0.1 0.8,-0.2 1.2,-0.2 0.5,0 0.9,0.1 1.2,0.2 0.3,0.1 0.6,0.3 0.9,0.4 0.2,0.1 0.4,0.3 0.6,0.4 0.2,0.1 0.3,0.2 0.4,0.2 0.1,0 0.2,0 0.3,-0.1 0.1,-0.1 0.1,-0.1 0.2,-0.2 z m -22.7,-1.4 v 15.2 h 9.4 v -1.7 h -7.3 V 493 h 5.9 v -1.6 h -5.9 v -5.1 h 7.3 v -1.7 h -9.4 z" />
	<path
   style="fill:#ffffff"
   id="path39"
   d="m 761.9,429.2 h -2.2 c -0.2,0 -0.4,0.1 -0.6,0.2 -0.2,0.1 -0.3,0.3 -0.4,0.5 l -10.1,16.2 c -0.2,0.4 -0.4,0.8 -0.6,1.1 -0.2,0.4 -0.3,0.7 -0.4,1.1 -0.1,-0.3 -0.3,-0.7 -0.5,-1.1 -0.2,-0.4 -0.4,-0.7 -0.6,-1.1 l -10.1,-16.2 c -0.1,-0.2 -0.2,-0.4 -0.4,-0.5 -0.2,-0.1 -0.3,-0.2 -0.6,-0.2 h -2.2 l 13.1,20.8 v 14.6 h 2.6 V 450 Z m -42.4,0 c -0.2,0 -0.4,0.1 -0.6,0.2 -0.2,0.1 -0.3,0.3 -0.3,0.5 l -8.9,29.1 c -0.1,0.3 -0.2,0.7 -0.2,1.1 -0.1,0.4 -0.2,0.8 -0.2,1.2 -0.1,-0.4 -0.2,-0.8 -0.3,-1.2 -0.1,-0.4 -0.2,-0.7 -0.3,-1 l -10,-29.1 c -0.1,-0.2 -0.2,-0.4 -0.4,-0.5 -0.1,-0.1 -0.3,-0.2 -0.6,-0.2 H 697 c -0.2,0 -0.4,0.1 -0.6,0.2 -0.2,0.1 -0.3,0.3 -0.3,0.5 L 686,459 c -0.1,0.3 -0.2,0.7 -0.3,1.1 -0.1,0.4 -0.2,0.8 -0.2,1.2 -0.2,-0.9 -0.3,-1.6 -0.5,-2.3 l -8.9,-29.1 c -0.1,-0.5 -0.4,-0.7 -0.9,-0.7 H 673 l 11.2,35.4 h 2.3 L 697,433.9 c 0.1,-0.4 0.2,-0.8 0.3,-1.3 0.1,0.5 0.2,0.9 0.4,1.3 l 10.4,30.7 h 2.3 l 11.1,-35.4 z m -65.1,0 v 29.7 c 0,0.5 0,0.9 0.1,1.4 l -22.9,-30.6 c -0.2,-0.2 -0.3,-0.3 -0.4,-0.4 -0.1,-0.1 -0.3,-0.1 -0.5,-0.1 h -1.3 v 35.4 h 2.2 v -29.8 c 0,-0.4 0,-0.9 -0.1,-1.4 l 23,30.7 c 0.1,0.2 0.3,0.3 0.4,0.4 0.1,0.1 0.3,0.1 0.5,0.1 h 1.2 v -35.4 z m -55.5,0 h -2.5 l -14.5,35.4 h 2 c 0.2,0 0.4,-0.1 0.6,-0.2 0.2,-0.1 0.3,-0.3 0.3,-0.5 l 4.2,-10.3 h 17.4 l 4.1,10.3 c 0.1,0.2 0.2,0.4 0.4,0.5 0.1,0.1 0.3,0.2 0.6,0.2 h 2 z m -9.1,22.5 7.2,-17.9 c 0.1,-0.3 0.3,-0.6 0.4,-1 0.1,-0.4 0.2,-0.7 0.3,-1.1 0.2,0.8 0.5,1.5 0.7,2.1 l 7.2,17.9 z m -31.4,-3.2 v 1.4 c 0,0.2 0.1,0.3 0.2,0.4 0.1,0.1 0.3,0.2 0.5,0.2 h 6.8 v 9.5 c -0.8,0.5 -1.6,0.9 -2.3,1.2 -0.8,0.4 -1.5,0.7 -2.4,0.9 -0.8,0.2 -1.7,0.4 -2.5,0.6 -0.9,0.1 -1.9,0.2 -2.9,0.2 -2.4,0 -4.6,-0.4 -6.5,-1.1 -1.9,-0.7 -3.5,-1.8 -4.9,-3.2 -1.3,-1.4 -2.4,-3.1 -3.1,-5 -0.7,-1.9 -1.1,-4.2 -1.1,-6.7 0,-2.5 0.4,-4.7 1.1,-6.6 0.7,-2 1.7,-3.6 3,-5 1.3,-1.4 2.9,-2.4 4.8,-3.1 1.9,-0.7 3.9,-1.1 6.2,-1.1 1.7,0 3.2,0.2 4.4,0.5 1.2,0.3 2.2,0.7 3,1.1 0.8,0.4 1.5,0.8 1.9,1.2 0.5,0.4 0.8,0.6 1.1,0.7 0.5,0.2 0.8,0.1 1.1,-0.3 l 0.7,-1.1 c -0.8,-0.7 -1.6,-1.3 -2.4,-1.8 -0.9,-0.5 -1.8,-1 -2.8,-1.3 -1,-0.4 -2,-0.6 -3.2,-0.8 -1.1,-0.2 -2.4,-0.3 -3.7,-0.3 -2.7,0 -5.2,0.4 -7.4,1.3 -2.2,0.9 -4,2.1 -5.6,3.6 -1.5,1.6 -2.7,3.5 -3.5,5.7 -0.8,2.2 -1.2,4.7 -1.2,7.4 0,2.7 0.4,5.2 1.3,7.5 0.8,2.2 2,4.1 3.6,5.7 1.6,1.6 3.5,2.8 5.7,3.6 2.2,0.8 4.8,1.3 7.6,1.3 2.5,0 4.8,-0.3 6.8,-1 2,-0.7 3.9,-1.6 5.6,-2.9 v -12.6 h -9.9 z m -54.1,14 v -14.8 h 15.5 v -2.1 h -15.5 v -14.3 h 18.6 v -2.1 h -21.2 v 35.4 h 21.2 l 0.1,-2.1 z m -24.5,-9 c -0.7,1.9 -1.6,3.6 -2.9,4.9 -1.3,1.3 -2.8,2.3 -4.5,3 -1.7,0.7 -3.7,1 -5.8,1 h -10.4 v -31.2 h 10.4 c 2.1,0 4.1,0.3 5.8,1 1.7,0.7 3.2,1.7 4.5,3 1.2,1.3 2.2,3 2.9,4.9 0.7,1.9 1,4.1 1,6.6 0.1,2.7 -0.3,4.9 -1,6.8 z m 2.5,-14 c -0.8,-2.2 -2,-4 -3.4,-5.6 -1.5,-1.5 -3.3,-2.7 -5.3,-3.5 -2.1,-0.8 -4.4,-1.2 -6.9,-1.2 h -12.9 v 35.4 h 12.9 c 2.5,0 4.8,-0.4 6.9,-1.2 2.1,-0.8 3.9,-2 5.3,-3.5 1.5,-1.5 2.6,-3.4 3.4,-5.6 0.8,-2.2 1.2,-4.6 1.2,-7.4 0,-2.7 -0.4,-5.2 -1.2,-7.4 z" />
	<path
   style="fill:#ffffff"
   id="path41"
   d="m 1027.3,428.8 h -4.9 l -14.3,35.8 h 3.8 c 0.4,0 0.8,-0.1 1,-0.3 0.3,-0.2 0.5,-0.5 0.6,-0.8 l 3.3,-8.6 h 16.1 l 3.3,8.6 c 0.1,0.3 0.3,0.6 0.6,0.8 0.3,0.2 0.6,0.3 1,0.3 h 3.8 z m -9.2,22.5 5.6,-14.5 c 0.4,-0.9 0.7,-2 1.1,-3.4 0.2,0.6 0.3,1.3 0.5,1.8 0.2,0.6 0.4,1.1 0.5,1.5 l 5.6,14.6 z m -29,-22.5 v 25.4 c 0,0.4 0,0.8 0,1.2 0,0.4 0.1,0.8 0.1,1.3 l -20.7,-27 c -0.1,-0.2 -0.3,-0.3 -0.4,-0.4 -0.1,-0.1 -0.2,-0.2 -0.3,-0.2 -0.1,-0.1 -0.2,-0.1 -0.4,-0.1 -0.2,0 -0.3,0 -0.5,0 h -2.5 v 35.8 h 4.2 v -25.5 c 0,-0.3 0,-0.7 0,-1.1 0,-0.4 0,-0.8 -0.1,-1.2 l 20.7,27 c 0.2,0.3 0.5,0.5 0.8,0.7 0.3,0.1 0.6,0.2 1,0.2 h 2.4 v -35.8 h -4.3 z m -44,0 h -4.8 v 35.8 h 4.8 z M 915,450.4 c -0.4,-0.7 -1,-1.2 -1.6,-1.5 1.4,-0.3 2.6,-0.8 3.7,-1.4 1.1,-0.6 2,-1.4 2.8,-2.2 0.8,-0.8 1.3,-1.9 1.7,-3 0.4,-1.1 0.6,-2.3 0.6,-3.6 0,-1.5 -0.3,-2.9 -0.8,-4.1 -0.5,-1.2 -1.3,-2.3 -2.4,-3.1 -1.1,-0.9 -2.4,-1.5 -4.1,-2 -1.7,-0.5 -3.6,-0.7 -5.9,-0.7 h -10 v 35.8 h 4.8 v -15 h 3.7 c 0.7,0 1.2,0.1 1.5,0.3 0.3,0.2 0.6,0.5 0.9,0.9 l 9.3,12.8 c 0.4,0.7 1.1,1 2,1 h 4.3 z m -11.2,-4.3 v -13.5 h 5.3 c 2.8,0 4.9,0.5 6.3,1.6 1.4,1.1 2.1,2.7 2.1,4.8 0,1 -0.2,2 -0.5,2.9 -0.3,0.9 -0.9,1.6 -1.6,2.2 -0.7,0.6 -1.6,1.1 -2.7,1.5 -1.1,0.3 -2.3,0.5 -3.7,0.5 z M 869.9,428.8 H 865 l -14.3,35.8 h 3.8 c 0.4,0 0.8,-0.1 1,-0.3 0.3,-0.2 0.5,-0.5 0.6,-0.8 l 3.3,-8.6 h 16.1 l 3.3,8.6 c 0.1,0.3 0.3,0.6 0.6,0.8 0.3,0.2 0.6,0.3 1,0.3 h 3.8 z m -9.1,22.5 5.6,-14.5 c 0.4,-0.9 0.7,-2 1.1,-3.4 0.2,0.6 0.3,1.3 0.5,1.8 0.2,0.6 0.4,1.1 0.5,1.5 l 5.6,14.6 z m -28.4,-22.5 c -0.4,0 -0.8,0 -1,0.1 -0.2,0.1 -0.5,0.3 -0.7,0.7 l -12.1,22 c -0.2,0.4 -0.4,0.8 -0.6,1.3 -0.2,0.4 -0.4,0.9 -0.5,1.3 -0.2,-0.5 -0.3,-0.9 -0.5,-1.3 -0.2,-0.4 -0.4,-0.8 -0.6,-1.2 l -12.4,-22 c -0.2,-0.4 -0.4,-0.6 -0.7,-0.7 -0.2,-0.1 -0.6,-0.1 -1,-0.1 h -3.6 v 35.8 h 4.2 v -26.3 c 0,-0.8 0,-1.6 -0.2,-2.5 l 12.5,22.5 c 0.4,0.8 1,1.1 1.8,1.1 h 0.7 c 0.8,0 1.4,-0.4 1.8,-1.1 L 831.8,436 c 0,0.4 -0.1,0.8 -0.1,1.2 0,0.4 0,0.8 0,1.1 v 26.3 h 4.2 v -35.8 z" />
	<path
   style="fill:#ffffff"
   id="path43"
   d="M 381.2,485.3 V 364.2 c 0,-0.6 -0.5,-1.2 -1.2,-1.2 -0.7,0 -1.2,0.5 -1.2,1.2 V 485.4 H 302 c 0,0 75.3,46.7 124.3,0 h -45.1 z" />
	<path
   style="fill:#ffffff"
   id="path45"
   d="m 375.6,475.7 v -95.6 c 0,0 -36.2,71.3 -55.6,95.7 0.1,0 55.6,-0.5 55.6,-0.1 z" />
	<path
   style="fill:#ffffff"
   id="path47"
   d="m 379.8,372 c 0,0 28.2,41.4 4.7,103.5 h 37.4 c 0,0 28.5,-70.8 -42.1,-103.5 z" />
	<path
   style="fill:#ffffff"
   id="path49"
   d="m 385.5,513.7 c 0,0 -7.6,8.1 -19.9,8.1 -12.3,0 -19.9,-8.1 -19.9,-8.1 -8.4,16.5 -41,10.5 -41,10.5 27.4,11.5 41.6,-4.4 41.6,-4.4 1.6,1.8 3.5,3.3 5.7,4.5 1.8,1 3.7,1.8 5.7,2.3 1.6,0.4 3.2,0.7 4.8,0.9 1.7,0.2 3.4,0.2 5.1,0.1 1.4,-0.1 2.8,-0.2 4.1,-0.5 1.8,-0.4 3.7,-0.9 5.4,-1.7 2,-0.9 4,-2 5.7,-3.5 0.8,-0.7 1.5,-1.4 2.2,-2.2 0,0 14.1,15.9 41.6,4.4 0,0.1 -32.7,6.1 -41.1,-10.4 z" />
</g>
</svg>