<svg xmlns="http://www.w3.org/2000/svg" viewBox="0 0 47.2 49.54"><defs><style>.cls-1{fill:#ffffff;}</style></defs><g id="Layer_2" data-name="Layer 2"><g id="Layer_1-2" data-name="Layer 1"><path class="cls-1" d="M.39,16.46a8.87,8.87,0,0,1,3-9.61A31.41,31.41,0,0,1,20.24.17l.53,0a32.73,32.73,0,0,1,5.66,0l.55,0a31.42,31.42,0,0,1,16.8,6.68,8.88,8.88,0,0,1,3,9.61q-.08.26-.19.53l-.27.7a3.45,3.45,0,0,1-3.68,2.17l-7.61-1a3.22,3.22,0,0,1-2.79-3.18V11.22a14.26,14.26,0,0,0-7.11-2.63h-.27a15.37,15.37,0,0,0-2.63,0H22a14.27,14.27,0,0,0-7.11,2.63v4.44a3.21,3.21,0,0,1-2.79,3.18l-7.58,1A3.45,3.45,0,0,1,.85,17.68L.58,17A2.4,2.4,0,0,1,.39,16.46Zm13.67,14a3.4,3.4,0,1,0-3.4-3.4,3.4,3.4,0,0,0,3.4,3.4Zm9.53,0a3.4,3.4,0,1,0-3.4-3.4,3.4,3.4,0,0,0,3.4,3.4Zm9.55,0a3.4,3.4,0,1,0-3.4-3.4,3.4,3.4,0,0,0,3.4,3.4ZM23.59,49.54a3.4,3.4,0,1,0-3.4-3.4,3.4,3.4,0,0,0,3.4,3.4Zm0-9.52a3.4,3.4,0,1,0-3.4-3.4,3.4,3.4,0,0,0,3.4,3.4Zm9.55,0a3.4,3.4,0,1,0-3.4-3.4,3.4,3.4,0,0,0,3.4,3.4ZM14,40a3.4,3.4,0,1,0-3.4-3.4A3.4,3.4,0,0,0,14,40Z"/></g></g></svg>