<svg id="Layer_1" data-name="Layer 1" xmlns="http://www.w3.org/2000/svg" xmlns:xlink="http://www.w3.org/1999/xlink" viewBox="0 0 219.62 63.32"><defs><style>.cls-1{fill:none;}.cls-2{clip-path:url(#clip-path);}.cls-3{fill:#fff;}</style></defs><title>Gamekeeper&amp;apos;s Inn Logo [2019]</title><g class="cls-2"><path class="cls-3" d="M226.07,62.81h-.8V74.34h1.36V65.77l0-.39,6.67,8.68a.63.63,0,0,0,.25.22.71.71,0,0,0,.31.06h.79V62.81h-1.37V71c0,.12,0,.25,0,.38a2.93,2.93,0,0,0,0,.41l-6.68-8.69a.7.7,0,0,0-.23-.21.63.63,0,0,0-.31-.06m-14.1,0h-.8V74.34h1.37V66.13c0-.11,0-.23,0-.36l0-.39,6.68,8.68a.69.69,0,0,0,.24.22.71.71,0,0,0,.31.06h.79V62.81h-1.37V71c0,.12,0,.25,0,.38s0,.27,0,.41l-6.68-8.69a.61.61,0,0,0-.23-.21.63.63,0,0,0-.31-.06m-5.82,0h-1.56V74.34h1.56Zm-11.07,1.07a4,4,0,0,0-1.39-.89,5,5,0,0,0-1.76-.31,4.05,4.05,0,0,0-1.53.27,3.31,3.31,0,0,0-1.11.71,3.06,3.06,0,0,0-.93,2.2,3.08,3.08,0,0,0,.24,1.28,2.75,2.75,0,0,0,.62.86,3.5,3.5,0,0,0,.88.57c.33.14.67.27,1,.38l1,.32a4.48,4.48,0,0,1,.88.38,2,2,0,0,1,.63.56,1.46,1.46,0,0,1,.24.86,2.16,2.16,0,0,1-.17.86,1.71,1.71,0,0,1-.46.66,2.17,2.17,0,0,1-.74.44,2.93,2.93,0,0,1-1,.15A3.08,3.08,0,0,1,190.4,73a4.14,4.14,0,0,1-.79-.4c-.22-.15-.4-.28-.55-.4a.62.62,0,0,0-.38-.18.37.37,0,0,0-.21.06.54.54,0,0,0-.15.15l-.46.74a4.82,4.82,0,0,0,1.58,1.1,5,5,0,0,0,2,.4,4.48,4.48,0,0,0,1.64-.28,3.49,3.49,0,0,0,1.21-.77,3.23,3.23,0,0,0,.75-1.16,3.9,3.9,0,0,0,.26-1.42,2.7,2.7,0,0,0-.24-1.2,2.48,2.48,0,0,0-.62-.83,3.72,3.72,0,0,0-.89-.56c-.33-.15-.67-.28-1-.4l-1-.34a4.76,4.76,0,0,1-.88-.39,2.09,2.09,0,0,1-.63-.54,1.32,1.32,0,0,1-.24-.81,1.82,1.82,0,0,1,.14-.7,1.64,1.64,0,0,1,.4-.57,2.11,2.11,0,0,1,.68-.38A2.82,2.82,0,0,1,192,64a2.93,2.93,0,0,1,1,.14,3.83,3.83,0,0,1,.67.3q.27.17.45.3a.61.61,0,0,0,.32.14.33.33,0,0,0,.21-.06.55.55,0,0,0,.15-.18Zm-11.72-1.32a.3.3,0,0,0-.22.29.32.32,0,0,0,.06.17,2.61,2.61,0,0,1,.26.58,2,2,0,0,1,.08.53,1.7,1.7,0,0,1-.06.46,3,3,0,0,1-.15.42c-.07.13-.14.25-.22.37a2.3,2.3,0,0,1-.25.34.24.24,0,0,0-.08.19.36.36,0,0,0,0,.1.22.22,0,0,0,.08.09l.45.27a4.51,4.51,0,0,0,1-1.22,2.89,2.89,0,0,0,.36-1.4,3,3,0,0,0-.11-.77,3.19,3.19,0,0,0-.33-.77ZM172.87,64h1.71a3.25,3.25,0,0,1,2,.53,1.81,1.81,0,0,1,.68,1.55,2.52,2.52,0,0,1-.17.93,2,2,0,0,1-.53.72,2.49,2.49,0,0,1-.87.46,4,4,0,0,1-1.2.17h-1.64Zm1.19,5.49a1,1,0,0,1,.48.09.93.93,0,0,1,.3.27l3,4.12a.68.68,0,0,0,.63.33h1.38l-3.36-4.57a1.51,1.51,0,0,0-.52-.49,4.61,4.61,0,0,0,1.2-.46,3,3,0,0,0,.89-.72,3.14,3.14,0,0,0,.56-.95A3.25,3.25,0,0,0,178.8,66a3.35,3.35,0,0,0-.25-1.33,2.58,2.58,0,0,0-.76-1,3.87,3.87,0,0,0-1.32-.64,7.43,7.43,0,0,0-1.89-.22h-3.26V74.34h1.55V69.53Zm-14.18-6.72V74.34H167V73.07h-5.53V69.14h4.48V67.92h-4.48V64.08H167V62.81Zm-10,1.23h1.85a3,3,0,0,1,2,.62,2.21,2.21,0,0,1,.68,1.73,2.74,2.74,0,0,1-.17,1,2,2,0,0,1-.53.76,2.45,2.45,0,0,1-.85.5,3.91,3.91,0,0,1-1.18.17h-1.85Zm1.85,6a5.79,5.79,0,0,0,1.84-.27,3.82,3.82,0,0,0,1.35-.75,3.12,3.12,0,0,0,.82-1.15,3.74,3.74,0,0,0,.28-1.47,3.87,3.87,0,0,0-.26-1.48,2.86,2.86,0,0,0-.79-1.12,3.65,3.65,0,0,0-1.34-.72,6.32,6.32,0,0,0-1.9-.26h-3.41V74.34h1.56V70Zm-14.85-7.22V74.34h7.11V73.07H138.4V69.14h4.48V67.92H138.4V64.08h5.54V62.81Zm-11.28,0V74.34h7.1V73.07h-5.53V69.14h4.48V67.92h-4.48V64.08h5.53V62.81Zm-11.18,0h-1.55V74.34h1.55V69.07h.71a1.62,1.62,0,0,1,.33,0,.86.86,0,0,1,.23.06l.18.12.16.17L120,74l.13.14.14.11.19.06a.94.94,0,0,0,.25,0H122l-4.58-5.46a4.07,4.07,0,0,0-.36-.36,1.07,1.07,0,0,0-.39-.22,1.26,1.26,0,0,0,.32-.21,3,3,0,0,0,.31-.31l4.4-5h-1.33a.87.87,0,0,0-.42.09,1.05,1.05,0,0,0-.34.28l-3.84,4.35a1,1,0,0,1-.34.26,1.36,1.36,0,0,1-.49.08h-.59Zm-13,0V74.34h7.1V73.07h-5.54V69.14h4.49V67.92h-4.49V64.08h5.54V62.81ZM90.31,70.18l-4-7.1a.49.49,0,0,0-.22-.23,1.19,1.19,0,0,0-.32,0H84.64V74.34H86V65.87c0-.11,0-.23,0-.37s0-.27,0-.41l4,7.24a.61.61,0,0,0,.56.36h.23a.62.62,0,0,0,.56-.36l4-7.22c0,.14,0,.27,0,.4s0,.25,0,.36v8.47h1.37V62.81H95.49a1.34,1.34,0,0,0-.33,0,.53.53,0,0,0-.21.23L91,70.17l-.2.41c-.06.14-.11.28-.17.43,0-.14-.1-.28-.16-.43a3,3,0,0,0-.2-.4m-14.8-4.8c0-.14.1-.3.16-.49s.11-.38.17-.6a9.89,9.89,0,0,0,.35,1.08L78,70.06H73.69Zm1.13-2.57H75.05L70.44,74.34h1.21a.5.5,0,0,0,.34-.11.61.61,0,0,0,.19-.26l1.08-2.78h5.17L79.51,74a.68.68,0,0,0,.2.27.48.48,0,0,0,.33.1h1.21ZM61.46,72.9A3.79,3.79,0,0,1,60.12,72a4,4,0,0,1-.87-1.46,6.26,6.26,0,0,1,0-3.83,4.15,4.15,0,0,1,.86-1.44,3.84,3.84,0,0,1,1.34-.91A4.71,4.71,0,0,1,63.19,64a5.63,5.63,0,0,1,1.16.1,6.08,6.08,0,0,1,.84.25,4.9,4.9,0,0,1,.61.31l.45.28a.57.57,0,0,0,.28.09.43.43,0,0,0,.36-.22l.44-.71a6,6,0,0,0-.8-.61,4.45,4.45,0,0,0-.93-.45,5.12,5.12,0,0,0-1.09-.29,7.15,7.15,0,0,0-1.27-.11,6.75,6.75,0,0,0-2.44.43,5.42,5.42,0,0,0-1.86,1.2,5.23,5.23,0,0,0-1.18,1.87,7,7,0,0,0,0,4.79,5.68,5.68,0,0,0,1.18,1.87A5.35,5.35,0,0,0,60.75,74a5.89,5.89,0,0,0,2.3.43,11,11,0,0,0,1.33-.07,6.56,6.56,0,0,0,1.14-.24,5.29,5.29,0,0,0,1-.39,6,6,0,0,0,.9-.54V68.8H63.89v.89a.26.26,0,0,0,.1.21.32.32,0,0,0,.24.09H66v2.54a6.67,6.67,0,0,1-.61.29,5.68,5.68,0,0,1-.66.21,5.25,5.25,0,0,1-.73.14,7.64,7.64,0,0,1-.86,0,4.44,4.44,0,0,1-1.7-.31M41.7,62.81V74.34h7.11V73.07H43.27V69.14h4.48V67.92H43.27V64.08h5.54V62.81Zm-4.75,0H35.38V68H29.17V62.81H27.6V74.34h1.57V69.1h6.21v5.24H37Zm-22,0v1.32h3.74V74.34H20.3V64.13H24V62.81Z" transform="translate(-15 -18.68)"/><path class="cls-3" d="M155.9,78.74h-.43V82h.43V80.49h.29l.07,0,.05,0s0,0,.05,0l1.11,1.28a.08.08,0,0,0,0,0l0,0,0,0h.45l-1.29-1.53a.47.47,0,0,0-.1-.1l-.11-.06a.15.15,0,0,0,.09-.06l.09-.08L158,78.74h-.37a.22.22,0,0,0-.21.1l-1.08,1.22-.09.07-.14,0h-.17Zm-4.74.34h.47a.92.92,0,0,1,.57.15.49.49,0,0,1,.19.43.71.71,0,0,1,0,.26.43.43,0,0,1-.15.2.55.55,0,0,1-.24.13,1.16,1.16,0,0,1-.34,0h-.45Zm.33,1.54a.24.24,0,0,1,.13,0,.32.32,0,0,1,.09.08l.83,1.15a.2.2,0,0,0,.18.09h.39l-1-1.28a.62.62,0,0,0-.14-.14,1.14,1.14,0,0,0,.34-.12,1.22,1.22,0,0,0,.25-.2.89.89,0,0,0,.15-.27.87.87,0,0,0,.06-.32,1.06,1.06,0,0,0-.07-.37.67.67,0,0,0-.22-.28,1,1,0,0,0-.37-.18,2,2,0,0,0-.53-.06h-.91V82h.44V80.62Zm-4.68-1.17a.89.89,0,0,0,.05-.13,1.54,1.54,0,0,1,0-.17,2.82,2.82,0,0,0,.09.3l.51,1.32H146.3Zm.32-.71h-.44L145.39,82h.34a.17.17,0,0,0,.1,0,.18.18,0,0,0,0-.07l.3-.78h1.45l.3.78s0,.06.06.07a.12.12,0,0,0,.09,0h.34Zm-5.18.34h.52a.87.87,0,0,1,.58.17.66.66,0,0,1,.19.49.76.76,0,0,1-.05.27.51.51,0,0,1-.15.21.57.57,0,0,1-.24.14,1,1,0,0,1-.33,0H142Zm.52,1.68a1.62,1.62,0,0,0,.52-.08,1,1,0,0,0,.37-.21.93.93,0,0,0,.24-.32,1.1,1.1,0,0,0,.07-.41,1.12,1.12,0,0,0-.07-.42.84.84,0,0,0-.22-.31.86.86,0,0,0-.38-.2,1.66,1.66,0,0,0-.53-.07h-.95V82H142v-1.2ZM136.28,79a1,1,0,0,0-.39-.24,1.3,1.3,0,0,0-.49-.09,1.14,1.14,0,0,0-.43.07,1,1,0,0,0-.31.2.7.7,0,0,0-.19.29.72.72,0,0,0-.07.33.8.8,0,0,0,.07.36.81.81,0,0,0,.17.24.89.89,0,0,0,.25.16l.28.1.28.09a1.17,1.17,0,0,1,.25.11.55.55,0,0,1,.18.16.43.43,0,0,1,.06.24.61.61,0,0,1,0,.24.59.59,0,0,1-.13.18.45.45,0,0,1-.21.12.78.78,0,0,1-.28,0,.91.91,0,0,1-.31,0l-.22-.11-.16-.12a.19.19,0,0,0-.1,0l-.06,0,0,0-.13.21a1.4,1.4,0,0,0,.44.31,1.48,1.48,0,0,0,.57.11,1.34,1.34,0,0,0,.46-.08,1,1,0,0,0,.34-.21,1,1,0,0,0,.21-.33,1,1,0,0,0,.07-.4.81.81,0,0,0-.06-.33.89.89,0,0,0-.18-.24,1,1,0,0,0-.25-.15l-.28-.11-.29-.1a1.33,1.33,0,0,1-.24-.11.45.45,0,0,1-.18-.15.42.42,0,0,1-.07-.23.58.58,0,0,1,0-.19.48.48,0,0,1,.12-.16.54.54,0,0,1,.18-.11,1.09,1.09,0,0,1,.26,0,.7.7,0,0,1,.27,0l.19.08.12.09a.16.16,0,0,0,.09,0l.06,0a.1.1,0,0,0,0-.05Zm-6.23-.29V82h2v-.35h-1.55v-1.1h1.26v-.35h-1.26V79.09H132v-.35Zm-2.63,0H127v1.44h-1.74V78.74h-.44V82h.44V80.5H127V82h.44Zm-5.1.29a1,1,0,0,0-.39-.24,1.26,1.26,0,0,0-.49-.09,1.18,1.18,0,0,0-.43.07,1.1,1.1,0,0,0-.31.2.81.81,0,0,0-.19.29.72.72,0,0,0-.07.33.8.8,0,0,0,.07.36.81.81,0,0,0,.17.24,1.32,1.32,0,0,0,.25.16l.28.1.29.09a1.33,1.33,0,0,1,.24.11.4.4,0,0,1,.18.16.43.43,0,0,1,.07.24.6.6,0,0,1,0,.24.46.46,0,0,1-.13.18.37.37,0,0,1-.2.12.87.87,0,0,1-.28,0,1,1,0,0,1-.32,0,2.25,2.25,0,0,1-.22-.11l-.15-.12a.21.21,0,0,0-.11,0l-.06,0,0,0-.13.21a1.4,1.4,0,0,0,.44.31,1.56,1.56,0,0,0,.57.11,1.26,1.26,0,0,0,.46-.08.89.89,0,0,0,.34-.21.78.78,0,0,0,.21-.33,1,1,0,0,0,.08-.4.81.81,0,0,0-.07-.33.61.61,0,0,0-.18-.24,1,1,0,0,0-.24-.15l-.29-.11-.28-.1-.25-.11a.65.65,0,0,1-.18-.15.41.41,0,0,1-.06-.23.41.41,0,0,1,0-.19.36.36,0,0,1,.11-.16.5.5,0,0,1,.19-.11,1,1,0,0,1,.26,0,.68.68,0,0,1,.26,0l.19.08.13.09a.12.12,0,0,0,.09,0l.06,0,0-.05Zm-5.62.42a.89.89,0,0,0,0-.13s0-.11,0-.17c0,.12.07.22.1.3l.51,1.32h-1.21Zm.32-.71h-.45L115.28,82h.34a.17.17,0,0,0,.1,0,.18.18,0,0,0,0-.07l.3-.78h1.45l.3.78a.11.11,0,0,0,.06.07.12.12,0,0,0,.09,0h.34Zm-8.28,2.82a1,1,0,0,1-.37-.26,1.09,1.09,0,0,1-.25-.4,1.82,1.82,0,0,1-.08-.55,1.51,1.51,0,0,1,.08-.53,1.33,1.33,0,0,1,.24-.4,1,1,0,0,1,.38-.25,1.26,1.26,0,0,1,.49-.09,1.51,1.51,0,0,1,.32,0l.24.07.17.08.12.08.08,0a.11.11,0,0,0,.1-.06l.13-.2a1.24,1.24,0,0,0-.23-.17,1.05,1.05,0,0,0-.26-.13,1.32,1.32,0,0,0-.3-.08,2,2,0,0,0-.36,0,1.83,1.83,0,0,0-.68.12,1.35,1.35,0,0,0-.52.34,1.22,1.22,0,0,0-.33.52,1.78,1.78,0,0,0-.12.67,1.81,1.81,0,0,0,.12.67,1.54,1.54,0,0,0,.33.52,1.43,1.43,0,0,0,.5.34,1.71,1.71,0,0,0,.65.12l.37,0,.32-.07a1.36,1.36,0,0,0,.28-.11,1.74,1.74,0,0,0,.26-.15V80.41h-1v.25a.09.09,0,0,0,0,.06.09.09,0,0,0,.07,0h.5v.71l-.17.08-.18.06a1.52,1.52,0,0,1-.21,0l-.24,0a1.28,1.28,0,0,1-.48-.09m-6-2.82h-.22V82h.38v-2.4a.37.37,0,0,1,0-.11l1.87,2.44.07.06h.3V78.74h-.38v2.39s0,.07,0,.11l-1.87-2.43-.06-.06h-.09m-3.2,2.14a1.05,1.05,0,0,1-.23.4,1,1,0,0,1-.36.25,1.27,1.27,0,0,1-.94,0,1,1,0,0,1-.36-.25,1.22,1.22,0,0,1-.24-.4,1.8,1.8,0,0,1,0-1.06,1.22,1.22,0,0,1,.24-.4.9.9,0,0,1,.36-.25,1.27,1.27,0,0,1,.94,0,.9.9,0,0,1,.36.25,1.05,1.05,0,0,1,.23.4,1.8,1.8,0,0,1,0,1.06m.42-1.19a1.49,1.49,0,0,0-.83-.87,1.71,1.71,0,0,0-.65-.12,1.67,1.67,0,0,0-.65.12,1.48,1.48,0,0,0-.5.34,1.59,1.59,0,0,0-.33.53,2,2,0,0,0-.11.66A2.09,2.09,0,0,0,97,81a1.65,1.65,0,0,0,.33.52,1.48,1.48,0,0,0,.5.34,1.67,1.67,0,0,0,.65.12,1.71,1.71,0,0,0,.65-.12,1.58,1.58,0,0,0,.5-.34A1.65,1.65,0,0,0,100,81a2.09,2.09,0,0,0,.11-.67,2,2,0,0,0-.11-.66m-6.43-1H93.1V82h1.83V81.6H93.54Z" transform="translate(-15 -18.68)"/><path class="cls-3" d="M120.82,36.2s-.12.08-.07.14.07,0,.11-.06.11,0,.17-.08-.14,0-.21,0m-3.76,6.09s0-.06,0-.09-.06,0-.08,0a.32.32,0,0,0,0,.26l.12-.21m8.7-13a.22.22,0,0,0-.2.07s0,.06,0,.06.15,0,.18,0,0-.09,0-.09m5.64-1c-.16-.15-.22-.14-.33,0,.12,0,.2-.1.33,0m-6.73,8.14s0,.06,0,.08.17-.06.24-.13-.2-.11-.25,0m-2.52-9.91a1,1,0,0,0-.18.38.48.48,0,0,0,.18-.38m4.92,8.21a.33.33,0,0,0,.37.07c-.11-.11-.25,0-.37-.07M114.86,28s0,.07.08,0,0-.05,0-.09a.65.65,0,0,0-.26-.17l.19.24m1.24,1.71c-.15,0-.17-.22-.36-.26.1.16.16.28.36.26m1.44-2.1c.07-.17,0-.24-.13-.34,0,.16.07.23.13.34m5.33-4.76a.55.55,0,0,0-.21.45,1.67,1.67,0,0,0,.21-.45m-.56,7.39c.17.06.17.06.28-.14a.35.35,0,0,0-.28.14m-4.14,7.19a.93.93,0,0,0,.32-.36c-.16.1-.29.15-.32.36m21.07-17.73a.49.49,0,0,0-.42,0c.13,0,.25.13.42,0m-1.5.24s0-.07,0-.09a.18.18,0,0,0-.21,0c-.05,0,0,.06,0,.09s.14.05.21,0m-1.48,9.49s0-.05,0-.07-.15,0-.2.08a0,0,0,0,0,0,.08c.12,0,.16,0,.22-.09m-17.65,7.21c-.09,0-.13.07-.19.13s0,.07,0,.1.1-.06.14-.09.1-.11,0-.14m3.18-7a.52.52,0,0,0,.24-.51,3.38,3.38,0,0,1-.24.51M121,39.83c.11,0,.19,0,.28-.08s0,0,0,0-.19-.05-.26,0,0,.11,0,.12m15.47-10.4s.09.07.1,0,.11-.15,0-.22-.1.06-.15.09,0,.1,0,.13m-.91,2.13a.1.1,0,0,0-.11.08s0,.05.08.07a.45.45,0,0,0,.35-.18.52.52,0,0,1-.32,0M115.79,52.19l.31.37c0-.19,0-.41-.31-.37m4.44-20.68s0-.06,0-.08-.07,0-.09,0a1.1,1.1,0,0,0-.17.4l.05,0,.22-.39m3.4,8.27a.72.72,0,0,0-.74-.21,1.77,1.77,0,0,1,.74.21m-6.11-10.71a.17.17,0,0,1,0,.17c-.07.09,0,.11,0,.17a0,0,0,0,0,.06,0,.14.14,0,0,0,0-.16.89.89,0,0,1-.08-.45c-.06.11-.15.17,0,.27m4.92,11.44a2.09,2.09,0,0,1,.22.2c.07-.11.18-.06.28-.06a.49.49,0,0,0-.5-.14M118.6,36.2c.08,0,.17,0,.22-.05s.05-.13,0-.18-.14,0-.18.1-.09.09,0,.13m-4.22,2.35a1,1,0,0,0,.29.72c0-.28-.25-.46-.29-.72M125.93,40a1.11,1.11,0,0,0-.68-.32,1.79,1.79,0,0,0,.68.32m-8.15,1.22s0-.1-.1-.09-.06.06-.07.1a.29.29,0,0,1,0,.09c0,.06-.11.12,0,.17s.13,0,.16-.09.08-.12,0-.18m14.3-14.26s.08,0,.1-.05,0-.08-.07-.09a.81.81,0,0,0-.51,0c.15.06.32.06.48.13m-1.16,7.26s0,.08,0,.12,0,.08.07.05.29,0,.42-.14a.8.8,0,0,0-.48,0m-13.06-5.63a1,1,0,0,0-.22-.76c.07.25.17.5.22.76m-3.23,15.62s.08.08.13.06a.09.09,0,0,0,0-.13,1.52,1.52,0,0,0-.55-.48,2.91,2.91,0,0,1,.41.55M130,20.52c0,.06.18.16.2.14a.24.24,0,0,0,.08-.35c-.12,0-.29,0-.28.21m2.37,7.8s0,.05,0,.06a1,1,0,0,0,.39,0c.09,0,.07-.15,0-.21a.39.39,0,0,0-.36.12M121.5,40.5c.07-.06.06-.12,0-.13a1.37,1.37,0,0,0-.35,0c-.07,0-.08.07-.1.12l0,.05a.86.86,0,0,0,.45,0m1-1.22a1.77,1.77,0,0,0-.16.22,3.58,3.58,0,0,1,.35.09.22.22,0,0,0,.14,0c0-.09-.08-.21-.2-.26s-.08-.09-.13,0m-.43,1.55a.21.21,0,0,1,.08-.25c.11-.09,0-.1,0-.13h0c-.09,0-.2-.06-.26,0s.06.13.08.2a.47.47,0,0,1,.07.27c.06,0,.13,0,.1-.11m2.84-2.08a1.38,1.38,0,0,0,.53,0c-.18-.21-.46-.06-.66-.21.07.09,0,.26.13.25M118,38.4s0,0,0-.08c-.09-.22,0-.34.2-.46a.7.7,0,0,0,.06-.09c-.16,0-.4.18-.36.33a.37.37,0,0,1-.09.38.35.35,0,0,0-.07.25c.1-.11.12-.25.24-.33m16.47-19s-.11,0-.08.1.08,0,.12,0c.24-.09.49-.14.73-.25,0,0,.09,0,.13-.12a4.31,4.31,0,0,0-.9.29M115.56,44.24s0-.06-.07,0a.16.16,0,0,0-.1.14.87.87,0,0,0,.06.32,1.4,1.4,0,0,0,.09.17.51.51,0,0,0,0-.59m1.49-6.71a.49.49,0,0,1-.07.35s0,.06,0,.07l.08,0c0-.06.11-.13.11-.18a3.83,3.83,0,0,1,.08-.66.42.42,0,0,0-.21.44m14.18-17.78a.74.74,0,0,0-.65.61c.29-.15.4-.45.65-.61m-8.08,5.05a2.22,2.22,0,0,0,.32-.61.12.12,0,0,0,0-.13c-.06,0-.08,0-.11.08-.14.21-.12.48-.3.68.08,0,.12,0,.13,0M136.91,27c0,.09,0,.17.1.19s.17-.09.17-.17,0-.17.07-.24,0-.1-.05-.09-.2,0-.22.12a.45.45,0,0,0-.07.19M118.28,42a.45.45,0,0,0-.18.21c0,.06,0,.17,0,.29a1.57,1.57,0,0,1,.51-.41.39.39,0,0,0-.35-.09m-.9,4a.58.58,0,0,1-.19.16c-.22.14-.23.38-.3.6.31-.3.43-.74.79-1a.69.69,0,0,0-.3.23m2.26-5.08c-.13.21-.42.1-.58.27s0,.11,0,.11a.37.37,0,0,0,.21,0,1.65,1.65,0,0,0,.42-.21c.07-.06.09-.11,0-.11Zm7.81-18.06a.68.68,0,0,1,.25-.34.27.27,0,0,0,.13-.15c0-.06,0-.14,0-.16s-.07,0-.1.1a1,1,0,0,1-.28.42.68.68,0,0,0-.18.59,1,1,0,0,0,.23-.46m-14,14.31a4.42,4.42,0,0,0,.77,1.19,4.27,4.27,0,0,0-.77-1.19M137,19.79c.08,0,.06-.12.08-.19s0-.08-.09-.08-.25-.1-.32.07a.09.09,0,0,1-.1,0c-.06,0-.12,0-.14,0s.07.07.1.11.32,0,.47,0m-22.84,9.87c.29.33.35.82.84,1-.28-.34-.4-.78-.84-1m23.38-3a2.46,2.46,0,0,1,.59-.16c.06,0,.15,0,.14-.1s-.1-.1-.16-.1-.33.09-.51.09-.05.19-.14.25.06,0,.08,0M122.35,38.11a.1.1,0,0,0,.14,0,.78.78,0,0,1,.37,0c.1,0,.25,0,.13-.2s0-.25-.15-.21a.09.09,0,0,0-.09,0s0,.06,0,.07.08.12,0,.19a.14.14,0,0,1-.18,0c-.09-.05-.06-.12,0-.19s0,0,0-.06c-.16,0-.33.21-.28.33m10.1-18.61a4.12,4.12,0,0,0-.66.34.19.19,0,0,0-.07.12.21.21,0,0,0,.25,0c.16-.12.35-.18.51-.29s.19.09.3.07c-.08-.23-.14-.28-.33-.2m-9.87,6.4c-.07.05-.06.14-.07.22a.11.11,0,0,0,.17.1s.1-.06.11-.11c.1-.26.25-.48.35-.74a4,4,0,0,1-.56.53m-7.35,19.26a.53.53,0,0,1,0,.25c0,.05-.1.1,0,.16a.52.52,0,0,0,.32.14c.1,0,.09-.08,0-.13-.18-.24-.24-.55-.48-.75a.21.21,0,0,1-.07-.18c0-.09,0-.09-.12-.09,0,.24.25.37.32.6M126,27.31s-.08,0-.12,0a3.83,3.83,0,0,0-.91.54s-.08.08,0,.12.08,0,.12,0a1.86,1.86,0,0,1,.67-.31.36.36,0,0,0,.24-.18s.06-.07,0-.12m6.58,3.29-.54,0c-.06,0-.13,0-.16.06s0,.06,0,.09.12.11.19.07.29,0,.38,0,.44,0,.66-.11a.82.82,0,0,0-.52-.08M128.76,21a.23.23,0,0,0,.07.23s.1-.07.13-.13a.74.74,0,0,1,.38-.38c.1-.06.06-.15,0-.21s-.15-.11-.21,0-.25.26-.33.42a.35.35,0,0,0-.05.08m-3.49,3.53a.09.09,0,0,0,0,.11s.07,0,.11,0l0,0a1.16,1.16,0,0,1,.41-.47c0-.05.11-.1.08-.16s-.11,0-.16,0-.28,0-.37.2a1.3,1.3,0,0,1-.15.41m-4.41,6a.37.37,0,0,1,0-.17c.11-.16,0-.27-.07-.4s-.06-.06-.09,0-.1.1-.09.15a2.14,2.14,0,0,1-.08.8.11.11,0,0,0,0,.12.59.59,0,0,0,.24-.47m18-4.85a.51.51,0,0,1-.3,0c-.14,0-.25.05-.38.09a.64.64,0,0,1-.27.07.1.1,0,0,0-.11.11c0,.06.06.08.12.07a1.3,1.3,0,0,0,.39-.09,1.54,1.54,0,0,1,.6-.13c.12,0,.19-.17.34-.11a.53.53,0,0,0-.39,0m-2.09,4.65c-.11,0-.22.12-.34.09s-.39.09-.58,0-.2.05-.31,0l0,0s0,.05.06.06a1.34,1.34,0,0,0,1.11,0c.17-.09.4-.06.52-.26-.18-.09-.29.06-.42.12m-4.77-7a6.27,6.27,0,0,1,.77-.24c.08,0,.19-.21.15-.27s-.16,0-.19,0a1.05,1.05,0,0,1-.35.21,1,1,0,0,1-.65.2c-.11,0-.17.1-.22.22.2.09.32-.09.49-.13M120.27,37.1s.09,0,.08-.09-.06,0-.09,0-.09,0-.12,0a.26.26,0,0,1-.25.21l0,0c-.06.28-.34.25-.51.37a.22.22,0,0,0-.07.26c.06.13.11,0,.17,0s.25-.27.44-.3c0,0,.06-.06.08-.11a.48.48,0,0,1,.32-.34m-4.63,2.66a2.05,2.05,0,0,1,.2.8A.8.8,0,0,0,116,41s0,.08.07,0a.08.08,0,0,0,0-.1,1.66,1.66,0,0,1-.14-.43,9.15,9.15,0,0,1-.23-1.16.19.19,0,0,0-.16-.17.93.93,0,0,0,.06.55m-.35,6.82a4.73,4.73,0,0,0-.58-.68c-.07-.06-.15-.09-.25-.16.13.16.21.32.38.4a.15.15,0,0,1,.09.18c-.08.24.1.36.22.5l.29.31c.13-.24,0-.4-.15-.55m1.11-8.41a.12.12,0,0,0,.13,0,.2.2,0,0,1,.21.09c.06.07,0,.14,0,.18s-.11.11,0,.21a.15.15,0,0,1,0,.19.46.46,0,0,0-.07.36s0,.08,0,.09a.08.08,0,0,0,.07,0,.8.8,0,0,0,.12-.45s0-.07,0-.1a.66.66,0,0,0,0-.58v0c0-.19,0-.19-.13-.28,0,.2-.24.22-.3.37m4.38-13.08a.61.61,0,0,1,.11-.47.79.79,0,0,0,.12-.42c0-.05,0-.11-.06-.11s-.14,0-.18.07a5.59,5.59,0,0,0-.21.92.49.49,0,0,0,.11.41.41.41,0,0,0,.11-.4m5.11,13.29c-.15-.05-.28-.09-.19-.3a.06.06,0,0,0,0-.09.12.12,0,0,0-.13,0,.33.33,0,0,1-.31.16l-.06,0s0,0,0,.07.22.1.3.2.07.07.06.11.07.11.15.13-.08-.18,0-.23.2,0,.29.06h0c.2.19.2.19.42.07a1.13,1.13,0,0,0-.57-.25m13.34-18.3H139c-.15,0-.27,0-.25.2s-.09.13-.18.16-.1,0-.06.08.07.1.12,0a.37.37,0,0,1,.25,0,.34.34,0,0,0,.37-.15.2.2,0,0,1,.27-.09c.05,0,.14.06.17,0s0-.13-.11-.15-.25,0-.36,0m-25.14,12,.07,0a2.76,2.76,0,0,0-.09-1,1.74,1.74,0,0,0-.65-.78,7.45,7.45,0,0,1,.67,1.81M121,40.91c-.18.05-.34.2-.55.13,0,0,0,0,0,.07a.38.38,0,0,1-.2.32.09.09,0,0,0,0,.11s.06,0,.09.05a.24.24,0,0,0,.28-.22c0-.19.15-.14.23-.11s.13,0,.21,0a.52.52,0,0,1,.49-.15s.12,0,.15,0-.07-.07-.08-.12a.84.84,0,0,0-.52,0m4.61-.66c-.08-.06-.14-.13-.18,0a.08.08,0,0,1-.11.06,2.31,2.31,0,0,1-.61-.3c-.11-.09-.1-.17,0-.26a3.56,3.56,0,0,1-.52-.24s-.14,0-.15,0a.13.13,0,0,0,.11.16c.1,0,.23,0,.15.19s.05.06.08.09a3.19,3.19,0,0,0,.68.3c.31.12.63.21,1,.32v0c-.15-.12-.29-.23-.43-.36m-8,3.77a.15.15,0,0,0-.09.07.59.59,0,0,1-.35.29s-.07,0-.09,0a5.48,5.48,0,0,1-.57.94.46.46,0,0,0,.27-.18,4.15,4.15,0,0,1,1-1,1.68,1.68,0,0,1,.44-.29.09.09,0,0,0,.06-.08,1.75,1.75,0,0,0-.62.21m-6-6.86c-.08,0,0,.08,0,.1.23.12.45.24.69.34s.26-.05.39-.06.12-.14,0-.22a1.45,1.45,0,0,0-.29-.11c-.24-.11-.48-.19-.76-.3.06.12.1.2,0,.25m5.83,3.59a1.37,1.37,0,0,0-.41.86v0c0,.06-.09.14,0,.17s.07-.08.11-.12a.93.93,0,0,1,.13-.15.15.15,0,0,0,0-.19.25.25,0,0,1,.21-.36s.08,0,.08,0c.09-.26.39-.36.44-.66a1.73,1.73,0,0,1,.24-.44c-.29.29-.54.59-.82.88m15-19.84s-.11,0-.16.07-.15.12-.23.06,0-.16,0-.24a.59.59,0,0,1-.29.18c-.1,0-.2,0-.24-.09s-.07-.05-.11,0l-.51.19s-.07,0-.06.08.05,0,.08,0c.26-.11.51,0,.77,0,0,0,.07,0,.08,0,.24.28.42,0,.62-.08s.17-.11.3-.15c-.08-.1-.14-.12-.22-.05M126.25,23a3.56,3.56,0,0,1,.57-.08c.14,0,.27-.09.26-.23a.36.36,0,0,1,.11-.31s.07-.07,0-.09-.39.16-.37.31,0,.14-.09.15a.16.16,0,0,1-.17-.11c-.06-.16-.09-.17-.22,0a1.73,1.73,0,0,0-.37.54c.12,0,.18-.11.28-.14M122.14,31a2,2,0,0,0,.45-.26,8.93,8.93,0,0,1,.87-.45l.17-.07c.05,0,.1,0,.07-.1a.1.1,0,0,0-.13-.05l-.46.21a3.68,3.68,0,0,1-.35.15,2.43,2.43,0,0,0-1,.55.12.12,0,0,0,0,.16,1,1,0,0,1,.42-.14m-5.77,9.61a7.91,7.91,0,0,1,.06-.84.25.25,0,0,0-.12-.28c-.07,0-.13-.1-.11-.17a2.84,2.84,0,0,0,0-.41,1.4,1.4,0,0,0,0-.61c0-.08-.07-.09-.12-.1s-.07,0-.06.09a3.57,3.57,0,0,1,.06,1c0,.44.13.87.15,1.31a.26.26,0,0,0,0,.1c.06,0,.09-.08.08-.12m16.51-20.13c.06,0,.08-.05.09-.09s.1-.25.15-.37a1.18,1.18,0,0,0-.86.2.33.33,0,0,0-.12.15c-.06.09-.12.17-.25.13s-.09,0-.12.06,0,.07,0,.1.09,0,.13,0a.41.41,0,0,0,.21-.1c.19-.15.31-.13.44.09.1-.08.18-.2.34-.18M129.24,36.8a.28.28,0,0,1-.29.11c-.3,0-.59-.1-.88-.15a.88.88,0,0,1-.28-.12,2.35,2.35,0,0,0-1.36-.15l-.06,0a.36.36,0,0,0,.19,0,3.32,3.32,0,0,1,.89,0,.78.78,0,0,1,.6.34.26.26,0,0,0,.29.15c.32-.05.64-.06.95-.14.05,0,.13,0,.15-.07-.13,0,0-.27-.17-.25,0,0-.08,0-.12,0s.17,0,.09.17m7.58-16.37a1.24,1.24,0,0,1,.42.05c.1,0,.19,0,.21-.12s-.11-.36-.18-.32a1.58,1.58,0,0,1-.78,0,.8.8,0,0,0-.45.18c.27,0,.47.28.78.21M115.35,40.25a2.12,2.12,0,0,1-.34-.69c0-.12-.16-.11-.24-.18,0,.11,0,.19.07.25a.32.32,0,0,1,.14.16.15.15,0,0,1,0,.18c-.07.05-.11,0-.14-.06s-.15-.15-.14-.29-.09,0-.17-.1c0,.12.1.2,0,.29s0,.06,0,.07a3.34,3.34,0,0,1,.45.66,2.87,2.87,0,0,1,.28.52,1.09,1.09,0,0,1,.08.31.12.12,0,0,0,.07.12c.06,0,.07,0,.09-.06s0-.08,0-.11a1.5,1.5,0,0,1-.22-.46,6.12,6.12,0,0,1-.31-.56c0-.08,0-.13,0-.18a.1.1,0,0,1,.16,0c.09.14.24.25.26.43s.13.1.16.19l.06,0c-.1-.16-.18-.32-.28-.48m12-13a1.74,1.74,0,0,0,1.11-.51s.08-.07,0-.12-.08,0-.12,0l-.34.12-.87.22-.11,0a.15.15,0,0,0-.1.14c0,.06.07.06.08.07a.35.35,0,0,0,.31.08m6.85-7.56c0,.21,0,.34-.25.31,0,0-.06.05-.07.09a.08.08,0,0,0,.08.07.32.32,0,0,0,.14,0c.32-.19.69-.07,1-.22a.37.37,0,0,1,.23,0c.13.05.2-.08.27-.16s.16-.21.32-.19.06-.07.06-.11,0-.09-.1-.07l-.18.08c-.38.14-.77.24-1.15.34-.17,0-.24,0-.23-.18s0-.09,0-.1-.07.05-.1.1Zm-11.1,10.29a1.7,1.7,0,0,1,.61-.21.53.53,0,0,0,.43-.29.27.27,0,0,1,.22-.18c.12,0,.17-.14.25-.23a.53.53,0,0,0-.44.12.34.34,0,0,1-.12.06c-.17,0-.31.09-.33.29a.1.1,0,0,1-.12.1c-.06,0-.07-.07-.07-.13s-.08-.17-.2-.1a.68.68,0,0,0-.29.29c-.07.16-.2.28-.29.44l.35-.16m14.53-8.71a2.47,2.47,0,0,1,.86-.07c.07,0,.15,0,.23,0a.74.74,0,0,1,.52.14c.12-.24-.05-.3-.19-.37a2.87,2.87,0,0,1-.37-.15.47.47,0,0,0-.37.06.63.63,0,0,1-.3.1.38.38,0,0,0-.28.11.35.35,0,0,1-.38.06c-.09,0-.15,0-.2.05a.54.54,0,0,0,.48.1M119,37.63c.06-.13.24-.09.34-.22s.22-.39.49-.32c0,0,0-.06.08-.08s.07-.11.13-.13.17-.13.1-.24-.15-.22-.31-.1a1.69,1.69,0,0,0-.5.46.85.85,0,0,1-.39.25c-.13.06-.27.09-.08.25,0,0,0,.09,0,.13H119m9.66-11.71c0-.06.13-.14.06-.18s-.2-.14-.33-.06-.36.06-.51.18a2.48,2.48,0,0,0-.36.28.57.57,0,0,1-.33.22s-.1,0-.08.09.07,0,.11,0c.29,0,.55-.18.83-.23a1.22,1.22,0,0,1,.38-.07c.15,0,.13-.15.2-.21s0,0,0-.06m-10.77,2.87a5.48,5.48,0,0,1,.23,1.89.45.45,0,0,0,.19.34s.08,0,.06-.05a.55.55,0,0,1,.1-.51c0-.06,0-.11,0-.16a4.86,4.86,0,0,0-.1-.55c-.14-.37,0-.85-.46-1.12a.22.22,0,0,0,0,.16m8-4.09s0,.12,0,.17.09,0,.15,0a1.17,1.17,0,0,0,.8-.45.3.3,0,0,0,0-.4c-.06-.13-.16-.11-.27-.11s-.32,0-.34.24-.12.41-.33.52M115.12,42.47a.27.27,0,0,1-.05.26s-.1,0-.06.09a.1.1,0,0,0,.11,0c.26,0,.26,0,.17.22a.28.28,0,0,0,0,.18,2.41,2.41,0,0,1,.2.53s0,.07.08.06a.14.14,0,0,0,.08-.12,1.85,1.85,0,0,1,.08-.58.91.91,0,0,1,.08-.37v0a2.09,2.09,0,0,1,.24-1,.52.52,0,0,0,0-.25s0,0-.06,0c-.09.3-.32.56-.26.9a.14.14,0,0,1,0,.09c0,.12,0,.24-.16.26s-.21-.09-.25-.19a1.54,1.54,0,0,1-.17-.42.11.11,0,0,0-.1-.08,2.2,2.2,0,0,0,.07.37m17.48-19c-.09.11-.24.09-.36.14a5.66,5.66,0,0,1-.82.28c-.21,0-.4.19-.61.24a1.5,1.5,0,0,1-.51.15c-.13,0-.22.11-.35.21a.61.61,0,0,0,.24,0,11.22,11.22,0,0,1,1.17-.33,1.31,1.31,0,0,1,.6-.09,5.1,5.1,0,0,1,.57,0c.09,0,.12-.08.06-.17s-.1-.23.11-.29a.28.28,0,0,0,.13-.09c-.08-.08-.16-.09-.23,0m-12.8,17c-.18,0-.22-.11-.25-.22s0-.17.17-.18.08-.11.11-.19c-.16.16-.41.09-.56.26a.76.76,0,0,0-.09.09.32.32,0,0,1-.33.17c-.09,0-.16,0-.16.14s0,.34-.27.33c0,0,0,0,0,0s.06.07.08,0c.19-.15.35-.07.53,0a.16.16,0,0,0,.22-.07c.07-.12.17-.21.33-.13s.06,0,.08,0a.27.27,0,0,1,.33-.19c0-.09-.09-.11-.15-.1m-4.19-10.71a1,1,0,0,0-.07-.24c-.07-.12-.05-.18.07-.22s.08-.1,0-.13a.9.9,0,0,1-.53-.61s0,0-.13-.08a1.54,1.54,0,0,0,.19.46,1.79,1.79,0,0,1,.19.52c0,.17.18.29.2.47s.07.17.09.27a.52.52,0,0,0,.18.28c.19.15.25.4.38.6,0,0,0,.14.08.12a.16.16,0,0,0,.1-.19c-.05-.11-.06-.23-.12-.34s-.07-.23.12-.28c0,0,.06,0,0-.06a.1.1,0,0,0-.11-.07c-.22,0-.26,0-.19-.22a.14.14,0,0,0,0-.11.29.29,0,0,1-.5-.17m4.56,3.87a.2.2,0,0,0-.13.31.18.18,0,0,1-.05.19.2.2,0,0,1-.23,0c-.05,0-.05-.14-.13-.08s0,.12,0,.19-.13.27-.21.4-.27.17-.3.38c.21-.16.38-.32.56-.46a8.17,8.17,0,0,1,1-.77,5.09,5.09,0,0,1,.9-.46A.77.77,0,0,0,122,33c0-.08-.05-.31-.14-.34a.1.1,0,0,0-.11,0c0,.05,0,.07,0,.09s.11,0,.09.13-.08.11-.13.13a3.52,3.52,0,0,0-1,.56c-.07,0-.17.06-.23.13a.12.12,0,0,1-.18,0c-.06-.06,0-.11,0-.17l0-.06a1.22,1.22,0,0,1-.26.06m21.6-10.87s-.08,0-.11,0a.46.46,0,0,1-.27.13,1.88,1.88,0,0,0-.57.22c-.18.1-.4.07-.59.15s-.13,0-.15.11c-.08.34-.12.26-.45.29a.57.57,0,0,0-.38.16s-.07.05-.05.09.06,0,.11,0l.54-.14.8-.22a.61.61,0,0,0,.14-.07c.21-.16.5-.19.63-.47,0-.07.15-.06.22-.11s.09,0,.1-.09.07-.07,0-.11m-11.09,3.52a.58.58,0,0,1-.39,0c-.18,0-.34.1-.53.08s-.15,0-.23,0a.18.18,0,0,0-.18.1.44.44,0,0,1-.32.24.2.2,0,0,0-.13.11c0,.06,0,.1,0,.1a1.1,1.1,0,0,0,.44-.07.37.37,0,0,1,.34,0,.63.63,0,0,0,.45,0s.1,0,.11-.08.2-.19.34-.23a.51.51,0,0,0,.34-.25.36.36,0,0,0-.29,0m-8.76,7.37c0-.06-.08,0-.13,0L121,34h0c-.22.34-.65.4-.9.7a2.88,2.88,0,0,1-.54.44.2.2,0,0,0-.1.14,8.77,8.77,0,0,1,1.3-.78,9.3,9.3,0,0,1,1.45-.57c-.13-.1-.27-.16-.27-.34m.73-9.08c0-.05,0-.07-.06-.1s-.06-.18,0-.19c.33-.06.37-.33.45-.57,0-.08,0-.09-.07-.1s-.11,0-.09.07a.28.28,0,0,1-.06.23s-.06.09-.13,0-.09-.06-.07-.12,0-.23-.11-.22-.28,0-.29.15-.15.44-.18.66a.49.49,0,0,0,.23.49,1,1,0,0,1,.13.19c.18-.14.15-.36.22-.53m8.51,7.15c.29-.14.58,0,.88,0a.33.33,0,0,0,.32-.23.29.29,0,0,1,.25-.24s.12,0,.12-.07-.09-.13-.14-.2-.08,0-.11,0c-.2.2-.45.11-.68.12s-.28,0-.37.14a.38.38,0,0,1-.35.2.11.11,0,0,0-.14.1c0,.07,0,.12.08.15s.1,0,.14,0M126.75,21c-.11.06-.27.35-.23.45a.18.18,0,0,0,.23.15.63.63,0,0,0,.31-.22c.08-.06.16-.16.28-.07s0,.19,0,.28l0,.08.2-.15c.07-.05.16-.09,0-.2s0-.17,0-.25.21-.17.27-.29.12-.2,0-.29-.23,0-.31.05-.16.07-.23,0a2.44,2.44,0,0,1-.6.47m6.52,10.62c.11-.06.22.08.24.28h0c.12-.42.48-.36.78-.38s.41-.09.63-.11c.06,0,.09-.08.05-.14s-.12-.13-.18-.07-.45.05-.66.15c0,0-.11,0-.16,0s-.24,0-.26-.1.13-.21.2-.2c.25,0,.47-.13.71-.07.09,0,.12-.05.14-.11s.05-.14,0-.18-.13,0-.19,0a4.18,4.18,0,0,1-.87.16.16.16,0,0,0-.16.1.17.17,0,0,1-.26.11c-.05,0-.11,0-.14,0s0,.08.05.12a.14.14,0,0,1,0,.2c-.07.08-.14.17-.26.15s-.12,0-.16.08a.7.7,0,0,0,.43,0m-7.77-1.84c-.11.05-.2.11-.3,0s-.09,0-.11,0a.2.2,0,0,1-.24.15c-.14,0-.22.06-.28.16s.06.17.1.24a.22.22,0,0,0,.26.12l.48-.11c.15,0,.26,0,.27.2a.13.13,0,0,0,.09.12s.07,0,.08,0a.17.17,0,0,0,0-.13c-.1-.18,0-.29.15-.32s.24,0,.12-.25,0-.23-.16-.25-.3,0-.42,0m2.44,1.05c-.14-.18-.09-.31.13-.33.07,0,.14,0,.14-.07s-.08-.08-.13-.1-.26-.11-.39,0-.15,0-.21,0-.09-.07-.12,0a.33.33,0,0,1-.24.24,1.38,1.38,0,0,0-.41.32c-.08.06-.14.15-.27.12s-.11.05-.15.09-.06.08,0,.11.41,0,.62-.05a7.74,7.74,0,0,1,.83-.07c.09,0,.12-.05.15-.11s.08-.11,0-.19m-16.13,4.26a2.59,2.59,0,0,1,1,.7c.14.2.39.28.53.48a4.38,4.38,0,0,1,.49.7,5.72,5.72,0,0,0,.44.69,6.53,6.53,0,0,1,.58,1.15s0,.08.08.08a1.67,1.67,0,0,0-.36-1.05,2.24,2.24,0,0,1-.32-.8.17.17,0,0,0-.06-.12c-.24-.18-.37-.44-.59-.63s-.37-.42-.59-.59l-.25-.16-1.31-.76c-.11-.06-.19.09-.3,0,.21.1.43.17.63.27M130,31.41a.25.25,0,0,0,.22-.34c-.05-.13-.05-.2.13-.21s.26,0,.39,0,.16-.06.17-.14-.07-.14-.14-.17a.58.58,0,0,0-.28,0,1.48,1.48,0,0,1-.47,0c-.21,0-.41,0-.61,0a.19.19,0,0,0-.24.11.64.64,0,0,1-.19.21s-.06,0,0,.09,0,0,.08,0a.66.66,0,0,1,.58,0c.06,0,.16-.08.27,0a.43.43,0,0,1,.17.13.15.15,0,0,1,0,.17.12.12,0,0,1-.14,0,1.39,1.39,0,0,0-.61,0,.31.31,0,0,1-.2-.05s-.07-.16-.13,0-.07.16.06.2a2.48,2.48,0,0,0,1,.17m4.59-4.95c-.13-.05-.26-.1-.21-.29s-.08-.11-.14-.1a7,7,0,0,1-.91.1,2.06,2.06,0,0,1-.74-.05.18.18,0,0,0-.15.05c-.05,0,0,.1,0,.14s0,.08.11,0a.2.2,0,0,1,.29.07.13.13,0,0,0,.2,0c.08-.06.15,0,.19.08a.53.53,0,0,0,.58.27,2.91,2.91,0,0,1,.72,0,.69.69,0,0,0,.2,0c.05,0,.15,0,.17-.06s-.07-.14-.15-.18-.11,0-.16-.05m6.35-5.2a.26.26,0,0,0,.22-.07.26.26,0,0,1,.31,0c.17.07.21-.1.31-.15s0,0,0-.06-.2-.27-.37-.34a.91.91,0,0,1-.23-.17.47.47,0,0,0-.43-.06.57.57,0,0,1-.22,0c-.11-.05-.19-.07-.27.06s-.18,0-.27,0-.09-.07-.13,0,0,.08.06.12a.71.71,0,0,1,.14.29c0,.12.18.11.23.16a1.05,1.05,0,0,0,.65.23M115.68,38a1.91,1.91,0,0,0-.48-.61,1.64,1.64,0,0,1-.26-.53v-.07c-.22-.16-.21-.41-.25-.64a.65.65,0,0,1,0-.2c0-.19-.12-.32-.21-.47a.23.23,0,0,0-.24-.09.18.18,0,0,1-.23-.1,1.79,1.79,0,0,0-.56-.6,5.27,5.27,0,0,1-.5-.56s0,0-.06,0a1.45,1.45,0,0,0,.45.67,1.12,1.12,0,0,1,.18.2.77.77,0,0,0,.26.28c.14.08.16.26.28.36a3.42,3.42,0,0,1,.57.93,10.88,10.88,0,0,1,.56,1.32c.09.27.1.56.19.83a.33.33,0,0,0,.09.19.17.17,0,0,0,0-.2,1.64,1.64,0,0,1-.09-.44.16.16,0,0,1,.1-.21c.1,0,.13.06.16.14s.11.33.14.5a1.38,1.38,0,0,0-.09-.67m15.7-15.59c-.08-.17-.24-.32-.19-.55s-.22-.19-.31-.1a.61.61,0,0,1-.36.15,2,2,0,0,0-.57.23c-.1,0,0,.4.15.44a.48.48,0,0,1,.3.24.27.27,0,0,0,.29.08,2.2,2.2,0,0,1,.36,0c.12,0,.23-.13.33-.19a.33.33,0,0,0,0-.26m7.86.33a.58.58,0,0,0-.66-.35c-.19,0-.35.15-.53.18s-.32.1-.23.32c0,0,0,.07,0,.1s0,.14,0,.23c.21.36.47.17.74.1l.43-.09a.24.24,0,0,0,.18-.13c0-.12.13-.23.07-.36M119.49,39.25a.17.17,0,0,1,.27.06c.09.19.21.09.32,0s.06,0,.09-.07.11-.13.22-.07,0,.14,0,.21,0,.15,0,.09.46-.11.67-.25.41-.15.58-.31a.36.36,0,0,1,.24-.05c.27,0,.49-.19.77-.11.06,0,.11,0,.11-.1s-.09-.11-.13-.1c-.27.09-.6,0-.82.13s-.63.12-.89.32a.32.32,0,0,1-.24,0,1.15,1.15,0,0,0-.66.11c-.08,0-.17.06-.23,0s0-.14.1-.17a1.61,1.61,0,0,1,.48-.22c.33-.08.66-.08,1-.14.16,0,.42,0,.49-.24,0,0,.06-.07,0-.11a.11.11,0,0,0-.13,0,1.7,1.7,0,0,1-.91.19c-.13,0-.19.11-.3.15a3.61,3.61,0,0,0-1.13.51l-.17.17a.17.17,0,0,0,.2,0m0-7.73c-.07.06-.12,0-.18,0a.14.14,0,0,1-.09-.16,2.35,2.35,0,0,0,0-.59.68.68,0,0,1,.11-.46c.06-.08,0-.08,0-.11s0-.09-.09-.07a.1.1,0,0,0-.06.13c.15.21,0,.39,0,.6A.16.16,0,0,1,119,31c-.15,0-.17.05-.19.15a1.52,1.52,0,0,0,0,.6c0,.05,0,.1,0,.15s-.06.1-.12.11-.1,0-.12-.08a1,1,0,0,1,0-.34.35.35,0,0,0,0-.28s-.09-.12-.12-.12-.08.14-.07.17c.08.22,0,.47.16.68s.16.2.3.19a.72.72,0,0,1,.46.2c.11.09.16,0,.19-.08s0-.09,0-.1c.27-.22.15-.53.21-.83l-.13.1m13-4.29c-.21-.1-.42,0-.62,0a1.26,1.26,0,0,0-.37,0c-.21.05-.45-.07-.63.11s-.07.09,0,.14a.21.21,0,0,1,0,.28.35.35,0,0,1-.36.15c-.08,0-.16-.09-.23,0s-.06,0-.06.06.05,0,.09.05.22-.05.34-.05.52,0,.78,0a2.35,2.35,0,0,1,.53,0c.11,0,.18-.1.26-.17s.14-.2.29-.17.07-.06.1-.09.06-.2-.09-.27M121.24,25a.76.76,0,0,1-.16.37.72.72,0,0,0-.15.47,11.43,11.43,0,0,1-.28,1.55s0,.05,0,.11.1-.14.09-.22a.27.27,0,0,1,.18-.27s.08,0,.07,0c0-.19,0-.18.19-.17s.18-.09.23-.19.14-.21.3-.19.11,0,.12,0c.08-.28.46-.31.52-.61a1.57,1.57,0,0,0-.48,0c-.11,0-.19-.1-.22-.22s0-.25-.22-.27-.1-.13-.08-.21a.64.64,0,0,1,.23-.45s0-.05.07-.11a.56.56,0,0,0-.42.47m2.1,8.69c.12,0,.25-.11.4-.12l0-.06c0-.19.09-.21.21-.24s.17,0,.16-.16.11-.22,0-.29l-.06-.07c0-.3-.24-.3-.42-.33a.71.71,0,0,0-.66.24c0,.06,0,.12,0,.18s.09.23-.08.35-.19.28-.06.35a1.57,1.57,0,0,0,.51.15m-2.09-4.87c.16-.12.27-.11.39,0s.26.06.39.09,0-.05,0-.09a1.72,1.72,0,0,1,.14-.54c.13-.22-.08-.39-.09-.6,0-.05-.12-.11-.22-.08a.39.39,0,0,1-.36-.09.28.28,0,0,0-.45.15.27.27,0,0,1-.13.15.33.33,0,0,0-.12.45.53.53,0,0,1,.08.46c0,.11.06.19.13.28a.51.51,0,0,1,.19-.22m4.55,8.8c.12.06.27,0,.34.19l.07,0a2.88,2.88,0,0,1,1.17.05,4.13,4.13,0,0,1,.76.12c-.22-.24-.49-.15-.73-.21s-.49,0-.66-.22a.17.17,0,0,0-.18,0c-.1,0-.17,0-.23-.11a.17.17,0,0,1,0-.2c.07-.06.16-.14.26-.06a1.45,1.45,0,0,0,1,.15,1.53,1.53,0,0,1,.3,0c-.4-.52-.56-.45-.91-.44,0,.1.16,0,.22.11s.09.06.07.13a.1.1,0,0,1-.12.06c-.12,0-.33,0-.22-.22,0-.05,0-.05-.09-.07a2.21,2.21,0,0,0-.77,0,1.26,1.26,0,0,0-.27,0c-.09,0-.18,0-.21.16s-.1.1-.17.1h-.23l0,0c.23.07.33.29.54.39M118,39.12c0,.05-.09.12-.18.11s-.19.11-.18.23a.74.74,0,0,1-.12.5s-.06.11,0,.15.09,0,.13-.07a4.34,4.34,0,0,1,.91-.74,2.73,2.73,0,0,0,.54-.37c.17-.18.43-.2.64-.3s.6-.22.88-.37a2.41,2.41,0,0,1,.6-.23,3,3,0,0,0,.74-.23s.15,0,.09-.14a.14.14,0,0,0-.2-.06c-.25.15-.54.2-.79.34s-.69.31-1,.46a1.21,1.21,0,0,1-.37.11c-.2,0-.38.19-.6.13s-.14.1-.23.14-.28.07-.26-.21a2.72,2.72,0,0,0-.57.55m18.75-11.94a1.67,1.67,0,0,0-.77,0c-.19,0-.37.08-.54-.07a.29.29,0,0,0-.3,0,.42.42,0,0,1-.35,0,.54.54,0,0,0-.48,0,.72.72,0,0,1-.48,0c-.13,0-.15,0-.14.1a.23.23,0,0,1-.1.22,2.06,2.06,0,0,0-.3.29s-.08.07,0,.12a.11.11,0,0,0,.13,0,.83.83,0,0,1,.38,0h.07c.23-.22.54-.17.81-.23l.41-.1.51-.14c.13,0,.25-.08.33.07s.11,0,.16,0a2.35,2.35,0,0,1,.7-.2s0,0,.05,0,0,0-.05-.06M124.15,37.84a.36.36,0,0,1,.43-.14c.21.08.4-.07.61,0,0,0,.1-.06,0-.12a.33.33,0,0,1-.16-.28c0-.05-.08-.08-.13-.09s-.07,0-.07,0,0,.06.07.1.12.12.07.22a.09.09,0,0,1-.11.07.38.38,0,0,1-.28-.14c-.14-.2-.28-.41-.59-.32-.09,0-.18,0-.28-.08l.06-.1c0-.06.08-.14,0-.19s-.15,0-.19.1a1.09,1.09,0,0,0-.15.35,2.37,2.37,0,0,1-.17.36c-.14.24-.1.37.13.5a2.29,2.29,0,0,1,.31.18c.14.1.28,0,.45,0a.4.4,0,0,1,0-.48m-12,1.12a.25.25,0,0,1,.43.18c0,.17.07.21.21.12a.16.16,0,0,1,.24.06.37.37,0,0,0,.27.19,1,1,0,0,1,.39.17c0-.1-.06-.12-.09-.17s0-.18.08-.19a1.28,1.28,0,0,0,.27,0,.18.18,0,0,0,0-.07.07.07,0,0,0-.06-.06.26.26,0,0,1-.2-.08c-.11-.07-.1-.18,0-.22a.18.18,0,0,0,.13-.14c0-.08-.08-.07-.11-.12s-.4-.17-.61-.23-.17,0-.21.11-.18.08-.27,0-.18-.09-.22.07-.11.07-.17.08l-.39,0c0,.12.06.24.1.37l.13-.11M127,33.84a.29.29,0,0,1,0,.24c0,.11,0,.19.12.24s.15,0,.21-.06.14-.2.25,0a.1.1,0,0,0,.12,0,.44.44,0,0,1,.43,0c.12,0,.17,0,.16-.13s.06-.2.16-.25.13-.12,0-.2a.33.33,0,0,1-.15-.44s0-.12,0-.12a1.51,1.51,0,0,1-.37-.07s-.11,0-.11.06a.12.12,0,0,1-.1.13,3.09,3.09,0,0,0-.46.14.29.29,0,0,0-.18.12c-.07.13-.23.14-.33.24.06.08.19,0,.24.15m8.11-10.36a2.18,2.18,0,0,1,.24-.42.18.18,0,0,0,0-.2.15.15,0,0,0-.18-.06l-.57.17s-.06.05-.07,0c-.2-.06-.35.09-.53.09s-.3,0-.29.25-.11.17-.2.22,0,.21,0,.31.09.1.2.08a1.44,1.44,0,0,1,.61.09.61.61,0,0,0,.66-.29,1.81,1.81,0,0,0,.12-.28M114.53,32a.27.27,0,0,0,0,.3.89.89,0,0,1,.15.31.09.09,0,0,0,.09.07c.17,0,.24.11.28.26.09-.06.19-.11.26,0s.25.26.13.46c0,0-.07.08,0,.13a.08.08,0,0,0,.1,0c.06,0,.07-.08.08-.14s-.06-.26,0-.39,0-.1,0-.11c.2-.06.33-.25.54-.27.06,0,.09,0,.08-.1a2.44,2.44,0,0,0-.15-.66c0-.13-.22-.25-.36-.32s-.24-.1-.24-.26,0-.1-.09-.09a.23.23,0,0,0-.15.05s0,.07.07.1a1,1,0,0,1,.25.43.15.15,0,0,1-.08.19c-.09.05-.15,0-.19-.08s-.09-.2-.22-.18-.24,0-.24.11.08.18.13.26l.09.1a.14.14,0,0,1,0,.19c-.05.09-.13.06-.2,0s-.11-.06-.09-.15a.2.2,0,0,0-.06-.18c-.09-.11,0-.26-.08-.36a.26.26,0,0,0-.14-.09.35.35,0,0,1,0,.36m20.93-5.74a.75.75,0,0,1,.43.22c.06.08.47,0,.54,0s.13,0,.19,0,.3,0,.21-.22,0-.12.12-.11a.18.18,0,0,0,.22-.13c.05-.13.08-.24-.06-.33a.54.54,0,0,0-.32-.13c-.13,0-.21-.1-.32-.15s-.11-.08-.18,0a2.78,2.78,0,0,1-.63.16c0,.06.1.05.15.07s.13,0,.13.11a.15.15,0,0,1-.11.16c-.26,0-.52.15-.79.18l-.28.06v.06c.29-.16.47.1.7.17m-5.54-5c-.07.06-.09.14-.14.19a4.54,4.54,0,0,0-.58.58.1.1,0,0,1-.15,0,.11.11,0,0,1,0-.16c.14-.1.15-.27.23-.41a5.49,5.49,0,0,1,.62-.75.19.19,0,0,0,.06-.16c-.14.12-.3.15-.39.31a5.39,5.39,0,0,1-.86,1.15.5.5,0,0,1-.28.1c-.08,0-.1-.05-.09-.12a.6.6,0,0,1,.19-.36.55.55,0,0,0,.2-.29c-.18.05-.29-.08-.41-.17l0,0a.41.41,0,0,1,0,.62c-.09.1-.22.24,0,.4s0,.16,0,.2a4.77,4.77,0,0,0-.6.93s0,.08-.09.11a.11.11,0,0,0,0,.15.19.19,0,0,0,.16.1c.06,0,.06-.08.08-.13a1.3,1.3,0,0,1,.35-.43c.14-.15.32-.26.45-.42a1.64,1.64,0,0,1,.5-.41,2.8,2.8,0,0,0,.6-.54,10.84,10.84,0,0,1,.9-.75.86.86,0,0,0,.41-.61l0-.06c-.37.26-.66.6-1,.87m-13,14.7c0-.1,0-.16-.14-.11s-.21,0-.18-.16,0-.12,0-.11c-.29,0-.31-.24-.39-.42s0-.11-.07-.1,0,.07,0,.12a.1.1,0,0,1-.06.15c-.15,0-.17.13-.17.24s-.09.12-.14.15a.41.41,0,0,0-.14.53,4,4,0,0,0,.2.42c.06.13.13.24.07.39s0,.12.07.12.25.08.31,0a1.16,1.16,0,0,1,.46-.42s0,0,.07-.1c0-.21.24-.4.18-.68m4.89-3.55c.21-.09.41-.22.62-.32s.64-.29,1-.42c.12,0,.26-.08.35.11a.24.24,0,0,0,.37.05,1.36,1.36,0,0,1,.54-.23h.07c.1,0,.19.11.3,0s.21,0,.32-.05c0-.08-.11,0-.15,0a1,1,0,0,1-.3,0,2.3,2.3,0,0,0-.45.05l-.36.07a.23.23,0,0,1-.21,0c-.06-.07,0-.13,0-.18s0-.12,0-.17-.26-.14-.51,0a2.48,2.48,0,0,1-.75.36c-.08,0-.15,0-.18,0s0-.14.09-.17a3.48,3.48,0,0,1,.43-.22,2.34,2.34,0,0,1,.56-.25c.1,0,.1-.14.09-.19s-.12,0-.17,0a2.25,2.25,0,0,0-.66.37c-.23.18-.51.23-.73.41a1.81,1.81,0,0,1-.57.37.45.45,0,0,0-.29.25s0,.06,0,.1.06,0,.1,0a1.87,1.87,0,0,0,.67-.52c.12-.17.17-.16.29,0s.11.37-.2.48-.65.3-1,.45a.89.89,0,0,0-.37.26l0,0c-.27,0-.3.15-.34.34.52-.27,1-.57,1.53-.81m12.57-10.14a.69.69,0,0,1,.66-.13.64.64,0,0,0,.45,0c.11-.06.18,0,.22.09s.19.27.43.23.62-.12.93-.16a8.06,8.06,0,0,0,1.19-.23c.05,0,.09,0,.14,0a.27.27,0,0,0,.25-.08c.09-.15.21-.14.34-.09a1.06,1.06,0,0,0,.53,0l1-.09-.15-.16s-.06-.07-.12,0a.8.8,0,0,1-.55,0,.29.29,0,0,0-.27,0,.27.27,0,0,1-.25,0,.27.27,0,0,0-.17,0c-.16.07-.28,0-.33-.18s-.09,0-.09,0a1.58,1.58,0,0,0-.75,0,10.42,10.42,0,0,0-1.25.16l-.59.1c-.23,0-.47.07-.7.12l-.94.24a.51.51,0,0,0-.26.17c.1,0,.18.06.25,0m-9.8,6.32c.06-.05.18,0,.28-.06a6.79,6.79,0,0,0,1.26-.38s.07-.05.1,0c.28.13.53,0,.8-.07s.36,0,.55,0a10.54,10.54,0,0,1,1.13-.08,3.65,3.65,0,0,1,1,0,.09.09,0,0,0,.1,0s0-.06,0-.08,0-.2.08-.27.23-.1.22-.26v-.07c-.13.05-.25-.1-.39,0s-.1.08-.18.07a7.62,7.62,0,0,0-1,0c-.14,0-.27.13-.43.13s0,.06,0,.09,0,.28-.17.28a3.75,3.75,0,0,0-.47.05.24.24,0,0,1-.24-.09c-.08-.13-.17-.09-.26,0a.24.24,0,0,1-.32,0,.28.28,0,0,0-.28,0l-.69.26s0,.05,0,.08-.07.2-.19.12-.2,0-.28,0a.35.35,0,0,1-.36.12c-.16-.05-.28.06-.39.14a1.42,1.42,0,0,1-.33.21.15.15,0,0,0-.1.15c.18-.13.42-.09.6-.24m7.62-6.38a.11.11,0,0,0,0,.16c.07.21,0,.26-.16.33,0,0-.11,0-.1.09s.07.08.14.06l.13,0a10.58,10.58,0,0,1,2.11-1,9.13,9.13,0,0,1,.89-.27c.4-.08.8-.12,1.19-.23a1.34,1.34,0,0,1,.2,0,.12.12,0,0,0,.12-.12c0-.07,0-.07-.11-.08s-.28,0-.32-.17c0,0-.06,0-.1,0a.36.36,0,0,1-.3-.13.29.29,0,0,0-.23-.09.22.22,0,0,1-.26-.14c-.05-.09,0-.16.08-.23s.14-.08.05-.15-.07-.22-.25-.16a4.28,4.28,0,0,1-.85.23c-.23,0-.44.1-.66.11s-.27.13-.2.27.07.08.09,0,.29-.11.43-.14a3.49,3.49,0,0,1,.9-.22c.07,0,.11-.06.17-.06s.11-.06.16,0a.19.19,0,0,1,0,.19c-.1.17-.27.16-.42.19a2.85,2.85,0,0,0-.58.12,2.78,2.78,0,0,1-.5.11,3.8,3.8,0,0,0-1.08.4c-.07,0-.17.05-.24.09a.71.71,0,0,0-.06.5s.06.06.11,0a3.33,3.33,0,0,1,.91-.53,1.7,1.7,0,0,1,.5-.15,2.07,2.07,0,0,1,.82-.12.32.32,0,0,0,.15-.06.41.41,0,0,1,.41-.06c.13.05.23-.08.36,0s.22,0,.22.16-.12.17-.23.17a6.9,6.9,0,0,0-1.43.17,3,3,0,0,0-.64.21,6.7,6.7,0,0,0-1.07.61c-.09.06-.15,0-.22,0s-.07-.07-.11,0M120.08,28a.18.18,0,0,1-.13.24c-.09,0-.07.07-.09.14a1.51,1.51,0,0,0,0,.48c0,.08,0,.15,0,.21s-.12,0-.17,0a.2.2,0,0,1-.12-.2l0-.07c.13-.12.05-.26,0-.39a.57.57,0,0,1,.12-.47.19.19,0,0,0,0-.17c-.09.08-.13.18-.25.19a.14.14,0,0,0-.07.1c0,.16-.09.32,0,.49s0,.16-.09.17a.11.11,0,0,1-.14-.13.25.25,0,0,0-.1-.23c-.11-.1-.23-.19-.22-.35l0-.06a.92.92,0,0,1-.46-.47c0,.16,0,.33.1.47V28c-.09.13-.06.2.09.25a.14.14,0,0,1,.08.2c0,.06,0,.11-.11.12a.18.18,0,0,1-.19-.12l0-.07c0-.05-.07-.11-.14-.1a.13.13,0,0,0,0,.09.12.12,0,0,0,.07.15l0,0c.28.13.28.13.23.42,0,0,0,.07,0,.09a2.09,2.09,0,0,1,.2.73c0,.1.16.11.27,0s.2-.15.37,0a.12.12,0,0,0,.11,0c.21,0,.29.07.21.25s0,.13.08.13.17,0,.22.14a3.23,3.23,0,0,1,.22.41c0,.05.07.09.11.07s.09-.07,0-.13a.16.16,0,0,1,0-.15c0-.25.08-.5.13-.76a.46.46,0,0,1,.13-.21c.17-.18.17-.27,0-.47s-.1-.09-.16,0-.08.11-.16.08-.07-.1-.07-.17,0-.3,0-.45a.56.56,0,0,1,.14-.51c.13-.11.07-.18,0-.26a.25.25,0,0,1,0-.37.44.44,0,0,0,.15-.39c0-.2.06-.4.07-.6s-.06-.21,0-.31,0-.43,0-.64c0,0,.07-.07,0-.1s-.1,0-.14,0a.27.27,0,0,0,0,.2,3.15,3.15,0,0,1,0,.81c0,.06,0,.1,0,.16a.15.15,0,0,1,0,.23c-.08.08-.13,0-.2-.06a3.33,3.33,0,0,0,.06,1.18m1.09,8.43s0,.07,0,.09.1.14,0,.23a.14.14,0,0,0,0,.09c0,.08,0,.19.14.11a.52.52,0,0,1,.21-.07c.08,0,.15,0,.18.06a.14.14,0,0,1-.07.17c-.13,0-.22.21-.38.1s-.06,0-.08,0-.43.08-.48.35c0,0,0,.07,0,.11a.1.1,0,0,0,.14,0,1,1,0,0,1,.66-.27.74.74,0,0,0,.45-.2,1.73,1.73,0,0,1,.41-.25s.07,0,.08-.07a.57.57,0,0,1,.28-.25c.07,0,.12-.1.11-.14,0-.21.12-.24.26-.29a1.3,1.3,0,0,0,.37-.19.17.17,0,0,1,.23,0,.49.49,0,0,0,.55.08.13.13,0,0,1,.12,0c.26.14.47,0,.69-.11a.29.29,0,0,1,.41.08.15.15,0,0,0,.22.06c.09-.05.2-.07.27-.12a1,1,0,0,1,.74-.1,3.29,3.29,0,0,0,.7,0,1.69,1.69,0,0,1,.55,0s.08,0,.12,0,.34,0,.51.06a1.46,1.46,0,0,0,.51,0c.22,0,.48.06.69-.17a1.6,1.6,0,0,0-.89-.06.16.16,0,0,1-.19,0,.18.18,0,0,1-.06-.23c0-.06.07-.14.17-.13s.32,0,.47.06a.92.92,0,0,0,.65,0c.11-.06.25,0,.39-.13-.25,0-.47,0-.69,0h-.19c-.35-.06-.7-.09-1-.12s-.52-.09-.78-.13c-.05,0-.14,0-.15,0,0,.25-.2.26-.35.18a2.17,2.17,0,0,0-.79-.12c-.15,0-.27-.06-.24-.24s-.06-.11-.12-.11a.89.89,0,0,0-.28,0c-.22.08-.48,0-.66.07a5.61,5.61,0,0,0-.62.17,1,1,0,0,1-.51.11,2.3,2.3,0,0,0-.73.14c-.21.06-.4.16-.6.22a1.51,1.51,0,0,0-.55.24.33.33,0,0,1-.13,0c-.13,0-.26,0-.34.15s-.24,0-.34.12c.07.1.1.2,0,.29M136.9,25a.1.1,0,0,1,.14.08c0,.14.11.16.22.14a.14.14,0,0,1,.14,0,.16.16,0,0,0,.22,0,.24.24,0,0,1,.29-.05c.15.09.28,0,.42,0s.11,0,.12-.08,0-.07,0-.08-.09,0-.12,0a.17.17,0,0,1-.25,0,.15.15,0,0,1-.08-.18.19.19,0,0,1,.21-.15c.17,0,.31-.1.49-.05s.12,0,.15-.11.24-.25.42-.26.29-.13.45-.15a2,2,0,0,0-.74.11c-.21,0-.43.13-.64.16s-.36,0-.52.13a.17.17,0,0,1-.19,0c-.06,0-.1-.05-.1-.12a.17.17,0,0,1,.09-.14.2.2,0,0,1,.21,0c.19.07.32-.05.47-.12a.08.08,0,0,0,.07-.07c0-.06-.07,0-.09,0a.11.11,0,0,0-.14,0s-.07,0-.1,0c-.19-.13-.38,0-.56,0a.48.48,0,0,1-.51-.44c0-.19,0-.4.16-.55s0-.05,0-.08c-.12-.22-.09-.31.12-.41,0,0,.1,0,.06-.07s-.06-.06-.12,0a4.74,4.74,0,0,1-.57.16,1.58,1.58,0,0,1-.75,0l0,0c.26.17.28.2.19.48a.46.46,0,0,1-.44.28c-.14,0-.15.1-.18.19s0,.08.09,0,.22-.08.25.1.08.09.14.08a.47.47,0,0,0,.15-.06.18.18,0,0,1,.19.08.17.17,0,0,1,0,.18.13.13,0,0,1-.17.06.4.4,0,0,0-.34,0c-.11.06-.14,0-.15-.12s0-.15,0-.22l0,0c0,.28,0,.34-.34.43s-.26.08-.17.33a.18.18,0,0,1-.2.24c-.09,0-.18-.07-.27-.09a2.59,2.59,0,0,0-1.07-.07c-.18,0-.37,0-.55,0s-.13,0-.14-.13.08-.14,0-.18a.73.73,0,0,0-.31-.09,5.35,5.35,0,0,0-1,.17,6.18,6.18,0,0,1-1.13.26,1.19,1.19,0,0,0-.22.08,1.22,1.22,0,0,1-.63.06c-.12,0-.16.08-.16.14a.13.13,0,0,0,.18.12,3,3,0,0,1,.84-.21c.25-.05.49-.14.74-.17s.46-.12.69-.18a1.09,1.09,0,0,1,.62.07c.06,0,.07.05,0,.09a.37.37,0,0,1-.28.22,11.5,11.5,0,0,0-1.16.15l-.41.1a2.34,2.34,0,0,1-.54.09.47.47,0,0,0-.23,0c0,.05,0,.07,0,.11s0,.24-.14.26-.17,0-.15.08.07.23.22.2a2.38,2.38,0,0,1,.8-.05c.47,0,.94,0,1.4,0a.22.22,0,0,0,.13,0s.09-.07.13-.05a4.07,4.07,0,0,0,.78,0c.27,0,.55-.07.83-.07a3.06,3.06,0,0,0,.8-.15.17.17,0,0,0,.15-.17c0-.13.07-.2.21-.22s.16-.05.12-.18,0-.19.17-.17a.3.3,0,0,0,.35-.15.74.74,0,0,1,.77-.22,4.94,4.94,0,0,0,.87.07c.08,0,.15,0,.14.12a.34.34,0,0,0,.09.23c.06.09.07.16,0,.22s-.17,0-.23-.05a.48.48,0,0,0-.43-.18.12.12,0,0,0-.13.08c.09,0,.15,0,.23,0m-10.36,5.15c.14,0,.29,0,.43,0a.26.26,0,0,1,.23,0c.14.11.23,0,.35,0a.67.67,0,0,1,.57,0,.74.74,0,0,0,.54-.07.82.82,0,0,0,.22-.16.26.26,0,0,1,.26-.07c.06,0,.13,0,.17,0,.18-.21.45-.16.68-.24s.2,0,.19.11.08.13.15.09a.22.22,0,0,1,.32.05.24.24,0,0,0,.28.06c.29-.08.37,0,.47.26,0,.07.07.05.11.06.61.05,1.21.13,1.82.14.06,0,.12,0,.16,0a2.42,2.42,0,0,1,1.3-.2,2.34,2.34,0,0,0,.74-.08,1.81,1.81,0,0,1,.4,0c.24,0,.47-.09.7-.13a1,1,0,0,0,.64-.4.43.43,0,0,0-.38.14.17.17,0,0,1-.23,0c-.06,0-.1,0-.13,0s-.29.19-.45.2-.29,0-.21-.28a.08.08,0,0,0-.11,0c-.11.15-.29.1-.43.15a.14.14,0,0,1-.16-.09.14.14,0,0,1,.06-.17.54.54,0,0,1,.39-.13c.06,0,.14,0,.14-.07s-.1-.07-.15-.06a7.43,7.43,0,0,1-.81.09l-.56,0c-.31,0-.62,0-.93,0s-.44,0-.65,0a.1.1,0,0,1-.1-.13c0-.07.06-.19.15-.16.26.09.48-.07.72-.08.45,0,.89-.06,1.34,0a3.15,3.15,0,0,0,1-.06c0-.06-.1-.09-.16-.07a5.06,5.06,0,0,1-.55,0,.54.54,0,0,1-.22,0,4.11,4.11,0,0,0-1.26-.11,6,6,0,0,0-.94.07c-.24,0-.34,0-.38-.33a.8.8,0,0,1-.52.3,1.4,1.4,0,0,1-.9-.12c-.15-.08-.33,0-.49-.09s-.25-.08-.37-.14-.35,0-.53,0-.5,0-.75,0a4.15,4.15,0,0,0-1.17.09c-.49.13-1,.13-1.48.23-.07,0-.12.06-.1.13s.08,0,.14,0a3.4,3.4,0,0,1,.34-.12c.17-.05.25,0,.23.19s.08.25.26.17a.33.33,0,0,1,.26,0,1.88,1.88,0,0,0,.71,0l.6-.11a.23.23,0,0,1,.31.18.3.3,0,0,1-.3.26c-.45,0-.89,0-1.33.06H127c.08.12.18.1.26.13s.09,0,.13,0,.24,0,.25.14-.11.19-.23.22a3.77,3.77,0,0,1-1,.19c0,.09,0,.13.12.1m-.9,4.19a.23.23,0,0,1,.15-.35c.11,0,.13-.12.19-.18a4.46,4.46,0,0,0,.33-.43.75.75,0,0,1,.33-.25c.1-.05.28-.09.14-.29s0-.18.08-.23a.34.34,0,0,1,.16,0c.29.11.58,0,.86,0,.12,0,.24,0,.36,0s.08,0,.11,0a.38.38,0,0,0,.44,0c.06-.06.16,0,.19.14a.18.18,0,0,1-.13.24s-.18-.06-.15.07.12.18.24.1a.23.23,0,0,1,.26,0,2.16,2.16,0,0,0,1.16.3,5.74,5.74,0,0,0,.93.05.42.42,0,0,0,.34-.12c.09-.09.18,0,.25.06s0,.15,0,.19a1.87,1.87,0,0,1-1,.27h-.18a.3.3,0,0,1-.23,0c-.22-.13-.48-.07-.71-.15s-.17.09-.17.16a.23.23,0,0,1-.15.19c-.1.06-.21.09-.27.2s-.11,0-.18.06a.21.21,0,0,0,.25.07,2.85,2.85,0,0,1,1-.08.52.52,0,0,0-.08-.11.14.14,0,0,1,.1-.24.71.71,0,0,1,.25,0,2.83,2.83,0,0,0,.77,0,.68.68,0,0,0,.31-.15.22.22,0,0,1,.11-.05,4.74,4.74,0,0,0,1-.16s.08,0,.08-.06a.07.07,0,0,0-.08-.06c-.14,0-.3,0-.42.09a.17.17,0,0,1-.22,0,.12.12,0,0,1,0-.16.21.21,0,0,1,.19-.1,1.94,1.94,0,0,0,.45-.14.67.67,0,0,1,.3-.1c.07,0,.13,0,.13-.08s-.07-.08-.13-.07h-.09c-.19.14-.46.08-.64.26a.24.24,0,0,1-.33,0h0c-.14-.1-.23.13-.35,0s-.21-.08-.28.07-.28.08-.35,0a.34.34,0,0,0-.33-.12c-.18,0-.36,0-.54,0a.47.47,0,0,1-.36-.29c0-.15.06-.26.21-.22a6.16,6.16,0,0,0,1,.13,4.88,4.88,0,0,0,.76,0c.35,0,.7-.08,1-.09.06,0,.1,0,.12-.07s0-.06-.07-.07a2.44,2.44,0,0,1-.6-.31.26.26,0,0,0-.24,0c-.13.06-.25,0-.37,0a3.86,3.86,0,0,1-1-.14.25.25,0,0,0-.32.1s-.08.1-.11.09c-.2,0-.38.1-.58.06a.76.76,0,0,0-.26,0,.33.33,0,0,1-.37-.09s-.07,0-.12,0-.35-.14-.53-.15a.14.14,0,0,1-.08-.07c-.12-.26-.34-.23-.56-.22a6.46,6.46,0,0,1-1,.07.13.13,0,0,0-.09,0c-.08.11-.17.07-.26,0s-.1,0-.13,0-.34.12-.49.13a7.4,7.4,0,0,1-.81.08.47.47,0,0,0-.33.11c.11.09.29.1.34.27s.07,0,.1,0,.27,0,.26.18,0,.4-.25.51c-.06,0-.09.12-.12.19a.56.56,0,0,1-.22.24.28.28,0,0,1,.19.27c0,.18-.06.29-.23.29a2.26,2.26,0,0,0-.81.17,1.47,1.47,0,0,1-.47,0,.42.42,0,0,0-.3.1.12.12,0,0,1-.16,0c-.08,0-.08-.1-.07-.16s0-.11-.07-.13a.15.15,0,0,0-.12,0s0,.09,0,.13,0,.2-.1.21a5.63,5.63,0,0,0-1.44.46,5.18,5.18,0,0,0-1,.54,1.24,1.24,0,0,1-.3.16c-.11,0-.15.09-.19.18a0,0,0,0,0,0,0c.1,0,.19.07.28,0a4.21,4.21,0,0,1,.64-.39c.26-.14.55-.24.83-.36l.51-.21c.3-.12.62-.17.93-.27.08,0,.18,0,.21.1a.25.25,0,0,1-.19.29l-.54.11a2.89,2.89,0,0,0-.94.31,2.44,2.44,0,0,1-.67.25.4.4,0,0,0-.24.2s-.05.09,0,.14a.14.14,0,0,0,.14,0c.18,0,.3-.17.47-.23s.42-.2.65-.27.72-.27,1.09-.37.83-.26,1.26-.32a2,2,0,0,1,.25,0,2,2,0,0,0,.78-.19,1.18,1.18,0,0,1,.56,0,.7.7,0,0,0,.2,0c0-.07-.08-.11-.11-.17m-8.09,8.35c-.1-.11,0-.35.21-.41s.12,0,.14-.07-.32-.13-.49-.12-.08.08-.09.12a1.42,1.42,0,0,1-.32.65,2.08,2.08,0,0,0-.22.39,4.43,4.43,0,0,1,.39-.37c.16-.17.28-.14.35.08,0,0,0,.07.06.08a.25.25,0,0,0-.08.14.21.21,0,0,1-.11.18,3.19,3.19,0,0,0-.4.33,1.42,1.42,0,0,0-.32.41c.23,0,.36-.38.62-.15l0,0c-.08-.31.09-.51.43-.5.05,0,.09,0,.1,0s0-.09-.07-.1-.16-.12-.2-.23.09-.23,0-.35m25.07-21.07c0-.08-.14-.13-.09-.24s0-.07-.06-.07-.08,0-.08.07-.11.31-.34.24l-.08,0a.62.62,0,0,1-.7.08.11.11,0,0,0-.11,0s0,.09,0,.11a.16.16,0,0,1,.07.2c0,.08-.13.08-.21.07a5.51,5.51,0,0,0-1.15.06.28.28,0,0,0-.23.12s.07,0,.12,0c.28-.06.39,0,.47.28s.08.32.39.21l1-.34,0,0c0-.08-.1-.06-.17,0a1.8,1.8,0,0,1-.94.23.14.14,0,0,1-.15-.11.16.16,0,0,1,.11-.17.46.46,0,0,1,.19,0c.36.09.62-.16.91-.27.1,0,.16-.13.28-.08s.08,0,.11-.06a.4.4,0,0,1,.67-.05c0,.06-.05.12,0,.17s.18.23,0,.38a.11.11,0,0,0-.05.13.44.44,0,0,1-.14.42,3.61,3.61,0,0,1-.91.68c-.12.07-.17.13-.09.25s0,.2-.09.24-.19,0-.25.1a1.29,1.29,0,0,1-.47.36c-.13.08-.27.13-.4.2l-.71.35s-.11,0-.09.09.1,0,.14,0,.19-.11.29-.15a7,7,0,0,0,.86-.35c.13-.07.23-.19.4-.2s.14,0,.18,0a.14.14,0,0,1-.06.18l-.29.26a3.4,3.4,0,0,1-.58.38c-.17.1-.38.09-.5.26h-.07c-.16-.07-.24.09-.36.11s-.15,0-.25.24l.21-.08c.24-.08.48-.19.73-.25.08,0,.17-.07.22,0a.18.18,0,0,1-.05.24.28.28,0,0,1-.14.1,6,6,0,0,0-1.28.66c-.34.18-.69.3-1,.46-.14.07-.33.11-.38.31.23-.13.5-.14.72-.25s.44-.19.66-.28a7.87,7.87,0,0,1,.76-.29.26.26,0,0,1,.35.18c0,.17-.09.22-.21.27-.31.13-.62.23-.92.37a1,1,0,0,1-.69.19.41.41,0,0,0-.28,0,2,2,0,0,1-1.14.19.93.93,0,0,0-.24,0c0,.08.14.12.07.2s-.11,0-.16,0,.08-.09,0-.17h-.15c-.47.06-.93.13-1.4.18-.3,0-.63,0-.88.2,0,0,0,0,0,.05.16,0,.33,0,.49-.06a4.21,4.21,0,0,1,.71,0,1.88,1.88,0,0,1,.71,0,.14.14,0,0,0,.14,0c.06-.05,0-.06,0-.09s0-.09,0-.12a.08.08,0,0,1,.1,0c.05,0,.1.05.09.11s0,.09.11.08l.88-.11a7.67,7.67,0,0,0,1.17-.28l.87-.32c.12-.05.17,0,.19.11s-.11.22-.23.28-.32.11-.23.34c0,.06,0,.1-.06.14a1.71,1.71,0,0,0-.2.18.54.54,0,0,0-.23.48.2.2,0,0,1-.07.21c-.18.11-.32.27-.5.38a2.56,2.56,0,0,0-.44.36c-.07.07-.09.12,0,.18a.22.22,0,0,1,0,.37,4.42,4.42,0,0,1-1.12.41.24.24,0,0,0-.18.14.09.09,0,0,0,0,.13c0,.07.07,0,.1,0s.24-.09.36-.17a.49.49,0,0,1,.39,0,.16.16,0,0,1,.11.17.19.19,0,0,1-.15.12.74.74,0,0,0-.44.32.87.87,0,0,1-.63.43.16.16,0,0,0-.15.12.24.24,0,0,1-.26.19c-.14,0-.32,0-.39.09-.21.25-.52.27-.78.41.12.1.17.22,0,.34a.29.29,0,0,1-.25.08c-.08,0-.14,0-.21.07a2.41,2.41,0,0,1-.69.37,4,4,0,0,0-.56.17c-.1,0-.17.07,0,.16s.14.17,0,.26a.51.51,0,0,1-.17.07l-.8.14c-.32.06-.63.1-1,.13a4,4,0,0,1-1.2,0,.7.7,0,0,0-.25,0c-.08,0-.1,0-.06.11s.11.17.23.14a3.91,3.91,0,0,1,1.08,0,5.08,5.08,0,0,1,.87.05c.57.1,1.11-.3,1.68-.12h0c.08,0,.1,0,.09.12a1,1,0,0,1-.35.26c-.16-.05-.3.06-.44.1s-.43.23-.67.29-.32.19-.51.23-.56,0-.75.29a.23.23,0,0,1-.17.05.21.21,0,0,0-.13,0,.35.35,0,0,1-.28.14c-.08,0-.14.08-.18.16s0,0,0,.06a.27.27,0,0,0,.23,0c.17-.09.37-.09.54-.19s.17,0,.22.1a.14.14,0,0,1,0,.2,1.37,1.37,0,0,1-.65.4c-.22.06-.45.11-.67.18a3.09,3.09,0,0,1-.85.14c-.07,0-.13,0-.16.06s.06.11.11.12a1.14,1.14,0,0,1,.49.35c.08.09.17.19.1.3a.34.34,0,0,1-.38.19c-.42-.12-.85-.21-1.28-.3-.22,0-.45,0-.68-.07a.11.11,0,0,0-.13.07c0,.07,0,.07.08.1a1,1,0,0,0,.65.19,5,5,0,0,1,1.22.18c.1,0,.18.09.17.18a.18.18,0,0,1-.2.16.33.33,0,0,0-.3.14.74.74,0,0,1-.49.32,3.35,3.35,0,0,1-1.64-.12,9.16,9.16,0,0,1-1.24-.35l-.07,0v.05c.12,0,.24.15.36.15a1.36,1.36,0,0,1,.69.21,1.85,1.85,0,0,0,.85.33,4.32,4.32,0,0,0,1,0,3.82,3.82,0,0,0,.67-.15c.09,0,.21-.08.27.06a.21.21,0,0,1-.1.29,4.68,4.68,0,0,1-1.47.37.19.19,0,0,1-.2-.08.81.81,0,0,0-.36-.2c.13.2.23.34.32.5a.15.15,0,0,0,.21.07c.21-.08.44,0,.66-.08a.14.14,0,0,1,.18.11.15.15,0,0,1-.09.18,1.25,1.25,0,0,1-.3.12,7.2,7.2,0,0,1-1.54,0c-.33,0-.6-.25-.93-.28a.37.37,0,0,1-.2-.07,2.67,2.67,0,0,0-.87-.36A6.07,6.07,0,0,0,123,40c-.06,0-.15,0-.16.06s.07.09.13.1a5.79,5.79,0,0,1,1.71.69c.46.25.87.56,1.33.8a.47.47,0,0,1,.14.14c.08.08.14.19,0,.28a.25.25,0,0,1-.33,0,2.09,2.09,0,0,1-.28-.22,4.65,4.65,0,0,0-.7-.49,4.64,4.64,0,0,1-.42-.25,1.5,1.5,0,0,0-.54-.19.19.19,0,0,0,.11.11,3.14,3.14,0,0,1,.31.18c.06,0,.13.11.09.2s-.14.1-.22.1a.89.89,0,0,1-.26-.09,1.84,1.84,0,0,0-.82-.36c-.12,0-.2.07-.3.08a1.19,1.19,0,0,1-.53,0l.09.07.17,0a4.53,4.53,0,0,1,1.25.33,2.22,2.22,0,0,0,.6.24,3.21,3.21,0,0,1,1.12.57c.2.13.36.33.56.46a2.71,2.71,0,0,1,.68.67,3.32,3.32,0,0,1,.51.77.18.18,0,0,1,0,.2.15.15,0,0,1-.18,0,.45.45,0,0,1-.22-.21,5.49,5.49,0,0,0-.63-.81,3.29,3.29,0,0,0-1-.77,9.51,9.51,0,0,0-1.14-.6,15,15,0,0,0-1.41-.52c-.16,0-.29-.15-.45-.18a.3.3,0,0,0,.19.14,2.48,2.48,0,0,1,.77.45,14.73,14.73,0,0,1,1,1.05c.16.18.3.38.48.55a.2.2,0,0,1,0,.25s0,.13-.13.12a.31.31,0,0,1-.24-.16s0-.1-.07-.14c-.26-.24-.46-.54-.71-.79a6.37,6.37,0,0,0-1.24-.91c-.2-.11-.42-.2-.62-.32a.6.6,0,0,0-.11-.06c-.15,0-.25-.07-.23-.24s0-.09-.08-.11-.06,0-.08,0a.21.21,0,0,1-.27.11.08.08,0,0,0-.11.05c0,.06,0,.07.06.09a3,3,0,0,0,.63.24,2.29,2.29,0,0,1,.87.66.71.71,0,0,1,.11.25.15.15,0,0,1-.09.18.22.22,0,0,1-.24-.11,1.5,1.5,0,0,0-.88-.68,4.5,4.5,0,0,1-.48-.16,1.83,1.83,0,0,0-1-.11l0,0c.43.09.84.24,1.26.36a.46.46,0,0,1,.35.31c0,.15,0,.23-.18.19a1,1,0,0,1-.3-.09,3.54,3.54,0,0,0-1.24-.4.44.44,0,0,0-.16,0,1.5,1.5,0,0,1-.7,0c0,.07.1.06.15.07a.22.22,0,0,1,.14.18c0,.08-.08.07-.13.11s-.3,0-.45.07a.15.15,0,0,0-.16.1.09.09,0,0,0,0,.11c.08.07.14,0,.21,0a.24.24,0,0,1,.3,0s.09.07.06.14a.26.26,0,0,1-.24.17.64.64,0,0,0-.35.12c-.14.08-.24,0-.26-.13a.21.21,0,0,0,0-.11c-.16.07-.16.07-.12.14s.12.27-.15.3c-.07,0-.08,0-.08.1s0,.08,0,.11.07,0,.09,0a.14.14,0,0,1,.13-.05.67.67,0,0,0,.45-.16.89.89,0,0,1,.49-.2c.19,0,.18.13.17.27s-.1.16-.21.12a.63.63,0,0,0-.36,0s-.1,0-.1.09.06.07.1.07c.19,0,.13.13.06.21a.45.45,0,0,1-.17.13,1.21,1.21,0,0,0-.46.31,1.94,1.94,0,0,0,.3-.13,2.79,2.79,0,0,1,1.19-.42.09.09,0,0,0,.09,0c0-.06,0-.07-.06-.09s-.17-.11-.14-.21.13-.14.23-.16l0,0a4.84,4.84,0,0,1,.85,0c.41.08.82.15,1.23.26a5.61,5.61,0,0,1,1.51.65,6.41,6.41,0,0,1,.7.45c.32.25.62.52.93.78.06.05.14.11.14.2a.22.22,0,0,0,.23.23s.07,0,.1.07.09.25.16.3a3.23,3.23,0,0,1,.47.58c.08.1.13.19,0,.3a.25.25,0,0,1-.27.09.18.18,0,0,1-.15-.24.07.07,0,0,0,0-.06c-.1-.22-.29-.38-.41-.59a2.08,2.08,0,0,0-.46-.48,12,12,0,0,0-1.21-.92,7.62,7.62,0,0,0-1.49-.73,12.26,12.26,0,0,0-1.47-.4c.07.21,0,.33-.12.3a3.61,3.61,0,0,0-1.49.23,3,3,0,0,0-.55.24,2.1,2.1,0,0,0-1,.62c-.09.13-.25.22-.32.43a4.45,4.45,0,0,1,.81-.57,1.38,1.38,0,0,1,.59-.2,2,2,0,0,0,.49,0,3.71,3.71,0,0,1,.67-.2,2.72,2.72,0,0,1,1.3,0h0a3.08,3.08,0,0,1,1.47.2,4.8,4.8,0,0,1,.63.24,5.11,5.11,0,0,1,1.09.62c.13.1.17.27.31.35a.75.75,0,0,1,.27.26,4.87,4.87,0,0,1,.47.87,1.24,1.24,0,0,1,.16.4,1.81,1.81,0,0,0,.11.65.23.23,0,0,1-.08.3c-.08.06-.14.1-.23.05s-.06-.18-.08-.28,0-.45-.07-.67a3.56,3.56,0,0,0-.73-1.26c-.33-.28-.68-.5-1-.75s-.59-.27-.86-.45a.36.36,0,0,0-.22-.07,1.33,1.33,0,0,1-.44-.09c-.16,0-.34,0-.51-.07s-.43.11-.64,0h-.08a5.06,5.06,0,0,1-.78.12.68.68,0,0,0-.37.09,5.09,5.09,0,0,1-1,.53,2.28,2.28,0,0,0-.57.36.31.31,0,0,1-.14.07.3.3,0,0,0-.23.35c.08-.16.23-.19.34-.28a3.8,3.8,0,0,1,1.14-.61,4.31,4.31,0,0,1,1.07-.27,1.4,1.4,0,0,1,.54,0,.66.66,0,0,0,.44,0,.21.21,0,0,1,.26.08.15.15,0,0,1,0,.17.17.17,0,0,1-.24.08h0a7.85,7.85,0,0,1-1.19.09c-.32.05-.63.11-.95.18a.21.21,0,0,0-.17.15h.06a2.67,2.67,0,0,1,1.16-.1,5,5,0,0,0,.5.11,1.21,1.21,0,0,1,.59.22l.44.24a4.51,4.51,0,0,1,1.22.89c.1.1.31.13.24.35,0,0,0,.06.07.06s.14.09.2.15a.13.13,0,0,1,0,.17.12.12,0,0,1-.15.06,2.3,2.3,0,0,0-.52,0,.18.18,0,0,1-.2-.13c0-.08,0-.17,0-.22a.17.17,0,0,1,.23,0,.17.17,0,0,0,.22,0,3.71,3.71,0,0,1-.73-.41,5.68,5.68,0,0,0-1.81-1c-.13,0-.3,0-.43,0a2.63,2.63,0,0,0-.79,0,1.41,1.41,0,0,0-.49.12c-.09,0-.22.07-.3-.06s-.12-.1-.19,0a2.06,2.06,0,0,1-.68.52.24.24,0,0,0-.1.1c-.13.21-.3.39-.45.59a1,1,0,0,0-.26.74.12.12,0,0,0,.07.1c.06,0,.07,0,.08-.08a2.59,2.59,0,0,1,.33-.64c.07-.12.11-.28.24-.35a7.62,7.62,0,0,1,.64-.48,4.75,4.75,0,0,1,.94-.38.18.18,0,0,1,.22.08c0,.08,0,.19,0,.23s-.26.2-.41.18-.39.14-.56.23a2.21,2.21,0,0,0-.84.9,3,3,0,0,1-.45.66.32.32,0,0,0-.07.36,4.77,4.77,0,0,1,.33-.39,1.83,1.83,0,0,1,.74-.59c.17-.05.27-.21.44-.24a.07.07,0,0,0,0-.08c-.12-.19.08-.19.15-.26s.13,0,.2-.06a3.62,3.62,0,0,1,1.32-.37,5.33,5.33,0,0,1,1.49,0,1.39,1.39,0,0,1,.76.43s.08.08.05.15-.06,0-.11,0a.93.93,0,0,1-.73-.27.18.18,0,0,0-.16-.06,8,8,0,0,0-1.69,0,2.16,2.16,0,0,0-.59.16c.07.06.13,0,.18,0s.38-.11.57-.05.19,0,.16.16a.18.18,0,0,1-.21.16A2.12,2.12,0,0,0,119,48a3.66,3.66,0,0,0-1.64.94c-.19.18-.32.42-.52.6,0,0-.08.12,0,.16s.1,0,.13-.07l.43-.54c.18-.23.45-.33.63-.55l.05,0a.29.29,0,0,1,.28.08c.06.1,0,.19-.07.26a.62.62,0,0,1-.28.17c-.12,0-.27.08-.31.23A1.55,1.55,0,0,1,117,50c-.07.06-.2.06-.21.19a.69.69,0,0,0,0,.32s0,.09,0,.09a.12.12,0,0,0,.12-.06c.06-.11.18-.18.26-.27s.2-.13.3,0a.23.23,0,0,1-.08.34c-.17.11-.28.29-.48.36a.14.14,0,0,0-.08.1.36.36,0,0,0,.07.26s.08,0,.11,0,.31-.1.4-.28.07-.12.14-.1.23-.1.33-.19.11-.18.18-.26.33-.2.46-.33a1.25,1.25,0,0,1,.61-.3c.4-.08.81-.15,1.22-.2a.74.74,0,0,1,.44,0c.08.05.19.12.16.24s-.14.1-.24.09a3.7,3.7,0,0,0-.47,0,3.26,3.26,0,0,0-1.15.26,1.81,1.81,0,0,0-.9.73c-.05.08-.15.13-.17.25s-.09.18-.23,0-.1-.12-.15,0a.74.74,0,0,1-.59.39.09.09,0,0,0-.08.13c0,.14.09.28.15.44a.54.54,0,0,1,.39-.22.49.49,0,0,0,.34-.21.76.76,0,0,1,.22-.18,2.24,2.24,0,0,1,.65-.25,1,1,0,0,1,.7.07c.09,0,.15.1.13.2a.16.16,0,0,1-.19.12c-.18,0-.35,0-.53,0a.61.61,0,0,0-.53.17,1.36,1.36,0,0,1-.8.48c-.11,0-.25-.06-.31,0s.09.2.12.31a3.35,3.35,0,0,0,.16.54c.14.37.2.75.32,1.12s.1.72.24,1.06c.07.18,0,.4.13.55a2.74,2.74,0,0,1,.2.73c.06.16-.08.28-.25.26a.61.61,0,0,1-.46-.42,1.28,1.28,0,0,0-.25-.43,1.53,1.53,0,0,1-.35-.53,6,6,0,0,1-.44-1,11.09,11.09,0,0,1-.37-1.4c0-.3-.08-.34-.38-.33a.33.33,0,0,1-.37-.28c0-.23-.16-.27-.33-.31a2.9,2.9,0,0,0-.41-.06c-.25,0-.53-.11-.75.13a1.31,1.31,0,0,0-.12.11.19.19,0,0,1-.25,0,.18.18,0,0,1,.06-.35.44.44,0,0,0,.23-.13.53.53,0,0,1,.55-.17,2.66,2.66,0,0,1,.63.09s.09,0,.1,0c-.34-.1-.66-.27-1-.4-.17-.07-.31-.21-.49-.22a.73.73,0,0,1-.36-.11.63.63,0,0,0-.24-.09l-1-.11a.33.33,0,0,0-.13,0c-.32.13-.67.14-1,.24a.16.16,0,0,1-.22-.15c0-.12,0-.21.16-.23l.22,0c.27,0,.52-.16.81-.18a.42.42,0,0,0,.44-.27l.05,0a1.64,1.64,0,0,1,.67-.15,1.93,1.93,0,0,0,.42,0,2.62,2.62,0,0,1,1.24.21c.12.05.23.13.19.27s-.18.14-.31.1-.39-.2-.63-.19l-.27,0a2.65,2.65,0,0,0-1,0s.06,0,.09,0a2.75,2.75,0,0,1,1,.19,3.4,3.4,0,0,1,1,.41c.26.18.57.26.82.45,0,0,.07.06.11,0s0-.09,0-.13a1.68,1.68,0,0,1-.13-.46c0-.36-.09-.72-.08-1.08,0-.13,0-.22-.19-.2s-.09,0-.13-.08a2.75,2.75,0,0,0-1-.81s-.08,0-.1-.06-.26-.17-.13-.35a.08.08,0,0,0,0-.1,2.58,2.58,0,0,0-.32-.18s-.09,0-.11,0,0,.06,0,.09.12.07.07.16a.2.2,0,0,1-.2.11.67.67,0,0,1-.28,0,.94.94,0,0,0-.85,0,.18.18,0,0,1-.22-.07.34.34,0,0,0-.24-.18c-.11,0-.11-.15-.07-.21a.51.51,0,0,1,.35-.24c.24,0,.48-.1.72-.11a2.25,2.25,0,0,1,1.46.39.19.19,0,0,1,.09.26c-.07.12,0,.14.08.18a1.84,1.84,0,0,1,.83.71c0,.07.12.09.21.12-.1-.25,0-.51-.11-.73-.08,0-.15.2-.27.09a3.6,3.6,0,0,0-.47-.39.2.2,0,0,1-.08-.22.15.15,0,0,1,.16-.13c.1,0,.21,0,.27.12s.29.2.39.35a3.47,3.47,0,0,1,0-.64c0-.17,0-.31-.16-.39a.25.25,0,0,1-.09-.13,1.85,1.85,0,0,0-.3-.39,3.18,3.18,0,0,0-.52-.44,3.87,3.87,0,0,0-.85-.52.26.26,0,0,1-.18-.28c0-.12.17-.1.28-.08s.32.18.52.21a2.16,2.16,0,0,1-.27-.25c0-.05-.06-.09,0-.15a.11.11,0,0,1,.13-.06c.1,0,.18.07.28.08-.1-.07-.25-.14-.22-.24s0-.29-.16-.38a.13.13,0,0,1,0-.19.16.16,0,0,1,.18-.09l.16,0c.2,0,.28.22.47.25a.83.83,0,0,0-.29-.36.29.29,0,0,1-.17-.27.39.39,0,0,0-.08-.2s-.07-.06-.11,0,0,.07,0,.1.11.19,0,.3a.31.31,0,0,1-.42,0,6.74,6.74,0,0,0-.63-.46,5.26,5.26,0,0,0-1.4-.53,2.42,2.42,0,0,0-1.2.07,1,1,0,0,0-.74.5.17.17,0,0,1-.2.1c-.1,0-.07-.15-.06-.23a1.13,1.13,0,0,1,.77-.7l.71-.13a3.2,3.2,0,0,0-1-.14,1.93,1.93,0,0,0-.71.05,1.31,1.31,0,0,0-.47.09.15.15,0,0,1-.24-.1c0-.13,0-.19.15-.22s.18,0,.24-.07.18-.1.3-.07a.15.15,0,0,0,.13,0c.2-.11.42,0,.63-.05s.54.1.82.12.78.27,1.2.3l0,0a7,7,0,0,0,.86.45,2.64,2.64,0,0,1,.69.35.64.64,0,0,0,.31-.11.25.25,0,0,0-.12-.21,2.58,2.58,0,0,1-.65-.49c-.08-.08-.15-.11-.24,0a.25.25,0,0,1-.4,0,1.57,1.57,0,0,0-.56-.39,1.87,1.87,0,0,0-.48-.26,4.32,4.32,0,0,0-1.13-.14.83.83,0,0,0-.27,0c-.14,0-.22,0-.32-.12a.18.18,0,0,1-.05-.19.15.15,0,0,1,.18-.07.87.87,0,0,0,.48,0s.1,0,.15,0,.18.11.27,0a1.37,1.37,0,0,0-.7-.27,7.86,7.86,0,0,0-1.26-.27h-.07c-.11.08-.22,0-.33,0a1.13,1.13,0,0,0-.45,0,.82.82,0,0,1-.41,0,.71.71,0,0,0-.45.07l-.26.11c-.11,0-.21,0-.25-.1a.29.29,0,0,1,.32-.4,1.63,1.63,0,0,0,.44,0l.4-.05c.15,0,.3,0,.45,0a1.7,1.7,0,0,1,.71,0c.37.07.74.11,1.11.2a13,13,0,0,1,1.52.52c.1,0,.22,0,.31.07l1.41.78a2,2,0,0,1,.33.25,1.43,1.43,0,0,0,.42.34c-.15-.19-.21-.42-.45-.52a.54.54,0,0,1-.25-.3.55.55,0,0,0-.25-.27,1.69,1.69,0,0,1-.29-.17c-.39-.26-.76-.54-1.17-.78s-.55-.24-.82-.38a1.25,1.25,0,0,0-.71-.17.28.28,0,0,1-.33-.25c0-.18-.09-.21-.22-.24a4,4,0,0,0-1.29-.05c-.21,0-.31,0-.26-.26s0-.09,0-.11-.14,0-.2,0,0,.09,0,.14a.14.14,0,0,1,0,.2c-.07.06-.13,0-.18,0a.19.19,0,0,0-.29,0,.13.13,0,0,1-.2,0,.14.14,0,0,1,0-.2l.1-.11c.17-.17.44-.21.56-.45s.16-.12.26-.15.22,0,.28-.17.19-.09.29-.05.14.08.09.17a.24.24,0,0,1-.25.14.33.33,0,0,0-.14,0c.12.19,0,.33-.14.5.27,0,.5.09.71,0a2,2,0,0,1,.82-.14.2.2,0,0,1,.23.16.33.33,0,0,0,.38.16,6.51,6.51,0,0,0,1,.36c.22,0,.39.2.6.26a1.09,1.09,0,0,1,.48.27c.08.08.17.14.08.26s-.19.05-.27,0-.43-.24-.65-.36a.81.81,0,0,0-.21-.1c.72.44,1.49.82,2.18,1.31,0-.11-.16-.09-.21-.19a1.3,1.3,0,0,0-.41-.43.13.13,0,0,1,0-.17c0-.09.11,0,.16,0a.57.57,0,0,1,.32.2c.11.17.31.28.38.51,0,.05.15.07.19.13.15.26.43.42.58.68.06.1.13.18.11.3l0,.08a3.59,3.59,0,0,1,.42.6c0-.23-.11-.39-.19-.57A5.86,5.86,0,0,0,114,42a.65.65,0,0,0-.18-.15.4.4,0,0,1-.22-.2,1,1,0,0,0-.48-.45,3.9,3.9,0,0,1-.46-.34,3.23,3.23,0,0,0-.62-.3c-.21-.09-.42-.18-.64-.25a4.94,4.94,0,0,0-.52-.13,1.17,1.17,0,0,1-.45-.13c-.07-.05-.14,0-.21,0s-.26-.09-.21-.25.18-.12.29-.08a3.45,3.45,0,0,0,.54.11,7.72,7.72,0,0,1,2,.7c.1,0,.21,0,.29.12s.27.2.39.31a.82.82,0,0,1,.29.42c0,.21.28.34.43.21a.35.35,0,0,1,.4,0c0-.3,0-.31.23-.32s.07-.08,0-.11c-.2-.16-.16-.43-.26-.64s-.06-.14-.15-.13-.19,0-.22.09,0,.15.09.2a.32.32,0,0,1,.1.1.37.37,0,0,1,.13.39.18.18,0,0,1-.13.12c-.08,0-.1,0-.12-.08a1,1,0,0,0-.32-.31.39.39,0,0,1-.17-.27c0-.05,0-.13,0-.13s-.05.09,0,.14a.15.15,0,0,1-.07.19.16.16,0,0,1-.22,0,1.92,1.92,0,0,1-.13-.17.39.39,0,0,0-.3-.21.41.41,0,0,1-.35-.18c0-.07-.08-.06-.14,0a.46.46,0,0,1-.64-.18.19.19,0,0,0-.19-.11,3.53,3.53,0,0,1-.73-.17,5,5,0,0,0-1.33-.17.92.92,0,0,1-.79-.22.27.27,0,0,1-.08-.24c0-.09.09-.11.19-.11a.87.87,0,0,0,.66-.15.12.12,0,0,1,.1,0c.23.06.46,0,.68.09a.25.25,0,0,1,.15.1c0,.05.14.08.08.18s-.13,0-.2,0-.33,0-.5-.06a8.55,8.55,0,0,0,1.41.27.56.56,0,0,0-.4-.19c-.06,0-.21,0-.12-.15s0-.13-.08-.15a.5.5,0,0,1-.28-.1,1.34,1.34,0,0,0-.48-.3,3.41,3.41,0,0,0-1.35-.16.42.42,0,0,1-.45-.25.24.24,0,0,0-.17-.15.14.14,0,0,1-.11-.18.12.12,0,0,1,.19-.07,1.84,1.84,0,0,0,.51.14c.11,0,.22.12.36.07a1.79,1.79,0,0,1,.86,0,3.31,3.31,0,0,0,.45.12.32.32,0,0,1,.29.24c.07.16.24.19.4.23a.35.35,0,0,1-.21-.15c0-.05-.11-.08-.07-.16s.1-.08.17-.1c.23-.09.44,0,.69.08a.43.43,0,0,1-.19-.25c-.09-.22-.15-.25-.35-.17a.15.15,0,0,1-.13,0c-.41-.1-.84-.09-1.25-.19a.17.17,0,0,0-.12,0c-.15.12-.3.06-.45,0a.16.16,0,0,1-.12-.2c0-.09.09-.13.19-.14a.92.92,0,0,0,.55-.13.17.17,0,0,1,.22,0c.05.08.11.06.18,0a2.17,2.17,0,0,1,1.26.08c.06,0,.11,0,.12-.05a3.28,3.28,0,0,1-.8-.46c-.13-.15-.09-.29.1-.36a.29.29,0,0,1,.32.09c.13.15.24.31.48.28.07,0,.12,0,.18-.05s.23-.19.43-.08.43.23.63.36.26.17.29.32.12.17.24.2A1.63,1.63,0,0,0,113,37c-.39-.32-.69-.73-1.08-1a3.94,3.94,0,0,0-1-.67.22.22,0,0,1-.13-.31c.08-.13,0-.13-.09-.15l0,0a.35.35,0,0,1-.22-.08c-.09-.05-.2-.1-.15-.23a.23.23,0,0,1,.3-.14c.4.11.82.17,1.21.29l.24.1.55.31c0-.05,0-.07,0-.09a9.13,9.13,0,0,1-.77-1.36,5.89,5.89,0,0,0-.24-.58.31.31,0,0,1,.1-.38.24.24,0,0,1,.27,0,.15.15,0,0,1,0,.21.72.72,0,0,0,.16.49s.09.09.15,0a.11.11,0,0,1,.18,0,1.47,1.47,0,0,1,.49.7c.11-.07.24-.11.31,0,.21.28.57.42.71.76a.14.14,0,0,0,.13.07c0-.05-.09-.09-.09-.14a1,1,0,0,0-.33-.51,4.86,4.86,0,0,1-.76-1.23,4.65,4.65,0,0,0-.3-.69c0-.1,0-.24-.13-.34s0-.12,0-.17.06,0,0-.07c-.23-.21-.08-.48-.13-.72a.61.61,0,0,1,0-.3.16.16,0,0,1,.17-.13c.08,0,.08.08.1.14.07.26-.06.52,0,.78l0,.05c0,.07-.11.19.05.2s.06-.13.1-.2v-.07a.51.51,0,0,1,.09-.5c0-.05.06-.15.15-.12a.2.2,0,0,1,.15.17.5.5,0,0,1,0,.27.74.74,0,0,0,0,.26c.09.31.08.63.16.94a4.16,4.16,0,0,0,.67,1.35c.17.25.34.49.5.74s.18.38.41.44c-.13-.21-.3-.38-.42-.6s-.32-.49-.46-.74-.28-.56-.42-.84a2.5,2.5,0,0,1-.23-.93.1.1,0,0,1,.07-.12s.09,0,.12,0,.18.23.17.36c0,.31.21.56.25.85,0,0,0,.06.07.05s0,0,0-.07-.05-.26-.08-.39a11.69,11.69,0,0,0-.44-1.3,3.61,3.61,0,0,0-.48-.91c0-.06-.09-.15,0-.21s.06-.25,0-.35a.17.17,0,0,1,0-.26c.07-.09.15,0,.22,0,.22.16.34.42.58.55.06,0,.07.09.09.14a1.24,1.24,0,0,0,.41.41.27.27,0,0,0,0-.28,5.91,5.91,0,0,1-.35-.52,1.78,1.78,0,0,0-.5-.66.18.18,0,0,1-.08-.21s.08-.09.13-.07a.77.77,0,0,1,.43.17c.12.12.25.27.44.25a.32.32,0,0,1,.35.23,1.09,1.09,0,0,0,.24.35s.08.1.13,0,.1-.11.07-.18-.06-.06-.12,0-.13,0-.16-.11,0-.11,0-.14.11,0,.14.07,0,0,.08,0a1.3,1.3,0,0,0,0-.13,6.32,6.32,0,0,0-.68-1.47.24.24,0,0,1,0-.23c0-.08.13-.07.21-.08s0,0,.08,0a1.48,1.48,0,0,0-.08-.13c0-.07-.09-.08-.13-.12s-.16-.21-.06-.32.21-.06.32,0,.07.27.18.32a2.1,2.1,0,0,1,.66.56,5.39,5.39,0,0,1,.47.6c.2.25.35.53.56.77,0,0,0,.07.1,0s.19-.09.29.09a3,3,0,0,1,.22.88,1.31,1.31,0,0,1,.1.55.75.75,0,0,0,.18.58.21.21,0,0,1-.06.31.35.35,0,0,0,0,.46c.13.1.12.15,0,.24s-.2.11-.15.23,0,.53.13.79,0,.42.14.62a.19.19,0,0,1-.06.24.14.14,0,0,1-.16,0,.18.18,0,0,1-.08-.22.89.89,0,0,0-.11-.48,4.11,4.11,0,0,0-.21-.68s0-.09,0-.14.1-.18.15-.28a1,1,0,0,0,0-.51,5.13,5.13,0,0,0-.27-1.36c0,.16-.16.27-.06.4a.54.54,0,0,1,.1.34.39.39,0,0,0,0,.21,1.58,1.58,0,0,1,.12.53.37.37,0,0,1-.15.39.34.34,0,0,0-.15.31,1.14,1.14,0,0,1-.3.82.33.33,0,0,1-.53.06,1.28,1.28,0,0,0-.2-.11.13.13,0,0,0,0,.16c.08.1,0,.21,0,.31s0,.11-.11,0-.11-.06-.11-.13-.1-.17-.19-.22a1.24,1.24,0,0,1-.67-.64c0-.14-.09-.21-.21-.05a.22.22,0,0,1-.19.06,1.35,1.35,0,0,1,.18.33c.2.33.42.64.63,1,0,0,0,.09.09.09s.22.1.29.22c0-.13,0-.21-.08-.3s0-.17.1-.17h.33c.06,0,.11,0,.12-.08s0-.18.12-.16.35,0,.43.17.24.17.4.08.33,0,.31.16,0,.15.13.19a.4.4,0,0,1,.26.42,1.27,1.27,0,0,0,0,.34,2.48,2.48,0,0,1,0,.77.26.26,0,0,0,.07.25,1.33,1.33,0,0,0,.2-.51,1.23,1.23,0,0,1,.24-.69,2.68,2.68,0,0,0,.46-1c0-.08.06-.13,0-.18s-.08-.13,0-.2,0-.12.12-.07.12.09.08.18a.4.4,0,0,0,0,.11c.13-.16.14-.35.25-.49s0-.1-.06-.11a.18.18,0,0,0-.17,0s-.11.1-.18,0a.23.23,0,0,1-.11-.22,1.66,1.66,0,0,0,0-.32c0-.1,0-.22-.07-.3s-.11.12-.09.19a3.25,3.25,0,0,0,0,.7.15.15,0,0,1-.09.17c-.06,0-.11,0-.15,0a.23.23,0,0,1-.08-.25.5.5,0,0,0,0-.21,1.77,1.77,0,0,1,.08-.69.28.28,0,0,0-.12-.36c-.07,0-.17-.1-.15-.22s0-.47,0-.7,0-.13-.1-.13-.16-.11-.16-.2,0-.17.16-.16.13-.06.12-.15a4,4,0,0,1,0-.6,3.89,3.89,0,0,1,0-.59.08.08,0,0,0-.08-.09c-.06,0,0,.05,0,.08s0,.15,0,.23a1,1,0,0,1,0,.51c0,.07,0,.16-.14.15a.16.16,0,0,1-.15-.13,1,1,0,0,1-.08-.29,3.26,3.26,0,0,0-.36-.89s0-.12-.1,0-.14.09-.22,0a1,1,0,0,1-.17-.32c-.07-.19-.26-.32-.23-.54a.55.55,0,0,0-.21-.51.66.66,0,0,1-.19-.38c0-.14,0-.21.18-.2a.51.51,0,0,1,.45.33,1.29,1.29,0,0,0,.19.32,1.55,1.55,0,0,1,.39.65,2.88,2.88,0,0,0,.24.5s0,.11.09.06a.09.09,0,0,0,0-.13c-.1-.08-.09-.18-.11-.29a.81.81,0,0,0-.13-.49.14.14,0,0,1,0-.2c.06-.09.12,0,.19,0s.06,0,.09,0a.08.08,0,0,0,0-.1,5.74,5.74,0,0,1-.4-.78,4.92,4.92,0,0,1-.24-.45,3.2,3.2,0,0,0-.33-.42.14.14,0,0,1,0-.18c0-.08.09-.07.16-.06s.18.08.28.09a.6.6,0,0,1,.49.36c0,.1.14.17.17.26a.85.85,0,0,0,.29.4s0,.09,0,.13,0,.1,0,.13a.68.68,0,0,1,.19.4.7.7,0,0,0,0-.57c-.12-.26-.13-.54-.25-.8,0-.08.05-.16,0-.23a1.84,1.84,0,0,1-.28-.56,1.56,1.56,0,0,0-.47-.71,1.79,1.79,0,0,1-.23-.25c0-.05-.07-.09,0-.15a.13.13,0,0,1,.14-.05.53.53,0,0,1,.43.28.37.37,0,0,0,.18.19.82.82,0,0,1,.25.24,9.55,9.55,0,0,1,.73,1.38c0,.07.1.13.16.11s.08-.11,0-.2a3,3,0,0,1-.25-.47,2.59,2.59,0,0,0-.37-.79c-.09-.13-.07-.21.09-.26l.16,0c.11,0,.17,0,.19.13a1,1,0,0,0,.23.49c.06.06.13.14,0,.22a.1.1,0,0,0,0,.18c.13-.16.13-.16.25-.12s.16.12.18.25a1,1,0,0,0,.12.32.18.18,0,0,1,0,.27c-.12,0-.18,0-.21-.15s0-.28-.18-.36,0-.06-.09,0a.06.06,0,0,0,0,.09,2.1,2.1,0,0,1,.22.59s0,.07.1,0,.15-.07.16-.18c.06.08.13,0,.18,0s0-.09,0-.14c0-.23-.16-.42-.19-.65a.62.62,0,0,0-.11-.34.18.18,0,0,1,0-.25c.06-.1.14-.06.22,0a.12.12,0,0,0,.12,0s0-.09,0-.12a3.68,3.68,0,0,1-.23-.44.18.18,0,0,1,0-.26c.07-.06.16,0,.23.05a2,2,0,0,1,.42.66.37.37,0,0,1,0,.15c0,.06-.06.16.05.18s.08-.09.12-.14a.22.22,0,0,0,0-.14.47.47,0,0,1,.06-.31,2.55,2.55,0,0,0,.31-.79c0-.18.13-.33.35-.33a.12.12,0,0,0,.11-.08.5.5,0,0,1,.17-.23,2.09,2.09,0,0,0,.33-.45.7.7,0,0,1,.55-.42.17.17,0,0,0,.19-.12,2.59,2.59,0,0,1,.32-.47,1.13,1.13,0,0,1,.42-.39c.06,0,.1,0,.15,0s0,.08,0,.14a1.93,1.93,0,0,1-.29.64,1.56,1.56,0,0,0,.51-.58.67.67,0,0,1,.3-.3.73.73,0,0,1,.32-.12.16.16,0,0,1,.16.12.32.32,0,0,1-.08.32c-.08.1-.22.17-.21.32a.55.55,0,0,1-.1.39s-.05.06,0,.1.08,0,.11,0a.39.39,0,0,0,.08-.1,6.88,6.88,0,0,1,.38-.77c.12-.26.36-.43.47-.69a1.59,1.59,0,0,1,.17-.25c.09-.15.27-.11.39-.19a.11.11,0,0,1,.16,0,.13.13,0,0,1,0,.16c-.19.31-.29.69-.75.73a.18.18,0,0,0-.15.27.25.25,0,0,1,0,.24c-.25.21-.23.6-.52.78,0,0,0,.08,0,.11-.1.21,0,.39.07.59a3,3,0,0,0,.46-1.17.62.62,0,0,1,.13-.37c.11-.11.13-.34.34-.31a.31.31,0,0,0,.36-.28.89.89,0,0,1,.36-.56c.06-.06.13-.14.22-.07a.2.2,0,0,1,0,.25.17.17,0,0,1-.08.12c-.16.1-.22.28-.37.39a.15.15,0,0,0,0,.17.56.56,0,0,1-.16.66,1.38,1.38,0,0,0-.45.57,1.23,1.23,0,0,1-.23.44,5.37,5.37,0,0,0-.72,1.41,7.35,7.35,0,0,1-.34.76c0,.1-.16.17-.2.28-.09.27-.21.54-.29.82a1.12,1.12,0,0,0-.07.61,2,2,0,0,0,.32-.67,5,5,0,0,1,.52-1.39,2.36,2.36,0,0,0,.29-.65,3.6,3.6,0,0,1,.49-1c0-.06.09-.19.22-.12s.07.16.06.25-.18.29-.23.44A8.39,8.39,0,0,1,124,25.4a.38.38,0,0,0,0,.1,5.83,5.83,0,0,1-.22.63,8.73,8.73,0,0,0-.46,1.2.94.94,0,0,1-.15.28c-.07.07-.17.17-.11.27a.58.58,0,0,1,0,.43c.25-.22.51-.4.76-.58l.71-.53a10.47,10.47,0,0,1,1.58-1.12,8.32,8.32,0,0,0,1.64-1,.17.17,0,0,1,.22,0c.07.06.09,0,.12,0a1.94,1.94,0,0,1,.52-.34,1.57,1.57,0,0,1,.48-.2c.15-.05.22-.19.36-.23s.41-.19.64-.25a6.52,6.52,0,0,1,.63-.18c.11,0,.22-.1.18-.23s0-.28-.14-.25a1.5,1.5,0,0,1-.73.05l-.05,0a.68.68,0,0,0-.41.23c-.21.22-.5.35-.68.6a.27.27,0,0,1-.14.12.41.41,0,0,0-.3.24c0,.06-.09.13-.17.09s-.08-.12-.06-.21a.32.32,0,0,1,.23-.22s.08,0,.11-.05c.15-.25.45-.36.61-.62,0,0,.09-.05.13-.08l.2-.14s0-.06,0-.09-.08-.06-.1,0-.3.09-.34.28a.19.19,0,0,1-.08.1l-.6.5c-.08.07-.16.16-.25.06a.2.2,0,0,1,0-.3c.13-.12.29-.17.39-.29a.9.9,0,0,1,.38-.32c.19-.09.2-.29.26-.45s-.05-.07-.08-.07-.1.06-.14.11a3.1,3.1,0,0,1-.73.67.38.38,0,0,0-.24.32.26.26,0,0,1-.16.18c-.07,0-.12,0-.15-.11s0-.06-.09,0l-.15.12c.13.11.17.22.07.31s-.32.42-.52.6a2.85,2.85,0,0,0-.59.61.41.41,0,0,1-.21.14,1.49,1.49,0,0,0-.49.28c-.15.16-.33.19-.47,0s-.14-.1-.23,0-.14.15-.12.27,0,.16-.11.16a.49.49,0,0,0-.32.2c-.1.1-.16.06-.21,0a.27.27,0,0,1,0-.3,4,4,0,0,0,.55-1c-.15-.14-.19,0-.25.07-.22.35-.3.76-.49,1.12a2.78,2.78,0,0,0-.29.76,1.62,1.62,0,0,1-.22.46.23.23,0,0,1-.27.13c-.14-.07-.07-.2,0-.25.23-.29.22-.66.37-1a12.13,12.13,0,0,1,.72-1.55l.25-.44a.31.31,0,0,0,.05-.17,1,1,0,0,1,.44-.83,4.53,4.53,0,0,0,.82-1.08.17.17,0,0,0,0-.23c-.16-.09-.13-.21-.09-.33s0-.1,0-.15a.27.27,0,0,1-.09-.33.49.49,0,0,1,.19-.27.7.7,0,0,0,.19-.55c0-.33.14-.58.47-.56a.17.17,0,0,0,.15,0,1.07,1.07,0,0,1,.54-.34c.07,0,.12-.08.16-.15a.33.33,0,0,1,.1-.14.14.14,0,0,1,.19,0,.14.14,0,0,1,0,.17s-.06,0,0,.09a.37.37,0,0,1,.54-.12s0,0,.06,0c.19-.24.49-.16.73-.22.06,0,.08,0,.11.07s.13.14.24.06a2.26,2.26,0,0,1,.26-.16.28.28,0,0,1,.28,0c.05,0,.11.07.08.15a.24.24,0,0,1-.19.17c-.17,0-.31.17-.49.19a.14.14,0,0,0-.07.06c0,.06-.11.11,0,.18s.13,0,.17-.05a.91.91,0,0,1,.24-.16.23.23,0,0,1,.23,0c.08.06.05.14.06.22s-.08.1,0,.11.09,0,.11-.09a.55.55,0,0,1,.23-.29c.24-.17.48-.34.73-.5s.52-.48.92-.42c0,0,.06,0,.08,0a1.18,1.18,0,0,1,.84-.15c.15,0,.29.12.44.08a.42.42,0,0,1,.38.06.15.15,0,0,0,.21,0,.53.53,0,0,1,.63,0,.46.46,0,0,0,.44,0,2,2,0,0,1,.81-.14.15.15,0,0,1,.15.15c0,.08,0,.14.1.15s.13,0,.17-.11.06-.11.14-.09.28-.06.4.05.07,0,.1,0a.56.56,0,0,1,.65,0s.06.06.12,0,.13,0,.14.06,0,.1-.11.11-.1.09-.12.15,0,.09.07.11.12,0,.18,0a.37.37,0,0,0,.07-.14.26.26,0,0,1,.26-.18c.33,0,.57.22.87.3.06.23.23.24.43.2s.18.11.29.08c.31-.06.59.13.9.14a.2.2,0,0,1,.14.08.43.43,0,0,0,.33.17c.1,0,.2,0,.26.12a.38.38,0,0,0,.34.19c.08,0,.12.06.16.11a4,4,0,0,0,.71.65c.09.07.21.14.17.27s0,.13.1.15a1.13,1.13,0,0,1,.24.08c.05,0,.14,0,.12.11a.76.76,0,0,1-.22.4c-.08.08-.16-.05-.24-.06.08-.09,0-.17,0-.25" transform="translate(-15 -18.68)"/><path class="cls-3" d="M113.56,47h-.28a1.92,1.92,0,0,0-1,.24c-.32.17-.65.33-1,.51a1.3,1.3,0,0,0-.39.27s0,.06-.07.05a.2.2,0,0,0-.22.09.92.92,0,0,0-.17.41c0,.12.08.16.18.09a1.5,1.5,0,0,1,.41-.23l0-.05c.15-.3.47-.36.71-.53a3.38,3.38,0,0,1,1.05-.41,1.78,1.78,0,0,1,.52,0,1,1,0,0,1,.6.15.1.1,0,0,0,.16,0c.06-.14.13-.09.21,0a3.58,3.58,0,0,1,.56.54,1.29,1.29,0,0,0,.16.17c.07.07.15.13.24,0a.2.2,0,0,0,0-.27,3.15,3.15,0,0,0-1.12-1.2.82.82,0,0,1-.26-.2.78.78,0,0,0-.54-.21c-.3,0-.61,0-.91-.07a5.27,5.27,0,0,0-1,0,4.45,4.45,0,0,1-.88.13.19.19,0,0,0-.13,0c-.19.19-.48.21-.67.36s-.66.39-.76.8c0,.09-.06.18,0,.24s.17,0,.24-.07.18-.17.18-.31,0-.06.08-.07a4.58,4.58,0,0,0,.76-.47,1,1,0,0,1,.58-.21,2.94,2.94,0,0,0,.59,0,4.44,4.44,0,0,1,1.45.14,1.48,1.48,0,0,1,.6.18" transform="translate(-15 -18.68)"/><path class="cls-3" d="M113.7,49.2c.13,0,.29.14.35-.08s-.06-.23-.28-.24a6.61,6.61,0,0,0-.77,0,4.42,4.42,0,0,0-.63.14l-.68.22c-.14,0-.24.17-.4.2s-.1.1-.1.18a.15.15,0,0,0,.12.14c.12,0,.25.09.36,0s.44-.21.67-.26a3.15,3.15,0,0,1,1.33.08,1,1,0,0,1,.25.13l-.71,0c-.1,0-.22,0-.22.12a.21.21,0,0,0,.19.21,4.09,4.09,0,0,0,.7,0,4.21,4.21,0,0,1,.5,0h.18c.09,0,.23,0,.26-.1a.28.28,0,0,0-.15-.27c-.26-.14-.47-.38-.79-.37a.23.23,0,0,1-.18-.08" transform="translate(-15 -18.68)"/><path class="cls-3" d="M113.55,44.84a6.39,6.39,0,0,0-.88-.37,3.41,3.41,0,0,0-1-.27,5,5,0,0,0-1.44,0s-.11,0-.17,0a.22.22,0,0,0-.26.06c-.07.09-.08.15,0,.21a.56.56,0,0,0,.39.11c.26,0,.52,0,.79,0a6.76,6.76,0,0,1,.89.11,4.43,4.43,0,0,1,1.58.54.65.65,0,0,0,.23.09c.08,0,.17,0,.2-.06a.19.19,0,0,0,0-.23.91.91,0,0,0-.26-.2" transform="translate(-15 -18.68)"/><path class="cls-3" d="M122.11,49a2,2,0,0,0-.69-.12,5.36,5.36,0,0,0-1.49.11,3.72,3.72,0,0,0-.93.29c-.22.1-.51.19-.59.49,0,.09-.08.18,0,.24s.15,0,.22-.06a3.41,3.41,0,0,1,1.46-.66,6.12,6.12,0,0,1,1.6,0c.14,0,.25.15.4.16l.11,0c.07,0,.16,0,.21-.05s0-.15-.08-.2a.64.64,0,0,0-.25-.21" transform="translate(-15 -18.68)"/><path class="cls-3" d="M121.78,46.43l.08,0c.27-.18.46.08.68.12a2.73,2.73,0,0,1,1.38.92c.09.08.08.25.23.29s.21.14.31,0a.24.24,0,0,0-.06-.35c-.2-.17-.35-.38-.53-.56a1.77,1.77,0,0,0-.7-.47,9.4,9.4,0,0,0-.92-.39,2.2,2.2,0,0,0-.37-.06c-.11,0-.24,0-.27.14a.28.28,0,0,0,.17.33" transform="translate(-15 -18.68)"/><path class="cls-3" d="M110.48,46.19c.16.12.23,0,.28-.1s.33-.2.5-.29a.51.51,0,0,0,.17-.07,1.29,1.29,0,0,1,1-.25,6.53,6.53,0,0,1,.77.14c.12,0,.25,0,.27-.14s-.08-.21-.21-.25A3.18,3.18,0,0,0,112,45.1a2.17,2.17,0,0,0-.77.28,4,4,0,0,1-.59.29.37.37,0,0,0-.27.37c0,.07,0,.13.09.15" transform="translate(-15 -18.68)"/><path class="cls-3" d="M120.75,51.06a2.12,2.12,0,0,0-1.31-.34,1.09,1.09,0,0,0-.68.15c-.11.08-.24.08-.34.17a.36.36,0,0,0-.1.25c0,.1.17.18.26.09s.49-.17.69-.34h0c.19.11.42,0,.62.11s.4.06.55.2a1.41,1.41,0,0,0,.59.25c.06,0,.11,0,.15,0s0-.1,0-.16-.3-.22-.43-.33" transform="translate(-15 -18.68)"/><path class="cls-3" d="M121.76,48.24a.31.31,0,0,0-.19,0,2.67,2.67,0,0,1-.63,0,2.4,2.4,0,0,0-1,.16,2.18,2.18,0,0,1-.44.11c-.19,0-.31.2-.51.22s-.14.13-.14.24a.14.14,0,0,0,.08.15c.06,0,.1,0,.15,0a3.77,3.77,0,0,1,1.39-.48,6.63,6.63,0,0,1,.89,0,1.41,1.41,0,0,1,.41,0,.09.09,0,0,0,.11-.09.26.26,0,0,0-.13-.25" transform="translate(-15 -18.68)"/><path class="cls-3" d="M118.05,35.05a.21.21,0,0,0,0-.23,6.13,6.13,0,0,1-.27-1.2c0-.13-.05-.27-.07-.4s-.12-.21-.24-.15a.19.19,0,0,0-.09.29,1.64,1.64,0,0,1,.1,1,.86.86,0,0,0,.1.59c.06.07,0,.14,0,.21a.12.12,0,0,0,.08.14.11.11,0,0,0,.15,0,2.18,2.18,0,0,1,.21-.22" transform="translate(-15 -18.68)"/><path class="cls-3" d="M119.81,42.7c-.2.14-.11.2,0,.29s.42,0,.61.15.43,0,.64.13.19.08.23,0a.21.21,0,0,0-.15-.26,2.43,2.43,0,0,0-.92-.22.89.89,0,0,1-.31-.08s-.05,0,0-.06-.09-.2-.21-.21-.15,0-.23,0-.14,0-.13.11a.13.13,0,0,0,.13.13,2.63,2.63,0,0,1,.36,0" transform="translate(-15 -18.68)"/><path class="cls-3" d="M123.12,45.67a3.32,3.32,0,0,0-.65-.22c-.17,0-.29.08-.44.1s0,.06,0,.1a.12.12,0,0,0,.12.12c.2,0,.37.12.58.1s.19.09.29.14.24.17.34,0,0-.22-.13-.31l-.07-.07" transform="translate(-15 -18.68)"/><path class="cls-3" d="M113.11,46c.07-.14,0-.19-.1-.23a.72.72,0,0,0-.7,0c-.07.07-.24.06-.19.21s.18,0,.27.05.39-.05.59,0c0,0,.12,0,.13-.06" transform="translate(-15 -18.68)"/><path class="cls-3" d="M111.63,43.79a.47.47,0,0,0-.52-.07c-.13.07-.14.15,0,.22a1.5,1.5,0,0,0,.66.17c.11,0,.13-.07.07-.18s-.14-.1-.19-.14" transform="translate(-15 -18.68)"/><path class="cls-3" d="M128,24.64c0-.11.13-.24,0-.32s-.26.09-.35.19a.16.16,0,0,0,0,.25.35.35,0,0,0,.36-.12" transform="translate(-15 -18.68)"/><path class="cls-3" d="M114.61,47.93c0-.08,0-.15,0-.17a.49.49,0,0,0-.39,0,.16.16,0,0,0-.07.11c0,.08.05.09.09.11a.41.41,0,0,0,.42-.08" transform="translate(-15 -18.68)"/><path class="cls-3" d="M113.37,43.42l-.12-.07a.11.11,0,0,0-.13,0s0,.08,0,.13a.42.42,0,0,0,.25.14c.08,0,.13,0,.16-.06s0-.08-.08-.11l-.09-.06Z" transform="translate(-15 -18.68)"/><path class="cls-3" d="M116.66,34.12c.09,0,.11,0,.11-.06a2,2,0,0,0,0-.35.11.11,0,0,0-.15-.09.11.11,0,0,0-.06.16c.07.11.07.24.13.34" transform="translate(-15 -18.68)"/><path class="cls-3" d="M117.64,30.83c.07-.1.06-.16,0-.2s-.12,0-.16.07,0,.13.07.17.09,0,.11,0" transform="translate(-15 -18.68)"/><path class="cls-3" d="M134.32,29.76c.08-.15,0-.22-.08-.22a3.88,3.88,0,0,0-.75.11s-.09,0-.07.1,0,.13.1.11.38,0,.57,0a.41.41,0,0,0,.23-.11" transform="translate(-15 -18.68)"/><path class="cls-3" d="M134.94,29.71c.07-.07,0-.15,0-.19a.25.25,0,0,0-.31.07c-.07.09,0,.17.07.2a.19.19,0,0,0,.28-.08" transform="translate(-15 -18.68)"/><path class="cls-3" d="M123.61,35.67c-.08-.18-.21-.12-.33-.07a4.34,4.34,0,0,0-.86.36c-.06,0-.12.06-.09.14a.12.12,0,0,0,.17.06c.27-.11.57-.13.84-.25.09,0,.2,0,.25-.15s.07,0,.11,0a.61.61,0,0,0,.64.06,1.46,1.46,0,0,1,.51,0,.67.67,0,0,0,.24,0,2.13,2.13,0,0,1,.87-.11c.2,0,.41.07.6,0s.1,0,.15,0,.17.07.18-.06,0-.13-.15-.16a3.67,3.67,0,0,0-1.36-.1c-.53,0-1,.11-1.57.14-.11,0-.11.12-.2.19" transform="translate(-15 -18.68)"/><path class="cls-3" d="M128,35.44a.19.19,0,0,0-.16,0c-.2,0-.38.13-.59.11a.1.1,0,0,0-.12.12c0,.07.13.12.18.07s.29,0,.44,0a.24.24,0,0,0,.3-.08c.05-.08.05-.15,0-.19" transform="translate(-15 -18.68)"/><path class="cls-3" d="M122.21,36.24c.05-.09.07-.15,0-.2a.19.19,0,0,0-.25.09s-.09.16,0,.2.19,0,.24-.09" transform="translate(-15 -18.68)"/><path class="cls-3" d="M118.62,28.66c-.07.13,0,.2.09.25s.06.1.05.17a3.1,3.1,0,0,0,0,.43.12.12,0,0,0,.16.11.18.18,0,0,0,.12-.24c-.08-.14,0-.33-.13-.44s0-.06,0-.1,0-.12,0-.17a.44.44,0,0,0-.22-.05Z" transform="translate(-15 -18.68)"/><path class="cls-3" d="M120.27,29.73c0-.1.11-.2,0-.28a.14.14,0,0,0-.23.09c0,.1-.13.24,0,.32s.19,0,.25-.13" transform="translate(-15 -18.68)"/><path class="cls-3" d="M120.24,27.16a.09.09,0,0,0,0-.14c-.06,0-.1,0-.14,0s0,.1,0,.14.1,0,.13,0" transform="translate(-15 -18.68)"/><path class="cls-3" d="M138.08,21.79c0-.08,0-.18-.13-.2a1,1,0,0,0-.35.05,6.85,6.85,0,0,1-.79.13.14.14,0,0,0-.13.17c0,.08.07.11.16.09a4.46,4.46,0,0,1,1.09-.14c.08,0,.09-.07.15-.1" transform="translate(-15 -18.68)"/><path class="cls-3" d="M135.89,22.17a.49.49,0,0,0,.34,0,.11.11,0,0,0,.08-.1c0-.06,0-.09-.1-.1l-.28,0a.13.13,0,0,0-.17.08c0,.09,0,.11.13.16" transform="translate(-15 -18.68)"/><path class="cls-3" d="M115.75,32.58a.51.51,0,0,0-.2-.51c-.1,0-.15,0-.13.08s0,.3.13.42.13.08.2,0" transform="translate(-15 -18.68)"/><path class="cls-3" d="M121.48,27.89a1.06,1.06,0,0,0-.11.52.22.22,0,0,0,.23.22.23.23,0,0,0,.23-.23c0-.11,0-.23,0-.34a.23.23,0,0,0-.15-.26.21.21,0,0,0-.24.09" transform="translate(-15 -18.68)"/><path class="cls-3" d="M121.27,26.33a.71.71,0,0,0,0-.17,1.29,1.29,0,0,1,.07-.55c0-.07,0-.16-.07-.18s-.17,0-.16.14a2.26,2.26,0,0,1-.16.58.34.34,0,0,0,0,.14c0,.07,0,.17.1.18s.14,0,.19-.14" transform="translate(-15 -18.68)"/><path class="cls-3" d="M112.09,37.42c.09.06.14.06.19,0s-.06-.1-.07-.16-.14-.08-.19,0,0,.13.07.16" transform="translate(-15 -18.68)"/></g></svg>