<svg id="Layer_1" data-name="Layer 1" xmlns="http://www.w3.org/2000/svg" xmlns:xlink="http://www.w3.org/1999/xlink" viewBox="0 0 164.32 55.43"><defs><style>.cls-1{fill:none;}.cls-2{clip-path:url(#clip-path);}.cls-3{fill:#dddbd8;}</style></defs><title>Great Haywood Marina Logo [2019]</title><g class="cls-2"><path class="cls-3" d="M110.16,38.27l-1.22-10.38-8.37-2.58L92.2,27.89,91,38.27A34.16,34.16,0,0,0,99.6,35V33.08h1.93V35a34.48,34.48,0,0,0,8.63,3.27" transform="translate(-18 -22.57)"/><path class="cls-3" d="M86.1,47.46c4.74-1.79,9-.6,13.36.4V42.93a49.81,49.81,0,0,1-10.27,2.3c-1.4.18-2.65.29-3.62.36a12.53,12.53,0,0,0,.53,1.87" transform="translate(-18 -22.57)"/><path class="cls-3" d="M106.12,48.8a17.66,17.66,0,0,0,9.26-2.74c0-.15.07-.31.11-.47-1-.08-2.22-.19-3.62-.37a49.59,49.59,0,0,1-10.26-2.3v5.2s.5.18,1.36.43a21.83,21.83,0,0,0,3.15.25" transform="translate(-18 -22.57)"/><path class="cls-3" d="M101.61,42.27a49.24,49.24,0,0,0,10.33,2.35c1.43.18,2.69.29,3.66.36a28.8,28.8,0,0,0,.34-4.67s-5.81,2-14.33-4.23Z" transform="translate(-18 -22.57)"/><path class="cls-3" d="M91.15,26.84l9.42-2.9,9.41,2.9,1.38,11.66c.39.07.79.13,1.19.18L111,25.79l-10.46-3.22L90.11,25.79,88.58,38.68c.4,0,.8-.11,1.19-.18Z" transform="translate(-18 -22.57)"/><path class="cls-3" d="M89.12,44.63a48.89,48.89,0,0,0,10.34-2.36V36.09c-8.53,6.23-14.33,4.23-14.33,4.23A29.05,29.05,0,0,0,85.46,45c1-.07,2.23-.18,3.66-.36" transform="translate(-18 -22.57)"/><path class="cls-3" d="M105.39,50.41c-8.12,0-14.77-5.82-23.81,1.83,0,0,6.7-2.18,10.67-1.34s22.73,3.71,26.48-7c0,0-5.22,6.51-13.34,6.5" transform="translate(-18 -22.57)"/><path class="cls-3" d="M180.4,66.34a4.09,4.09,0,0,1-.84,1.44,3.47,3.47,0,0,1-1.3.89,4.52,4.52,0,0,1-1.71.31h-2.79V59.84h2.79a4.52,4.52,0,0,1,1.71.31,3.61,3.61,0,0,1,1.3.9,4.09,4.09,0,0,1,.84,1.44,6.53,6.53,0,0,1,0,3.85M181.9,62a5.38,5.38,0,0,0-1.18-1.85A5.18,5.18,0,0,0,178.9,59a6.34,6.34,0,0,0-2.35-.42h-4.38v11.7h4.38a6.34,6.34,0,0,0,2.35-.42,5.16,5.16,0,0,0,1.82-1.18,5.38,5.38,0,0,0,1.18-1.85,7,7,0,0,0,0-4.79m-15.78,4.33a3.92,3.92,0,0,1-.83,1.44,3.47,3.47,0,0,1-1.31.91,4.73,4.73,0,0,1-3.42,0,3.56,3.56,0,0,1-1.31-.91,4.09,4.09,0,0,1-.84-1.44,6.6,6.6,0,0,1,0-3.87,4.13,4.13,0,0,1,.84-1.45,3.56,3.56,0,0,1,1.31-.91,4.73,4.73,0,0,1,3.42,0,3.47,3.47,0,0,1,1.31.91,4,4,0,0,1,.83,1.45,6.39,6.39,0,0,1,0,3.87M167.63,62a5.55,5.55,0,0,0-1.18-1.89,5.21,5.21,0,0,0-1.83-1.24,6.5,6.5,0,0,0-4.7,0,5.3,5.3,0,0,0-1.83,1.24A5.53,5.53,0,0,0,156.92,62a7.15,7.15,0,0,0,0,4.83,5.53,5.53,0,0,0,1.17,1.89A5.27,5.27,0,0,0,159.92,70a6.5,6.5,0,0,0,4.7,0,5.18,5.18,0,0,0,1.83-1.23,5.55,5.55,0,0,0,1.18-1.89,7.32,7.32,0,0,0,0-4.83m-16.5,4.35a4.09,4.09,0,0,1-.84,1.44,3.52,3.52,0,0,1-1.3.91,4.54,4.54,0,0,1-1.72.32,4.45,4.45,0,0,1-1.71-.32,3.56,3.56,0,0,1-1.31-.91,4.09,4.09,0,0,1-.84-1.44,6.6,6.6,0,0,1,0-3.87,4.13,4.13,0,0,1,.84-1.45,3.56,3.56,0,0,1,1.31-.91,4.45,4.45,0,0,1,1.71-.32,4.54,4.54,0,0,1,1.72.32,3.52,3.52,0,0,1,1.3.91,4.13,4.13,0,0,1,.84,1.45,6.6,6.6,0,0,1,0,3.87m1.5-4.35a5.55,5.55,0,0,0-1.18-1.89,5.17,5.17,0,0,0-1.82-1.24,6,6,0,0,0-2.36-.44,5.93,5.93,0,0,0-2.35.44,5.17,5.17,0,0,0-1.82,1.24A5.55,5.55,0,0,0,141.92,62a7.15,7.15,0,0,0,0,4.83,5.55,5.55,0,0,0,1.18,1.89A5.14,5.14,0,0,0,144.92,70a6.11,6.11,0,0,0,2.35.44,6.2,6.2,0,0,0,2.36-.44,5.14,5.14,0,0,0,1.82-1.23,5.55,5.55,0,0,0,1.18-1.89,7.15,7.15,0,0,0,0-4.83m-26.72,8.26h1.42l3-8.92c0-.09.05-.18.08-.28l.08-.31a3.84,3.84,0,0,0,.16.59l3,8.92H135l3.65-11.7h-1.24a.55.55,0,0,0-.34.11.56.56,0,0,0-.19.26l-2.42,8.14a2.82,2.82,0,0,0-.11.46q0,.24-.09.51a8.38,8.38,0,0,0-.26-1l-2.74-8.14a.7.7,0,0,0-.19-.27.56.56,0,0,0-.35-.1h-.45a.51.51,0,0,0-.35.12.54.54,0,0,0-.19.25L127,67.07a4.49,4.49,0,0,0-.13.47c0,.17-.07.35-.11.54,0-.19-.07-.37-.1-.54l-.12-.47-2.42-8.14a.61.61,0,0,0-.19-.27.56.56,0,0,0-.35-.1h-1.31Zm-5.78-11.7h-1.4a.45.45,0,0,0-.33.12.76.76,0,0,0-.2.25l-2.68,4.55a5.31,5.31,0,0,0-.27.53c-.07.17-.13.34-.19.5-.06-.16-.13-.33-.2-.49s-.17-.35-.28-.54l-2.68-4.55a1.15,1.15,0,0,0-.21-.27.48.48,0,0,0-.33-.1H110l4.29,7v4.65h1.57V65.61Zm-16.74,2.6c.06-.14.11-.3.17-.49s.12-.39.18-.62a8.69,8.69,0,0,0,.35,1.11l1.83,4.76h-4.37Zm1.15-2.6h-1.6l-4.69,11.7h1.23a.48.48,0,0,0,.34-.11.61.61,0,0,0,.2-.26l1.09-2.83h5.26l1.09,2.83a.6.6,0,0,0,.2.27.51.51,0,0,0,.34.1h1.23Zm-9.77,0H93.18v5.22H86.87V58.56H85.28v11.7h1.59V64.94h6.31v5.32h1.59Zm-27.4,0v1.33h3.8V70.26h1.59V59.89h3.78V58.56Zm-7,2.6c.06-.14.11-.3.17-.49s.12-.39.18-.62a8.69,8.69,0,0,0,.35,1.11l1.84,4.76H58.54Zm1.16-2.6H59.92l-4.68,11.7h1.22a.48.48,0,0,0,.34-.11.61.61,0,0,0,.2-.26l1.09-2.83h5.26l1.09,2.83a.68.68,0,0,0,.2.27.51.51,0,0,0,.34.1h1.23Zm-16.41,0v11.7h7.22V69H46.71V65h4.55V63.74H46.71V59.85h5.63V58.56ZM34.38,59.81h1.73a3.38,3.38,0,0,1,2.06.53,1.86,1.86,0,0,1,.69,1.58,2.42,2.42,0,0,1-.18.94,2,2,0,0,1-.54.73,2.55,2.55,0,0,1-.88.47,4.08,4.08,0,0,1-1.22.17H34.38Zm1.2,5.57a1,1,0,0,1,.49.09.79.79,0,0,1,.3.28l3,4.18a.7.7,0,0,0,.64.33h1.4L38,65.62a1.64,1.64,0,0,0-.52-.5,4.83,4.83,0,0,0,1.21-.46,3.29,3.29,0,0,0,.91-.73,3.23,3.23,0,0,0,.56-1,3.36,3.36,0,0,0,.2-1.16,3.4,3.4,0,0,0-.25-1.34,2.69,2.69,0,0,0-.78-1A3.72,3.72,0,0,0,38,58.78a7.24,7.24,0,0,0-1.92-.22H32.8v11.7h1.58V65.38ZM22.17,68.79a3.82,3.82,0,0,1-1.35-.92,4.17,4.17,0,0,1-.89-1.47,6.39,6.39,0,0,1,0-3.9,4,4,0,0,1,.87-1.45,3.83,3.83,0,0,1,1.36-.93,4.84,4.84,0,0,1,1.79-.32,5.67,5.67,0,0,1,1.17.11,5,5,0,0,1,.86.25,4,4,0,0,1,.62.32c.16.11.32.2.45.28a.6.6,0,0,0,.29.09.42.42,0,0,0,.36-.22l.45-.72a5.43,5.43,0,0,0-.81-.62,5.5,5.5,0,0,0-.94-.47,6.91,6.91,0,0,0-1.11-.29,7.5,7.5,0,0,0-1.29-.1,6.72,6.72,0,0,0-2.48.43A5.24,5.24,0,0,0,18.42,62,6.85,6.85,0,0,0,18,64.42a6.51,6.51,0,0,0,.43,2.42,5.41,5.41,0,0,0,3,3.12,6,6,0,0,0,2.33.44,11.15,11.15,0,0,0,1.35-.08,6.8,6.8,0,0,0,1.16-.24,6.3,6.3,0,0,0,1-.4,6.12,6.12,0,0,0,.91-.55V64.64H24.65v.89a.32.32,0,0,0,.09.23.37.37,0,0,0,.25.09h1.82v2.58c-.21.11-.42.2-.62.29a5.86,5.86,0,0,1-.67.21,5.4,5.4,0,0,1-.74.14,8,8,0,0,1-.87,0,4.46,4.46,0,0,1-1.74-.32" transform="translate(-18 -22.57)"/><path class="cls-3" d="M112.32,75.45a1.27,1.27,0,0,0,0-.14.84.84,0,0,0,0-.17c0,.12.07.23.1.31l.52,1.33H111.8Zm.32-.73h-.45L110.88,78h.34a.17.17,0,0,0,.1,0l.05-.07.31-.8h1.47l.31.8a.18.18,0,0,0,.05.07.17.17,0,0,0,.1,0H114Zm-6.49,0h-.23V78h.39V75.56a.37.37,0,0,1,0-.11l1.9,2.47a.13.13,0,0,0,.07.06l.08,0h.23V74.72h-.39v2.43s0,.08,0,.12l-1.9-2.47a.17.17,0,0,0-.06-.06l-.09,0m-3,0h-.45V78h.45Zm-4.86.35h.48a1,1,0,0,1,.58.15.55.55,0,0,1,.19.44.76.76,0,0,1,0,.27.75.75,0,0,1-.15.2.66.66,0,0,1-.25.13,1.16,1.16,0,0,1-.34,0h-.46Zm.33,1.56a.26.26,0,0,1,.14,0,.15.15,0,0,1,.08.08l.85,1.17a.2.2,0,0,0,.18.09h.4l-1-1.3a.4.4,0,0,0-.15-.14,1.15,1.15,0,0,0,.34-.13,1.06,1.06,0,0,0,.26-.2.92.92,0,0,0,.16-.27,1.2,1.2,0,0,0,0-.33,1,1,0,0,0-.07-.38A.74.74,0,0,0,99.7,75a1,1,0,0,0-.37-.18,1.73,1.73,0,0,0-.54-.07h-.93V78h.45V76.63Zm-4.75-1.18a.46.46,0,0,0,0-.14s0-.11,0-.17a2.86,2.86,0,0,0,.1.31l.51,1.33H93.38Zm.33-.73h-.45L92.46,78h.34a.17.17,0,0,0,.1,0l0-.07.31-.8h1.47l.3.8a.2.2,0,0,0,.06.07.15.15,0,0,0,.1,0h.34Zm-5.86,2.1-1.13-2a.14.14,0,0,0-.06-.07h-.42V78h.39V75.59s0-.07,0-.1a.49.49,0,0,0,0-.12l1.15,2.06a.19.19,0,0,0,.16.1h.06a.18.18,0,0,0,.16-.1l1.13-2.05a.37.37,0,0,0,0,.11V78h.39V74.72h-.42a.14.14,0,0,0-.06.07l-1.11,2-.06.12-.05.12s0-.08,0-.12l-.06-.11" transform="translate(-18 -22.57)"/></g></svg>
