<?xml version="1.0" encoding="UTF-8" standalone="no"?>
<svg
   xmlns:dc="http://purl.org/dc/elements/1.1/"
   xmlns:cc="http://creativecommons.org/ns#"
   xmlns:rdf="http://www.w3.org/1999/02/22-rdf-syntax-ns#"
   xmlns:svg="http://www.w3.org/2000/svg"
   xmlns="http://www.w3.org/2000/svg"
   version="1.1"
   id="Layer_1"
   x="0px"
   y="0px"
   viewBox="0 0 990.83285 98.283499"
   xml:space="preserve"><defs
   id="defs10" />
<style
   type="text/css"
   id="style2">
	.st0{fill:#FFFFFF;}
	.st1{font-family:'Lato-Light';}
	.st2{font-size:50px;}
	.st3{letter-spacing:10;}
	.st4{font-family:'Lato-Regular';}
	.st5{font-size:20px;}
	.st6{letter-spacing:2;}
</style>
<g
   id="g20"
   transform="translate(-69.95,-404)">
	
	
	
	
	
	
	
	
</g>
<g
   aria-label="GREAT HAYWOOD MARINA"
   transform="translate(139.895,61.0002)"
   style="font-size:50px;font-family:Lato-Light;letter-spacing:10;fill:#ffffff"
   id="text22" />
<g
   aria-label="LAKELAND LEISURE ESTATES"
   transform="translate(637.7645,98.0003)"
   style="font-size:20px;font-family:Lato-Regular;letter-spacing:2;fill:#2b0000"
   id="text24"><path
     style="font-size:20px;font-family:Lato-Regular;letter-spacing:2;fill:#ffffff"
     id="path917"
     d="m -575.07422,-98 -34.55078,10.650391 -5.0293,42.548828 c 1.32,-0.16 2.63969,-0.350078 3.92969,-0.580078 l 4.56055,-38.509766 31.08984,-9.580078 31.08984,9.580078 4.56055,38.509766 c 1.3,0.22 2.60969,0.420078 3.92969,0.580078 l -5.03125,-42.548828 z m 0.01,9.048828 -27.65039,8.521484 -4.04883,34.279297 c 12.71,-2.8 23.41,-8.040546 28.5,-10.810547 v -6.330078 h 6.38867 v 6.330078 c 5.09,2.780001 15.79,8.020547 28.5,10.810547 l -4.04883,-34.279297 z m 98.1914,14.841797 c -5.69661,0 -10.15625,1.667318 -13.3789,5.003906 -3.20638,3.320313 -4.81055,7.958985 -4.81055,13.916016 0,5.940755 1.60417,10.579427 4.81055,13.916015 3.22265,3.320313 7.68229,4.980469 13.3789,4.980469 2.60417,0 5.05273,-0.341796 7.34766,-1.02539 2.29492,-0.69987 4.39453,-1.72526 6.29883,-3.076172 v -15.648438 h -12.93946 v 4.052735 h 8.05664 v 9.789062 c -1.09049,0.634765 -2.31836,1.106771 -3.68554,1.416016 -1.36719,0.292968 -2.92252,0.439453 -4.66406,0.439453 -4.45964,0 -7.8125,-1.244141 -10.0586,-3.734375 -2.22982,-2.490235 -3.34375,-6.19401 -3.34375,-11.109375 0,-4.93164 1.11393,-8.642578 3.34375,-11.132813 2.2461,-2.490234 5.59896,-3.734375 10.0586,-3.734375 2.26237,0 4.41992,0.390625 6.4707,1.171875 2.05078,0.78125 3.98763,1.944011 5.81055,3.490235 v -5.248047 c -1.80664,-1.139323 -3.78516,-2.001953 -5.9336,-2.587891 -2.13216,-0.585937 -4.38541,-0.878906 -6.76172,-0.878906 z m 428.490238,0 c -5.126954,0 -9.228521,1.716146 -12.304688,5.150391 -3.0599,3.417968 -4.589844,8.007812 -4.589844,13.769531 0,5.761719 1.529944,10.351562 4.589844,13.769531 3.076167,3.417969 7.177734,5.126953 12.304688,5.126953 5.110679,0 9.195966,-1.708984 12.255859,-5.126953 3.0599,-3.434245 4.589844,-8.024088 4.589844,-13.769531 0,-5.761719 -1.529944,-10.351563 -4.589844,-13.769531 -3.059893,-3.434245 -7.14518,-5.150391 -12.255859,-5.150391 z m 49.35546825,0 c -5.12695335,0 -9.22852085,1.716146 -12.30468725,5.150391 -3.0599,3.417968 -4.589844,8.007812 -4.589844,13.769531 0,5.761719 1.529944,10.351562 4.589844,13.769531 3.0761664,3.417969 7.1777339,5.126953 12.30468725,5.126953 5.11068005,0 9.19596575,-1.708984 12.25585975,-5.126953 3.0599,-3.434245 4.589843,-8.024088 4.589843,-13.769531 0,-5.761719 -1.529943,-10.351563 -4.589843,-13.769531 -3.059894,-3.434245 -7.1451798,-5.150391 -12.25585975,-5.150391 z M -444.19336,-73.451172 V -37 h 4.93164 v -15.40625 h 5.3711 c 1.95312,0 3.49218,0.39974 4.61523,1.197266 1.13932,0.797526 2.3112,2.416015 3.51562,4.857422 L -421.09766,-37 h 5.29883 l -5.00586,-9.960938 c -1.00911,-2.050781 -2.01823,-3.662109 -3.02734,-4.833984 -0.99284,-1.171875 -2.01823,-1.936848 -3.07617,-2.294922 2.0345,-0.585937 3.58072,-1.636718 4.63867,-3.15039 1.07421,-1.513672 1.61133,-3.41797 1.61133,-5.712891 0,-3.515625 -1.0254,-6.143229 -3.07618,-7.884766 -2.05078,-1.741536 -5.1595,-2.613281 -9.32617,-2.613281 z m 44.76563,0 V -37 h 23.48632 v -4.150391 h -18.55468 v -13.208984 h 17.35937 v -4.150391 h -17.35937 v -10.791015 h 18.11523 v -4.150391 z m 51.04101,0 L -362.30273,-37 h 5.19921 l 3.32032,-9.351562 h 16.43164 L -334.03125,-37 h 5.12695 l -13.89258,-36.451172 z m 25.82031,0 v 4.150391 h 12.93946 V -37 h 4.95507 v -32.300781 h 12.93946 v -4.150391 z m 71.53711,0 V -37 h 4.93164 v -17.359375 h 17.91993 V -37 h 4.93164 v -36.451172 h -4.93164 v 14.941406 h -17.91993 v -14.941406 z m 56.99805,0 L -207.94727,-37 h 5.19922 l 3.32032,-9.351562 h 16.43164 L -179.67578,-37 h 5.12695 l -13.89258,-36.451172 z m 25.86914,0 12.89063,19.091797 V -37 h 4.95507 v -17.359375 l 12.89063,-19.091797 h -5.29688 l -10.03515,14.990234 -10.10742,-14.990234 z m 42.32422,0 L -116.70703,-37 h 6.20117 l 7.76367,-31.640625 L -95.052734,-37 h 6.201172 l 9.15625,-36.451172 h -5.00586 l -7.640625,30.810547 -7.666013,-30.810547 h -5.54297 l -7.64063,30.810547 -7.66601,-30.810547 z m 161.371093,0 V -37 h 10.132813 c 7.031246,0 12.20703,-1.473959 15.527343,-4.419922 3.320314,-2.945964 4.980469,-7.559245 4.980469,-13.841797 0,-6.25 -1.652991,-10.839844 -4.957031,-13.769531 -3.304033,-2.945963 -8.486981,-4.419922 -15.550781,-4.419922 z m 74.394527,0 V -37 h 4.78516 v -32.007812 l 9.40039,25 h 4.95508 l 9.40039,-25 V -37 h 4.80859 v -36.451172 h -7.34765 l -9.35157,24.804688 -9.30078,-24.804688 z m 62.56446,0 L 158.57617,-37 h 5.19922 l 3.32031,-9.351562 h 16.43164 L 186.84766,-37 h 5.12695 l -13.89258,-36.451172 z m 34.77929,0 V -37 h 4.93164 v -15.40625 h 5.3711 c 1.95312,0 3.49219,0.39974 4.61523,1.197266 1.13933,0.797526 2.3112,2.416015 3.51563,4.857422 L 230.36719,-37 h 5.29883 l -5.00586,-9.960938 c -1.00912,-2.050781 -2.01823,-3.662109 -3.02735,-4.833984 -0.99284,-1.171875 -2.01823,-1.936848 -3.07617,-2.294922 2.03451,-0.585937 3.58073,-1.636718 4.63867,-3.15039 1.07422,-1.513672 1.61133,-3.41797 1.61133,-5.712891 0,-3.515625 -1.02539,-6.143229 -3.07617,-7.884766 -2.05079,-1.741536 -5.15951,-2.613281 -9.32617,-2.613281 z m 44.76563,0 V -37 h 4.93164 v -36.451172 z m 24.74609,0 V -37 h 4.78516 V -67.494141 L 297.73047,-37 h 6.64062 v -36.451172 h -4.78515 v 30.494141 l -16.16211,-30.494141 z m 56.80274,0 L 319.66992,-37 h 5.19922 l 3.32031,-9.351562 h 16.43164 L 347.94141,-37 h 5.12695 l -13.89258,-36.451172 z m -381.968752,3.345703 c 3.580733,0 6.41276,1.334635 8.496093,4.003907 2.099607,2.66927 3.150391,6.30599 3.150391,10.912109 0,4.589844 -1.050784,8.219401 -3.150391,10.888672 -2.083333,2.669271 -4.91536,4.003906 -8.496093,4.003906 -3.580727,0 -6.429036,-1.334635 -8.544922,-4.003906 -2.099607,-2.669271 -3.148438,-6.298828 -3.148438,-10.888672 0,-4.606119 1.048831,-8.242839 3.148438,-10.912109 2.115886,-2.669272 4.964195,-4.003907 8.544922,-4.003907 z m 49.35546825,0 c 3.58073335,0 6.41276045,1.334635 8.49609375,4.003907 2.099607,2.66927 3.150391,6.30599 3.150391,10.912109 0,4.589844 -1.050784,8.219401 -3.150391,10.888672 -2.0833333,2.669271 -4.9153604,4.003906 -8.49609375,4.003906 -3.58072665,0 -6.42903525,-1.334635 -8.54492185,-4.003906 -2.0996067,-2.669271 -3.1484374,-6.298828 -3.1484374,-10.888672 0,-4.606119 1.0488307,-8.242839 3.1484374,-10.912109 2.1158866,-2.669272 4.9641952,-4.003907 8.54492185,-4.003907 z M -439.26172,-69.398438 h 6.20117 c 2.3763,0 4.16667,0.546225 5.3711,1.636719 1.2207,1.074219 1.83203,2.676432 1.83203,4.808594 0,2.132161 -0.61133,3.752604 -1.83203,4.859375 -1.20443,1.090495 -2.9948,1.634766 -5.3711,1.634766 h -6.20117 z m 479.726564,0 h 5.957031 c 5.0293,0 8.707683,1.139323 11.035156,3.417969 2.343747,2.26237 3.515625,5.835938 3.515625,10.71875 0,4.915365 -1.171878,8.51237 -3.515625,10.791016 -2.327473,2.278646 -6.005856,3.417969 -11.035156,3.417969 h -5.957031 z m 171.738276,0 h 6.20118 c 2.3763,0 4.16666,0.546225 5.37109,1.636719 1.2207,1.074219 1.83203,2.676432 1.83203,4.808594 0,2.132161 -0.61133,3.752604 -1.83203,4.859375 -1.20443,1.090495 -2.99479,1.634766 -5.37109,1.634766 h -6.20118 z m -557.80664,0.806641 6.7129,18.138672 h -13.40235 z m 154.35547,0 6.71289,18.138672 h -13.40234 z m 366.52344,0 6.71289,18.138672 h -13.40234 z m 161.09375,0 6.71289,18.138672 h -13.40234 z m -908.01367,15.220703 v 20.419922 h 0.01 c 11.3,4.15 24.00063,6.491484 34.14063,7.771484 4.71,0.600001 8.87031,0.969219 12.07031,1.199219 0.67,-4.02 1.10938,-9.069687 1.10938,-15.429687 0,0 -19.17008,6.629062 -47.33008,-13.960938 z m -7.09961,0.03125 c -28.16,20.59 -47.33008,13.958985 -47.33008,13.958985 0,6.36 0.43938,11.409687 1.10938,15.429687 3.22,-0.23 7.37007,-0.599219 12.08007,-1.199219 10.14,-1.28 22.84063,-3.629531 34.14063,-7.769531 z m 7.09961,22.539063 v 17.191406 c 0,0 1.67976,0.598203 4.50976,1.408203 3.41,0.5 6.87016,0.820313 10.41016,0.820313 12.29,0.02 22.70031,-4.199297 30.57031,-9.029297 0.12,-0.51 0.23938,-1.030078 0.35938,-1.580078 -3.21,-0.23 -7.30899,-0.599454 -11.95899,-1.189454 -10.03,-1.269999 -22.54062,-3.551093 -33.89062,-7.621093 z m -7.08985,0.03125 c -11.35,4.07 -23.86062,6.35914 -33.89062,7.61914 -4.65,0.59 -8.74898,0.959454 -11.95898,1.189453 0.51,2.490001 1.11023,4.500157 1.74023,6.160157 15.66,-5.92 29.65938,-1.969688 44.10937,1.320312 z m 63.67969,3.25 c -0.01,0 -17.26031,21.5089841 -44.07031,21.4589841 -26.82,-0.05 -48.79867,-19.2294531 -78.63867,6.0605469 0,0 22.10828,-7.1999219 35.23828,-4.4199219 13.12,2.78 75.0707,12.2503907 87.4707,-23.0996091 z m 688.22461,12.675781 c -1.59505,0 -2.84831,0.371094 -3.75976,1.113281 -0.90496,0.742188 -1.35743,1.757813 -1.35743,3.046875 0,1.1132816 0.32878,1.9824221 0.98633,2.6074221 0.65756,0.625 1.72201,1.0839843 3.19336,1.3769531 l 1.20117,0.234375 c 1.00261,0.2018229 1.72201,0.5045573 2.15821,0.9082032 0.4427,0.4036458 0.66406,0.9635416 0.66406,1.6796875 0,0.8203124 -0.30599,1.4518229 -0.91797,1.8945312 -0.61198,0.4427084 -1.48112,0.6640625 -2.60742,0.6640625 -0.74219,0 -1.49739,-0.1139323 -2.26563,-0.3417968 -0.76822,-0.2278647 -1.55273,-0.5664063 -2.35351,-1.015625 v 2.03124995 c 0.83333,0.30598959 1.63737,0.53710938 2.41211,0.69335937 0.78124,0.15625001 1.51692,0.234375 2.20703,0.234375 1.82943,0 3.21615,-0.36458332 4.16015,-1.09375 0.95053,-0.72916672 1.42579,-1.80013022 1.42579,-3.21289062 0,-1.1848958 -0.35156,-2.1289063 -1.05469,-2.8320313 -0.69661,-0.7096354 -1.7806,-1.204427 -3.25195,-1.484375 l -1.19141,-0.2441406 c -1.08073,-0.2018229 -1.81641,-0.4654948 -2.20703,-0.7910156 -0.38412,-0.3320313 -0.57617,-0.820312 -0.57617,-1.464844 0,-0.768229 0.28971,-1.360677 0.86914,-1.777344 0.58593,-0.416666 1.41601,-0.625 2.49023,-0.625 0.61849,0 1.25977,0.08789 1.92383,0.263672 0.66406,0.175782 1.37044,0.442708 2.11914,0.800782 v -1.923828 c -0.74219,-0.247396 -1.4681,-0.432943 -2.17773,-0.556641 -0.70964,-0.123698 -1.40625,-0.185547 -2.08985,-0.185547 z m 84.92969,0 c -1.59505,0 -2.84831,0.371094 -3.75977,1.113281 -0.90494,0.742188 -1.35742,1.757813 -1.35742,3.046875 0,1.1132816 0.32878,1.9824221 0.98633,2.6074221 0.65755,0.625 1.72201,1.0839843 3.19336,1.3769531 l 1.20117,0.234375 c 1.00261,0.2018229 1.72201,0.5045573 2.1582,0.9082032 0.44272,0.4036458 0.66407,0.9635416 0.66407,1.6796875 0,0.8203124 -0.30599,1.4518229 -0.91797,1.8945312 -0.61198,0.4427084 -1.48112,0.6640625 -2.60742,0.6640625 -0.7422,0 -1.4974,-0.1139323 -2.26563,-0.3417968 -0.76823,-0.2278647 -1.55273,-0.5664063 -2.35351,-1.015625 v 2.03124995 c 0.83333,0.30598959 1.63737,0.53710938 2.4121,0.69335937 0.78126,0.15625001 1.51693,0.234375 2.20704,0.234375 1.82942,0 3.21615,-0.36458332 4.16015,-1.09375 0.95052,-0.72916672 1.42578,-1.80013022 1.42578,-3.21289062 0,-1.1848958 -0.35156,-2.1289063 -1.05468,-2.8320313 -0.69662,-0.7096354 -1.7806,-1.204427 -3.25196,-1.484375 l -1.1914,-0.2441406 c -1.08074,-0.2018229 -1.81641,-0.4654948 -2.20703,-0.7910156 -0.38412,-0.3320313 -0.57618,-0.820312 -0.57618,-1.464844 0,-0.768229 0.28972,-1.360677 0.86914,-1.777344 0.58594,-0.416666 1.41602,-0.625 2.49024,-0.625 0.61849,0 1.25976,0.08789 1.92383,0.263672 0.66406,0.175782 1.37044,0.442708 2.11914,0.800782 v -1.923828 c -0.74219,-0.247396 -1.4681,-0.432943 -2.17774,-0.556641 -0.70963,-0.123698 -1.40625,-0.185547 -2.08984,-0.185547 z m 70.35156,0 c -1.59505,0 -2.84831,0.371094 -3.75976,1.113281 -0.90496,0.742188 -1.35743,1.757813 -1.35743,3.046875 0,1.1132816 0.32878,1.9824221 0.98633,2.6074221 0.65756,0.625 1.72201,1.0839843 3.19336,1.3769531 l 1.20117,0.234375 c 1.00261,0.2018229 1.72201,0.5045573 2.15821,0.9082032 0.4427,0.4036458 0.66406,0.9635416 0.66406,1.6796875 0,0.8203124 -0.30599,1.4518229 -0.91797,1.8945312 -0.61198,0.4427084 -1.48112,0.6640625 -2.60742,0.6640625 -0.74219,0 -1.49739,-0.1139323 -2.26563,-0.3417968 -0.76822,-0.2278647 -1.55273,-0.5664063 -2.35351,-1.015625 v 2.03124995 c 0.83333,0.30598959 1.63737,0.53710938 2.41211,0.69335937 0.78124,0.15625001 1.51692,0.234375 2.20703,0.234375 1.82943,0 3.21615,-0.36458332 4.16016,-1.09375 0.95052,-0.72916672 1.42578,-1.80013022 1.42578,-3.21289062 0,-1.1848958 -0.35156,-2.1289063 -1.05469,-2.8320313 -0.69661,-0.7096354 -1.7806,-1.204427 -3.25195,-1.484375 l -1.19141,-0.2441406 c -1.08073,-0.2018229 -1.81641,-0.4654948 -2.20703,-0.7910156 -0.38412,-0.3320313 -0.57617,-0.820312 -0.57617,-1.464844 0,-0.768229 0.28971,-1.360677 0.86914,-1.777344 0.58593,-0.416666 1.41601,-0.625 2.49023,-0.625 0.61849,0 1.25977,0.08789 1.92383,0.263672 0.66406,0.175782 1.37044,0.442708 2.11914,0.800782 v -1.923828 c -0.74219,-0.247396 -1.4681,-0.432943 -2.17773,-0.556641 -0.70964,-0.123698 -1.40625,-0.185547 -2.08985,-0.185547 z M 1.9628906,-14.580078 V 0 H 11.035156 V -1.6601562 H 3.9355469 V -14.580078 Z m 17.3613284,0 L 13.757812,0 h 2.080079 l 1.328125,-3.7402344 h 6.572265 L 25.066406,0 h 2.050782 l -5.556641,-14.580078 z m 11.912109,0 V 0 h 1.972656 V -7.0214844 L 40.210938,0 h 2.597656 l -7.753906,-7.7832031 7.236328,-6.7968749 h -2.539063 l -6.542969,6.1621092 v -6.1621092 z m 15.125,0 V 0 h 9.394531 v -1.6601562 h -7.421875 v -5.2832032 h 6.94336 v -1.6601562 h -6.94336 v -4.3164064 h 7.246094 v -1.660156 z m 14.65625,0 V 0 h 9.072266 v -1.6601562 h -7.09961 V -14.580078 Z m 17.361328,0 L 72.8125,0 h 2.080078 l 1.328125,-3.7402344 h 6.572266 L 84.121094,0 h 2.050781 l -5.556641,-14.580078 z m 11.91211,0 V 0 h 1.914062 V -12.197266 L 98.669922,0 h 2.656248 V -14.580078 H 99.412109 V -2.3828125 L 92.947266,-14.580078 Z m 16.960934,0 V 0 h 4.05274 c 2.8125,0 4.88281,-0.58919273 6.21093,-1.7675781 1.32813,-1.1783855 1.99219,-3.0240886 1.99219,-5.5371094 0,-2.5000003 -0.66081,-4.3359375 -1.98242,-5.5078125 -1.32161,-1.178385 -3.39518,-1.767578 -6.2207,-1.767578 z m 25.75782,0 V 0 h 9.07226 v -1.6601562 h -7.09961 V -14.580078 Z m 13.13281,0 V 0 h 9.39453 v -1.6601562 h -7.42188 v -5.2832032 h 6.94336 v -1.6601562 h -6.94336 v -4.3164064 h 7.2461 v -1.660156 z m 14.65625,0 V 0 h 1.97265 v -14.580078 z m 22.36914,0 v 9.1015624 c 0,1.9010416 0.46875,3.3365885 1.40625,4.3066406 0.94401,0.97005209 2.33723,1.45507812 4.17969,1.45507812 1.83593,1e-8 3.22265,-0.48502603 4.16015,-1.45507812 0.94402,-0.9700521 1.41602,-2.405599 1.41602,-4.3066406 v -9.1015624 h -1.98242 v 8.8574218 c 0,1.5624999 -0.28321,2.688802 -0.84961,3.3789062 -0.56641,0.6835937 -1.48112,1.0253906 -2.74414,1.0253906 -1.26954,0 -2.1875,-0.3417969 -2.75391,-1.0253906 -0.56641,-0.6901042 -0.84961,-1.8164063 -0.84961,-3.3789062 v -8.8574218 z m 16.87305,0 V 0 h 1.97265 v -6.1621094 h 2.14844 c 0.78125,0 1.39648,0.1595052 1.8457,0.4785156 0.45574,0.3190105 0.92449,0.966797 1.40625,1.9433594 L 209.2793,0 h 2.11914 l -2.00196,-3.984375 c -0.40364,-0.8203125 -0.80729,-1.4648438 -1.21093,-1.9335938 -0.39714,-0.4687499 -0.8073,-0.7747395 -1.23047,-0.9179687 0.8138,-0.234375 1.43229,-0.6542969 1.85547,-1.2597656 0.42968,-0.6054688 0.64453,-1.3671878 0.64453,-2.2851559 0,-1.40625 -0.41016,-2.457683 -1.23047,-3.154297 -0.82031,-0.696615 -2.0638,-1.044922 -3.73047,-1.044922 z m 15.90625,0 V 0 h 9.39453 v -1.6601562 h -7.42188 v -5.2832032 h 6.94336 v -1.6601562 h -6.94336 v -4.3164064 h 7.2461 v -1.660156 z m 23.02343,0 V 0 h 9.39453 v -1.6601562 h -7.42187 v -5.2832032 h 6.94336 v -1.6601562 h -6.94336 v -4.3164064 h 7.24609 v -1.660156 z m 27.33008,0 v 1.660156 h 5.17578 V 0 h 1.98242 v -12.919922 h 5.17579 v -1.660156 z m 18.44531,0 L 279.17969,0 h 2.08008 l 1.32812,-3.7402344 h 6.57227 L 290.48828,0 h 2.05078 l -5.55664,-14.580078 z m 8.32813,0 v 1.660156 H 298.25 V 0 h 1.98242 v -12.919922 h 5.17578 v -1.660156 z m 16.24805,0 V 0 h 9.39453 v -1.6601562 h -7.42188 v -5.2832032 h 6.94336 v -1.6601562 h -6.94336 v -4.3164064 h 7.2461 v -1.660156 z m -200.09766,1.621094 h 2.38281 c 2.01172,0 3.48308,0.455729 4.41406,1.367187 0.9375,0.904948 1.40625,2.3339845 1.40625,4.2871095 0,1.9661459 -0.46875,3.404948 -1.40625,4.3164063 -0.93098,0.9114584 -2.40234,1.3671874 -4.41406,1.3671874 h -2.38281 z m 92.78906,0 h 2.48047 c 0.95052,0 1.66666,0.218099 2.14844,0.654296 0.48828,0.429688 0.73242,1.070964 0.73242,1.923829 0,0.852864 -0.24414,1.5006507 -0.73242,1.943359 -0.48178,0.4361979 -1.19792,0.6542969 -2.14844,0.6542969 h -2.48047 z m -181.57617,0.322265 2.685547,7.2558596 h -5.361328 z m 59.054688,0 2.685546,7.2558596 h -5.361328 z m 206.367192,0 2.68554,7.2558596 h -5.36133 z" /></g>
</svg>