<?xml version="1.0" encoding="UTF-8" standalone="no"?>
<svg
   xmlns:dc="http://purl.org/dc/elements/1.1/"
   xmlns:cc="http://creativecommons.org/ns#"
   xmlns:rdf="http://www.w3.org/1999/02/22-rdf-syntax-ns#"
   xmlns:svg="http://www.w3.org/2000/svg"
   xmlns="http://www.w3.org/2000/svg"
   viewBox="0 0 1295.6473 130.66946"
   xml:space="preserve"
   id="svg815"
   version="1.1"><metadata
     id="metadata821"><rdf:RDF><cc:Work
         rdf:about=""><dc:format>image/svg+xml</dc:format><dc:type
           rdf:resource="http://purl.org/dc/dcmitype/StillImage" /><dc:title></dc:title></cc:Work></rdf:RDF></metadata><defs
     id="defs819"><clipPath
       id="clipPath831"
       clipPathUnits="userSpaceOnUse"><path
         id="path829"
         d="M 0,841.89 H 1190.55 V 0 H 0 Z" /></clipPath></defs><g
     transform="matrix(1.3333333,0,0,-1.3333333,-93.255198,583.85292)"
     id="g823"><g
       id="g825"><g
         clip-path="url(#clipPath831)"
         id="g827"><g
           transform="translate(713.959,357.0258)"
           id="g833"><path
             id="path835"
             style="fill:#ffffff;fill-opacity:1;fill-rule:nonzero;stroke:none"
             d="m 0,0 h -1.095 v -15.024 h 8.209 v 0.923 H 0 Z M 17.052,0 H 15.979 L 9.831,-15.024 h 0.829 c 0.099,0 0.184,0.028 0.255,0.085 0.07,0.056 0.12,0.124 0.148,0.202 l 1.763,4.363 h 7.379 l 1.763,-4.363 c 0.035,-0.085 0.085,-0.155 0.148,-0.207 0.065,-0.053 0.146,-0.08 0.245,-0.08 h 0.838 z m -0.839,-1.985 c 0.05,0.12 0.099,0.257 0.148,0.414 0.05,0.155 0.1,0.318 0.15,0.488 0.098,-0.347 0.201,-0.645 0.307,-0.892 l 3.059,-7.591 H 13.145 Z M 28.912,0 h -1.094 v -15.024 h 1.094 v 7.242 h 0.966 c 0.17,0 0.31,-0.01 0.42,-0.028 0.11,-0.017 0.205,-0.045 0.286,-0.085 0.082,-0.039 0.156,-0.086 0.224,-0.142 0.067,-0.058 0.139,-0.125 0.217,-0.202 l 6.35,-6.498 c 0.078,-0.1 0.157,-0.172 0.238,-0.218 0.082,-0.047 0.215,-0.069 0.399,-0.069 h 0.881 l -6.913,7.219 c -0.12,0.143 -0.24,0.257 -0.36,0.346 -0.12,0.089 -0.255,0.154 -0.404,0.196 0.128,0.05 0.242,0.114 0.345,0.191 0.102,0.079 0.221,0.187 0.356,0.33 L 38.479,0 H 37.608 C 37.466,0 37.345,-0.021 37.241,-0.063 37.139,-0.106 37.035,-0.187 36.929,-0.308 L 30.866,-6.54 c -0.078,-0.078 -0.15,-0.145 -0.218,-0.197 -0.067,-0.053 -0.142,-0.094 -0.222,-0.122 -0.082,-0.029 -0.173,-0.048 -0.272,-0.059 -0.098,-0.01 -0.216,-0.015 -0.35,-0.015 h -0.892 z m 14.514,0 v -15.024 h 9.005 l 0.021,0.902 h -7.931 v 6.265 h 6.583 v 0.881 h -6.583 v 6.074 h 7.91 V 0 Z M 58.96,0 h -1.094 v -15.024 h 8.208 v 0.923 H 58.96 Z M 76.013,0 H 74.94 l -6.148,-15.024 h 0.828 c 0.1,0 0.185,0.028 0.255,0.085 0.07,0.056 0.12,0.124 0.148,0.202 l 1.763,4.363 h 7.38 l 1.762,-4.363 c 0.035,-0.085 0.085,-0.155 0.148,-0.207 0.065,-0.053 0.146,-0.08 0.245,-0.08 h 0.839 z m -0.84,-1.985 c 0.05,0.12 0.099,0.257 0.149,0.414 0.049,0.155 0.099,0.318 0.149,0.488 0.098,-0.347 0.202,-0.645 0.307,-0.892 l 3.059,-7.591 H 72.104 Z M 87.32,0 h -0.542 v -15.024 h 0.956 v 12.645 c 0,0.185 -0.01,0.383 -0.031,0.595 l 9.757,-13.029 0.175,-0.164 c 0.06,-0.032 0.136,-0.047 0.229,-0.047 h 0.51 V 0 h -0.945 v -12.604 c 0,-0.198 0.01,-0.403 0.031,-0.616 l -9.736,13.018 c -0.064,0.085 -0.122,0.14 -0.175,0.165 C 87.496,-0.013 87.419,0 87.32,0 m 29.752,-4.386 c -0.347,0.928 -0.836,1.717 -1.466,2.368 -0.63,0.652 -1.385,1.151 -2.267,1.497 C 112.458,-0.173 111.486,0 110.425,0 h -5.49 v -15.024 h 5.49 c 1.061,0 2.033,0.172 2.914,0.52 0.882,0.347 1.637,0.846 2.267,1.497 0.63,0.652 1.119,1.441 1.466,2.368 0.346,0.927 0.52,1.971 0.52,3.132 0,1.153 -0.174,2.195 -0.52,3.121 m -1.041,-5.935 c -0.291,-0.821 -0.701,-1.515 -1.232,-2.08 -0.53,-0.567 -1.168,-0.999 -1.91,-1.296 -0.744,-0.297 -1.565,-0.446 -2.464,-0.446 h -4.396 v 13.261 h 4.396 c 0.899,0 1.72,-0.148 2.464,-0.445 0.742,-0.297 1.38,-0.73 1.91,-1.295 0.531,-0.567 0.941,-1.261 1.232,-2.081 0.29,-0.822 0.435,-1.757 0.435,-2.804 0,-1.055 -0.145,-1.992 -0.435,-2.814 M 132.182,0 h -1.095 v -15.024 h 8.208 v 0.923 h -7.113 z m 11.773,0 v -15.024 h 9.005 l 0.021,0.902 h -7.931 v 6.265 h 6.583 v 0.881 h -6.583 v 6.074 h 7.91 V 0 Z m 15.534,0 h -1.094 v -15.024 h 1.094 z m 14.112,-1.338 c -0.51,0.51 -1.075,0.888 -1.694,1.136 -0.62,0.248 -1.318,0.372 -2.097,0.372 -0.694,0 -1.312,-0.108 -1.853,-0.324 -0.541,-0.216 -0.996,-0.503 -1.364,-0.861 -0.368,-0.357 -0.648,-0.769 -0.839,-1.236 -0.191,-0.468 -0.287,-0.952 -0.287,-1.455 0,-0.644 0.108,-1.18 0.324,-1.608 0.216,-0.429 0.5,-0.787 0.855,-1.073 0.354,-0.286 0.755,-0.521 1.205,-0.706 0.45,-0.184 0.912,-0.349 1.386,-0.499 0.474,-0.148 0.936,-0.301 1.385,-0.457 0.449,-0.155 0.852,-0.348 1.205,-0.578 0.355,-0.23 0.639,-0.517 0.855,-0.86 0.216,-0.344 0.324,-0.781 0.324,-1.312 0,-0.487 -0.085,-0.946 -0.255,-1.374 -0.17,-0.429 -0.415,-0.799 -0.737,-1.11 -0.323,-0.312 -0.717,-0.557 -1.185,-0.738 -0.467,-0.181 -0.997,-0.271 -1.592,-0.271 -0.432,0 -0.817,0.043 -1.157,0.128 -0.34,0.085 -0.642,0.189 -0.903,0.313 -0.262,0.123 -0.491,0.258 -0.691,0.404 -0.198,0.144 -0.368,0.279 -0.509,0.403 -0.141,0.124 -0.261,0.229 -0.361,0.314 -0.099,0.084 -0.18,0.126 -0.245,0.126 -0.112,0 -0.212,-0.052 -0.297,-0.159 l -0.297,-0.467 c 0.538,-0.609 1.164,-1.088 1.879,-1.439 0.715,-0.351 1.569,-0.525 2.559,-0.525 0.764,0 1.444,0.119 2.039,0.355 0.595,0.237 1.098,0.562 1.508,0.972 0.411,0.41 0.723,0.893 0.939,1.449 0.217,0.556 0.324,1.149 0.324,1.779 0,0.616 -0.107,1.13 -0.324,1.545 -0.216,0.414 -0.5,0.762 -0.854,1.045 -0.354,0.283 -0.756,0.519 -1.205,0.706 -0.451,0.188 -0.913,0.361 -1.385,0.516 -0.475,0.155 -0.938,0.312 -1.387,0.473 -0.449,0.159 -0.85,0.355 -1.205,0.588 -0.354,0.234 -0.639,0.517 -0.854,0.85 -0.216,0.333 -0.325,0.754 -0.325,1.263 0,0.389 0.073,0.761 0.218,1.116 0.146,0.353 0.358,0.665 0.637,0.933 0.28,0.269 0.627,0.482 1.041,0.637 0.414,0.156 0.893,0.235 1.438,0.235 0.545,0 1.004,-0.068 1.376,-0.203 0.371,-0.134 0.681,-0.281 0.928,-0.44 0.248,-0.159 0.444,-0.305 0.59,-0.435 0.144,-0.131 0.264,-0.197 0.355,-0.197 0.121,0 0.213,0.06 0.277,0.181 z m 9.497,-12.529 c -0.57,0.255 -1.051,0.605 -1.444,1.052 -0.393,0.445 -0.694,0.971 -0.902,1.576 -0.209,0.605 -0.315,1.258 -0.315,1.96 V 0 h -1.092 v -9.291 c 0,-0.828 0.131,-1.601 0.392,-2.319 0.263,-0.719 0.639,-1.345 1.131,-1.88 0.492,-0.534 1.09,-0.954 1.794,-1.258 0.705,-0.305 1.496,-0.457 2.374,-0.457 0.877,0 1.669,0.152 2.372,0.457 0.704,0.304 1.304,0.724 1.795,1.258 0.491,0.535 0.869,1.161 1.131,1.88 0.262,0.718 0.393,1.491 0.393,2.319 V 0 h -1.083 v -9.291 c 0,-0.7 -0.105,-1.354 -0.313,-1.959 -0.209,-0.605 -0.512,-1.131 -0.908,-1.576 -0.397,-0.446 -0.88,-0.795 -1.449,-1.046 -0.571,-0.252 -1.216,-0.377 -1.938,-0.377 -0.723,0 -1.368,0.127 -1.938,0.382 m 17.057,5.638 c 0.15,0 0.275,-0.007 0.377,-0.021 0.103,-0.015 0.192,-0.037 0.266,-0.069 L 201,-8.452 c 0.06,-0.057 0.118,-0.124 0.175,-0.202 l 4.82,-6.094 c 0.07,-0.106 0.148,-0.179 0.229,-0.219 0.081,-0.038 0.181,-0.057 0.302,-0.057 h 0.934 l -5.17,6.498 c -0.135,0.176 -0.287,0.319 -0.457,0.424 0.651,0.072 1.241,0.222 1.769,0.452 0.526,0.23 0.976,0.523 1.347,0.88 0.372,0.359 0.659,0.775 0.861,1.249 0.201,0.474 0.302,0.998 0.302,1.571 0,1.296 -0.429,2.278 -1.291,2.947 C 203.962,-0.335 202.669,0 200.941,0 h -3.843 v -15.024 h 1.093 v 6.795 z m -1.964,7.369 h 2.75 c 1.338,0 2.356,-0.258 3.053,-0.775 0.697,-0.517 1.046,-1.309 1.046,-2.379 0,-0.524 -0.096,-0.994 -0.287,-1.412 -0.191,-0.418 -0.469,-0.774 -0.834,-1.072 -0.364,-0.297 -0.81,-0.525 -1.337,-0.685 -0.527,-0.16 -1.124,-0.239 -1.789,-0.239 h -2.602 z M 212.11,0 v -15.024 h 9.005 l 0.022,0.902 h -7.932 v 6.265 h 6.583 v 0.881 h -6.583 v 6.074 h 7.91 V 0 Z" /></g><g
           transform="translate(947.7939,357.2172)"
           id="g837"><path
             id="path839"
             style="fill:#ffffff;fill-opacity:1;fill-rule:nonzero;stroke:none"
             d="m 0,0 v -15.216 h 9.376 l 0.011,1.678 H 2.06 v 5.192 h 5.924 v 1.615 H 2.06 v 5.053 H 9.376 V 0 Z m 22.669,-1.401 c -0.53,0.509 -1.145,0.898 -1.842,1.167 -0.697,0.269 -1.471,0.403 -2.32,0.403 -0.757,0 -1.429,-0.116 -2.012,-0.35 -0.584,-0.233 -1.076,-0.546 -1.476,-0.934 -0.4,-0.389 -0.705,-0.835 -0.913,-1.338 -0.21,-0.503 -0.314,-1.023 -0.314,-1.561 0,-0.673 0.104,-1.237 0.314,-1.693 0.208,-0.457 0.483,-0.838 0.823,-1.142 0.34,-0.304 0.729,-0.552 1.168,-0.743 0.438,-0.191 0.884,-0.359 1.338,-0.505 0.453,-0.144 0.898,-0.286 1.337,-0.424 0.439,-0.138 0.829,-0.307 1.168,-0.504 0.34,-0.199 0.615,-0.445 0.824,-0.739 0.208,-0.294 0.312,-0.671 0.312,-1.131 0,-0.418 -0.07,-0.795 -0.212,-1.135 -0.142,-0.34 -0.344,-0.632 -0.61,-0.876 -0.267,-0.245 -0.59,-0.434 -0.972,-0.569 -0.383,-0.134 -0.817,-0.202 -1.306,-0.202 -0.389,0 -0.74,0.038 -1.051,0.113 -0.312,0.074 -0.589,0.168 -0.834,0.281 -0.244,0.113 -0.462,0.236 -0.653,0.371 -0.191,0.135 -0.361,0.259 -0.509,0.372 -0.15,0.113 -0.283,0.207 -0.399,0.281 -0.116,0.074 -0.221,0.112 -0.313,0.112 -0.099,0 -0.19,-0.027 -0.271,-0.08 -0.082,-0.052 -0.15,-0.118 -0.207,-0.196 l -0.594,-0.976 c 0.574,-0.61 1.263,-1.093 2.071,-1.45 0.806,-0.358 1.705,-0.537 2.696,-0.537 0.808,0 1.527,0.124 2.16,0.372 0.634,0.247 1.169,0.587 1.605,1.02 0.434,0.431 0.765,0.939 0.992,1.522 0.227,0.585 0.34,1.209 0.34,1.874 0,0.63 -0.105,1.162 -0.314,1.594 -0.209,0.431 -0.484,0.796 -0.828,1.093 -0.343,0.298 -0.732,0.544 -1.168,0.738 -0.434,0.194 -0.882,0.37 -1.337,0.527 -0.457,0.155 -0.902,0.305 -1.339,0.45 -0.435,0.145 -0.825,0.317 -1.168,0.514 -0.342,0.2 -0.619,0.438 -0.827,0.717 -0.21,0.28 -0.314,0.633 -0.314,1.058 0,0.332 0.06,0.641 0.181,0.928 0.121,0.287 0.298,0.537 0.536,0.749 0.237,0.212 0.531,0.38 0.881,0.504 0.351,0.124 0.755,0.186 1.216,0.186 0.489,0 0.905,-0.061 1.247,-0.181 0.344,-0.12 0.637,-0.253 0.882,-0.397 0.244,-0.146 0.447,-0.278 0.611,-0.399 0.163,-0.121 0.303,-0.18 0.424,-0.18 0.107,0 0.197,0.026 0.271,0.079 0.074,0.054 0.143,0.133 0.207,0.239 z M 26.407,0 v -1.73 h 4.937 v -13.486 h 2.049 V -1.73 H 38.32 V 0 Z m 21.088,0 h -2.082 l -6.084,-15.216 h 1.593 c 0.177,0 0.325,0.05 0.446,0.15 0.12,0.097 0.201,0.212 0.244,0.338 l 1.423,3.675 h 6.827 l 1.422,-3.675 c 0.058,-0.141 0.143,-0.258 0.255,-0.35 0.114,-0.092 0.263,-0.138 0.447,-0.138 h 1.592 z m -1.498,-3.388 c 0.078,0.185 0.154,0.399 0.229,0.643 0.074,0.244 0.147,0.505 0.217,0.78 0.078,-0.275 0.155,-0.534 0.228,-0.775 0.075,-0.24 0.151,-0.452 0.229,-0.637 l 2.389,-6.19 H 43.608 Z M 54.587,0 v -1.73 h 4.937 v -13.486 h 2.049 V -1.73 H 66.5 V 0 Z m 16.287,0 v -15.216 h 9.376 l 0.011,1.678 h -7.326 v 5.192 h 5.923 v 1.615 h -5.923 v 5.053 H 80.25 V 0 Z m 22.669,-1.401 c -0.53,0.509 -1.145,0.898 -1.842,1.167 -0.697,0.269 -1.471,0.403 -2.32,0.403 -0.757,0 -1.428,-0.116 -2.012,-0.35 -0.584,-0.233 -1.076,-0.546 -1.476,-0.934 -0.4,-0.389 -0.705,-0.835 -0.913,-1.338 -0.209,-0.503 -0.313,-1.023 -0.313,-1.561 0,-0.673 0.104,-1.237 0.313,-1.693 0.208,-0.457 0.483,-0.838 0.823,-1.142 0.34,-0.304 0.729,-0.552 1.168,-0.743 0.438,-0.191 0.885,-0.359 1.338,-0.505 0.453,-0.144 0.899,-0.286 1.337,-0.424 0.44,-0.138 0.83,-0.307 1.168,-0.504 0.34,-0.199 0.615,-0.445 0.824,-0.739 0.208,-0.294 0.312,-0.671 0.312,-1.131 0,-0.418 -0.07,-0.795 -0.212,-1.135 -0.141,-0.34 -0.344,-0.632 -0.61,-0.876 -0.266,-0.245 -0.59,-0.434 -0.972,-0.569 -0.383,-0.134 -0.817,-0.202 -1.305,-0.202 -0.39,0 -0.741,0.038 -1.052,0.113 -0.312,0.074 -0.589,0.168 -0.834,0.281 -0.243,0.113 -0.461,0.236 -0.652,0.371 -0.191,0.135 -0.361,0.259 -0.51,0.372 -0.149,0.113 -0.282,0.207 -0.398,0.281 -0.117,0.074 -0.222,0.112 -0.313,0.112 -0.1,0 -0.19,-0.027 -0.272,-0.08 -0.081,-0.052 -0.15,-0.118 -0.207,-0.196 l -0.594,-0.976 c 0.574,-0.61 1.263,-1.093 2.071,-1.45 0.806,-0.358 1.706,-0.537 2.696,-0.537 0.808,0 1.527,0.124 2.161,0.372 0.633,0.247 1.168,0.587 1.604,1.02 0.434,0.431 0.765,0.939 0.992,1.522 0.227,0.585 0.34,1.209 0.34,1.874 0,0.63 -0.104,1.162 -0.314,1.594 -0.208,0.431 -0.484,0.796 -0.827,1.093 -0.344,0.298 -0.733,0.544 -1.169,0.738 -0.434,0.194 -0.881,0.37 -1.337,0.527 -0.457,0.155 -0.902,0.305 -1.338,0.45 -0.435,0.145 -0.825,0.317 -1.169,0.514 -0.342,0.2 -0.619,0.438 -0.827,0.717 -0.21,0.28 -0.313,0.633 -0.313,1.058 0,0.332 0.06,0.641 0.181,0.928 0.12,0.287 0.298,0.537 0.535,0.749 0.237,0.212 0.532,0.38 0.882,0.504 0.35,0.124 0.754,0.186 1.215,0.186 0.489,0 0.905,-0.061 1.248,-0.181 0.343,-0.12 0.637,-0.253 0.881,-0.397 0.244,-0.146 0.448,-0.278 0.612,-0.399 0.162,-0.121 0.303,-0.18 0.424,-0.18 0.106,0 0.196,0.026 0.27,0.079 0.075,0.054 0.143,0.133 0.208,0.239 z" /></g><g
           transform="translate(164.3369,386.0365)"
           id="g841"><path
             id="path843"
             style="fill:#ffffff;fill-opacity:1;fill-rule:nonzero;stroke:none"
             d="M 0,0 -4.053,34.28 -31.693,42.799 -59.333,34.28 -63.388,0 c 12.707,2.797 23.407,8.035 28.5,10.813 v 6.334 h 6.39 V 10.813 C -23.405,8.035 -12.707,2.797 0,0" /></g><g
           transform="translate(84.8677,355.6879)"
           id="g845"><path
             id="path847"
             style="fill:#ffffff;fill-opacity:1;fill-rule:nonzero;stroke:none"
             d="M 0,0 C 15.658,5.924 29.66,1.971 44.108,-1.319 V 14.976 C 32.758,10.905 20.247,8.62 10.217,7.352 5.568,6.765 1.467,6.395 -1.739,6.16 -1.231,3.671 -0.63,1.66 0,0" /></g><g
           transform="translate(150.9907,351.267)"
           id="g849"><path
             id="path851"
             style="fill:#ffffff;fill-opacity:1;fill-rule:nonzero;stroke:none"
             d="m 0,0 c 12.295,-0.021 22.696,4.201 30.573,9.025 0.122,0.513 0.244,1.027 0.358,1.584 -3.206,0.234 -7.306,0.604 -11.956,1.191 -10.03,1.268 -22.541,3.554 -33.891,7.624 V 2.238 c 0,0 1.681,-0.604 4.51,-1.41 C -6.999,0.326 -3.539,0.007 0,0" /></g><g
           transform="translate(136.0752,372.8373)"
           id="g853"><path
             id="path855"
             style="fill:#ffffff;fill-opacity:1;fill-rule:nonzero;stroke:none"
             d="m 0,0 c 11.303,-4.147 24.001,-6.494 34.143,-7.773 4.713,-0.596 8.866,-0.967 12.072,-1.198 0.674,4.024 1.113,9.073 1.113,15.433 0,0 -19.168,-6.626 -47.328,13.962 z" /></g><g
           transform="translate(101.5488,423.7787)"
           id="g857"><path
             id="path859"
             style="fill:#ffffff;fill-opacity:1;fill-rule:nonzero;stroke:none"
             d="M 0,0 31.095,9.584 62.188,0 66.746,-38.515 c 1.296,-0.222 2.607,-0.415 3.932,-0.575 L 65.644,3.462 31.095,14.111 -3.455,3.462 -8.488,-39.09 c 1.325,0.16 2.636,0.353 3.932,0.575 z" /></g><g
           transform="translate(94.832,365.0355)"
           id="g861"><path
             id="path863"
             style="fill:#ffffff;fill-opacity:1;fill-rule:nonzero;stroke:none"
             d="M 0,0 C 10.143,1.28 22.841,3.626 34.144,7.774 V 28.198 C 5.983,7.61 -13.185,14.235 -13.185,14.235 c 0,-6.36 0.44,-11.408 1.114,-15.431 C -8.865,-0.966 -4.713,-0.595 0,0" /></g><g
           transform="translate(148.5864,345.9486)"
           id="g865"><path
             id="path867"
             style="fill:#ffffff;fill-opacity:1;fill-rule:nonzero;stroke:none"
             d="m 0,0 c -26.818,0.047 -48.804,19.228 -78.645,-6.061 0,0 22.113,7.202 35.238,4.423 C -30.282,-4.417 31.666,-13.885 44.059,21.46 44.059,21.46 26.818,-0.048 0,0" /></g></g></g><text
       id="text871"
       style="font-variant:normal;font-weight:300;font-stretch:normal;font-size:50px;font-family:'Lato Light';-inkscape-font-specification:Lato-Light;writing-mode:lr-tb;fill:#ffffff;fill-opacity:1;fill-rule:nonzero;stroke:none"
       transform="matrix(1,0,0,-1,209.4941,377.3037)"><tspan
         id="tspan869"
         y="0"
         x="0 46.75 87.099998 126.1 165.375 202.85001 226.39999 274.14999 313.75 353.5 413.97501 463.52499 513.07501 561.07501">GREAT HAYWOOD </tspan></text>
<text
       id="text875"
       style="font-variant:normal;font-weight:normal;font-stretch:normal;font-size:50px;font-family:Lato;-inkscape-font-specification:Lato-Regular;writing-mode:lr-tb;fill:#ffffff;fill-opacity:1;fill-rule:nonzero;stroke:none"
       transform="matrix(1,0,0,-1,794.1191,377.3037)"><tspan
         id="tspan873"
         y="0"
         x="0 56.43 100.28 141.58 165.58 213.73">MARINA</tspan></text>
</g></svg>
