<?xml version="1.0" encoding="UTF-8" standalone="no"?>
<svg
   xmlns:dc="http://purl.org/dc/elements/1.1/"
   xmlns:cc="http://creativecommons.org/ns#"
   xmlns:rdf="http://www.w3.org/1999/02/22-rdf-syntax-ns#"
   xmlns:svg="http://www.w3.org/2000/svg"
   xmlns="http://www.w3.org/2000/svg"
   viewBox="0 0 1135.6383 130.66946"
   height="130.66946"
   width="1135.6383"
   xml:space="preserve"
   id="svg2"
   version="1.1"><metadata
     id="metadata8"><rdf:RDF><cc:Work
         rdf:about=""><dc:format>image/svg+xml</dc:format><dc:type
           rdf:resource="http://purl.org/dc/dcmitype/StillImage" /><dc:title></dc:title></cc:Work></rdf:RDF></metadata><defs
     id="defs6"><clipPath
       id="clipPath18"
       clipPathUnits="userSpaceOnUse"><path
         id="path16"
         d="M 0,841.89 H 1190.55 V 0 H 0 Z" /></clipPath></defs><g
     transform="matrix(1.3333333,0,0,-1.3333333,-93.255198,583.85292)"
     id="g10"><g
       id="g12"><g
         clip-path="url(#clipPath18)"
         id="g14"><g
           transform="translate(593.9512,357.0258)"
           id="g20" /><g
           transform="translate(827.7861,357.2172)"
           id="g24" /><g
           transform="translate(164.3369,386.0365)"
           id="g28" /><g
           transform="translate(84.8677,355.6879)"
           id="g32" /><g
           transform="translate(150.9907,351.267)"
           id="g36" /><g
           transform="translate(136.0752,372.8373)"
           id="g40" /><g
           transform="translate(101.5488,423.7787)"
           id="g44" /><g
           transform="translate(94.832,365.0355)"
           id="g48" /><g
           transform="translate(148.5864,345.9486)"
           id="g52" /></g></g><g
       id="text58"
       style="font-variant:normal;font-weight:300;font-stretch:normal;font-size:50px;font-family:'Lato Light';-inkscape-font-specification:Lato-Light;writing-mode:lr-tb;fill:#36454f;fill-opacity:1;fill-rule:nonzero;stroke:none"
       transform="matrix(1,0,0,-1,206.667,376.8896)"
       aria-label="HUNGERFORD " /><g
       id="text62"
       style="font-variant:normal;font-weight:normal;font-stretch:normal;font-size:50px;font-family:Lato;-inkscape-font-specification:Lato-Regular;writing-mode:lr-tb;fill:#36454f;fill-opacity:1;fill-rule:nonzero;stroke:none"
       transform="matrix(1,0,0,-1,673.967,376.8896)"
       aria-label="MARINA"><path
         d="m -541.32227,-61 -34.55078,10.648438 -5.0332,42.5527339 c 1.325,-0.16 2.63564,-0.3541719 3.93164,-0.5761719 l 4.55664,-38.513672 31.0957,-9.583984 31.0918,9.583984 4.55859,38.513672 c 1.296,0.222 2.60665,0.4161719 3.93165,0.5761719 l -5.03321,-42.5527339 z m 0,9.054688 -27.64062,8.517578 -4.05469,34.2812496 c 12.707,-2.7969996 23.407,-8.0344996 28.5,-10.8124996 v -6.333985 h 6.38867 v 6.333985 c 5.093,2.778 15.79105,8.0155 28.49805,10.8124996 l -4.05273,-34.2812496 z M 4.3496094,-35.824219 V 0 h 4.25 v -26.324219 c 0,-0.35 -0.015495,-0.733724 -0.048828,-1.15039 C 8.5341146,-27.891276 8.4992187,-28.316667 8.4492188,-28.75 L 21,-6.2753906 c 0.416667,0.75 1,1.125 1.75,1.125 h 0.699219 c 0.75,0 1.333333,-0.375 1.75,-1.125 l 12.27539,-22.4003904 c -0.03333,0.416666 -0.05755,0.826562 -0.07422,1.226562 -0.01667,0.4 -0.02539,0.775 -0.02539,1.125 V 0 h 4.25 v -35.824219 h -3.574219 c -0.433333,0 -0.766666,0.04167 -1,0.125 C 36.817448,-35.615885 36.591667,-35.383333 36.375,-35 L 24.25,-12.974609 c -0.233333,0.433333 -0.441667,0.865494 -0.625,1.298828 -0.183333,0.416666 -0.358724,0.859505 -0.525391,1.326172 -0.166666,-0.45 -0.342057,-0.892839 -0.52539,-1.326172 -0.166667,-0.45 -0.366276,-0.873438 -0.59961,-1.273438 L 9.5996094,-35 c -0.2166667,-0.383333 -0.4404948,-0.615885 -0.6738282,-0.699219 -0.2333333,-0.08333 -0.5666666,-0.125 -1,-0.125 z m 66.6249996,0 L 56.650391,0 h 3.75 c 0.416666,0 0.765494,-0.11627604 1.048828,-0.34960938 0.283333,-0.23333333 0.484896,-0.50078125 0.601562,-0.80078122 l 3.34961,-8.6503906 h 16.074218 l 3.34961,8.6503906 c 0.133333,0.33333331 0.334896,0.60950518 0.601562,0.82617185 C 85.692448,-0.10755208 86.041276,0 86.474609,0 h 3.75 L 75.900391,-35.824219 Z m 34.125001,0 V 0 h 4.82617 v -14.949219 h 3.67383 c 0.66667,0 1.16667,0.0901 1.5,0.273438 0.33333,0.166666 0.64245,0.451562 0.92578,0.851562 l 9.29883,12.7988284 C 125.74089,-0.34205729 126.39206,0 127.27539,0 h 4.29883 L 121.125,-14.224609 C 120.65833,-14.891276 120.12539,-15.4 119.52539,-15.75 c 1.38333,-0.316667 2.61589,-0.783724 3.69922,-1.400391 1.1,-0.616666 2.02539,-1.357942 2.77539,-2.224609 0.76667,-0.883333 1.35,-1.874609 1.75,-2.974609 0.4,-1.1 0.59961,-2.284115 0.59961,-3.550782 0,-1.516666 -0.25872,-2.882942 -0.77539,-4.099609 -0.51667,-1.233333 -1.31511,-2.283724 -2.39844,-3.150391 -1.06667,-0.866666 -2.42617,-1.524609 -4.07617,-1.974609 -1.65,-0.466667 -3.60833,-0.699219 -5.875,-0.699219 z m 41.70117,0 V 0 h 4.84961 v -35.824219 z m 23.09961,0 V 0 h 4.25 v -25.525391 c 0,-0.333333 -0.009,-0.699609 -0.0254,-1.099609 -0.0167,-0.4 -0.0409,-0.807943 -0.0742,-1.224609 L 194.77539,-0.875 c 0.25,0.31666667 0.5,0.54244792 0.75,0.67578125 C 195.79206,-0.06588542 196.11667,0 196.5,0 h 2.44922 v -35.824219 h -4.25 v 25.375 c 0,0.383334 0.009,0.7825523 0.0254,1.199219 0.0167,0.4 0.0496,0.8166667 0.0996,1.25 l -20.75,-27 c -0.26667,-0.333333 -0.50794,-0.550391 -0.72461,-0.650391 -0.2,-0.116666 -0.51589,-0.173828 -0.94922,-0.173828 z m 58.375,0 L 213.94922,0 h 3.75 c 0.41667,0 0.76745,-0.11627604 1.05078,-0.34960938 0.28333,-0.23333333 0.48294,-0.50078125 0.59961,-0.80078122 l 3.34961,-8.6503906 h 16.07617 l 3.34961,8.6503906 c 0.13333,0.33333331 0.33294,0.60950518 0.59961,0.82617185 C 242.99128,-0.10755208 243.34206,0 243.77539,0 h 3.75 l -14.32617,-35.824219 z m -532.875,0.04883 c -2.71667,0 -5.175,0.434115 -7.375,1.300782 -2.18333,0.85 -4.04284,2.067057 -5.57617,3.65039 -1.53333,1.566667 -2.7155,3.465886 -3.54883,5.699219 -0.83333,2.216667 -1.25,4.692448 -1.25,7.425781 0,2.733334 0.41667,5.215886 1.25,7.449219 0.83333,2.2333333 2,4.141276 3.5,5.7246094 1.51667,1.5666666 3.32383,2.7837239 5.42383,3.6503906 2.11667,0.85 4.45,1.27539062 7,1.27539062 1.48333,0 2.85156,-0.0920573 4.10156,-0.27539062 1.25,-0.16666667 2.41667,-0.40794271 3.5,-0.72460938 1.08333,-0.33333333 2.09883,-0.74127602 3.04883,-1.22460942 0.95,-0.4833333 1.86667,-1.0337239 2.75,-1.6503906 V -16.050781 h -9.77539 v 1.40039 c 0,0.15 0.0591,0.283724 0.17578,0.400391 0.13333,0.116667 0.29128,0.175781 0.47461,0.175781 h 6.80078 v 9.5234378 c -0.78333,0.45 -1.56628,0.8598958 -2.34961,1.2265624 -0.76667,0.35 -1.5845,0.6484376 -2.45117,0.8984376 -0.85,0.25 -1.77539,0.4428385 -2.77539,0.5761718 -1,0.1166667 -2.10755,0.1738282 -3.32422,0.1738282 -2.18333,0 -4.18333,-0.3662761 -6,-1.0996094 -1.8,-0.7333334 -3.35039,-1.783724 -4.65039,-3.1503906 -1.28333,-1.3833334 -2.28333,-3.0654948 -3,-5.0488278 -0.71667,-1.983334 -1.07422,-4.22461 -1.07422,-6.72461 0,-2.45 0.34883,-4.658333 1.04883,-6.625 0.71667,-1.966666 1.72539,-3.633333 3.02539,-5 1.31667,-1.366666 2.9,-2.417057 4.75,-3.15039 1.85,-0.733334 3.92461,-1.09961 6.22461,-1.09961 1.73333,0 3.20911,0.157943 4.42578,0.47461 1.21667,0.316666 2.22539,0.674218 3.02539,1.074218 0.81667,0.4 1.45716,0.783724 1.92383,1.150391 0.48333,0.366667 0.85156,0.599219 1.10156,0.699219 0.13333,0.06667 0.27383,0.101562 0.42383,0.101562 0.26667,0 0.475,-0.125 0.625,-0.375 l 0.67578,-1.101562 c -0.78333,-0.683334 -1.60117,-1.282162 -2.45117,-1.798828 -0.85,-0.533334 -1.76667,-0.976172 -2.75,-1.326172 -0.98333,-0.366667 -2.04922,-0.640886 -3.19922,-0.824219 -1.13333,-0.183333 -2.37461,-0.275391 -3.72461,-0.275391 z m 163.04883,0 c -2.48333,0 -4.75755,0.434115 -6.82422,1.300782 -2.06667,0.866666 -3.84089,2.090494 -5.32422,3.673828 -1.48333,1.566666 -2.64323,3.467838 -3.47656,5.701172 -0.81667,2.216666 -1.22461,4.683724 -1.22461,7.40039 0,2.733334 0.40794,5.215886 1.22461,7.449219 0.83333,2.2166667 1.99323,4.1158854 3.47656,5.6992188 1.48333,1.5666666 3.25755,2.7837239 5.32422,3.65039058 2.06667,0.84999999 4.34089,1.27539062 6.82422,1.27539062 2.51667,0 4.80833,-0.42539063 6.875,-1.27539062 2.06667,-0.86666668 3.84284,-2.08372398 5.32617,-3.65039058 1.48333,-1.5833334 2.63255,-3.4825521 3.44922,-5.6992188 0.81667,-2.233333 1.22461,-4.715885 1.22461,-7.449219 0,-2.716666 -0.40794,-5.183724 -1.22461,-7.40039 -0.81667,-2.233334 -1.96589,-4.141276 -3.44922,-5.72461 -1.48333,-1.583333 -3.2595,-2.80039 -5.32617,-3.65039 -2.06667,-0.866667 -4.35833,-1.300782 -6.875,-1.300782 z m -320.5,0.400391 V 0 h 2.57617 v -16.949219 h 22.15039 V 0 h 2.57422 v -35.375 h -2.57422 v 16.5 h -22.15039 v -16.5 z m 47.42578,0 V -13.5 c 0,1.95 0.30911,3.7746094 0.92578,5.4746094 0.61667,1.6833333 1.49844,3.1591146 2.64844,4.4257812 1.16667,1.25 2.57656,2.2325521 4.22656,2.94921878 1.66667,0.71666666 3.53294,1.07617187 5.59961,1.07617187 2.06667,0 3.92422,-0.35950521 5.57422,-1.07617187 1.66667,-0.71666668 3.07461,-1.69921878 4.22461,-2.94921878 1.16667,-1.2666666 2.05911,-2.7424479 2.67578,-4.4257812 0.61667,-1.7 0.92578,-3.5246094 0.92578,-5.4746094 V -35.375 H -390.375 V -13.5 c 0,1.65 -0.25,3.191667 -0.75,4.625 -0.48333,1.4166667 -1.19167,2.6492188 -2.125,3.6992188 -0.93333,1.0499999 -2.07578,1.8765624 -3.42578,2.4765624 -1.33333,0.5833334 -2.84883,0.875 -4.54883,0.875 -1.7,10e-8 -3.22617,-0.3003906 -4.57617,-0.9003906 -1.33333,-0.6 -2.46511,-1.4246093 -3.39844,-2.4746094 -0.91667,-1.0499999 -1.625,-2.2845052 -2.125,-3.7011718 -0.48333,-1.4333334 -0.72656,-2.9750004 -0.72656,-4.6250004 V -35.375 Z m 46.67578,0 V 0 h 2.22461 v -29.775391 c 0,-0.45 -0.0262,-0.923828 -0.0762,-1.423828 l 23,30.699219 c 0.23333,0.33333333 0.54245,0.5 0.92578,0.5 h 1.22461 v -35.375 h -2.25 v 29.6757812 c 0,0.4666667 0.0262,0.9492188 0.0762,1.4492188 l -22.90039,-30.650391 c -0.15,-0.2 -0.29245,-0.325 -0.42578,-0.375 -0.13333,-0.06667 -0.3155,-0.09961 -0.54883,-0.09961 z m 94.5,0 V 0 H -252.25 v -2.125 h -18.625 v -14.75 h 15.5 v -2.074219 h -15.5 V -33.25 h 18.625 v -2.125 z m 39.75,0 V 0 h 2.54883 v -16 h 4.625 c 0.68333,0 1.18333,0.07461 1.5,0.224609 0.33333,0.15 0.64245,0.408724 0.92578,0.775391 l 11.32422,14.34960938 c 0.18333,0.23333333 0.36745,0.4 0.55078,0.5 C -212.02461,-0.05039063 -211.79206,0 -211.52539,0 h 2.22461 l -12.17383,-15.300781 c -0.31667,-0.416667 -0.67617,-0.75 -1.07617,-1 1.55,-0.166667 2.94245,-0.515495 4.17578,-1.048828 1.23333,-0.55 2.28372,-1.242839 3.15039,-2.076172 0.88333,-0.85 1.55872,-1.832552 2.02539,-2.949219 0.46667,-1.116667 0.69922,-2.349219 0.69922,-3.699219 0,-3.05 -1.00872,-5.359114 -3.02539,-6.925781 -2.01667,-1.583333 -5.06706,-2.375 -9.15039,-2.375 z m 39.59961,0 V 0 h 2.57422 v -16.25 h 16.125 v -2.125 h -16.125 V -33.25 h 18.625 v -2.125 z m 88.17383,0 V 0 h 2.55078 v -16 h 4.625 c 0.683333,0 1.183333,0.07461 1.5,0.224609 0.333333,0.15 0.642448,0.408724 0.925781,0.775391 L -85,-0.65039062 c 0.183333,0.23333333 0.367448,0.4 0.550781,0.5 C -84.249219,-0.05039063 -84.016667,0 -83.75,0 h 2.224609 l -12.173828,-15.300781 c -0.316666,-0.416667 -0.676172,-0.75 -1.076172,-1 1.55,-0.166667 2.942448,-0.515495 4.175782,-1.048828 1.233333,-0.55 2.283724,-1.242839 3.15039,-2.076172 0.883334,-0.85 1.556771,-1.832552 2.023438,-2.949219 0.466666,-1.116667 0.701172,-2.349219 0.701172,-3.699219 0,-3.05 -1.008724,-5.359114 -3.025391,-6.925781 -2.016667,-1.583333 -5.067057,-2.375 -9.150391,-2.375 z m 39.601561,0 V 0 h 12.898438 c 2.516666,0 4.808333,-0.40794271 6.875,-1.2246094 2.066666,-0.8166666 3.842838,-1.9920573 5.326172,-3.5253906 1.483333,-1.5333333 2.632552,-3.3908854 3.449218,-5.574219 0.816667,-2.183333 1.22461,-4.641666 1.22461,-7.375 0,-2.716666 -0.407943,-5.168229 -1.22461,-7.351562 -0.816666,-2.183334 -1.965885,-4.040886 -3.449218,-5.574219 -1.483334,-1.533333 -3.259506,-2.708724 -5.326172,-3.525391 -2.066667,-0.816666 -4.358334,-1.224609 -6.875,-1.224609 z m -75.226561,1.800781 c 2.13333,0 4.07617,0.366276 5.82617,1.09961 1.75,0.716666 3.24128,1.758333 4.47461,3.125 1.25,1.366666 2.21706,3.033333 2.90039,5 0.68333,1.966666 1.02539,4.183724 1.02539,6.65039 0,2.483334 -0.34206,4.707162 -1.02539,6.673828 -0.68333,1.9500004 -1.65039,3.6079431 -2.90039,4.9746098 -1.23333,1.3666666 -2.72461,2.4083333 -4.47461,3.125 -1.75,0.7166666 -3.69284,1.0761718 -5.82617,1.0761718 -2.1,0 -4.02344,-0.3595052 -5.77344,-1.0761718 -1.73333,-0.7166667 -3.23333,-1.7583334 -4.5,-3.125 -1.25,-1.3666667 -2.22578,-3.0246094 -2.92578,-4.9746098 -0.68333,-1.966666 -1.02539,-4.190494 -1.02539,-6.673828 0,-2.466666 0.34206,-4.683724 1.02539,-6.65039 0.7,-1.966667 1.67578,-3.633334 2.92578,-5 1.26667,-1.366667 2.76667,-2.408334 4.5,-3.125 1.75,-0.733334 3.67344,-1.09961 5.77344,-1.09961 z m -89.59961,0.22461 h 6.47461 c 3.15,0 5.55117,0.607552 7.20117,1.824218 1.65,1.216667 2.47461,3.082943 2.47461,5.59961 0,1.233333 -0.22578,2.342838 -0.67578,3.326172 -0.45,0.983333 -1.10794,1.82539 -1.97461,2.52539 -0.85,0.7 -1.90039,1.241667 -3.15039,1.625 -1.23333,0.366667 -2.63255,0.548828 -4.19922,0.548828 h -6.15039 z m 127.77539,0 h 6.474609 c 3.15,0 5.551172,0.607552 7.201172,1.824218 1.65,1.216667 2.47461,3.082943 2.47461,5.59961 0,1.233333 -0.225782,2.342838 -0.675782,3.326172 -0.45,0.983333 -1.107942,1.82539 -1.974609,2.52539 -0.85,0.7 -1.900391,1.241667 -3.150391,1.625 -1.233333,0.366667 -2.632552,0.548828 -4.199218,0.548828 H -103.375 Z m 39.625,0.04883 h 10.324219 c 2.133333,0 4.076172,0.350781 5.826172,1.050781 1.75,0.7 3.241276,1.717448 4.474609,3.050781 1.25,1.333334 2.217057,2.965104 2.900391,4.898438 0.683333,1.933333 1.02539,4.134896 1.02539,6.601562 0,2.483334 -0.342057,4.691667 -1.02539,6.625 -0.683334,1.9333336 -1.650391,3.5651044 -2.900391,4.8984378 -1.233333,1.3333333 -2.724609,2.3507812 -4.474609,3.0507812 -1.75,0.7 -3.692839,1.0507812 -5.826172,1.0507812 H -63.75 Z M 109.92578,-32 h 5.29883 c 2.78333,0 4.87539,0.541667 6.27539,1.625 1.41667,1.083333 2.125,2.690885 2.125,4.824219 0,1.05 -0.18411,2.008333 -0.55078,2.875 -0.36667,0.866666 -0.91511,1.616666 -1.64844,2.25 -0.71667,0.616666 -1.61784,1.101172 -2.70117,1.451172 -1.06667,0.333333 -2.30794,0.5 -3.72461,0.5 h -5.07422 z m -36.499999,0.75 c 0.35,1.35 0.707552,2.475 1.074219,3.375 l 5.625,14.574219 H 66.75 l 5.625,-14.548828 c 0.166667,-0.433334 0.333333,-0.933334 0.5,-1.5 0.183333,-0.583334 0.367448,-1.217058 0.550781,-1.900391 z m 157.298829,0 c 0.35,1.35 0.7095,2.475 1.07617,3.375 l 5.625,14.574219 h -13.375 l 5.625,-14.548828 c 0.16667,-0.433334 0.33333,-0.933334 0.5,-1.5 0.18333,-0.583334 0.3655,-1.217058 0.54883,-1.900391 z m -768.61719,14.878906 V 4.0527344 c 11.303,4.147 24.00253,6.4944376 34.14453,7.7734376 4.713,0.596 8.86432,0.966266 12.07032,1.197266 0.674,-4.0240005 1.11328,-9.0735943 1.11328,-15.4335942 0,0 -19.16813,6.6270625 -47.32813,-13.9609378 z m -7.09765,0.02734 c -28.161,20.588 -47.33008,13.9628906 -47.33008,13.9628906 0,6.36 0.44123,11.4086407 1.11523,15.4316404 3.206,-0.23 7.35731,-0.602265 12.07031,-1.197265 10.143,-1.28 22.84154,-3.6254379 34.14454,-7.7734379 z m 7.09765,22.5429688 V 23.384766 c 0,0 1.68077,0.604156 4.50977,1.410156 3.407,0.502 6.86725,0.821125 10.40625,0.828125 12.295,0.021 22.69722,-4.201391 30.57422,-9.025391 0.122,-0.513 0.24342,-1.026984 0.35742,-1.583984 -3.206,-0.234 -7.30703,-0.604406 -11.95703,-1.191406 -10.03,-1.268 -22.54063,-3.553047 -33.89063,-7.6230472 z m -7.09961,0.027344 c -11.35,4.0709995 -23.86062,6.3550465 -33.89062,7.6230465 -4.649,0.587 -8.74908,0.956407 -11.95508,1.191407 0.508,2.489 1.10828,4.500156 1.73828,6.160156 15.658,-5.924 29.65942,-1.969688 44.10742,1.320312 z m 63.66992,3.2539063 c 0,0 -17.24059,21.5089372 -44.05859,21.4609372 -26.818,-0.047 -48.80353,-19.228453 -78.64453,6.060547 0,0 22.11328,-7.202828 35.23828,-4.423828 13.125,2.779 75.07184,12.247344 87.46484,-23.0976562 z M 172.32617,19.503906 c -0.757,0 -1.42772,0.11561 -2.01172,0.34961 -0.584,0.233 -1.07656,0.545593 -1.47656,0.933593 -0.4,0.389 -0.70411,0.834891 -0.91211,1.337891 -0.21,0.503 -0.31445,1.022547 -0.31445,1.560547 0,0.673 0.10445,1.237359 0.31445,1.693359 0.208,0.457 0.48227,0.838578 0.82227,1.142578 0.34,0.304 0.72897,0.551188 1.16797,0.742188 0.438,0.191 0.88489,0.359859 1.33789,0.505859 0.453,0.144 0.89989,0.285828 1.33789,0.423828 0.44,0.138 0.82997,0.306907 1.16797,0.503907 0.34,0.199 0.61521,0.444281 0.82421,0.738281 0.208,0.294 0.31055,0.672812 0.31055,1.132812 0,0.418 -0.0689,0.794766 -0.21094,1.134766 -0.141,0.34 -0.34532,0.631 -0.61132,0.875 -0.266,0.245 -0.58871,0.433359 -0.97071,0.568359 -0.383,0.134 -0.81668,0.203125 -1.30468,0.203125 -0.39,0 -0.74174,-0.03828 -1.05274,-0.113281 -0.312,-0.074 -0.58898,-0.16825 -0.83398,-0.28125 -0.243,-0.113 -0.46035,-0.236094 -0.65235,-0.371094 -0.19,-0.135 -0.36076,-0.258093 -0.50976,-0.371093 -0.149,-0.113 -0.28244,-0.20725 -0.39844,-0.28125 -0.117,-0.074 -0.22245,-0.111328 -0.31445,-0.111329 -0.099,0 -0.18753,0.02513 -0.26954,0.07813 -0.081,0.052 -0.15003,0.119265 -0.20703,0.197265 l -0.59375,0.976563 c 0.574,0.61 1.26232,1.092218 2.07032,1.449218 0.806,0.358 1.70431,0.53711 2.69531,0.53711 0.808,0 1.52811,-0.125047 2.16211,-0.373047 0.633,-0.247 1.16751,-0.586531 1.60351,-1.019531 0.434,-0.431 0.76519,-0.938485 0.99219,-1.521485 0.227,-0.585 0.33984,-1.21 0.33984,-1.875 0,-0.63 -0.10445,-1.16175 -0.31445,-1.59375 -0.208,-0.431 -0.48317,-0.794797 -0.82617,-1.091797 -0.344,-0.298 -0.73392,-0.544281 -1.16992,-0.738281 -0.434,-0.194 -0.87994,-0.370344 -1.33594,-0.527344 -0.457,-0.155 -0.90189,-0.304218 -1.33789,-0.449218 -0.436,-0.145 -0.82592,-0.318625 -1.16992,-0.515625 -0.342,-0.2 -0.61817,-0.437797 -0.82617,-0.716797 -0.21,-0.28 -0.31446,-0.631641 -0.31446,-1.056641 0,-0.332 0.0606,-0.640734 0.18164,-0.927734 0.12,-0.287 0.29716,-0.538 0.53516,-0.75 0.237,-0.212 0.53186,-0.379906 0.88086,-0.503906 0.351,-0.124 0.7558,-0.185547 1.2168,-0.185547 0.489,0 0.90504,0.05969 1.24804,0.179687 0.343,0.12 0.63686,0.254438 0.88086,0.398438 0.244,0.146 0.44633,0.277437 0.61133,0.398437 0.162,0.121 0.30183,0.179688 0.42383,0.179688 0.106,0 0.19553,-0.02512 0.26953,-0.07813 0.075,-0.054 0.14398,-0.134235 0.20898,-0.240235 l 0.49805,-0.976562 c -0.53,-0.509 -1.1448,-0.898969 -1.8418,-1.167969 -0.697,-0.269 -1.47131,-0.402344 -2.32031,-0.402344 z m 70.87305,0 c -0.757,0 -1.42772,0.11561 -2.01172,0.34961 -0.584,0.233 -1.07461,0.545593 -1.47461,0.933593 -0.401,0.389 -0.70506,0.834891 -0.91406,1.337891 -0.209,0.503 -0.3125,1.022547 -0.3125,1.560547 0,0.673 0.1035,1.237359 0.3125,1.693359 0.209,0.457 0.48422,0.838578 0.82422,1.142578 0.34,0.304 0.72797,0.551188 1.16797,0.742188 0.437,0.191 0.88489,0.359859 1.33789,0.505859 0.453,0.144 0.89793,0.285828 1.33593,0.423828 0.44,0.138 0.83093,0.306907 1.16993,0.503907 0.34,0.199 0.61326,0.444281 0.82226,0.738281 0.209,0.294 0.3125,0.672812 0.3125,1.132812 0,0.418 -0.0709,0.794766 -0.21289,1.134766 -0.141,0.34 -0.34337,0.631 -0.60937,0.875 -0.266,0.245 -0.59066,0.433359 -0.97266,0.568359 -0.383,0.134 -0.81669,0.203125 -1.30469,0.203125 -0.39,0 -0.74073,-0.03828 -1.05273,-0.113281 -0.311,-0.074 -0.58803,-0.16825 -0.83203,-0.28125 -0.244,-0.113 -0.46135,-0.236094 -0.65235,-0.371094 -0.191,-0.135 -0.36076,-0.258093 -0.50976,-0.371093 -0.149,-0.113 -0.28244,-0.20725 -0.39844,-0.28125 -0.117,-0.074 -0.22245,-0.111328 -0.31445,-0.111329 -0.1,0 -0.18949,0.02513 -0.27149,0.07813 -0.081,0.052 -0.14908,0.119265 -0.20508,0.197265 l -0.59375,0.976563 c 0.573,0.61 1.26036,1.092218 2.06836,1.449218 0.806,0.358 1.70727,0.53711 2.69727,0.53711 0.808,0 1.52615,-0.125047 2.16015,-0.373047 0.634,-0.247 1.16752,-0.586531 1.60352,-1.019531 0.435,-0.431 0.76614,-0.938485 0.99414,-1.521485 0.226,-0.585 0.33985,-1.21 0.33984,-1.875 0,-0.63 -0.10445,-1.16175 -0.31445,-1.59375 -0.208,-0.431 -0.48512,-0.794797 -0.82812,-1.091797 -0.343,-0.298 -0.73197,-0.544281 -1.16797,-0.738281 -0.435,-0.194 -0.88189,-0.370344 -1.33789,-0.527344 -0.456,-0.155 -0.90189,-0.304218 -1.33789,-0.449218 -0.435,-0.145 -0.82497,-0.318625 -1.16797,-0.515625 -0.343,-0.2 -0.61913,-0.437797 -0.82813,-0.716797 -0.209,-0.28 -0.3125,-0.631641 -0.3125,-1.056641 0,-0.332 0.0606,-0.640734 0.18164,-0.927734 0.12,-0.287 0.29716,-0.538 0.53516,-0.75 0.237,-0.212 0.53086,-0.379906 0.88086,-0.503906 0.35,-0.124 0.7558,-0.185547 1.2168,-0.185547 0.488,0 0.90409,0.05969 1.24609,0.179687 0.343,0.12 0.63781,0.254438 0.88281,0.398438 0.243,0.146 0.44733,0.277437 0.61133,0.398437 0.162,0.121 0.30283,0.179688 0.42383,0.179688 0.106,0 0.19553,-0.02512 0.26953,-0.07813 0.075,-0.054 0.14303,-0.134235 0.20703,-0.240235 l 0.5,-0.976562 c -0.531,-0.509 -1.1448,-0.898969 -1.8418,-1.167969 -0.697,-0.269 -1.47326,-0.402344 -2.32226,-0.402344 z m -89.38086,0.167969 v 15.216797 h 9.37695 l 0.0117,-1.677734 h -7.32617 v -5.19336 h 5.92187 v -1.613281 h -5.92187 v -5.054688 h 7.31445 v -1.677734 z m 26.4082,0 v 1.730469 h 4.9375 v 13.486328 h 2.04883 V 21.402344 h 4.92578 v -1.730469 z m 19.00586,0 -6.08398,15.216797 h 1.59179 c 0.178,0 0.32627,-0.05039 0.44727,-0.150391 0.12,-0.097 0.20114,-0.21189 0.24414,-0.33789 l 1.42188,-3.675782 h 6.82812 l 1.42188,3.675782 c 0.057,0.141 0.14286,0.257609 0.25586,0.349609 0.11299,0.092 0.26131,0.138672 0.44531,0.138672 h 1.59179 l -6.08203,-15.216797 z m 9.17383,0 v 1.730469 h 4.9375 v 13.486328 h 2.04883 V 21.402344 h 4.92578 v -1.730469 z m 16.28711,0 v 15.216797 h 9.375 l 0.0117,-1.677734 h -7.32617 v -5.19336 h 5.92382 v -1.613281 h -5.92382 v -5.054688 h 7.31445 v -1.677734 z m -134.898438,0.02148 c -0.694,0 -1.311516,0.108219 -1.853516,0.324219 -0.541,0.216 -0.995281,0.503328 -1.363281,0.861328 -0.367,0.357 -0.648844,0.769328 -0.839844,1.236328 -0.191,0.468 -0.285156,0.952078 -0.285156,1.455078 0,0.644 0.106266,1.179422 0.322266,1.607422 0.217,0.429 0.501468,0.786266 0.855468,1.072266 0.354,0.286 0.755079,0.522031 1.205079,0.707031 0.448999,0.184 0.910765,0.348047 1.384765,0.498047 0.474,0.148 0.936766,0.301031 1.384766,0.457031 0.449,0.155 0.853031,0.348125 1.207031,0.578125 0.354,0.23 0.638469,0.518328 0.855469,0.861328 0.215,0.344001 0.322265,0.779547 0.322265,1.310547 0,0.487 -0.08586,0.947 -0.255859,1.375 -0.17,0.429 -0.414328,0.798375 -0.736328,1.109375 -0.323,0.312 -0.717547,0.557282 -1.185547,0.738282 -0.467,0.181 -0.996797,0.271484 -1.591797,0.271484 -0.432,0 -0.81625,-0.04391 -1.15625,-0.128906 -0.34,-0.085 -0.641344,-0.1885 -0.902344,-0.3125 -0.263,-0.123 -0.492406,-0.258297 -0.691406,-0.404297 -0.199,-0.144 -0.367812,-0.278344 -0.507812,-0.402344 -0.142,-0.124 -0.263282,-0.229453 -0.363282,-0.314453 -0.098,-0.084 -0.18014,-0.125 -0.24414,-0.125 -0.113,0 -0.211875,0.0512 -0.296875,0.158203 l -0.296875,0.466797 c 0.538,0.609 1.162906,1.088453 1.878906,1.439453 0.715,0.351 1.569547,0.525391 2.560547,0.525391 0.763,0 1.442109,-0.119469 2.037109,-0.355469 0.595,-0.237 1.098766,-0.562656 1.509766,-0.972656 0.41,-0.41 0.7205,-0.893219 0.9375,-1.449219 0.216,-0.556 0.324219,-1.149297 0.324219,-1.779297 0,-0.616 -0.108219,-1.129922 -0.324219,-1.544922 -0.217,-0.414 -0.500516,-0.761922 -0.853516,-1.044922 -0.355,-0.283 -0.756078,-0.518078 -1.205078,-0.705078 -0.45,-0.188 -0.913719,-0.360625 -1.386719,-0.515625 -0.475,-0.155 -0.937718,-0.311656 -1.386718,-0.472656 -0.449,-0.159 -0.850078,-0.356844 -1.205078,-0.589844 -0.353,-0.234 -0.638516,-0.516609 -0.853516,-0.849609 -0.216,-0.333 -0.324219,-0.752719 -0.324219,-1.261719 0,-0.389 0.07375,-0.762187 0.21875,-1.117187 0.145,-0.353 0.356719,-0.663641 0.636719,-0.931641 0.279,-0.269 0.625062,-0.483672 1.039062,-0.638672 0.415,-0.156 0.894453,-0.234375 1.439454,-0.234375 0.545,0 1.002999,0.06812 1.375,0.203125 0.371999,0.134 0.681687,0.280453 0.929687,0.439453 0.248,0.159 0.441891,0.305547 0.587891,0.435547 0.145,0.131 0.265421,0.197266 0.357422,0.197266 0.12,0 0.21139,-0.06064 0.27539,-0.181641 l 0.25586,-0.488281 c -0.510001,-0.51 -1.076313,-0.886766 -1.695313,-1.134766 -0.619,-0.248 -1.316703,-0.373047 -2.095703,-0.373047 z m -170.904297,0.169922 v 15.025391 h 8.207031 v -0.923828 h -7.113281 V 19.863281 Z m 17.074219,0 -6.148438,15.025391 h 0.828125 c 0.1,0 0.183907,-0.02894 0.253907,-0.08594 0.07,-0.056 0.120437,-0.123171 0.148437,-0.201172 l 1.763672,-4.363281 h 7.378906 l 1.763672,4.363281 c 0.035,0.085 0.08348,0.155032 0.146484,0.207032 0.065,0.053 0.147094,0.08008 0.246094,0.08008 h 0.837891 l -6.146485,-15.025391 z m 11.83789,0 v 15.025391 h 1.09375 v -7.242188 h 0.964844 c 0.17,0 0.309922,0.0093 0.419922,0.02734 0.11,0.017 0.205109,0.04594 0.287109,0.08594 0.081,0.039 0.15661,0.08463 0.22461,0.140625 0.067,0.058 0.138797,0.126125 0.216797,0.203125 l 6.349609,6.498046 c 0.078,0.100001 0.157281,0.170797 0.238281,0.216797 0.082,0.047 0.214438,0.07031 0.398438,0.07031 h 0.880859 l -6.912109,-7.220703 c -0.12,-0.143 -0.241328,-0.256703 -0.361328,-0.345703 -0.12,-0.089 -0.254344,-0.153313 -0.402344,-0.195313 0.127,-0.05 0.242703,-0.114406 0.345703,-0.191406 0.102,-0.079 0.218516,-0.187078 0.353516,-0.330078 l 6.5625,-6.742188 h -0.871094 c -0.141,0 -0.262234,0.02245 -0.365235,0.06445 -0.101999,0.043 -0.2065,0.123141 -0.3125,0.244141 l -6.064453,6.232422 c -0.078,0.078 -0.148796,0.145266 -0.216797,0.197265 -0.067,0.053 -0.141656,0.09309 -0.222656,0.121094 -0.082,0.029 -0.173484,0.04759 -0.271484,0.05859 -0.099,0.01 -0.21561,0.01563 -0.34961,0.01563 h -0.892578 v -6.933594 z m 15.609375,0 v 15.025391 h 9.003907 l 0.01953,-0.902344 h -7.929688 v -6.265625 h 6.582032 v -0.880859 h -6.582032 v -6.074219 h 7.910157 v -0.902344 z m 14.4375,0 v 15.025391 h 8.208985 v -0.923828 h -7.113282 V 19.863281 Z m 17.0742191,0 -6.1484371,15.025391 h 0.828125 c 0.1,0 0.185859,-0.02894 0.255859,-0.08594 0.071,-0.056 0.119437,-0.123171 0.1484375,-0.201172 l 1.7617187,-4.363281 h 7.38085942 l 1.76171876,4.363281 c 0.035,0.085 0.0844375,0.155032 0.14843752,0.207032 0.064,0.053 0.1461406,0.08008 0.2441406,0.08008 H 2.1445312 L -4.0019531,19.863281 Z m 11.8378907,0 V 34.888672 H 7.71875 V 22.242188 c 0,-0.185 -0.01025,-0.38175 -0.03125,-0.59375 l 9.755859,13.029296 0.177735,0.16211 c 0.06,0.032 0.133562,0.04883 0.226562,0.04883 h 0.509766 V 19.863281 h -0.94336 V 32.46875 c 0,0.198 0.0083,0.402234 0.0293,0.615234 L 7.7089844,20.066406 c -0.064,-0.085 -0.1217813,-0.141015 -0.1757813,-0.166015 -0.053,-0.024 -0.1285156,-0.03711 -0.2285156,-0.03711 z m 18.1582032,0 v 15.025391 h 5.490234 c 1.061,0 2.03211,-0.173484 2.91211,-0.521484 0.882,-0.347001 1.638578,-0.845094 2.267578,-1.496094 0.631,-0.652 1.119797,-1.442141 1.466797,-2.369141 0.347,-0.927 0.519531,-1.969859 0.519531,-3.130859 0,-1.153 -0.172531,-2.195094 -0.519531,-3.121094 -0.347,-0.928 -0.835797,-1.718141 -1.466797,-2.369141 -0.629,-0.652 -1.385578,-1.150093 -2.267578,-1.496093 -0.88,-0.348 -1.85111,-0.521485 -2.91211,-0.521485 z m 26.15039,0 v 15.025391 h 8.208985 V 33.964844 H 52.166016 V 19.863281 Z m 12.869141,0 v 15.025391 h 9.005859 l 0.01953,-0.902344 h -7.929688 v -6.265625 h 6.582032 v -0.880859 h -6.582032 v -6.074219 h 7.910156 v -0.902344 z m 14.439453,0 v 15.025391 h 1.095703 V 19.863281 Z m 20.951172,0 v 9.291016 c 0,0.828 0.129625,1.602312 0.390625,2.320312 0.263,0.719 0.639857,1.343907 1.130857,1.878907 0.492,0.534 1.09092,0.953812 1.79492,1.257812 0.704,0.305 1.49505,0.457031 2.37305,0.457031 0.877,0 1.66905,-0.152031 2.37305,-0.457031 0.704,-0.304 1.30292,-0.723812 1.79492,-1.257812 0.491,-0.535 0.86886,-1.159907 1.13086,-1.878907 0.262,-0.718 0.39258,-1.492312 0.39258,-2.320312 v -9.291016 h -1.08203 v 9.291016 c 0,0.7 -0.10646,1.353984 -0.31446,1.958984 -0.209,0.605 -0.5122,1.131172 -0.9082,1.576172 -0.397,0.446 -0.87727,0.795875 -1.44727,1.046875 -0.57,0.252 -1.21745,0.376953 -1.93945,0.376953 -0.723,0 -1.36655,-0.127812 -1.93555,-0.382812 -0.571,-0.255 -1.05231,-0.603781 -1.44531,-1.050781 -0.392,-0.445001 -0.69434,-0.971172 -0.90234,-1.576172 -0.209,-0.605 -0.31445,-1.258938 -0.31445,-1.960938 v -9.279297 z m 17.751952,0 v 15.025391 h 1.09375 V 28.09375 h 1.96289 c 0.15,0 0.27496,0.0055 0.37695,0.01953 0.103,0.015 0.19263,0.03831 0.26563,0.07031 l 0.20313,0.132812 c 0.06,0.057 0.11978,0.123172 0.17578,0.201172 l 4.81836,6.09375 c 0.071,0.106 0.14946,0.17875 0.23046,0.21875 0.081,0.038 0.18074,0.05859 0.30274,0.05859 h 0.93359 l -5.17187,-6.498047 c -0.135,-0.176 -0.28508,-0.320781 -0.45508,-0.425781 0.65,-0.072 1.23958,-0.221172 1.76758,-0.451172 0.526,-0.23 0.97565,-0.521906 1.34765,-0.878906 0.371,-0.359 0.65933,-0.776 0.86133,-1.25 0.202,-0.474 0.30078,-0.997313 0.30078,-1.570313 0,-1.296 -0.42806,-2.278265 -1.28906,-2.947265 -0.86,-0.668 -2.15286,-1.003907 -3.88086,-1.003907 z m 15.01367,0 v 15.025391 h 9.00391 l 0.0215,-0.902344 h -7.93164 v -6.265625 h 6.58203 v -0.880859 h -6.58203 v -6.074219 h 7.91016 v -0.902344 z m -13.91992,0.861328 h 2.75 c 1.338,0 2.35574,0.256438 3.05274,0.773438 0.697,0.517 1.04492,1.308906 1.04492,2.378906 0,0.524 -0.0961,0.99411 -0.28711,1.412109 -0.191,0.418 -0.46803,0.774266 -0.83203,1.072266 -0.364,0.297 -0.81089,0.525547 -1.33789,0.685547 -0.527,0.16 -1.12407,0.238281 -1.78907,0.238281 h -2.60156 z m -92.162108,0.02148 h 4.396484 c 0.899,0 1.718891,0.148312 2.462891,0.445312 0.742,0.297 1.381109,0.729922 1.912109,1.294922 0.53,0.567 0.939469,1.260078 1.230469,2.080078 0.291,0.822 0.435547,1.757688 0.435547,2.804688 0,1.055 -0.144547,1.992453 -0.435547,2.814453 -0.291,0.821 -0.700469,1.515078 -1.230469,2.080078 -0.531,0.567 -1.170109,0.997922 -1.912109,1.294922 -0.744,0.297 -1.563891,0.445312 -2.462891,0.445312 h -4.396484 z m -89.517578,0.201172 c 0.098,0.347 0.20164,0.643625 0.30664,0.890625 l 3.058594,7.591797 h -6.732422 l 3.06836,-7.580079 c 0.05,-0.12 0.09844,-0.257062 0.148437,-0.414062 0.049,-0.155 0.100391,-0.318281 0.150391,-0.488281 z m 58.9589841,0 c 0.098,0.347 0.2025938,0.643625 0.3085938,0.890625 l 3.0566406,7.591797 H -7.9101562 L -4.84375,21.849609 c 0.05,-0.12 0.1003906,-0.257062 0.1503906,-0.414062 0.05,-0.155 0.099438,-0.318281 0.1484375,-0.488281 z M 200.26172,21.636719 c 0.078,0.275 0.15451,0.53439 0.22851,0.77539 0.074,0.24 0.15052,0.451719 0.22852,0.636719 l 2.38867,6.191406 h -5.67969 l 2.38868,-6.179687 c 0.077,-0.185 0.15351,-0.398578 0.22851,-0.642578 0.074,-0.244 0.1468,-0.50625 0.2168,-0.78125 z"
         id="path900" /></g></g></svg>
