<?xml version="1.0" encoding="UTF-8" standalone="no"?>
<svg
   xmlns:dc="http://purl.org/dc/elements/1.1/"
   xmlns:cc="http://creativecommons.org/ns#"
   xmlns:rdf="http://www.w3.org/1999/02/22-rdf-syntax-ns#"
   xmlns:svg="http://www.w3.org/2000/svg"
   xmlns="http://www.w3.org/2000/svg"
   viewBox="0 0 1215.9922 207.11197"
   xml:space="preserve"
   id="svg2"
   version="1.1"><defs
     id="defs6"><clipPath
       id="clipPath18"
       clipPathUnits="userSpaceOnUse"><path
         id="path16"
         d="M 0,841.89 H 1190.55 V 0 H 0 Z" /></clipPath><clipPath
       id="clipPath70"
       clipPathUnits="userSpaceOnUse"><path
         id="path68"
         d="M 0,841.89 H 1190.55 V 0 H 0 Z" /></clipPath></defs><g
     transform="matrix(1.3333333,0,0,-1.3333333,-342.33326,624.74087)"
     id="g10"><g
       id="g12"><g
         clip-path="url(#clipPath18)"
         id="g14"><g
           transform="translate(321.7485,467.5336)"
           id="g20" /><g
           transform="translate(304.6172,400.3549)"
           id="g24" /><g
           transform="translate(329.4502,439.0927)"
           id="g28" /><g
           transform="translate(341.6431,452.4901)"
           id="g32" /><g
           transform="translate(282.4951,416.3685)"
           id="g36" /><g
           transform="translate(381.4014,445.62)"
           id="g40" /><g
           transform="translate(366.3818,452.3295)"
           id="g44" /><g
           transform="translate(280.166,437.6649)"
           id="g48" /><g
           transform="translate(788.1816,356.9681)"
           id="g52" /><g
           transform="translate(1059.6807,357.1888)"
           id="g56" /></g></g><g
       id="text62"
       style="font-variant:normal;font-weight:normal;font-stretch:normal;font-size:50px;font-family:Lato;-inkscape-font-specification:Lato-Regular;writing-mode:lr-tb;fill:#ffffff;fill-opacity:1;fill-rule:nonzero;stroke:none"
       transform="matrix(1,0,0,-1,359.5205,377.7041)"
       aria-label="CAMPING " /><g
       id="g64"><g
         clip-path="url(#clipPath70)"
         id="g66"><g
           id="text74"
           style="font-variant:normal;font-weight:300;font-stretch:normal;font-size:50px;font-family:'Lato Light';-inkscape-font-specification:Lato-Light;writing-mode:lr-tb;fill:#ffffff;fill-opacity:1;fill-rule:nonzero;stroke:none"
           transform="matrix(1,0,0,-1,684.7187,377.7041)"
           aria-label="LA BELLA VISTA "><path
             d="m -350.375,-90.851562 c -4.288,0 -8.4977,0.353484 -12.5957,1.021484 0.678,1.223 2.57559,1.599328 6.43359,1.736328 4.887,0.169 10.42355,-0.457187 10.81055,-2.617188 -1.541,-0.09 -3.08944,-0.140624 -4.64844,-0.140624 z m 14.12305,1.283203 c -0.306,2.198 1.60926,3.642125 4.32226,3.828125 1.78,0.125 3.45513,-0.510532 4.57813,-1.644532 -2.894,-0.895 -5.86539,-1.627593 -8.90039,-2.183593 z m -36.22852,1.914062 c -5.066,1.499 -9.91419,3.504172 -14.49219,5.951172 2.341,1.521 5.91172,0.488359 9.76172,-1.681641 2.602,-1.465 4.06747,-2.984531 4.73047,-4.269531 z m 23.08789,0.695313 c -2.256,-0.117 -2.9642,1.270047 -3.0332,2.623046 -0.075,1.36 0.51639,2.17311 2.77539,2.28711 2.259,0.12 3.5903,-1.036485 3.6543,-2.396484 0.076,-1.356001 -1.13949,-2.399672 -3.39649,-2.513672 z m -18.36523,2.800781 c -1.72838,-0.07337 -3.97649,0.576047 -6.39649,1.623047 -4.754,2.057 -6.10907,4.627453 -5.70508,6.064453 0.706,2.539 2.43647,2.616219 7.48047,1.074219 5.046,-1.545 8.37853,-3.388875 7.89453,-6.046875 -0.3365,-1.8455 -1.54506,-2.641469 -3.27343,-2.714844 z m 43.11133,0.59375 c -1.63018,-0.119391 -2.83849,0.692562 -3.30274,1.601562 -1.162,2.27 0.27463,2.570735 2.76563,3.677735 2.491,1.107 4.93034,2.197531 5.90234,-0.230469 0.978,-2.423 -1.11447,-3.483891 -3.60547,-4.587891 -0.625,-0.27725 -1.21637,-0.42114 -1.75976,-0.460937 z m -16.70704,0.519531 c -2.86279,0.02677 -4.36637,1.114781 -4.70312,2.238281 -0.809,2.645 0.5807,3.749735 5.5957,5.427735 5.011,1.68 8.77017,2.071031 9.82617,-0.542969 1.464,-3.634 -2.24753,-5.684813 -7.39453,-6.757813 -1.263,-0.26475 -2.36995,-0.374156 -3.32422,-0.365234 z m -13.9707,1.335938 c -2.382,-0.214 -5.14664,1.063734 -4.93164,2.802734 0.325,2.626 2.50364,3.37375 4.68164,3.21875 3.519,-0.253 5.03939,-1.539203 5.15039,-2.533203 0.211,-1.757 -1.33739,-3.172281 -4.90039,-3.488281 z m 41.98242,2.701172 c -1.25911,-0.193735 -2.1454,0.55539 -2.6914,1.46289 -0.727,1.219 -0.58041,2.249891 1.43359,3.462891 2.021,1.207 3.81306,0.79789 4.53906,-0.41211 0.733,-1.217 0.11852,-2.766562 -1.89648,-3.976562 -0.50375,-0.30325 -0.96506,-0.472531 -1.38477,-0.537109 z m -73.43554,2.861328 c -1.79471,-0.417469 -4.05693,0.670078 -6.38868,2.455078 -3.054,2.334 -3.56653,4.429578 -3.01953,5.392578 0.963,1.701 2.22013,1.445687 5.57813,-0.570313 3.357,-2.019 6.80908,-4.910125 5.45508,-6.328125 -0.48,-0.504 -1.02677,-0.810062 -1.625,-0.949218 z m 67.08007,0.992187 c -1.23782,-0.190734 -2.11023,0.546953 -2.64648,1.439453 -0.713,1.198 -0.5718,2.211297 1.4082,3.404297 1.986,1.186 3.74889,0.78375 4.46289,-0.40625 0.72,-1.196 0.11672,-2.719203 -1.86328,-3.908203 -0.495,-0.29825 -0.94872,-0.465719 -1.36133,-0.529297 z m -23.3789,0.369141 c -3.078,-0.372 -4.18035,1.4645 -4.40235,3.3125 -0.214,1.858 0.51775,3.019625 3.59375,3.390625 3.081,0.36 5.01733,-1.102219 5.23633,-2.949219 0.224,-1.858 -1.35173,-3.387906 -4.42773,-3.753906 z m -22.47656,0.521484 c -1.65163,0.08388 -3.59694,0.8465 -5.64844,2 -4.024,2.267 -5.08192,4.862047 -4.66992,6.248047 0.732,2.462 2.23406,2.447875 6.53906,0.671875 4.3,-1.776 8.90201,-4.670469 7.66601,-6.855469 -0.877,-1.555 -2.23509,-2.148328 -3.88671,-2.064453 z m 11.21679,1.433594 c -3.124,-0.216 -4.31809,1.568328 -5.49609,4.361328 -1.186,2.791 0.88386,4.674672 4.00586,4.888672 3.124,0.219 5.92053,-1.895547 6.01953,-4.935547 0.099,-3.039 -1.4073,-4.098453 -4.5293,-4.314453 z m -46.7832,0.841797 c -6.231,5.386 -11.59533,11.745797 -15.86133,18.841797 1.796,1.036 5.60669,-0.80625 10.55469,-6.40625 5.167,-5.859 7.73183,-10.665438 6.04883,-12.023438 -0.212,-0.17 -0.45919,-0.313109 -0.74219,-0.412109 z m 19.33203,0.623047 c -1.04059,0.179902 -2.35217,0.627078 -3.98242,1.408203 -10.574,5.065 -12.824,15.045812 -10.5,18.382812 2.327,3.342 10.6122,-3.488109 13.2832,-6.412109 2.51475,-2.758875 8.48332,-14.638223 1.19922,-13.378906 z m 53.15625,0.294922 c -0.69547,0.110203 -1.30456,0.387593 -1.75781,0.871093 -2.48,2.647 -0.13224,5.514672 2.38476,7.138672 4.065,2.633 6.79219,2.470375 7.74219,1.484375 1.688,-1.759 2.05406,-3.715 -1.58594,-7 -1.82625,-1.64925 -4.69679,-2.82475 -6.7832,-2.49414 z m 16.97852,0.08789 c -0.8545,0.135422 -1.60121,0.476313 -2.15821,1.070313 -3.047,3.252 -0.16131,6.777437 2.92969,8.773437 4.995,3.234 8.34372,3.035219 9.51172,1.824219 2.073,-2.162 2.52573,-4.566563 -1.94727,-8.601563 -2.244,-2.02725 -5.77243,-3.472672 -8.33593,-3.066406 z m -27.40821,4.009766 c -1.76375,-0.07875 -3.49218,0.39864 -4.61718,1.55664 -2.252,2.318 -1.54872,4.662203 0.98828,6.783204 2.535,2.126 4.84056,1.476343 7.85156,0.02734 3.01,-1.443 3.14442,-4.466797 0.60742,-6.591797 -1.267,-1.062 -3.06633,-1.69664 -4.83008,-1.77539 z m -61.36914,4.720703 c -1.25714,-0.207609 -2.74904,0.532266 -4.12304,2.291015 -1.837,2.345 -0.87675,4.164626 0.53125,5.265626 1.421,1.102 2.73921,1.077375 4.57421,-1.265626 1.83,-2.353 1.5916,-4.669531 0.1836,-5.769531 -0.35375,-0.277 -0.74697,-0.452281 -1.16602,-0.521484 z m 45.16211,0.863281 c -3.433,0.339 -4.18742,2.598156 -3.98242,4.660156 0.215,2.07 1.2877,3.156407 4.7207,2.816407 3.432,-0.351 5.18357,-2.405844 4.97657,-4.464844 -0.205,-2.074 -2.28485,-3.356719 -5.71485,-3.011719 z m -14.76758,0.730469 c -3.71287,0.1695 -7.52356,2.105969 -8.72656,5.324219 -1.603,4.289 0.60841,6.992297 5.06641,8.404296 4.469,1.413001 7.06943,-0.701718 10.14843,-4.261718 3.07101,-3.551 1.5548,-7.619297 -2.9082,-9.029297 -1.1155,-0.35375 -2.34245,-0.494 -3.58008,-0.4375 z m 73.29493,0.09961 c -0.56363,0.119375 -1.02746,0.495907 -1.37696,0.941406 -0.696,0.902001 -0.6824,1.745016 0.8086,2.916016 1.491,1.162 4.59654,3.216313 5.31054,2.320313 0.697,-0.898 -1.27853,-4.410172 -2.76953,-5.576172 -0.745,-0.583 -1.40903,-0.720938 -1.97265,-0.601563 z m -49.86915,5.640625 c -2.23317,0.111188 -4.52445,1.378828 -5.25195,3.486328 -0.967,2.806 0.36978,4.574954 3.05078,5.501953 2.689,0.924001 4.25447,-0.460968 6.10547,-2.792968 1.852,-2.319 0.93705,-4.982203 -1.75195,-5.908203 -0.67125,-0.2315 -1.40795,-0.324172 -2.15235,-0.28711 z m -58.38867,2.660157 c -2.4479,0.138656 -3.67736,3.016781 -5.59961,6.175781 -2.517,4.135 -2.23403,6.877015 -1.20703,7.791015 1.809,1.62 4.7843,1.118422 7.7793,-2.767578 2.991,-3.884 4.04512,-9.145984 1.95312,-10.333984 -1.15725,-0.654 -2.10981,-0.911453 -2.92578,-0.865234 z m 47.39453,2.625 c -0.58082,-0.06784 -1.23618,-0.05799 -1.96093,0.04102 -2.905,0.401 -3.47047,2.339031 -3.23047,4.082031 0.242,1.741 1.19075,2.628375 4.09375,2.234375 2.898,-0.401 4.31617,-2.196406 4.07617,-3.941406 -0.1755,-1.308 -1.23603,-2.212484 -2.97852,-2.416015 z m -28.19921,0.857421 c -3.838,0.07 -7.03118,2.950641 -6.82618,6.681641 0.208,3.726 2.15605,4.860922 5.99805,4.794922 3.84,-0.071 5.10972,-2.373875 6.26172,-5.921875 1.147,-3.543 -1.58959,-5.623688 -5.43359,-5.554688 z m -32.49219,4.81836 c -0.997,-0.236 -2.51564,0.297875 -4.05664,1.546875 -3.273,8.049 -5.22919,16.763625 -5.61719,25.890625 0.441,1.732 1.08623,2.822859 1.86523,3.005859 2.377,0.561 5.81608,-3.212625 8.08008,-13.265625 2.263,-10.056 2.10952,-16.615734 -0.27148,-17.177734 z m 21.3789,0.355469 c -2.273,-0.551 -4.40164,1.1775 -5.30664,4.9375 -0.913,3.761999 1.20194,5.397359 3.46094,5.943359 2.272,0.539 3.81947,-0.196031 4.73047,-3.957031 0.9,-3.767 -0.62877,-6.380829 -2.88477,-6.923828 z m 43.3125,1.43164 c -0.71262,-0.09825 -1.59825,0.08003 -2.59375,0.582031 -1.992,1.006 -1.91935,2.537282 -1.31835,3.738282 0.60399,1.199 1.51185,1.599656 3.50585,0.597656 1.988,-1.005 2.55899,-2.646656 1.95899,-3.847656 -0.302,-0.598 -0.84011,-0.972063 -1.55274,-1.070313 z m -14.39062,0.265625 c -5.875,0 -12.33398,5.099141 -12.33398,11.244141 0,4.837 3.79982,8.708984 9.67382,8.708984 5.875,0 7.97902,-5.321953 10.04102,-11.126953 2.045,-5.788 -1.50286,-8.826172 -7.38086,-8.826172 z m 63.04687,5.679688 c -2.66666,0 -5.1095,0.449609 -7.32617,1.349609 -2.2,0.883333 -4.09049,2.133333 -5.67383,3.75 -1.58333,1.616667 -2.81783,3.550781 -3.70117,5.800781 -0.86666,2.25 -1.29883,4.723828 -1.29883,7.423828 0,2.7 0.40795,5.175782 1.22461,7.425782 0.81667,2.2499996 1.96589,4.1821611 3.44922,5.7988278 1.48334,1.6 3.275,2.85 5.375,3.74999995 2.1,0.88333333 4.44206,1.32617187 7.02539,1.32617187 2.95,1e-8 5.46745,-0.47578125 7.55078,-1.42578122 2.1,-0.95 3.88295,-2.2746094 5.34961,-3.9746094 l -1.90039,-2.0742188 c -0.21666,-0.2166666 -0.45794,-0.3261718 -0.72461,-0.3261718 -0.26666,0 -0.54283,0.125 -0.82617,0.375 -0.63333,0.5666666 -1.2651,1.0579427 -1.89844,1.4746094 -0.61666,0.3999999 -1.29205,0.7333333 -2.02539,1 -0.71666,0.2666666 -1.49961,0.4682291 -2.34961,0.6015624 -0.85,0.1166667 -1.80833,0.1738282 -2.875,0.1738282 -1.75,0 -3.38372,-0.3158854 -4.90039,-0.9492188 -1.51666,-0.6333333 -2.8345,-1.55 -3.95117,-2.75 -1.1,-1.2166666 -1.975,-2.7011716 -2.625,-4.4511716 -0.63333,-1.75 -0.94922,-3.741276 -0.94922,-5.97461 0,-2.166666 0.31589,-4.125 0.94922,-5.875 0.65,-1.75 1.55117,-3.232552 2.70117,-4.449218 1.15,-1.216667 2.51628,-2.150782 4.09961,-2.800782 1.6,-0.666666 3.35873,-1 5.27539,-1 1.06667,0 2.00756,0.08333 2.82422,0.25 0.81667,0.15 1.53373,0.342839 2.15039,0.576172 0.61667,0.233334 1.14961,0.483334 1.59961,0.75 0.45,0.266667 0.84245,0.516667 1.17578,0.75 0.33334,0.233334 0.61628,0.432943 0.84961,0.59961 0.25,0.15 0.48256,0.224609 0.69922,0.224609 0.28334,0 0.50039,-0.05039 0.65039,-0.150391 0.15,-0.116666 0.28373,-0.257161 0.40039,-0.423828 l 1.57422,-2.226562 c -1.48333,-1.4 -3.18294,-2.507552 -5.09961,-3.324219 -1.9,-0.816667 -4.16549,-1.224609 -6.79883,-1.224609 z m 256.125004,0 c -2.8,0 -5.334895,0.440885 -7.601562,1.324218 -2.25,0.883334 -4.173438,2.133334 -5.773438,3.75 -1.583333,1.6 -2.809114,3.525391 -3.675781,5.775391 -0.85,2.25 -1.275391,4.741276 -1.275391,7.474609 0,2.7 0.434115,5.175782 1.300782,7.425782 0.883333,2.2499996 2.107161,4.1821611 3.673828,5.7988278 1.566667,1.6 3.434896,2.85 5.601562,3.74999995 2.166667,0.88333333 4.548438,1.32617187 7.148438,1.32617187 1.483333,0 2.858333,-0.0833333 4.125,-0.25 1.266667,-0.149999995 2.450781,-0.3845052 3.550781,-0.70117187 1.116667,-0.33333333 2.158333,-0.74127605 3.125,-1.22460935 0.983333,-0.4833334 1.924219,-1.0492188 2.824219,-1.6992188 V -17.224609 h -11 v 2.75 c 0,0.266666 0.09206,0.490494 0.27539,0.673828 0.2,0.183333 0.458724,0.27539 0.775391,0.27539 h 5.550781 V -5.625 c -0.633333,0.3333333 -1.267057,0.633724 -1.90039,0.9003906 -0.633334,0.25 -1.308724,0.4670573 -2.025391,0.6503906 -0.716667,0.1833334 -1.484114,0.3238282 -2.300781,0.4238282 -0.8,0.083333 -1.681771,0.125 -2.648438,0.125 -1.933333,0 -3.700781,-0.3246094 -5.300781,-0.9746094 -1.6,-0.65 -2.983724,-1.5908854 -4.150391,-2.8242188 -1.166666,-1.2333333 -2.074609,-2.7333332 -2.724609,-4.5000002 -0.633333,-1.783333 -0.949219,-3.809505 -0.949219,-6.076172 0,-2.166666 0.307162,-4.116276 0.923828,-5.849609 0.616667,-1.75 1.500391,-3.232552 2.650391,-4.449219 1.15,-1.233333 2.542448,-2.176172 4.175781,-2.826172 1.633334,-0.666666 3.457943,-1 5.47461,-1 1.383333,0 2.574218,0.109506 3.574218,0.326172 1.016667,0.216667 1.891667,0.482162 2.625,0.798828 0.75,0.3 1.383724,0.617839 1.900391,0.951172 0.516667,0.333334 0.983724,0.616276 1.400391,0.84961 0.316666,0.183333 0.608333,0.27539 0.875,0.27539 0.45,0 0.816276,-0.225781 1.099609,-0.675781 l 1.375,-2.199219 c -0.766667,-0.7 -1.591276,-1.325 -2.474609,-1.875 -0.883334,-0.566666 -1.850391,-1.042448 -2.900391,-1.425781 -1.033333,-0.4 -2.158333,-0.700391 -3.375,-0.900391 -1.216667,-0.216666 -2.532552,-0.324218 -3.949219,-0.324218 z M -267.22266,-35.824219 -281.54883,0 h 3.75 c 0.41667,0 0.76745,-0.11627604 1.05078,-0.34960938 0.28334,-0.23333333 0.48295,-0.50078125 0.59961,-0.80078122 l 3.34961,-8.6503906 h 16.07617 l 3.34961,8.6503906 c 0.13334,0.33333331 0.33295,0.60950518 0.59961,0.82617185 C -252.50677,-0.10755208 -252.15599,0 -251.72266,0 h 3.75 l -14.32617,-35.824219 z m 33.625,0 V 0 h 4.25 v -26.324219 c 0,-0.35 -0.0174,-0.733724 -0.0508,-1.15039 -0.0167,-0.416667 -0.0496,-0.842058 -0.0996,-1.275391 l 12.55078,22.4746094 c 0.41667,0.75 1,1.125 1.75,1.125 h 0.69922 c 0.75,0 1.33334,-0.375 1.75,-1.125 l 12.27539,-22.4003904 c -0.0333,0.416666 -0.0595,0.826562 -0.0762,1.226562 -0.0167,0.4 -0.0234,0.775 -0.0234,1.125 V 0 h 4.25 v -35.824219 h -3.57617 c -0.43333,0 -0.76666,0.04167 -1,0.125 -0.23333,0.08333 -0.45716,0.315886 -0.67383,0.699219 l -12.125,22.025391 c -0.23333,0.433333 -0.44166,0.865494 -0.625,1.298828 -0.18333,0.416666 -0.35872,0.859505 -0.52539,1.326172 -0.16666,-0.45 -0.34205,-0.892839 -0.52539,-1.326172 -0.16666,-0.45 -0.36627,-0.873438 -0.59961,-1.273438 L -228.34766,-35 c -0.21666,-0.383333 -0.44244,-0.615885 -0.67578,-0.699219 -0.23333,-0.08333 -0.56666,-0.125 -1,-0.125 z m 56.90039,0 V 0 h 4.82422 v -13.400391 h 5.75 c 2.15,0 4.05795,-0.274218 5.72461,-0.824218 1.66667,-0.566667 3.05912,-1.34961 4.17578,-2.34961 1.13334,-1 1.99089,-2.192838 2.57422,-3.576172 0.58334,-1.383333 0.875,-2.907552 0.875,-4.574218 0,-1.683334 -0.27422,-3.209506 -0.82422,-4.576172 -0.53333,-1.366667 -1.35117,-2.533334 -2.45117,-3.5 -1.1,-0.966667 -2.49049,-1.707943 -4.17383,-2.22461 -1.66666,-0.533333 -3.63372,-0.798828 -5.90039,-0.798828 z m 40.39844,0 V 0 h 4.85156 v -35.824219 z m 23.10156,0 V 0 h 4.25 v -25.525391 c 0,-0.333333 -0.009,-0.699609 -0.0254,-1.099609 -0.0167,-0.4 -0.0428,-0.807943 -0.0762,-1.224609 L -88.322266,-0.875 c 0.25,0.31666667 0.5,0.54244792 0.75,0.67578125 C -87.305599,-0.06588542 -86.98099,0 -86.597656,0 h 2.449218 v -35.824219 h -4.25 v 25.375 c 0,0.383334 0.0087,0.7825523 0.02539,1.199219 0.01667,0.4 0.04961,0.8166667 0.09961,1.25 l -20.750002,-27 c -0.26666,-0.333333 -0.50794,-0.550391 -0.72461,-0.650391 -0.2,-0.116666 -0.51588,-0.173828 -0.94922,-0.173828 z m 507.14649,0.04883 c -1.63333,0 -3.09167,0.258724 -4.375,0.775391 -1.26667,0.5 -2.33255,1.175391 -3.19922,2.025391 -0.86667,0.833333 -1.52461,1.80039 -1.97461,2.90039 -0.45,1.1 -0.67578,2.240495 -0.67578,3.423828 0,1.516667 0.25,2.784115 0.75,3.800782 0.51667,1 1.19206,1.842057 2.02539,2.52539 0.83333,0.666667 1.77422,1.215104 2.82422,1.648438 1.06667,0.433333 2.15872,0.825781 3.27539,1.175781 1.11667,0.35 2.2,0.707552 3.25,1.074219 1.06667,0.366666 2.01628,0.825 2.84961,1.375 0.83333,0.533333 1.5,1.208724 2,2.02539 0.51667,0.8 0.77539,1.826172 0.77539,3.0761722 0,1.15 -0.19961,2.2333334 -0.59961,3.25 -0.4,1 -0.98333,1.8662761 -1.75,2.5996094 -0.75,0.7333334 -1.67539,1.3166667 -2.77539,1.75 -1.1,0.4166667 -2.35,0.625 -3.75,0.625 -1.01667,0 -1.92461,-0.1007812 -2.72461,-0.3007812 -0.8,-0.2 -1.50833,-0.4412761 -2.125,-0.7246094 -0.61667,-0.3 -1.15833,-0.6158854 -1.625,-0.9492188 -0.46667,-0.3499999 -0.86589,-0.6678385 -1.19922,-0.9511718 -0.33333,-0.3 -0.61823,-0.55 -0.85156,-0.75 -0.23333,-0.2 -0.42422,-0.2988282 -0.57422,-0.2988282 -0.26667,0 -0.49922,0.1250001 -0.69922,0.375 l -0.70117,1.0996094 c 1.26667,1.4333334 2.74245,2.5670573 4.42578,3.40039065 1.68333,0.81666667 3.69206,1.22460937 6.02539,1.22460937 1.8,0 3.39883,-0.27617187 4.79883,-0.82617187 1.4,-0.56666667 2.58411,-1.33216145 3.55078,-2.29882815 0.96667,-0.9666666 1.69922,-2.1003906 2.19922,-3.4003906 0.51667,-1.3166667 0.77539,-2.7158854 0.77539,-4.199219 0,-1.45 -0.25872,-2.658333 -0.77539,-3.625 -0.5,-0.983333 -1.16667,-1.809896 -2,-2.476562 -0.83333,-0.666667 -1.78294,-1.215104 -2.84961,-1.648438 -1.05,-0.45 -2.13333,-0.859896 -3.25,-1.226562 -1.11667,-0.366667 -2.20872,-0.732943 -3.27539,-1.09961 -1.05,-0.383333 -1.99089,-0.85039 -2.82422,-1.40039 -0.83333,-0.55 -1.50872,-1.216667 -2.02539,-2 -0.5,-0.783334 -0.75,-1.77461 -0.75,-2.97461 0,-0.916666 0.16667,-1.791666 0.5,-2.625 0.35,-0.833333 0.85,-1.565885 1.5,-2.199218 0.66667,-0.633334 1.48255,-1.133334 2.44922,-1.5 0.98333,-0.366667 2.11706,-0.550782 3.40039,-0.550782 1.28333,0 2.35794,0.157943 3.22461,0.47461 0.88333,0.316666 1.61784,0.667448 2.20117,1.050781 0.58333,0.366667 1.04167,0.708724 1.375,1.025391 0.35,0.3 0.63294,0.449218 0.84961,0.449218 0.28333,0 0.50039,-0.140494 0.65039,-0.423828 l 0.59961,-1.15039 c -1.2,-1.2 -2.53333,-2.092448 -4,-2.675782 -1.45,-0.583333 -3.09245,-0.875 -4.92578,-0.875 z M 5.25,-35.375 V 0 H 24.574219 V -2.1757812 H 7.8007812 V -35.375 Z m 44.900391,0 L 35.675781,0 H 37.625 c 0.233333,0 0.432943,-0.06588542 0.599609,-0.19921875 0.166667,-0.13333333 0.282943,-0.29322917 0.34961,-0.4765625 l 4.15039,-10.27343775 h 17.375 l 4.175782,10.27343775 c 0.08333,0.2 0.199609,0.36666667 0.349609,0.5 C 64.775,-0.05911458 64.965885,0 65.199219,0 h 1.976562 L 52.699219,-35.375 Z m 55.099609,0 V 0 h 11.47461 c 1.88333,0 3.56745,-0.21705729 5.05078,-0.65039062 1.48333,-0.44999998 2.73333,-1.09049478 3.75,-1.92382818 1.01667,-0.8333333 1.79089,-1.8507812 2.32422,-3.0507812 0.53333,-1.2 0.80078,-2.5507812 0.80078,-4.0507812 0,-2.3499998 -0.75,-4.2404948 -2.25,-5.6738278 -1.5,-1.433334 -3.64245,-2.358724 -6.42578,-2.775391 1.15,-0.283333 2.16745,-0.691276 3.05078,-1.224609 0.9,-0.55 1.65872,-1.192448 2.27539,-1.925782 0.61667,-0.733333 1.08177,-1.533724 1.39844,-2.40039 0.33333,-0.866667 0.5,-1.765886 0.5,-2.699219 0,-1.416667 -0.24128,-2.684115 -0.72461,-3.800781 -0.46667,-1.116667 -1.18372,-2.057552 -2.15039,-2.824219 -0.96667,-0.783333 -2.1905,-1.375391 -3.67383,-1.775391 -1.46667,-0.4 -3.20794,-0.599609 -5.22461,-0.599609 z m 41.59961,0 V 0 h 21.20117 v -2.125 h -18.625 v -14.75 h 15.5 v -2.074219 h -15.5 V -33.25 h 18.625 v -2.125 z m 39,0 V 0 h 19.32617 V -2.1757812 H 188.40039 V -35.375 Z m 35.30078,0 V 0 h 19.32422 V -2.1757812 H 223.69922 V -35.375 Z m 44.90039,0 L 251.57422,0 h 1.95117 c 0.23333,0 0.43294,-0.06588542 0.59961,-0.19921875 0.16667,-0.13333333 0.28294,-0.29322917 0.34961,-0.4765625 L 258.625,-10.949219 H 276 l 4.17578,10.27343775 c 0.0833,0.2 0.19961,0.36666667 0.34961,0.5 C 280.67539,-0.05911458 280.86628,0 281.09961,0 h 1.97461 l -14.47461,-35.375 z m 48.5,0 L 329.15039,0 h 2.27539 l 14.59961,-35.375 h -2 c -0.23333,0 -0.43294,0.06589 -0.59961,0.199219 -0.15,0.133333 -0.26823,0.293229 -0.35156,0.476562 l -12.02344,29.3496096 c -0.3,0.7333334 -0.54323,1.5492188 -0.72656,2.4492188 -0.2,-0.8666667 -0.45677,-1.6825521 -0.77344,-2.4492188 L 317.5,-34.699219 c -0.0833,-0.2 -0.19961,-0.359896 -0.34961,-0.476562 -0.15,-0.133334 -0.34284,-0.199219 -0.57617,-0.199219 z m 48.54883,0 V 0 h 2.57617 v -35.375 z m 54.45117,0 v 2.175781 h 12.5 V 0 h 2.54883 v -33.199219 h 12.42578 V -35.375 Z M 467,-35.375 452.52539,0 h 1.94922 c 0.23333,0 0.43294,-0.06588542 0.59961,-0.19921875 0.16667,-0.13333333 0.28489,-0.29322917 0.35156,-0.4765625 l 4.14844,-10.27343775 h 17.375 l 4.17578,10.27343775 c 0.0833,0.2 0.19961,0.36666667 0.34961,0.5 C 481.62461,-0.05911458 481.81745,0 482.05078,0 h 1.97461 l -14.47461,-35.375 z m -359.19922,2.025391 h 7.625 c 3.15,0 5.47461,0.616276 6.97461,1.849609 1.51667,1.216667 2.27539,3.017057 2.27539,5.400391 0,0.916666 -0.17539,1.807161 -0.52539,2.673828 -0.35,0.866666 -0.90039,1.642838 -1.65039,2.326172 -0.73333,0.683333 -1.68294,1.233724 -2.84961,1.65039 -1.15,0.416667 -2.54245,0.625 -4.17578,0.625 h -7.67383 z m -496.29687,0.30664 c -1.687,0 -2.65235,0.791703 -2.65235,3.595703 0,2.807 1.36464,5.083985 3.05664,5.083985 1.681,0 3.04688,-2.276985 3.04688,-5.083985 0,-2.804 -1.76417,-3.595703 -3.45117,-3.595703 z m 439.921871,0.21875 c 0.116667,0.4 0.232943,0.781771 0.34961,1.148438 0.116666,0.35 0.232942,0.667838 0.349609,0.951172 l 7.224609,17.875 H 43.5 l 7.224609,-17.84961 c 0.116667,-0.3 0.232943,-0.626562 0.34961,-0.976562 0.116666,-0.366667 0.234896,-0.748438 0.351562,-1.148438 z m 215.898439,0 c 0.11667,0.4 0.23489,0.781771 0.35156,1.148438 0.11667,0.35 0.23294,0.667838 0.34961,0.951172 l 7.22461,17.875 h -15.84961 l 7.22461,-17.84961 c 0.11667,-0.3 0.23294,-0.626562 0.34961,-0.976562 0.11667,-0.366667 0.23294,-0.748438 0.34961,-1.148438 z m 200.95117,0 c 0.11667,0.4 0.23294,0.781771 0.34961,1.148438 0.11667,0.35 0.23294,0.667838 0.34961,0.951172 l 7.22461,17.875 h -15.84961 l 7.22461,-17.84961 c 0.11667,-0.3 0.23489,-0.626562 0.35156,-0.976562 0.11667,-0.366667 0.23294,-0.748438 0.34961,-1.148438 z M -171.87305,-32 h 5.75 c 2.85,0 4.975,0.642448 6.375,1.925781 1.41667,1.283334 2.125,3.066276 2.125,5.34961 0,1.1 -0.18411,2.108724 -0.55078,3.02539 -0.36666,0.916667 -0.90833,1.708334 -1.625,2.375 -0.71666,0.65 -1.60716,1.156771 -2.67383,1.523438 -1.05,0.366666 -2.26705,0.550781 -3.65039,0.550781 h -5.75 z m -233.48633,0.251953 c -4.42599,0 -10.63867,8.925016 -10.63867,17.416016 0,8.4889997 8.30697,16.550781 15.29297,16.550781 4.245,0 8.11524,-8.0970625 8.11524,-16.414062 0,-13.484001 -8.33453,-17.552735 -12.76954,-17.552735 z M -264.77344,-31.25 c 0.35,1.35 0.70951,2.475 1.07617,3.375 l 5.625,14.574219 h -13.375 l 5.625,-14.548828 c 0.16667,-0.433334 0.33334,-0.933334 0.5,-1.5 0.18334,-0.583334 0.3655,-1.217058 0.54883,-1.900391 z m -117.34765,7.814453 c -1.83591,-0.28289 -3.12688,0.811016 -3.92188,2.134766 -1.06,1.777 -0.84911,3.278875 2.08789,5.046875 2.945,1.761 5.56014,1.163437 6.61914,-0.601563 1.068,-1.774 0.17238,-4.030922 -2.76562,-5.794922 -0.7345,-0.4425 -1.40757,-0.690859 -2.01953,-0.785156 z m 15.80078,3.820313 c -0.887,0.02887 -1.92775,0.427687 -3.03125,1.242187 -2.216,1.633 -1.80927,3.4865 -0.82227,4.8125 0.982,1.33 2.16395,1.642766 4.37695,0.0098 2.211,-1.632 2.56599,-3.753985 1.58399,-5.083985 -0.4885,-0.667 -1.22042,-1.009343 -2.10742,-0.980468 z m 474.12109,2.666015 h 8.89844 c 1.48333,0 2.80989,0.166667 3.97656,0.5 1.16667,0.333334 2.14922,0.815886 2.94922,1.449219 0.8,0.616667 1.40755,1.375391 1.82422,2.275391 0.43333,0.883333 0.65039,1.883333 0.65039,2.9999996 0,2.4333334 -0.79167,4.3238282 -2.375,5.6738282 -1.58333,1.3333333 -3.93216,2 -7.04883,2 h -8.875 z m -486.5332,3.689453 c -6.986,0 -11.98438,9.2431098 -11.98438,14.5371098 0,9.1730002 8.11752,12.7324222 13.97852,12.7324222 5.866,0 9.42969,-8.2951566 9.42969,-13.78515662 0,-5.48499998 -1.50283,-13.48437538 -11.42383,-13.48437538 z m -42.97461,3.978516 c -0.28992,-0.064684 -0.58667,-0.038375 -0.88867,0.09375 -3.437,1.505 -3.36021,5.8028438 -1.78321,10.8398438 1.549,4.943 3.96374,6.5615937 5.42774,6.3085937 2.601,-0.437 2.85756,-2.1500781 1.85156,-7.33007812 -0.8785,-4.53337498 -2.578,-9.45932418 -4.60742,-9.91210938 z m 10.95117,11.1035156 c -1.871,0 -2.93359,0.9366719 -2.93359,4.2636719 0,3.33 1.51295,6.0332035 3.37695,6.0332035 1.862,0 3.37695,-2.7032035 3.37695,-6.0332035 0,-3.327 -1.94431,-4.2636719 -3.82031,-4.2636719 z m 10.24024,8.1328125 c -5.67701,0 -7.17579,5.6768279 -7.17579,11.0488279 0,5.371 3.11869,9.615469 5.55469,12.730469 2.442,3.123 3.30791,5.935047 0.75391,4.623047 -2.554,-1.314 -13.97547,-17.844797 -16.23047,-22.841797 -1.338,-2.978 -4.09747,-4.00375 -6.10547,-3.09375 10.583,30.313 39.42375,52.060547 73.34375,52.060547 15.946,0 30.76561,-4.803969 43.09961,-13.042969 -0.562,0.149 -15.15675,4.052328 -26.96875,1.236328 -13.627,-3.256 -21.75831,-12.626687 -28.07031,-21.304687 -6.311,-8.678 -6.80038,-11.117188 -11.98438,-11.117188 -5.182,0 -7.05859,3.003188 -7.05859,5.742188 0,2.745 1.0084,6.615234 -0.6836,6.615234 -1.683,0 -4.50023,-8.607109 -6.86523,-12.662109 -2.37,-4.056 -5.93338,-9.9941409 -11.60937,-9.9941409 z M 396.44922,20.318359 c -0.879,0 -1.65794,0.13525 -2.33594,0.40625 -0.677,0.271 -1.24984,0.632985 -1.71484,1.083985 -0.463,0.453 -0.8166,0.970687 -1.0586,1.554687 -0.243,0.584 -0.36328,1.1875 -0.36328,1.8125 0,0.779 0.12028,1.435844 0.36328,1.964844 0.242,0.531 0.56008,0.973172 0.95508,1.326172 0.395,0.354 0.84647,0.641281 1.35547,0.863281 0.509,0.221 1.02774,0.415938 1.55273,0.585938 0.527,0.168 1.04469,0.331187 1.55469,0.492187 0.51,0.16 0.96147,0.354938 1.35547,0.585938 0.395,0.23 0.71308,0.515422 0.95508,0.857421 0.243,0.340001 0.36523,0.7775 0.36523,1.3125 0,0.485 -0.0821,0.92336 -0.24609,1.31836 -0.165,0.394 -0.40098,0.734578 -0.70898,1.017578 -0.309,0.284 -0.68591,0.503156 -1.12891,0.660156 -0.445,0.156 -0.95058,0.234375 -1.51758,0.234375 -0.452,0 -0.8577,-0.04486 -1.2207,-0.130859 -0.361,-0.086 -0.6828,-0.195172 -0.9668,-0.326172 -0.284,-0.131 -0.53681,-0.275641 -0.75781,-0.431641 -0.222,-0.156 -0.4188,-0.30164 -0.5918,-0.43164 -0.173,-0.131 -0.32789,-0.240172 -0.46289,-0.326172 -0.136,-0.086 -0.25728,-0.128906 -0.36328,-0.128906 -0.115,0 -0.21945,0.0298 -0.31445,0.0918 -0.094,0.061 -0.17424,0.136515 -0.24024,0.228515 l -0.68945,1.132813 c 0.666,0.707 1.4673,1.269593 2.4043,1.683593 0.937,0.416 1.97986,0.623047 3.13086,0.623047 0.937,0 1.77181,-0.14464 2.50781,-0.43164 0.735,-0.287 1.35728,-0.681594 1.86328,-1.183594 0.505,-0.502 0.88739,-1.092531 1.15039,-1.769531 0.263,-0.678 0.39648,-1.402782 0.39648,-2.175782 0,-0.731 -0.12223,-1.347609 -0.36523,-1.849609 -0.243,-0.5 -0.56294,-0.924531 -0.96094,-1.269531 -0.399,-0.346 -0.85142,-0.630422 -1.35742,-0.857422 -0.505,-0.224 -1.02273,-0.428375 -1.55273,-0.609375 -0.53,-0.182 -1.04674,-0.355438 -1.55274,-0.523438 -0.506,-0.168 -0.95842,-0.369656 -1.35742,-0.597656 -0.398,-0.231 -0.71794,-0.508031 -0.96094,-0.832031 -0.243,-0.327 -0.36328,-0.734516 -0.36328,-1.228516 0,-0.385 0.0709,-0.744125 0.21094,-1.078125 0.14,-0.332 0.34609,-0.62314 0.62109,-0.86914 0.276,-0.246 0.61644,-0.441938 1.02344,-0.585938 0.407,-0.143 0.87711,-0.214844 1.41211,-0.214844 0.566,0 1.05022,0.06998 1.44922,0.208985 0.398,0.141 0.73748,0.29489 1.02148,0.46289 0.284,0.168 0.51999,0.321891 0.70899,0.462891 0.189,0.139 0.35314,0.208984 0.49414,0.208984 0.123,0 0.22845,-0.0308 0.31445,-0.0918 0.087,-0.062 0.16623,-0.154344 0.24023,-0.277344 l 0.57813,-1.134766 c -0.616,-0.592 -1.32772,-1.044469 -2.13672,-1.355469 -0.81,-0.312 -1.70831,-0.46875 -2.69531,-0.46875 z m 82.28906,0 c -0.879,0 -1.65794,0.13525 -2.33594,0.40625 -0.677,0.271 -1.24889,0.632985 -1.71289,1.083985 -0.464,0.453 -0.81659,0.970687 -1.05859,1.554687 -0.243,0.584 -0.36523,1.1875 -0.36524,1.8125 0,0.779 0.12224,1.435844 0.36524,1.964844 0.242,0.531 0.56108,0.973172 0.95508,1.326172 0.395,0.354 0.84647,0.641281 1.35547,0.863281 0.509,0.221 1.02773,0.415938 1.55273,0.585938 0.527,0.168 1.04469,0.331187 1.55469,0.492187 0.51,0.16 0.96147,0.354938 1.35547,0.585938 0.395,0.23 0.71307,0.515422 0.95508,0.857421 0.24299,0.340001 0.36328,0.7775 0.36328,1.3125 0,0.485 -0.0821,0.92336 -0.2461,1.31836 -0.165,0.394 -0.40098,0.734578 -0.70898,1.017578 -0.309,0.284 -0.68396,0.503156 -1.12696,0.660156 -0.44499,0.156 -0.94957,0.234375 -1.51757,0.234375 -0.452,0 -0.85771,-0.04486 -1.22071,-0.130859 -0.361,-0.086 -0.68279,-0.195172 -0.96679,-0.326172 -0.284,-0.131 -0.53582,-0.275641 -0.75782,-0.431641 -0.222,-0.156 -0.41879,-0.30164 -0.59179,-0.43164 -0.173,-0.131 -0.32789,-0.240172 -0.46289,-0.326172 -0.136,-0.086 -0.25728,-0.128906 -0.36328,-0.128906 -0.115,0 -0.22141,0.0298 -0.31641,0.0918 -0.094,0.061 -0.17424,0.136515 -0.24024,0.228515 l -0.68945,1.132813 c 0.666,0.707 1.4673,1.269593 2.4043,1.683593 0.937,0.416 1.98086,0.623047 3.13086,0.623047 0.937,0 1.77376,-0.14464 2.50976,-0.43164 0.735,-0.287 1.35533,-0.681594 1.86133,-1.183594 0.505,-0.502 0.88935,-1.092531 1.15235,-1.769531 0.263,-0.678 0.39453,-1.402782 0.39453,-2.175782 0,-0.731 -0.12028,-1.347609 -0.36328,-1.849609 -0.243,-0.5 -0.56294,-0.924531 -0.96094,-1.269531 -0.399,-0.346 -0.85142,-0.630422 -1.35742,-0.857422 -0.505,-0.224 -1.02374,-0.428375 -1.55274,-0.609375 -0.531,-0.182 -1.04673,-0.355438 -1.55273,-0.523438 -0.506,-0.168 -0.95842,-0.369656 -1.35742,-0.597656 -0.398,-0.231 -0.71794,-0.508031 -0.96094,-0.832031 -0.243,-0.327 -0.36524,-0.734516 -0.36524,-1.228516 0,-0.385 0.0709,-0.744125 0.21094,-1.078125 0.14,-0.332 0.3461,-0.62314 0.62109,-0.86914 0.27601,-0.246 0.6184,-0.441938 1.0254,-0.585938 0.407,-0.143 0.8771,-0.214844 1.4121,-0.214844 0.566,0 1.04927,0.06998 1.44727,0.208985 0.398,0.141 0.73944,0.29489 1.02344,0.46289 0.284,0.168 0.51998,0.321891 0.70898,0.462891 0.189,0.139 0.35314,0.208984 0.49414,0.208984 0.123,0 0.2265,-0.0308 0.3125,-0.0918 0.087,-0.062 0.16624,-0.154344 0.24024,-0.277344 l 0.58008,-1.134766 c -0.616,-0.592 -1.32968,-1.044469 -2.13868,-1.355469 -0.81,-0.312 -1.70831,-0.46875 -2.69531,-0.46875 z m -103.77539,0.197266 v 17.666016 h 10.88477 l 0.0117,-1.949219 h -8.50586 v -6.027344 h 6.8789 v -1.875 h -6.8789 v -5.867187 h 8.49414 v -1.947266 z m 30.6582,0 v 2.007813 h 5.73438 v 15.658203 h 2.37695 V 22.523438 h 5.7207 v -2.007813 z m 22.06836,0 -7.0625,17.666016 h 1.84766 c 0.206,0 0.37758,-0.05883 0.51758,-0.173829 0.14,-0.112999 0.2342,-0.246531 0.2832,-0.394531 l 1.6543,-4.265625 h 7.92578 l 1.65234,4.265625 c 0.066,0.166 0.16392,0.300203 0.29492,0.408203 0.132,0.105 0.30458,0.160157 0.51758,0.160157 h 1.84961 l -7.0625,-17.666016 z m 10.65235,0 v 2.007813 h 5.73047 v 15.658203 h 2.3789 V 22.523438 h 5.72266 v -2.007813 z m 18.91015,0 v 17.666016 h 10.88672 l 0.0117,-1.949219 h -8.50586 v -6.027344 h 6.87891 v -1.875 h -6.87891 v -5.867187 h 8.49414 v -1.947266 z m -156.6289,0.02344 c -0.806,0 -1.52139,0.124954 -2.15039,0.376954 -0.628,0.25 -1.15599,0.584047 -1.58399,0.998046 -0.427,0.416001 -0.75261,0.894547 -0.97461,1.435547 -0.222,0.543 -0.33203,1.105454 -0.33203,1.689453 0,0.748001 0.124,1.371188 0.375,1.867188 0.251,0.498 0.58119,0.914094 0.99219,1.246094 0.411,0.332 0.87839,0.605312 1.40039,0.820312 0.522,0.213 1.05837,0.407125 1.60937,0.578125 0.55,0.174 1.08643,0.34925 1.60743,0.53125 0.522,0.179 0.98939,0.403875 1.40039,0.671875 0.411,0.267 0.74118,0.599047 0.99218,0.998047 0.251,0.398 0.375,0.906438 0.375,1.523438 0,0.566 -0.0979,1.097703 -0.29492,1.595703 -0.197,0.498 -0.48147,0.926062 -0.85547,1.289062 -0.374,0.361 -0.832,0.646469 -1.375,0.855469 -0.542,0.211 -1.15861,0.314453 -1.84961,0.314453 -0.502,0 -0.94875,-0.04844 -1.34375,-0.148437 -0.394,-0.097 -0.74482,-0.218282 -1.04882,-0.363282 -0.304,-0.143 -0.57079,-0.29875 -0.80079,-0.46875 -0.23099,-0.168 -0.42779,-0.323796 -0.59179,-0.466797 -0.164,-0.143999 -0.30297,-0.265234 -0.41797,-0.365234 -0.115,-0.097 -0.21116,-0.146484 -0.28516,-0.146484 -0.131,0 -0.2467,0.06059 -0.3457,0.183594 l -0.34375,0.542968 c 0.624,0.707 1.35164,1.263922 2.18164,1.669922 0.83,0.408 1.8197,0.611328 2.9707,0.611328 0.887,0 1.67619,-0.139062 2.36719,-0.414062 0.69,-0.276 1.27495,-0.650953 1.75195,-1.126953 0.476,-0.477 0.83885,-1.037594 1.08985,-1.683594 0.251,-0.645 0.37695,-1.334453 0.37695,-2.064453 0,-0.715 -0.12595,-1.312922 -0.37695,-1.794922 -0.251,-0.481 -0.58019,-0.884891 -0.99219,-1.212891 -0.411,-0.328 -0.87839,-0.601312 -1.40039,-0.820312 -0.522,-0.216 -1.05842,-0.418656 -1.60742,-0.597657 -0.551,-0.181999 -1.08738,-0.363828 -1.60938,-0.548828 -0.521,-0.186 -0.98743,-0.411593 -1.39843,-0.683593 -0.411,-0.271 -0.74119,-0.599329 -0.99219,-0.986329 -0.251,-0.387 -0.37696,-0.874796 -0.37696,-1.466796 0,-0.453 0.0849,-0.884922 0.25391,-1.294922 0.168,-0.412 0.41428,-0.772938 0.73828,-1.085938 0.325,-0.31 0.72799,-0.558281 1.20899,-0.738281 0.481,-0.182 1.03692,-0.271484 1.66992,-0.271484 0.633,0 1.16566,0.07838 1.59766,0.234375 0.43099,0.156 0.79112,0.325718 1.07812,0.511718 0.288,0.183 0.51459,0.352907 0.68359,0.503907 0.168,0.152 0.30511,0.228515 0.41211,0.228515 0.14,0 0.24727,-0.06798 0.32227,-0.208984 l 0.29492,-0.566406 c -0.591,-0.592 -1.24684,-1.031313 -1.96484,-1.320313 -0.72,-0.287 -1.5335,-0.43164 -2.4375,-0.431641 z m -198.43164,0.197266 v 17.445313 h 9.53125 v -1.072266 h -8.25977 V 20.736328 Z m 19.82617,0 -7.14063,17.445313 h 0.96289 c 0.115,0 0.21488,-0.03361 0.29688,-0.09961 0.082,-0.065 0.13887,-0.142375 0.17187,-0.234375 l 2.04688,-5.066406 h 8.56836 l 2.04492,5.066406 c 0.041,0.1 0.0988,0.179235 0.17383,0.240235 0.074,0.062 0.1682,0.09375 0.2832,0.09375 h 0.97461 l -7.13867,-17.445313 z m 13.74414,0 v 17.445313 h 1.26953 v -8.408203 h 1.12109 c 0.198,0 0.36128,0.01025 0.48828,0.03125 0.128,0.02 0.23899,0.05266 0.33399,0.09766 0.094,0.045 0.17881,0.102015 0.25781,0.166015 0.078,0.066 0.16195,0.145375 0.25196,0.234375 l 7.37304,7.544922 c 0.09,0.116 0.18235,0.199906 0.27735,0.253906 0.095,0.053 0.24989,0.08008 0.46289,0.08008 h 1.02148 l -8.02344,-8.382813 c -0.14,-0.167 -0.27992,-0.298344 -0.41992,-0.402344 -0.14,-0.101 -0.29575,-0.178562 -0.46875,-0.226562 0.149,-0.059 0.28039,-0.132656 0.40039,-0.222656 0.119,-0.09 0.25706,-0.216813 0.41406,-0.382813 l 7.61914,-7.828125 h -1.01171 c -0.165,0 -0.30679,0.02522 -0.42579,0.07422 -0.11899,0.049 -0.24028,0.145203 -0.36328,0.283203 l -7.03906,7.236328 c -0.091,0.092 -0.17395,0.168516 -0.25195,0.228516 -0.078,0.063 -0.16577,0.109578 -0.25977,0.142578 -0.095,0.033 -0.20045,0.05536 -0.31445,0.06836 -0.116,0.012 -0.2512,0.01758 -0.4082,0.01758 h -1.03516 v -8.050781 z m 18.12305,0 v 17.445313 h 10.45507 l 0.0234,-1.048829 h -9.20898 v -7.273437 h 7.64453 v -1.023437 h -7.64453 v -7.050782 h 9.18554 v -1.048828 z m 16.76562,0 v 17.445313 h 9.5293 v -1.072266 h -8.25977 V 20.736328 Z m 19.82422,0 -7.14063,17.445313 h 0.9629 c 0.115,0 0.21487,-0.03361 0.29687,-0.09961 0.082,-0.065 0.13887,-0.142375 0.17187,-0.234375 l 2.04688,-5.066406 h 8.56836 l 2.04492,5.066406 c 0.041,0.1 0.0998,0.179235 0.17383,0.240235 0.074,0.062 0.1682,0.09375 0.2832,0.09375 h 0.97461 l -7.13867,-17.445313 z m 13.74414,0 v 17.445313 h 1.10937 V 23.498047 c 0,-0.213 -0.0121,-0.443453 -0.0371,-0.689453 l 11.33007,15.126953 0.20313,0.189453 c 0.071,0.037 0.15862,0.05664 0.26562,0.05664 h 0.5918 V 20.736328 h -1.09766 v 14.634766 c 0,0.228 0.0131,0.466843 0.0371,0.714844 L 205.31641,20.970703 c -0.075,-0.097 -0.14113,-0.162406 -0.20313,-0.191406 -0.061,-0.027 -0.15062,-0.04297 -0.26562,-0.04297 z m 21.08203,0 v 17.445313 h 6.37305 c 1.232,0 2.36176,-0.201469 3.38476,-0.605469 1.023,-0.403 1.89982,-0.981281 2.63282,-1.738281 0.731,-0.756 1.29717,-1.672047 1.70117,-2.748047 0.402,-1.077 0.60156,-2.289719 0.60156,-3.636719 0,-1.34 -0.19956,-2.549 -0.60156,-3.625 -0.404,-1.076 -0.97017,-1.992047 -1.70117,-2.748047 -0.733,-0.758 -1.60982,-1.335281 -2.63282,-1.738281 -1.023,-0.404 -2.15276,-0.605469 -3.38476,-0.605469 z m 30.36328,0 v 17.445313 h 9.5293 v -1.072266 h -8.25781 V 20.736328 Z m 14.94141,0 v 17.445313 h 10.45508 l 0.0234,-1.048829 H 271.875 v -7.273437 h 7.64453 V 28.835938 H 271.875 v -7.050782 h 9.18555 v -1.048828 z m 16.76562,0 v 17.445313 h 1.27149 V 20.736328 Z m 24.32227,0 v 10.78711 c 0,0.963 0.15403,1.859359 0.45703,2.693359 0.305,0.836 0.74345,1.562594 1.31445,2.183594 0.571,0.619 1.26503,1.106937 2.08204,1.460937 0.81799,0.354 1.73585,0.529297 2.75585,0.529297 1.018,0 1.93786,-0.175297 2.75586,-0.529297 0.817,-0.354 1.51199,-0.841937 2.08399,-1.460937 0.57,-0.621 1.00655,-1.347594 1.31054,-2.183594 0.304,-0.834 0.45704,-1.730359 0.45704,-2.693359 v -10.78711 h -1.25782 v 10.78711 c 0,0.814999 -0.12128,1.57139 -0.36328,2.27539 -0.242,0.703 -0.59469,1.312078 -1.05468,1.830078 -0.46,0.517 -1.02065,0.923844 -1.68165,1.214844 -0.662,0.291 -1.412,0.4375 -2.25,0.4375 -0.839,0 -1.589,-0.149359 -2.25,-0.443359 -0.662,-0.297 -1.22173,-0.703703 -1.67773,-1.220703 -0.456,-0.518001 -0.80487,-1.129079 -1.04688,-1.830079 -0.242,-0.703 -0.36328,-1.46039 -0.36328,-2.27539 V 20.736328 Z m 20.61328,0 v 17.445313 h 1.26953 v -7.890625 h 2.28125 c 0.172,0 0.3185,0.0084 0.4375,0.02539 0.119,0.016 0.2226,0.04308 0.3086,0.08008 l 0.23437,0.154297 c 0.069,0.065 0.13813,0.142375 0.20313,0.234375 l 5.59765,7.076172 c 0.082,0.123 0.16967,0.206953 0.26367,0.251953 0.094,0.045 0.21252,0.06836 0.35352,0.06836 h 1.08398 l -6.0039,-7.544922 c -0.156,-0.205 -0.3323,-0.371141 -0.5293,-0.494141 0.756,-0.082 1.43974,-0.256437 2.05274,-0.523437 0.61099,-0.268 1.13245,-0.607438 1.56445,-1.023438 0.432,-0.414 0.76504,-0.898265 0.99805,-1.447265 0.23399,-0.551 0.35156,-1.160172 0.35156,-1.826172 0,-1.504 -0.49805,-2.644922 -1.49805,-3.419922 -0.998,-0.777 -2.50086,-1.166016 -4.50586,-1.166016 z m 17.43164,0 v 17.445313 h 10.45508 l 0.0254,-1.048829 h -9.20898 v -7.273437 h 7.64257 v -1.023437 h -7.64257 v -7.050782 h 9.18359 v -1.048828 z m -16.16211,1 h 3.19336 c 1.553,0 2.73492,0.299438 3.54492,0.898438 0.809,0.602 1.21289,1.521718 1.21289,2.761718 0,0.61 -0.10903,1.153625 -0.33203,1.640625 -0.221,0.484 -0.54379,0.898141 -0.96679,1.244141 -0.423,0.346 -0.94074,0.610922 -1.55274,0.794922 -0.612,0.185 -1.30612,0.277344 -2.07812,0.277344 h -3.02149 z m -107.00586,0.02344 h 5.10352 c 1.044,0 1.99637,0.173578 2.85937,0.517578 0.863,0.346 1.60275,0.847906 2.21875,1.503906 0.616,0.658 1.09364,1.463016 1.43164,2.416016 0.337,0.955 0.50586,2.038859 0.50586,3.255859 0,1.224 -0.16886,2.312578 -0.50586,3.267578 -0.338,0.954 -0.81564,1.758016 -1.43164,2.416016 -0.616,0.657 -1.35575,1.158906 -2.21875,1.503906 -0.863,0.344 -1.81537,0.517578 -2.85937,0.517578 h -5.10352 z m -103.9375,0.234375 c 0.114,0.402 0.23442,0.748156 0.35742,1.035156 l 3.55079,8.814453 h -7.81641 l 3.5625,-8.800781 c 0.058,-0.141 0.11387,-0.300422 0.17187,-0.482422 0.058,-0.179 0.11583,-0.369406 0.17383,-0.566406 z m 68.45703,0 c 0.114,0.402 0.23443,0.748156 0.35743,1.035156 l 3.55078,8.814453 h -7.81641 l 3.5625,-8.800781 c 0.058,-0.141 0.11388,-0.300422 0.17188,-0.482422 0.058,-0.179 0.11582,-0.369406 0.17382,-0.566406 z m 237.79688,0.800781 c 0.09,0.321 0.17867,0.620391 0.26367,0.90039 0.087,0.279 0.17463,0.525235 0.26563,0.740235 l 2.77343,7.1875 h -6.5957 l 2.77344,-7.175781 c 0.09,-0.213 0.17962,-0.463094 0.26562,-0.746094 0.086,-0.284 0.17191,-0.58525 0.25391,-0.90625 z"
             id="path918" /></g></g></g></g></svg>