<?xml version="1.0" encoding="UTF-8" standalone="no"?>
<svg
   xmlns:dc="http://purl.org/dc/elements/1.1/"
   xmlns:cc="http://creativecommons.org/ns#"
   xmlns:rdf="http://www.w3.org/1999/02/22-rdf-syntax-ns#"
   xmlns:svg="http://www.w3.org/2000/svg"
   xmlns="http://www.w3.org/2000/svg"
   xmlns:xlink="http://www.w3.org/1999/xlink"
   xml:space="preserve"
   viewBox="0 0 98.699998 52.4"
   y="0px"
   x="0px"
   id="Layer_1"
   version="1.1"><metadata
   id="metadata439"><rdf:RDF><cc:Work
       rdf:about=""><dc:format>image/svg+xml</dc:format><dc:type
         rdf:resource="http://purl.org/dc/dcmitype/StillImage" /><dc:title>Tattenhall Logo [2019]</dc:title></cc:Work></rdf:RDF></metadata><defs
   id="defs437" />
<style
   id="style2"
   type="text/css">
	.st0{clip-path:url(#SVGID_2_);fill:#969696;}
</style>
<title
   id="title4">Tattenhall Logo [2019]</title>
<g
   transform="translate(-9.2,-1.5)"
   id="g432">
	<defs
   id="defs7">
		<rect
   height="52.400002"
   width="98.699997"
   y="1.5"
   x="9.1999998"
   id="SVGID_1_" />
	</defs>
	<clipPath
   id="SVGID_2_">
		<use
   height="100%"
   width="100%"
   y="0"
   x="0"
   id="use9"
   style="overflow:visible"
   xlink:href="#SVGID_1_" />
	</clipPath>
	<path
   style="fill:#969696"
   id="path12"
   clip-path="url(#SVGID_2_)"
   d="m 75,14.5 c 0,0 -0.1,0.5 -0.4,0.7 -0.2,0.1 -0.6,0.2 -0.9,0.2 -0.2,0 -0.5,0.1 -0.7,0.2 0.1,-0.2 0.1,-0.4 0.2,-0.5 0.1,-0.4 0,-0.7 0,-0.7 0,0 -0.2,1.1 -0.6,1.5 -0.4,0.4 -0.9,0.5 -1.8,0.7 -0.2,0 -0.3,0.1 -0.5,0.1 0.2,-0.9 0.7,-1.9 1.1,-2.6 0.4,-0.6 0.3,-1.3 0.3,-1.3 0,0 0,0.3 -0.2,0.8 -0.2,0.5 -0.8,1.2 -1.1,1.9 -0.2,0.4 -0.4,1 -0.5,1.3 -0.5,0.2 -0.8,0.4 -1.1,0.7 -0.5,0.4 -1.3,1.8 -1.6,2.3 -0.2,0.4 -0.3,0.9 -0.4,1.2 -0.5,0.4 -0.9,0.6 -2.1,0.8 -0.1,0 -0.3,0 -0.4,0.1 0.1,-0.2 0.2,-0.4 0.3,-0.7 0.3,-0.7 0.8,-1.5 0.8,-1.5 0,0 -0.6,0.4 -1.3,1.5 -0.1,0.2 -0.5,0.6 -0.9,0.7 -0.6,0 -1.1,0 -1.5,0.1 -0.4,0.1 -1.1,0.4 -1.5,0.5 0,0 -0.1,0 -0.1,0 0.1,-0.6 0.3,-1.3 0.5,-1.9 0.1,-0.2 0.5,-1.2 2,-1.4 0.9,-0.1 2.3,-0.1 3,-0.2 0.7,-0.1 1.3,-0.8 1.6,-1.2 0.1,-0.2 0.3,-0.6 0.5,-0.9 0.1,0 0.4,0 0.8,-0.1 0.4,-0.1 0.7,-0.3 0.7,-0.3 0,0 -0.4,0.2 -0.7,0.3 -0.3,0.1 -0.5,0 -0.6,0 0.2,-0.3 0.3,-0.6 0.5,-0.8 0.4,-0.4 1.1,-0.5 1.1,-0.5 0,0 -0.8,0 -1.2,0.4 -0.3,0.3 -0.7,0.9 -1.1,1.6 -0.2,0.3 -0.5,0.6 -0.8,0.7 -0.1,-0.1 -0.2,-0.4 -0.1,-0.8 0.1,-0.6 0.3,-0.8 0.3,-1.2 0.1,-0.4 -0.1,-0.6 -0.1,-0.6 0,0 0,0.3 0,0.6 -0.1,0.3 -0.3,0.7 -0.4,1 -0.1,0.3 -0.1,0.8 0,1.2 -0.6,0.2 -1.6,0.3 -2.8,0.2 -0.9,0 -1.7,0.3 -2,0.4 0.2,-0.6 0.5,-1.1 0.6,-1.4 0.3,-0.5 1,-1 2.2,-1.5 1.2,-0.5 2,-1.1 2.4,-1.4 0.4,-0.4 1.8,-1.4 2.1,-1.6 0.4,-0.2 1.6,-0.5 1.6,-0.5 0,0 -0.8,0.1 -1.6,0.3 -0.5,0.1 -1.2,0.6 -1.9,1 0,-0.1 0,-0.3 0.1,-0.5 0.1,-0.4 0.2,-0.8 0.2,-1 0,-0.3 -0.2,-0.6 -0.2,-0.6 0,0 0.2,0.3 0,1 -0.1,0.2 -0.1,0.4 -0.3,0.6 -0.1,0.3 -0.2,0.6 -0.2,0.7 -0.2,0.2 -0.4,0.3 -0.6,0.5 -0.6,0.5 -2,0.7 -3.6,1.4 -0.2,0.1 -0.4,0.2 -0.5,0.3 0,-0.1 0.1,-0.2 0.1,-0.2 0.2,-0.4 0.2,-1.1 0.3,-1.8 0,-0.7 -0.3,-1.3 -0.3,-1.3 0,0 0.2,0.7 0.1,1.6 -0.1,0.7 -0.5,1.7 -0.7,2.1 -0.6,0.5 -0.9,1.1 -1,1.6 -0.1,0.5 -0.6,1.5 -0.8,1.9 -0.1,-0.8 -0.1,-1.8 -0.1,-2.1 0,-0.5 0.1,-1.4 0.3,-2.1 0.2,-0.7 0.6,-1.9 1.1,-2.6 0.4,-0.7 1.2,-1.3 1.9,-1.4 0.7,-0.2 1.8,-0.1 2.3,-0.1 0.9,0 2.2,-0.5 3,-1.5 0.3,0 0.8,0.1 1.2,0.2 0.1,0 0.3,0 0.4,0 0.3,0.3 0.7,0.5 1.3,0.6 0.7,0.1 1.1,-0.3 1.1,-0.3 0,0 -0.8,0.3 -1.4,0.1 -0.4,-0.1 -0.6,-0.3 -0.7,-0.4 0.3,0 0.6,-0.1 0.8,-0.2 C 70.8,10.2 70.9,10 71,9.8 71.1,9.5 71.3,9 71.3,9 c 0,0 -0.1,0.3 -0.3,0.7 -0.2,0.4 -0.6,0.6 -1.4,0.6 -0.6,0 -1.2,-0.1 -1.5,-0.2 0.1,-0.2 0.3,-0.4 0.4,-0.7 0.7,-1.6 0.7,-3.1 0.7,-3.1 0,0 -0.3,1.7 -0.8,2.7 -0.7,-0.4 -1.6,-1.4 -1.5,-2.4 0.1,-1.1 -0.3,-2 -0.3,-2 0,0 0.1,0.3 0.1,0.6 0,0.2 0.1,0.5 0,1.3 0,0.7 0.2,1.2 0.5,1.8 0.3,0.4 0.8,0.9 1,1 -0.4,0.7 -0.9,1.2 -1.6,1.6 -0.4,0.2 -0.7,0.3 -1.2,0.3 0.2,-0.1 0.3,-0.4 0.4,-0.8 0.2,-0.7 0,-1.3 0,-1.3 0,0 0,0.7 -0.3,1.3 -0.2,0.6 -0.9,0.7 -1.1,0.8 -0.3,0 -0.7,0 -1,0 -0.3,0 -0.5,0 -0.8,0 0.1,-0.2 0.1,-0.4 0.1,-0.7 0,-0.6 0.1,-1.1 0.4,-1.6 0.2,-0.5 0.7,-1 0.7,-1 -0.5,0.3 -1.1,1 -1.2,1.7 -0.1,0.7 -0.2,1.2 -0.4,1.4 -0.1,0.1 -0.2,0.2 -0.3,0.4 0,0 0,0 0,0 -0.2,0.1 -0.5,0.3 -0.7,0.4 0,-0.3 -0.1,-0.7 -0.1,-1.2 C 61,9.8 60.8,9 60.4,8.3 c 0,0 0,-0.1 -0.1,-0.1 0.2,-0.1 0.6,-0.5 1,-1.2 0.7,-0.9 0.6,-1.8 0.7,-2.3 0,0 -0.3,1.1 -0.5,1.6 -0.3,0.5 -0.8,1 -1,1.2 C 60.3,7.6 60.2,7.9 60,7.5 59.7,6.9 59.5,6.2 59.5,5.5 59.4,4.4 59.9,2.9 59.9,2.9 59.9,2.9 59.2,4 59,5.3 58.9,5.1 58.8,5 58.7,4.8 58.4,4.4 57.8,4 57.8,4 c 0,0 0.5,0.4 0.8,0.9 0.3,0.4 0.4,0.7 0.4,1 0,0.7 0.1,1.4 0.5,2.2 0.4,0.7 0.6,1.4 0.8,2.1 -0.3,0 -1,-0.1 -1.6,-0.4 C 57.8,9.4 57.3,9 57.3,9 c 0,0 0.5,0.7 1.3,1.1 0.5,0.3 1.3,0.5 1.8,0.7 0.1,0.8 0.1,1.4 0.1,1.8 0,0 -0.1,0.1 -0.1,0.1 -0.2,0.3 -0.7,0.8 -1.1,1.5 -0.3,0.6 -0.7,1.3 -0.9,1.7 -0.2,-0.2 -0.4,-0.4 -0.6,-0.6 -0.3,-0.4 -0.6,-0.7 -0.7,-1.2 0,-0.2 0,-0.3 0,-0.4 0.2,-0.2 0.6,-0.6 1,-1.1 0.7,-1 0.7,-1.8 0.7,-1.8 0,0 -0.3,0.9 -0.7,1.4 -0.4,0.5 -0.7,0.8 -1,0.9 0,-0.4 0.1,-0.7 0.2,-1 0.1,-0.5 0,-1.1 -0.2,-1.5 C 56.9,10.2 56.6,9.7 56.4,9.1 56.2,8.2 56.2,7.4 56.4,6.5 56.5,5.7 56.5,5.1 56.5,4.7 56.5,4.3 56,3.9 56,3.9 c 0,0 0.2,0.2 0.3,0.7 0.1,0.5 0,1 -0.2,1.8 C 56,7.1 55.9,7.6 55.9,8.4 55.6,8 55,7.4 54.8,7.2 54.6,7 54.2,6.7 53.8,6.5 53.6,6.2 53.5,5.8 53.5,5.4 c 0,-0.5 -0.1,-1 -0.4,-1.4 0,0 0.2,0.4 0.2,0.7 0,0.2 0,0.8 0.1,1.2 0,0.2 0.1,0.3 0.1,0.5 -0.1,-0.1 -0.3,-0.1 -0.4,-0.1 -0.4,0 -0.7,0 -0.9,0.1 C 51.9,6.5 51.8,6.3 51.6,6.2 51.4,6 51,5.6 50.9,5.6 50.8,5.5 50.8,5.5 50.8,5.5 c 0,0 0.6,0.7 0.9,0.9 0.3,0.2 0.7,0.1 0.9,0 0.2,-0.1 0.5,0 0.7,0.1 0.8,0.5 1.3,0.9 1.7,1.4 0.2,0.3 0.8,1 1.1,1.3 0.1,0.4 0.3,0.8 0.6,1.5 0.3,0.8 0.1,1.7 -0.1,2.3 -0.2,0.7 -0.1,1.5 0.1,2 0.2,0.5 0.8,0.9 1,1.3 0.2,0.3 0.2,0.7 0.2,0.9 C 57.6,17 56.9,16.7 56.3,16.5 55.6,16.2 55.1,16 55,15.7 54.8,15.4 54.7,14.8 54.7,14 c 0,-0.8 0.1,-2.1 0.1,-2.6 0,-0.4 -0.1,-0.8 -0.2,-1.1 -0.1,-0.3 -0.5,-0.8 -0.5,-0.8 0,0 0.5,0.9 0.4,1.7 -0.1,0.4 -0.1,0.9 -0.1,1.4 -0.1,0 -0.4,-0.1 -0.8,-0.4 -0.5,-0.4 -0.6,-0.7 -0.6,-0.7 0,0 0,0.4 0.5,0.9 0.4,0.4 0.7,0.5 0.8,0.6 0,0.3 0,0.7 0,1 0,1 0.1,1.8 0.6,2.2 0.5,0.4 1.8,0.9 2.3,1.3 0.5,0.5 0.8,0.7 0.8,1.1 0,0.2 0,1.4 0,2.2 -0.2,-0.3 -0.6,-0.7 -0.9,-1 -0.3,-0.4 -1.5,-1.2 -2.2,-1.5 -0.7,-0.3 -1.5,-0.5 -1.9,-0.9 -0.2,-0.2 -0.4,-0.5 -0.6,-0.8 -0.1,-0.9 0.3,-1.4 0.6,-1.8 0.4,-0.6 0.3,-1.7 0.3,-1.7 -0.2,0.9 -0.6,1.7 -1.1,2.2 -0.2,0.2 -0.2,0.4 -0.3,0.6 -0.2,-0.3 -0.3,-0.5 -0.4,-0.7 -0.3,-0.7 -0.4,-1.8 -0.5,-2.3 0,-0.5 0.2,-1 0.5,-1.2 0.3,-0.3 0.8,-0.6 1.1,-0.8 0.3,-0.2 0.4,-0.8 0,-1.2 C 52.3,9.3 51.8,8.5 51.5,8 c 0,0 0.2,0.5 0.3,0.8 0.2,0.3 0.4,0.8 0.6,1.1 0.1,0.3 0.1,0.5 -0.1,0.6 -0.3,0.2 -1.1,0.8 -1.3,1 -0.1,0.1 -0.1,0.1 -0.2,0.2 -0.1,0 -0.3,-0.1 -0.4,-0.2 C 50.2,11.4 49.8,11 49.7,10.6 49.6,10.2 49.5,9.8 49.5,9.3 49.5,8.8 49.3,8.2 49.1,7.5 48.9,6.9 48.6,6.4 48.6,6.4 c 0,0 0.2,0.8 0.3,1.2 0,0.3 0.1,0.7 0.2,1.3 C 48.9,8.8 48.5,8.6 48.2,8.5 47.4,8.2 47,8.1 46.9,7.3 46.8,6.3 47.4,5.8 47.6,5.5 l -0.1,0.1 c 0,0 -0.4,0.3 -0.6,0.6 -0.1,0.1 -0.1,0.2 -0.1,0.2 0,-0.1 -0.1,-0.2 -0.1,-0.3 -0.1,-0.3 -0.5,-0.5 -0.5,-0.5 0,0 0.3,0.3 0.4,0.8 0,0.2 0.1,0.4 0.1,0.6 0,0.1 0,0.2 0,0.3 0,0.5 0.1,0.9 0.4,1.1 0.2,0.2 0.8,0.4 1.2,0.5 0.3,0.2 0.8,0.4 0.9,0.6 0,0.1 0,0.1 0,0.2 0,0.7 0.1,1.1 0.3,1.6 0.2,0.4 0.4,0.6 0.7,0.8 0.2,0.1 0.3,0.2 0.3,0.3 0,0 0,0.1 0,0.1 0,0.3 0,1.2 0.1,1.8 -0.4,-0.2 -1.1,-0.5 -1.5,-0.9 -0.7,-0.7 -1.5,-1.4 -1.5,-1.4 0,0 -0.1,-0.4 -0.1,-0.6 -0.1,-0.3 -0.1,-1 -0.1,-1.2 0,-0.4 -0.1,-0.7 -0.5,-0.9 0,0 0.2,0.3 0.2,0.7 0,0.3 -0.1,0.8 0,1.1 0,0.3 0.1,0.8 0.1,0.8 0,0 -0.5,-0.3 -1.2,-0.3 C 45.4,11.5 44.7,11.3 44.4,10.8 44,10.4 44,9.8 44,9.5 44,9.2 44,8.9 43.8,8.8 c 0,0 0,0.3 0,0.9 0,0.5 -0.1,1.2 0.6,1.8 0.7,0.6 2,0.5 2.5,0.9 0.4,0.3 1.6,1.3 2.1,1.9 0.4,0.4 1.3,1.2 2,1.7 0.1,0.4 0.3,0.8 0.5,1.1 0.2,0.4 0.6,0.9 0.8,1.2 -0.3,0 -0.6,0 -0.9,0 -0.1,0 -0.2,0 -0.3,0 -0.3,-0.2 -0.8,-0.4 -1.1,-0.8 -0.5,-0.6 -1.1,-1.8 -1.1,-1.8 0,0 0.2,1.2 0.8,1.9 0.3,0.4 0.5,0.6 0.7,0.8 -0.5,0.1 -1.1,0.2 -1.5,0.3 -0.5,0.1 -1.1,-0.1 -1.6,-0.2 -0.1,-0.2 -0.3,-0.4 -0.4,-0.6 -0.1,-0.3 -0.2,-0.6 -0.3,-1.1 0,-0.5 -0.2,-1 -0.3,-1.2 -0.2,-0.3 -0.8,-0.6 -1,-0.7 -0.1,0 -0.2,-0.1 -0.2,-0.1 0.4,0.2 0.9,0.6 1,1.1 0,0 0,0 0,0 0,0.1 0.1,0.2 0.1,0.3 0.1,0.4 0.1,1.1 0.2,1.5 0,0.2 0.1,0.4 0.2,0.5 C 46.1,18 45.7,18 45,18 44.5,18 43.9,17.7 43.6,17.4 43.1,17 42.8,16.6 42.8,16.6 c 0,0 0.2,0.7 1.1,1.3 0.4,0.3 0.9,0.4 2,0.4 0.8,0 1.6,0.4 2,0.6 0,0 0.1,0 0.1,0 -0.2,0.1 -0.5,0.4 -0.8,0.7 -0.2,0.2 -0.8,0.5 -1.3,0.5 -0.5,0 -1.1,-0.1 -1.5,-0.2 -0.4,-0.1 -0.9,-0.3 -0.9,-0.3 0,0 0.5,0.4 0.9,0.5 0.4,0.1 1.1,0.3 1.6,0.3 0.4,0 1,0 1.4,-0.3 0.4,-0.3 0.8,-0.6 1.2,-0.8 0.4,-0.2 0.6,-0.4 0.9,-0.5 0.5,-0.1 1.9,-0.1 2.4,0 0.7,0.1 1.6,0.4 2.7,0.9 0.8,0.4 1.5,1.2 1.8,1.7 -1.3,0 -3,-0.1 -3.3,-0.1 0,0 -0.1,0 -0.1,0 -0.1,-0.1 -0.5,-0.3 -0.9,-0.3 -0.5,-0.1 -0.9,-0.3 -1.2,-0.7 -0.3,-0.4 -0.4,-0.9 -0.4,-0.9 -0.1,0.4 0,1 0.2,1.3 0.3,0.3 0.5,0.5 0.9,0.6 0.2,0.1 0.4,0.2 0.5,0.3 0,0 0,0 0.1,0.1 -0.4,0.2 -0.8,0.5 -1,0.7 -0.4,0.2 -1,0.5 -1.6,0.6 -0.6,0 -1.4,-0.3 -1.8,-0.5 -0.5,-0.3 -1,-0.7 -1,-0.7 0,0 1,1.2 2.3,1.6 0.9,0.3 2.2,-0.3 2.6,-0.6 0.4,-0.3 1,-0.7 1.5,-0.7 1.1,0 2.6,0.2 3.1,0.5 0.8,0.4 1.3,1.1 1.5,1.4 0.1,0.7 0.2,1.5 0.2,2.2 0,1.5 -0.2,3.6 -0.9,4.4 -0.4,0.4 -1,0.7 -1.6,0.8 -0.7,0.1 -0.9,0.2 -0.9,0.2 0,0 0.4,0.1 0.7,0.1 0.3,0 0.5,0.1 1,0.1 0.6,0 1,-0.1 1,-0.1 0,0 0.4,0 0.8,0 0.4,0 0.8,-0.2 1.8,-0.2 0.9,0 1.6,0.1 2,0.1 0.4,0 0.8,0 1.1,0 0.3,0 1.2,0 1.2,0 0,0 -0.1,-0.1 -0.3,-0.2 -0.2,-0.1 -0.8,-0.2 -0.8,-0.2 0,0 -0.4,-0.1 -0.8,-0.3 -0.3,-0.1 -0.7,-0.4 -1,-0.7 -0.2,-0.4 -0.5,-1.2 -0.6,-1.7 -0.1,-1.4 0,-2.4 0.1,-3.1 0.2,-0.3 0.6,-1 0.8,-1.3 0.4,-0.5 1.1,-0.8 1.7,-0.9 0.6,-0.1 1.9,-0.2 2.8,-0.4 1,-0.2 1.3,-0.6 1.8,-1 0.4,-0.5 0.8,-0.7 1.2,-0.8 0.7,-0.2 1.7,-0.2 2.3,-0.1 0.7,0.1 1.4,0.3 1.9,0.1 0.9,-0.4 1.5,-1.1 1.5,-1.1 0,0 -0.6,0.5 -1.3,0.8 -0.5,0.2 -1.1,0 -1.5,-0.1 -0.3,-0.1 -0.7,-0.1 -1.1,-0.2 0.1,-0.1 0.2,-0.2 0.4,-0.2 0.4,-0.1 1.3,-0.4 1.9,-0.8 0.6,-0.4 0.9,-0.8 0.9,-1.1 0.1,-0.2 0.2,-0.8 0.2,-0.8 -0.1,0.5 -0.5,1.1 -1.2,1.5 -0.5,0.3 -1.1,0.5 -1.7,0.7 0,-0.2 0,-0.7 0.1,-0.9 0.1,-0.4 0.7,-0.8 0.9,-1.2 0,0 -0.4,0.3 -0.6,0.5 -0.3,0.2 -0.5,0.5 -0.5,0.7 -0.1,0.2 -0.1,0.7 -0.1,1 -0.4,0.1 -0.6,0.3 -0.7,0.5 -0.4,0 -0.8,0 -1.2,0.1 -0.2,0 -0.4,0.1 -0.6,0.1 0,-0.1 0.1,-0.3 0.1,-0.4 0.1,-0.3 0.7,-1.4 1,-1.8 0.4,-0.4 0.8,-0.8 1.6,-1.1 0.5,-0.2 1.5,-0.5 1.9,-0.8 0.1,-0.1 0.1,-0.1 0.2,-0.2 0.3,-0.2 1,-0.3 1.5,-0.4 0.5,-0.1 0.7,-0.2 0.7,-0.6 C 75.1,14.7 75,14.5 75,14.5"
   class="st0" />
	<path
   style="fill:#969696"
   id="path14"
   clip-path="url(#SVGID_2_)"
   d="m 43.2,10.7 c 0.4,-0.1 0.6,0.2 0.6,0.3 0,0.1 -0.1,0.4 -0.5,0.5 -0.5,0.1 -0.8,-0.2 -0.8,-0.2 0.1,-0.1 0.3,-0.5 0.7,-0.6"
   class="st0" />
	<path
   style="fill:#969696"
   id="path16"
   clip-path="url(#SVGID_2_)"
   d="m 66,6.9 c 0.4,-0.1 0.6,0.2 0.6,0.3 0,0.1 -0.1,0.4 -0.5,0.4 -0.5,0.1 -0.8,-0.2 -0.8,-0.2 0,0 0.2,-0.5 0.7,-0.5"
   class="st0" />
	<path
   style="fill:#969696"
   id="path18"
   clip-path="url(#SVGID_2_)"
   d="m 52.9,13.2 c 0.2,0.4 0,0.6 0,0.7 -0.1,0 -0.4,0 -0.6,-0.3 -0.2,-0.4 -0.1,-0.8 -0.1,-0.8 0,0 0.5,0 0.7,0.4"
   class="st0" />
	<path
   style="fill:#969696"
   id="path20"
   clip-path="url(#SVGID_2_)"
   d="m 52.5,14.1 c 0.3,0.3 0.2,0.6 0.1,0.7 -0.1,0 -0.4,0.1 -0.7,-0.2 -0.3,-0.3 -0.3,-0.8 -0.3,-0.8 0.1,0 0.6,-0.1 0.9,0.3"
   class="st0" />
	<path
   style="fill:#969696"
   id="path22"
   clip-path="url(#SVGID_2_)"
   d="m 45.8,6.7 c 0.4,-0.1 0.6,0.2 0.6,0.3 0,0.1 -0.1,0.4 -0.5,0.5 -0.5,0.1 -0.8,-0.2 -0.8,-0.2 0.1,0 0.3,-0.5 0.7,-0.6"
   class="st0" />
	<path
   style="fill:#969696"
   id="path24"
   clip-path="url(#SVGID_2_)"
   d="m 43.8,11.6 c 0.3,-0.2 0.6,0 0.7,0.1 0,0.1 0,0.4 -0.3,0.6 -0.4,0.2 -0.8,0.1 -0.8,0.1 0,0 0.1,-0.5 0.4,-0.8"
   class="st0" />
	<path
   style="fill:#969696"
   id="path26"
   clip-path="url(#SVGID_2_)"
   d="m 44.7,14.8 c 0.4,0 0.6,0.3 0.6,0.4 0,0.1 -0.1,0.4 -0.5,0.4 -0.5,0 -0.8,-0.2 -0.8,-0.3 0,0 0.3,-0.5 0.7,-0.5"
   class="st0" />
	<path
   style="fill:#969696"
   id="path28"
   clip-path="url(#SVGID_2_)"
   d="m 42.1,16.8 c 0.4,0 0.6,0.3 0.6,0.4 0,0.1 -0.1,0.4 -0.5,0.4 -0.5,0 -0.8,-0.2 -0.8,-0.3 0,0 0.3,-0.5 0.7,-0.5"
   class="st0" />
	<path
   style="fill:#969696"
   id="path30"
   clip-path="url(#SVGID_2_)"
   d="m 45.2,15.6 c 0.4,-0.2 0.6,0.1 0.7,0.2 0,0.1 0,0.4 -0.4,0.5 -0.4,0.2 -0.8,0 -0.8,0 0,0 0.1,-0.5 0.5,-0.7"
   class="st0" />
	<path
   style="fill:#969696"
   id="path32"
   clip-path="url(#SVGID_2_)"
   d="m 43.1,19.7 c 0.4,-0.1 0.6,0.2 0.6,0.3 0,0.1 -0.1,0.4 -0.5,0.4 -0.5,0.1 -0.8,-0.2 -0.8,-0.2 0,0 0.2,-0.4 0.7,-0.5"
   class="st0" />
	<path
   style="fill:#969696"
   id="path34"
   clip-path="url(#SVGID_2_)"
   d="m 43.9,20.2 c 0.3,-0.2 0.6,0 0.7,0.1 0,0.1 0,0.4 -0.3,0.6 -0.4,0.2 -0.8,0 -0.8,0.1 -0.1,0 0,-0.5 0.4,-0.8"
   class="st0" />
	<path
   style="fill:#969696"
   id="path36"
   clip-path="url(#SVGID_2_)"
   d="m 44.8,20.6 c 0.3,-0.3 0.6,-0.1 0.7,-0.1 0,0.1 0.1,0.4 -0.2,0.6 -0.4,0.3 -0.8,0.2 -0.8,0.2 0,0.1 0,-0.4 0.3,-0.7"
   class="st0" />
	<path
   style="fill:#969696"
   id="path38"
   clip-path="url(#SVGID_2_)"
   d="m 42.6,17.6 c 0.4,-0.2 0.6,0.1 0.7,0.2 0,0.1 0,0.4 -0.4,0.5 -0.4,0.2 -0.8,0 -0.8,0 0,-0.1 0.1,-0.5 0.5,-0.7"
   class="st0" />
	<path
   style="fill:#969696"
   id="path40"
   clip-path="url(#SVGID_2_)"
   d="m 44.8,12.2 c 0.2,-0.4 0.6,-0.3 0.6,-0.3 0.1,0 0.2,0.4 0,0.7 -0.3,0.4 -0.7,0.4 -0.7,0.4 0,0 -0.2,-0.4 0.1,-0.8"
   class="st0" />
	<path
   style="fill:#969696"
   id="path42"
   clip-path="url(#SVGID_2_)"
   d="m 45.7,12.6 c 0.1,-0.4 0.5,-0.5 0.5,-0.4 0.1,0 0.3,0.3 0.2,0.7 -0.1,0.4 -0.6,0.6 -0.6,0.6 0,-0.1 -0.3,-0.5 -0.1,-0.9"
   class="st0" />
	<path
   style="fill:#969696"
   id="path44"
   clip-path="url(#SVGID_2_)"
   d="m 66.2,7.8 c 0.3,-0.2 0.6,0 0.7,0.1 0,0.1 0,0.4 -0.3,0.6 -0.4,0.2 -0.8,0.1 -0.8,0.1 -0.1,-0.1 0,-0.6 0.4,-0.8"
   class="st0" />
	<path
   style="fill:#969696"
   id="path46"
   clip-path="url(#SVGID_2_)"
   d="m 43.1,9.7 c 0.4,0.1 0.5,0.4 0.5,0.5 0,0.1 -0.2,0.3 -0.6,0.2 -0.5,-0.1 -0.7,-0.4 -0.7,-0.4 0,0 0.3,-0.4 0.8,-0.3"
   class="st0" />
	<path
   style="fill:#969696"
   id="path48"
   clip-path="url(#SVGID_2_)"
   d="m 48.9,17.2 c 0.4,-0.1 0.6,0.2 0.6,0.3 0,0.1 -0.1,0.4 -0.5,0.5 -0.5,0.1 -0.8,-0.2 -0.8,-0.2 0.1,0 0.3,-0.5 0.7,-0.6"
   class="st0" />
	<path
   style="fill:#969696"
   id="path50"
   clip-path="url(#SVGID_2_)"
   d="m 48.6,16.3 c 0.4,0.1 0.5,0.4 0.5,0.5 0,0.1 -0.2,0.3 -0.6,0.2 -0.5,-0.1 -0.7,-0.4 -0.7,-0.4 0,0 0.4,-0.4 0.8,-0.3"
   class="st0" />
	<path
   style="fill:#969696"
   id="path52"
   clip-path="url(#SVGID_2_)"
   d="m 57.7,9.6 c 0.4,0.1 0.5,0.4 0.5,0.5 0,0.1 -0.2,0.3 -0.6,0.2 -0.5,-0.1 -0.7,-0.4 -0.7,-0.4 0,0 0.3,-0.4 0.8,-0.3"
   class="st0" />
	<path
   style="fill:#969696"
   id="path54"
   clip-path="url(#SVGID_2_)"
   d="m 52.7,4.9 c 0.4,0.1 0.5,0.4 0.5,0.5 0,0.1 -0.2,0.3 -0.6,0.2 -0.5,-0.1 -0.7,-0.4 -0.7,-0.4 0,0 0.3,-0.4 0.8,-0.3"
   class="st0" />
	<path
   style="fill:#969696"
   id="path56"
   clip-path="url(#SVGID_2_)"
   d="m 50.3,5.5 c 0.4,0.1 0.5,0.4 0.5,0.5 0,0.1 -0.2,0.3 -0.6,0.2 -0.5,-0.1 -0.7,-0.4 -0.7,-0.4 0,0 0.4,-0.4 0.8,-0.3"
   class="st0" />
	<path
   style="fill:#969696"
   id="path58"
   clip-path="url(#SVGID_2_)"
   d="m 50.9,6.2 c 0.4,-0.1 0.6,0.2 0.6,0.3 0,0.1 -0.1,0.4 -0.5,0.4 C 50.5,7 50.2,6.7 50.2,6.7 50.3,6.8 50.5,6.3 50.9,6.2"
   class="st0" />
	<path
   style="fill:#969696"
   id="path60"
   clip-path="url(#SVGID_2_)"
   d="m 55.7,4.3 c 0.4,0.1 0.5,0.4 0.5,0.5 0,0.1 -0.2,0.3 -0.6,0.2 -0.5,-0.1 -0.7,-0.4 -0.7,-0.4 0,0 0.4,-0.4 0.8,-0.3"
   class="st0" />
	<path
   style="fill:#969696"
   id="path62"
   clip-path="url(#SVGID_2_)"
   d="m 53.9,10.3 c 0.4,0.1 0.5,0.4 0.5,0.5 0,0.1 -0.2,0.3 -0.6,0.2 -0.5,-0.1 -0.7,-0.4 -0.7,-0.4 0,0 0.3,-0.4 0.8,-0.3"
   class="st0" />
	<path
   style="fill:#969696"
   id="path64"
   clip-path="url(#SVGID_2_)"
   d="M 58.5,6.4 C 58.9,6.5 59,6.8 59,6.9 59,7 58.8,7.2 58.4,7.1 57.9,7 57.7,6.7 57.7,6.7 c 0,0 0.3,-0.4 0.8,-0.3"
   class="st0" />
	<path
   style="fill:#969696"
   id="path66"
   clip-path="url(#SVGID_2_)"
   d="m 54,11.5 c 0.3,0.2 0.3,0.6 0.3,0.6 0,0.1 -0.3,0.2 -0.7,0 -0.4,-0.2 -0.5,-0.7 -0.5,-0.7 0,0.1 0.5,-0.2 0.9,0.1"
   class="st0" />
	<path
   style="fill:#969696"
   id="path68"
   clip-path="url(#SVGID_2_)"
   d="m 52.6,11.9 c 0.4,0.1 0.5,0.4 0.5,0.5 0,0.1 -0.2,0.3 -0.6,0.2 -0.5,-0.1 -0.7,-0.4 -0.7,-0.4 0,0 0.3,-0.4 0.8,-0.3"
   class="st0" />
	<path
   style="fill:#969696"
   id="path70"
   clip-path="url(#SVGID_2_)"
   d="m 51.8,9.3 c 0.4,0.1 0.5,0.4 0.5,0.5 0,0.1 -0.2,0.3 -0.6,0.2 C 51.2,10 51,9.6 51,9.6 c 0,0 0.3,-0.4 0.8,-0.3"
   class="st0" />
	<path
   style="fill:#969696"
   id="path72"
   clip-path="url(#SVGID_2_)"
   d="m 55.7,5.1 c 0.4,0.1 0.5,0.4 0.5,0.5 0,0.1 -0.2,0.3 -0.6,0.2 -0.5,-0.1 -0.7,-0.4 -0.7,-0.4 0,0 0.3,-0.3 0.8,-0.3"
   class="st0" />
	<path
   style="fill:#969696"
   id="path74"
   clip-path="url(#SVGID_2_)"
   d="m 66.1,5 c 0.4,0.1 0.5,0.5 0.4,0.5 0,0.1 -0.3,0.3 -0.6,0.2 C 65.4,5.6 65.3,5.2 65.3,5.2 65.2,5.2 65.6,4.9 66.1,5"
   class="st0" />
	<path
   style="fill:#969696"
   id="path76"
   clip-path="url(#SVGID_2_)"
   d="m 65,9.9 c 0.4,0.1 0.5,0.4 0.5,0.5 0,0.1 -0.2,0.3 -0.6,0.2 -0.5,-0.1 -0.7,-0.4 -0.7,-0.4 0,0 0.3,-0.4 0.8,-0.3"
   class="st0" />
	<path
   style="fill:#969696"
   id="path78"
   clip-path="url(#SVGID_2_)"
   d="M 66.1,5.9 C 66.5,6 66.6,6.3 66.6,6.4 66.6,6.5 66.4,6.7 66,6.6 65.5,6.5 65.3,6.2 65.3,6.1 65.2,6.2 65.6,5.8 66.1,5.9"
   class="st0" />
	<path
   style="fill:#969696"
   id="path80"
   clip-path="url(#SVGID_2_)"
   d="m 51.4,8.3 c 0.4,0.1 0.4,0.5 0.4,0.6 0,0.1 -0.3,0.3 -0.7,0.1 -0.4,-0.1 -0.6,-0.6 -0.6,-0.6 0,0.1 0.4,-0.2 0.9,-0.1"
   class="st0" />
	<path
   style="fill:#969696"
   id="path82"
   clip-path="url(#SVGID_2_)"
   d="m 48.2,6.4 c 0.4,0.2 0.4,0.5 0.4,0.6 0,0.1 -0.3,0.2 -0.7,0.1 -0.4,-0.2 -0.5,-0.6 -0.5,-0.6 0,0 0.4,-0.3 0.8,-0.1"
   class="st0" />
	<path
   style="fill:#969696"
   id="path84"
   clip-path="url(#SVGID_2_)"
   d="m 48.3,7.3 c 0.4,0.1 0.5,0.4 0.5,0.5 0,0.1 -0.2,0.3 -0.6,0.2 -0.5,-0.1 -0.7,-0.4 -0.7,-0.4 0,0 0.3,-0.4 0.8,-0.3"
   class="st0" />
	<path
   style="fill:#969696"
   id="path86"
   clip-path="url(#SVGID_2_)"
   d="m 43.2,8.7 c 0.4,0.2 0.4,0.5 0.4,0.6 0,0.1 -0.3,0.2 -0.7,0.1 -0.4,-0.2 -0.5,-0.6 -0.5,-0.6 0,0 0.4,-0.3 0.8,-0.1"
   class="st0" />
	<path
   style="fill:#969696"
   id="path88"
   clip-path="url(#SVGID_2_)"
   d="M 52.6,4 C 53,4.2 53,4.5 53,4.6 53,4.7 52.7,4.8 52.3,4.7 51.9,4.5 51.8,4.1 51.8,4.1 c 0,0 0.4,-0.3 0.8,-0.1"
   class="st0" />
	<path
   style="fill:#969696"
   id="path90"
   clip-path="url(#SVGID_2_)"
   d="M 45.9,5.8 C 46.3,6 46.3,6.3 46.3,6.4 46.3,6.5 46,6.6 45.6,6.5 45.2,6.3 45,5.9 45,5.9 c 0,0 0.5,-0.3 0.9,-0.1"
   class="st0" />
	<path
   style="fill:#969696"
   id="path92"
   clip-path="url(#SVGID_2_)"
   d="m 46.6,9.7 c 0.4,0.1 0.4,0.5 0.4,0.6 0,0.1 -0.3,0.2 -0.7,0.1 -0.4,-0.2 -0.5,-0.6 -0.5,-0.6 0,-0.1 0.4,-0.3 0.8,-0.1"
   class="st0" />
	<path
   style="fill:#969696"
   id="path94"
   clip-path="url(#SVGID_2_)"
   d="m 46.6,10.7 c 0.4,0.2 0.4,0.5 0.4,0.6 0,0.1 -0.3,0.2 -0.7,0.1 -0.4,-0.2 -0.5,-0.6 -0.5,-0.6 0,-0.1 0.4,-0.3 0.8,-0.1"
   class="st0" />
	<path
   style="fill:#969696"
   id="path96"
   clip-path="url(#SVGID_2_)"
   d="m 43.9,7.9 c 0.1,0.4 -0.1,0.6 -0.1,0.7 -0.1,0 -0.4,0 -0.6,-0.4 -0.2,-0.4 0.1,-0.8 0.1,-0.8 0,-0.1 0.4,0 0.6,0.5"
   class="st0" />
	<path
   style="fill:#969696"
   id="path98"
   clip-path="url(#SVGID_2_)"
   d="m 48.4,15.4 c 0.4,0.2 0.4,0.5 0.4,0.6 0,0.1 -0.3,0.2 -0.7,0.1 -0.4,-0.2 -0.5,-0.6 -0.5,-0.6 0,-0.1 0.4,-0.3 0.8,-0.1"
   class="st0" />
	<path
   style="fill:#969696"
   id="path100"
   clip-path="url(#SVGID_2_)"
   d="m 49,14.6 c 0.1,0.4 -0.1,0.6 -0.1,0.7 -0.1,0 -0.4,0 -0.6,-0.4 -0.2,-0.4 0.1,-0.8 0.1,-0.8 -0.1,0 0.4,0.1 0.6,0.5"
   class="st0" />
	<path
   style="fill:#969696"
   id="path102"
   clip-path="url(#SVGID_2_)"
   d="m 50.5,4.7 c 0.3,0.3 0.2,0.6 0.1,0.7 -0.1,0 -0.4,0.1 -0.7,-0.2 -0.3,-0.3 -0.3,-0.8 -0.3,-0.8 0.1,0 0.6,-0.1 0.9,0.3"
   class="st0" />
	<path
   style="fill:#969696"
   id="path104"
   clip-path="url(#SVGID_2_)"
   d="m 51.6,5 c -0.1,0.4 -0.4,0.5 -0.5,0.5 -0.1,0 -0.3,-0.2 -0.3,-0.6 0.1,-0.5 0.5,-0.7 0.5,-0.7 0,0 0.3,0.3 0.3,0.8"
   class="st0" />
	<path
   style="fill:#969696"
   id="path106"
   clip-path="url(#SVGID_2_)"
   d="m 55.4,3.3 c 0.3,0.3 0.3,0.6 0.2,0.7 0,0.1 -0.4,0.2 -0.7,-0.1 -0.4,-0.3 -0.4,-0.7 -0.4,-0.7 0.1,0 0.6,-0.2 0.9,0.1"
   class="st0" />
	<path
   style="fill:#969696"
   id="path108"
   clip-path="url(#SVGID_2_)"
   d="M 53.8,9.3 C 54.1,9.6 54.1,9.9 54,10 54,10.1 53.6,10.2 53.3,9.9 53,9.6 53,9.2 53,9.2 c 0,0 0.4,-0.2 0.8,0.1"
   class="st0" />
	<path
   style="fill:#969696"
   id="path110"
   clip-path="url(#SVGID_2_)"
   d="m 58.6,5.4 c 0.3,0.2 0.3,0.6 0.2,0.6 0,0.1 -0.4,0.2 -0.7,-0.1 -0.4,-0.3 -0.4,-0.7 -0.4,-0.7 0.1,0 0.5,-0.1 0.9,0.2"
   class="st0" />
	<path
   style="fill:#969696"
   id="path112"
   clip-path="url(#SVGID_2_)"
   d="M 63.4,7.9 C 63.4,8.3 63.1,8.4 63,8.4 62.9,8.4 62.6,8.2 62.6,7.8 62.6,7.3 63,7 63,7 c 0.1,0.2 0.4,0.5 0.4,0.9"
   class="st0" />
	<path
   style="fill:#969696"
   id="path114"
   clip-path="url(#SVGID_2_)"
   d="M 61.6,5.3 C 61.7,5.7 61.5,5.9 61.4,5.9 61.3,5.9 61,5.8 60.9,5.5 60.8,5.1 61,4.7 61,4.7 c 0,0 0.5,0.2 0.6,0.6"
   class="st0" />
	<path
   style="fill:#969696"
   id="path116"
   clip-path="url(#SVGID_2_)"
   d="M 62.6,8.7 C 62.7,9.1 62.5,9.3 62.4,9.3 62.3,9.3 62,9.2 61.9,8.9 61.8,8.5 62,8.1 62,8.1 62.1,8 62.5,8.2 62.6,8.7"
   class="st0" />
	<path
   style="fill:#969696"
   id="path118"
   clip-path="url(#SVGID_2_)"
   d="m 62.2,9.7 c 0.2,0.3 0.1,0.6 0,0.7 -0.1,0 -0.4,0.1 -0.6,-0.2 C 61.3,9.9 61.4,9.4 61.4,9.4 61.5,9.3 62,9.3 62.2,9.7"
   class="st0" />
	<path
   style="fill:#969696"
   id="path120"
   clip-path="url(#SVGID_2_)"
   d="m 66.7,12.2 c 0.2,0.4 0,0.6 -0.1,0.7 -0.1,0 -0.4,0 -0.6,-0.3 -0.2,-0.4 0,-0.8 0,-0.8 0,-0.1 0.5,0 0.7,0.4"
   class="st0" />
	<path
   style="fill:#969696"
   id="path122"
   clip-path="url(#SVGID_2_)"
   d="m 66.4,13.3 c 0.2,0.4 0,0.6 -0.1,0.7 -0.1,0 -0.4,0 -0.6,-0.3 -0.2,-0.4 0,-0.8 0,-0.8 0,-0.1 0.4,0 0.7,0.4"
   class="st0" />
	<path
   style="fill:#969696"
   id="path124"
   clip-path="url(#SVGID_2_)"
   d="m 65.6,13.9 c 0.2,0.4 0,0.6 -0.1,0.7 -0.1,0 -0.4,0 -0.6,-0.3 -0.2,-0.4 0,-0.8 0,-0.8 0,-0.1 0.4,-0.1 0.7,0.4"
   class="st0" />
	<path
   style="fill:#969696"
   id="path126"
   clip-path="url(#SVGID_2_)"
   d="m 64.6,14.2 c 0.2,0.4 0,0.6 -0.1,0.7 -0.1,0 -0.4,0 -0.6,-0.3 -0.2,-0.4 0,-0.8 0,-0.8 0,-0.1 0.5,0 0.7,0.4"
   class="st0" />
	<path
   style="fill:#969696"
   id="path128"
   clip-path="url(#SVGID_2_)"
   d="m 59.2,2.6 c 0.3,0.3 0.3,0.6 0.2,0.7 0,0.1 -0.4,0.2 -0.7,-0.1 -0.4,-0.3 -0.4,-0.7 -0.4,-0.7 0.1,-0.1 0.5,-0.3 0.9,0.1"
   class="st0" />
	<path
   style="fill:#969696"
   id="path130"
   clip-path="url(#SVGID_2_)"
   d="M 59,3.7 C 59.2,4 59.1,4.3 59,4.4 58.9,4.4 58.6,4.5 58.4,4.2 58.1,3.8 58.3,3.4 58.3,3.4 58.2,3.3 58.7,3.3 59,3.7"
   class="st0" />
	<path
   style="fill:#969696"
   id="path132"
   clip-path="url(#SVGID_2_)"
   d="m 56.5,3.2 c 0,0.4 -0.3,0.5 -0.4,0.5 -0.1,0 -0.4,-0.2 -0.4,-0.5 0,-0.5 0.4,-0.8 0.4,-0.8 0,0 0.4,0.3 0.4,0.8"
   class="st0" />
	<path
   style="fill:#969696"
   id="path134"
   clip-path="url(#SVGID_2_)"
   d="m 58.3,8.6 c 0,0.4 -0.3,0.5 -0.4,0.5 -0.1,0 -0.4,-0.2 -0.4,-0.5 0,-0.5 0.4,-0.8 0.4,-0.8 0,0.1 0.4,0.4 0.4,0.8"
   class="st0" />
	<path
   style="fill:#969696"
   id="path136"
   clip-path="url(#SVGID_2_)"
   d="m 58.5,11.2 c 0,0.4 -0.3,0.5 -0.4,0.5 -0.1,0 -0.4,-0.2 -0.4,-0.5 0,-0.5 0.4,-0.8 0.4,-0.8 0,0 0.4,0.3 0.4,0.8"
   class="st0" />
	<path
   style="fill:#969696"
   id="path138"
   clip-path="url(#SVGID_2_)"
   d="m 60.2,2.3 c 0,0.4 -0.3,0.5 -0.4,0.5 -0.1,0 -0.4,-0.2 -0.4,-0.5 0,-0.5 0.4,-0.8 0.4,-0.8 0,0 0.4,0.3 0.4,0.8"
   class="st0" />
	<path
   style="fill:#969696"
   id="path140"
   clip-path="url(#SVGID_2_)"
   d="m 62.3,4.2 c 0,0.4 -0.3,0.5 -0.4,0.5 -0.1,0 -0.4,-0.2 -0.4,-0.5 0,-0.5 0.4,-0.8 0.4,-0.8 0,0.1 0.4,0.4 0.4,0.8"
   class="st0" />
	<path
   style="fill:#969696"
   id="path142"
   clip-path="url(#SVGID_2_)"
   d="m 54.5,8.8 c 0,0.4 -0.3,0.5 -0.4,0.5 -0.1,0 -0.4,-0.2 -0.4,-0.5 0,-0.5 0.4,-0.8 0.4,-0.8 0,0 0.4,0.3 0.4,0.8"
   class="st0" />
	<path
   style="fill:#969696"
   id="path144"
   clip-path="url(#SVGID_2_)"
   d="M 54.6,6 C 54.4,6.3 54,6.3 54,6.3 53.9,6.3 53.8,6 54,5.6 c 0.3,-0.4 0.7,-0.4 0.7,-0.4 0,0 0.1,0.5 -0.1,0.8"
   class="st0" />
	<path
   style="fill:#969696"
   id="path146"
   clip-path="url(#SVGID_2_)"
   d="m 61.3,14.6 c 0.4,0.1 0.5,0.5 0.4,0.5 0,0.1 -0.3,0.3 -0.6,0.2 -0.5,-0.1 -0.6,-0.5 -0.6,-0.5 0,0 0.4,-0.4 0.8,-0.2"
   class="st0" />
	<path
   style="fill:#969696"
   id="path148"
   clip-path="url(#SVGID_2_)"
   d="m 65.3,17.4 c 0.4,0.1 0.5,0.5 0.4,0.5 0,0.1 -0.3,0.3 -0.6,0.2 -0.5,-0.1 -0.6,-0.5 -0.6,-0.5 0,0 0.3,-0.3 0.8,-0.2"
   class="st0" />
	<path
   style="fill:#969696"
   id="path150"
   clip-path="url(#SVGID_2_)"
   d="m 61.7,13.6 c 0.3,0.3 0.3,0.6 0.2,0.7 0,0.1 -0.4,0.2 -0.7,-0.1 -0.4,-0.3 -0.4,-0.7 -0.4,-0.7 0.1,0 0.6,-0.2 0.9,0.1"
   class="st0" />
	<path
   style="fill:#969696"
   id="path152"
   clip-path="url(#SVGID_2_)"
   d="m 65.6,16.6 c 0.3,0.3 0.3,0.6 0.2,0.7 0,0.1 -0.4,0.2 -0.7,-0.1 -0.4,-0.3 -0.4,-0.7 -0.4,-0.7 0.1,-0.1 0.5,-0.3 0.9,0.1"
   class="st0" />
	<path
   style="fill:#969696"
   id="path154"
   clip-path="url(#SVGID_2_)"
   d="m 66.2,15.9 c 0.2,0.4 0,0.6 -0.1,0.7 -0.1,0 -0.4,0 -0.6,-0.3 -0.2,-0.4 0,-0.8 0,-0.8 0,-0.1 0.5,0 0.7,0.4"
   class="st0" />
	<path
   style="fill:#969696"
   id="path156"
   clip-path="url(#SVGID_2_)"
   d="m 64.9,20 c -0.1,0.4 -0.4,0.5 -0.5,0.5 -0.1,0 -0.3,-0.2 -0.3,-0.6 0.1,-0.5 0.5,-0.7 0.5,-0.7 0,-0.1 0.3,0.3 0.3,0.8"
   class="st0" />
	<path
   style="fill:#969696"
   id="path158"
   clip-path="url(#SVGID_2_)"
   d="m 64.2,20.6 c 0.1,0.4 -0.1,0.6 -0.2,0.6 -0.1,0 -0.4,-0.1 -0.5,-0.4 -0.1,-0.4 0.1,-0.8 0.1,-0.8 0,0 0.4,0.2 0.6,0.6"
   class="st0" />
	<path
   style="fill:#969696"
   id="path160"
   clip-path="url(#SVGID_2_)"
   d="m 63,12.8 c -0.1,0.3 -0.5,0.4 -0.5,0.4 -0.1,0 -0.3,-0.3 -0.2,-0.6 0.2,-0.5 0.6,-0.6 0.6,-0.6 0,0 0.2,0.4 0.1,0.8"
   class="st0" />
	<path
   style="fill:#969696"
   id="path162"
   clip-path="url(#SVGID_2_)"
   d="m 67.3,15.2 c -0.1,0.3 -0.5,0.4 -0.5,0.4 -0.1,0 -0.3,-0.3 -0.2,-0.6 0.2,-0.5 0.6,-0.6 0.6,-0.6 0,0 0.3,0.4 0.1,0.8"
   class="st0" />
	<path
   style="fill:#969696"
   id="path164"
   clip-path="url(#SVGID_2_)"
   d="m 69.7,14.8 c -0.1,0.3 -0.5,0.4 -0.5,0.4 -0.1,0 -0.3,-0.3 -0.2,-0.6 0.2,-0.5 0.6,-0.6 0.6,-0.6 0,0 0.3,0.4 0.1,0.8"
   class="st0" />
	<path
   style="fill:#969696"
   id="path166"
   clip-path="url(#SVGID_2_)"
   d="m 63.2,14.1 c -0.2,0.3 -0.6,0.3 -0.6,0.3 -0.1,0 -0.2,-0.3 0,-0.7 0.3,-0.4 0.7,-0.4 0.7,-0.4 0,0 0.2,0.4 -0.1,0.8"
   class="st0" />
	<path
   style="fill:#969696"
   id="path168"
   clip-path="url(#SVGID_2_)"
   d="m 67.3,16.6 c -0.3,0.3 -0.6,0.2 -0.7,0.2 -0.1,0 -0.2,-0.4 0.1,-0.7 0.3,-0.4 0.8,-0.3 0.8,-0.3 0,0.1 0.1,0.5 -0.2,0.8"
   class="st0" />
	<path
   style="fill:#969696"
   id="path170"
   clip-path="url(#SVGID_2_)"
   d="m 72.5,12.9 c -0.3,0.3 -0.6,0.2 -0.7,0.2 -0.1,0 -0.2,-0.4 0.1,-0.7 0.3,-0.4 0.8,-0.3 0.8,-0.3 0,0 0.1,0.5 -0.2,0.8"
   class="st0" />
	<path
   style="fill:#969696"
   id="path172"
   clip-path="url(#SVGID_2_)"
   d="m 71.8,19 c -0.3,0.3 -0.6,0.2 -0.7,0.2 -0.1,0 -0.2,-0.4 0.1,-0.7 0.3,-0.4 0.8,-0.3 0.8,-0.3 0,0 0.1,0.5 -0.2,0.8"
   class="st0" />
	<path
   style="fill:#969696"
   id="path174"
   clip-path="url(#SVGID_2_)"
   d="m 76,14.7 c -0.3,0.3 -0.6,0.2 -0.7,0.2 -0.1,0 -0.2,-0.4 0.1,-0.7 0.3,-0.4 0.8,-0.3 0.8,-0.3 0,0.1 0.1,0.5 -0.2,0.8"
   class="st0" />
	<path
   style="fill:#969696"
   id="path176"
   clip-path="url(#SVGID_2_)"
   d="m 74.1,14.9 c -0.3,0.3 -0.6,0.2 -0.7,0.2 -0.1,0 -0.2,-0.4 0.1,-0.7 0.3,-0.4 0.8,-0.3 0.8,-0.3 0,0 0.1,0.5 -0.2,0.8"
   class="st0" />
	<path
   style="fill:#969696"
   id="path178"
   clip-path="url(#SVGID_2_)"
   d="m 68.7,14.9 c 0,0.4 -0.3,0.5 -0.4,0.5 -0.1,0 -0.4,-0.2 -0.4,-0.5 0,-0.5 0.4,-0.8 0.4,-0.8 0.1,0 0.4,0.3 0.4,0.8"
   class="st0" />
	<path
   style="fill:#969696"
   id="path180"
   clip-path="url(#SVGID_2_)"
   d="m 70.9,14.3 c 0,0.4 -0.3,0.5 -0.4,0.5 -0.1,0 -0.4,-0.2 -0.4,-0.5 0,-0.5 0.4,-0.8 0.4,-0.8 0.1,0 0.4,0.4 0.4,0.8"
   class="st0" />
	<path
   style="fill:#969696"
   id="path182"
   clip-path="url(#SVGID_2_)"
   d="m 71.6,13 c 0,0.4 -0.3,0.5 -0.4,0.5 -0.1,0 -0.4,-0.2 -0.4,-0.5 0,-0.5 0.4,-0.8 0.4,-0.8 0,0 0.4,0.3 0.4,0.8"
   class="st0" />
	<path
   style="fill:#969696"
   id="path184"
   clip-path="url(#SVGID_2_)"
   d="m 75.3,13.8 c 0,0.4 -0.3,0.5 -0.4,0.5 -0.1,0 -0.4,-0.2 -0.4,-0.5 0,-0.5 0.4,-0.8 0.4,-0.8 0.1,0.1 0.5,0.4 0.4,0.8"
   class="st0" />
	<path
   style="fill:#969696"
   id="path186"
   clip-path="url(#SVGID_2_)"
   d="m 73.8,13.8 c -0.1,0.4 -0.4,0.5 -0.5,0.5 -0.1,0 -0.3,-0.2 -0.2,-0.6 0.1,-0.5 0.5,-0.7 0.5,-0.7 0,-0.1 0.3,0.3 0.2,0.8"
   class="st0" />
	<path
   style="fill:#969696"
   id="path188"
   clip-path="url(#SVGID_2_)"
   d="m 63.1,15.3 c -0.3,0.3 -0.6,0.2 -0.7,0.2 -0.1,0 -0.1,-0.4 0.1,-0.7 0.3,-0.4 0.8,-0.2 0.8,-0.2 0.1,-0.1 0.1,0.4 -0.2,0.7"
   class="st0" />
	<path
   style="fill:#969696"
   id="path190"
   clip-path="url(#SVGID_2_)"
   d="m 59.1,12.5 c -0.4,0 -0.6,-0.3 -0.5,-0.4 0,-0.1 0.2,-0.4 0.6,-0.4 0.5,0 0.7,0.5 0.7,0.5 0,0 -0.3,0.3 -0.8,0.3"
   class="st0" />
	<path
   style="fill:#969696"
   id="path192"
   clip-path="url(#SVGID_2_)"
   d="m 59.5,11.5 c -0.4,0.1 -0.6,0 -0.7,-0.1 0,-0.1 0,-0.4 0.4,-0.6 0.4,-0.2 0.8,0.1 0.8,0.1 0.1,0.1 0,0.5 -0.5,0.6"
   class="st0" />
	<path
   style="fill:#969696"
   id="path194"
   clip-path="url(#SVGID_2_)"
   d="M 58.5,13.4 C 58.1,13.3 58,13 58.1,12.9 c 0,-0.1 0.3,-0.4 0.7,-0.2 0.5,0.1 0.6,0.6 0.6,0.6 0,0 -0.4,0.2 -0.9,0.1"
   class="st0" />
	<path
   style="fill:#969696"
   id="path196"
   clip-path="url(#SVGID_2_)"
   d="M 64.4,7.6 C 64.2,7.9 63.9,8 63.8,8 63.7,8 63.5,7.7 63.6,7.4 c 0.2,-0.5 0.6,-0.6 0.6,-0.6 0.1,-0.1 0.3,0.4 0.2,0.8"
   class="st0" />
	<path
   style="fill:#969696"
   id="path198"
   clip-path="url(#SVGID_2_)"
   d="m 58,3.2 c 0.1,0.4 -0.2,0.6 -0.3,0.6 -0.1,0 -0.4,-0.1 -0.5,-0.5 -0.1,-0.5 0.3,-0.8 0.3,-0.8 0.1,0 0.5,0.2 0.5,0.7"
   class="st0" />
	<path
   style="fill:#969696"
   id="path200"
   clip-path="url(#SVGID_2_)"
   d="m 51.4,7.4 c 0.3,0.2 0.3,0.6 0.2,0.6 0,0.1 -0.4,0.1 -0.7,-0.1 -0.4,-0.3 -0.3,-0.7 -0.3,-0.7 0,0 0.5,-0.2 0.8,0.2"
   class="st0" />
	<path
   style="fill:#969696"
   id="path202"
   clip-path="url(#SVGID_2_)"
   d="m 46.4,5 c 0.1,0.4 -0.1,0.6 -0.1,0.7 -0.1,0 -0.4,0 -0.6,-0.4 -0.2,-0.4 0.1,-0.8 0.1,-0.8 0,-0.1 0.5,0 0.6,0.5"
   class="st0" />
	<path
   style="fill:#969696"
   id="path204"
   clip-path="url(#SVGID_2_)"
   d="M 53.1,3.1 C 53.2,3.5 53,3.7 53,3.8 c -0.1,0 -0.4,0 -0.6,-0.4 -0.2,-0.4 0.1,-0.8 0.1,-0.8 0,0 0.5,0.1 0.6,0.5"
   class="st0" />
	<path
   style="fill:#969696"
   id="path206"
   clip-path="url(#SVGID_2_)"
   d="M 54.1,3.9 C 54,4.2 53.6,4.3 53.5,4.3 53.4,4.3 53.2,4 53.4,3.6 53.6,3.1 54,3 54,3 c 0,0 0.3,0.5 0.1,0.9"
   class="st0" />
	<path
   style="fill:#969696"
   id="path208"
   clip-path="url(#SVGID_2_)"
   d="m 57.2,4.1 c -0.1,0.3 -0.5,0.4 -0.6,0.4 -0.1,0 -0.3,-0.3 -0.1,-0.7 0.2,-0.5 0.6,-0.6 0.6,-0.6 0.1,0 0.3,0.5 0.1,0.9"
   class="st0" />
	<path
   style="fill:#969696"
   id="path210"
   clip-path="url(#SVGID_2_)"
   d="M 59.2,9.2 C 59.1,9.6 58.8,9.7 58.7,9.7 58.6,9.7 58.4,9.5 58.4,9.1 58.6,8.6 59,8.4 59,8.4 c 0,0 0.3,0.4 0.2,0.8"
   class="st0" />
	<path
   style="fill:#969696"
   id="path212"
   clip-path="url(#SVGID_2_)"
   d="m 57.5,5.5 c -0.2,0.3 -0.6,0.3 -0.6,0.3 -0.1,0 -0.2,-0.3 0,-0.7 0.3,-0.4 0.7,-0.4 0.7,-0.4 0,0 0.2,0.4 -0.1,0.8"
   class="st0" />
	<path
   style="fill:#969696"
   id="path214"
   clip-path="url(#SVGID_2_)"
   d="M 57.3,6.8 C 57,7.1 56.7,7 56.6,7 56.5,7 56.5,6.6 56.8,6.3 c 0.3,-0.4 0.8,-0.2 0.8,-0.2 0,0 0,0.4 -0.3,0.7"
   class="st0" />
	<path
   style="fill:#969696"
   id="path216"
   clip-path="url(#SVGID_2_)"
   d="m 57.3,8.1 c 0.2,0.4 -0.1,0.6 -0.1,0.7 -0.1,0 -0.4,0 -0.6,-0.4 -0.2,-0.4 0.1,-0.8 0.1,-0.8 0,0 0.4,0.1 0.6,0.5"
   class="st0" />
	<path
   style="fill:#969696"
   id="path218"
   clip-path="url(#SVGID_2_)"
   d="m 60.2,6.5 c -0.3,0.2 -0.6,0.1 -0.7,0 0,-0.1 0,-0.4 0.3,-0.6 0.4,-0.3 0.8,0 0.8,0 0.1,-0.1 0,0.3 -0.4,0.6"
   class="st0" />
	<path
   style="fill:#969696"
   id="path220"
   clip-path="url(#SVGID_2_)"
   d="M 54.3,5 C 54,5.3 53.7,5.2 53.6,5.2 53.5,5.2 53.4,4.8 53.7,4.5 54,4.1 54.5,4.2 54.5,4.2 c 0,0 0.1,0.5 -0.2,0.8"
   class="st0" />
	<path
   style="fill:#969696"
   id="path222"
   clip-path="url(#SVGID_2_)"
   d="M 44.9,8.7 C 44.7,9 44.4,9.1 44.3,9 44.2,9 44,8.7 44.2,8.3 c 0.2,-0.5 0.7,-0.5 0.7,-0.5 0,0.1 0.2,0.5 0,0.9"
   class="st0" />
	<path
   style="fill:#969696"
   id="path224"
   clip-path="url(#SVGID_2_)"
   d="M 46.8,14.6 C 46.7,15 46.4,15 46.3,15 46.2,15 46,14.8 46.1,14.4 c 0.1,-0.5 0.6,-0.6 0.6,-0.6 -0.1,0 0.2,0.4 0.1,0.8"
   class="st0" />
	<path
   style="fill:#969696"
   id="path226"
   clip-path="url(#SVGID_2_)"
   d="M 50.5,16.6 C 50.4,17 50.1,17 50,17 c -0.1,0 -0.3,-0.2 -0.2,-0.6 0.1,-0.5 0.6,-0.6 0.6,-0.6 0,0 0.3,0.4 0.1,0.8"
   class="st0" />
	<path
   style="fill:#969696"
   id="path228"
   clip-path="url(#SVGID_2_)"
   d="m 49.9,15.6 c -0.1,0.4 -0.4,0.5 -0.4,0.5 -0.1,0 -0.3,-0.2 -0.3,-0.6 0.1,-0.5 0.5,-0.7 0.5,-0.7 0,0 0.3,0.4 0.2,0.8"
   class="st0" />
	<path
   style="fill:#969696"
   id="path230"
   clip-path="url(#SVGID_2_)"
   d="m 49.2,6 c 0,0.4 -0.3,0.5 -0.4,0.5 -0.1,0 -0.4,-0.2 -0.3,-0.6 0,-0.5 0.4,-0.8 0.4,-0.8 0,0.2 0.3,0.5 0.3,0.9"
   class="st0" />
	<path
   style="fill:#969696"
   id="path232"
   clip-path="url(#SVGID_2_)"
   d="m 47.4,5.5 c -0.1,0.4 -0.5,0.4 -0.5,0.4 -0.1,0 -0.3,-0.2 -0.2,-0.6 0.1,-0.5 0.6,-0.6 0.6,-0.6 -0.1,0 0.2,0.4 0.1,0.8"
   class="st0" />
	<path
   style="fill:#969696"
   id="path234"
   clip-path="url(#SVGID_2_)"
   d="m 44.9,10 c -0.3,0.3 -0.6,0.2 -0.7,0.2 -0.1,0 -0.1,-0.4 0.1,-0.7 0.3,-0.4 0.8,-0.3 0.8,-0.3 0.1,0 0.2,0.5 -0.2,0.8"
   class="st0" />
	<path
   style="fill:#969696"
   id="path236"
   clip-path="url(#SVGID_2_)"
   d="m 44.9,13.8 c 0.2,0.4 0.1,0.6 0,0.7 -0.1,0 -0.4,0 -0.6,-0.3 -0.3,-0.4 -0.1,-0.8 -0.1,-0.8 0,0 0.5,0 0.7,0.4"
   class="st0" />
	<path
   style="fill:#969696"
   id="path238"
   clip-path="url(#SVGID_2_)"
   d="m 42.6,15.9 c 0.2,0.4 0.1,0.6 0,0.7 -0.1,0 -0.4,0 -0.6,-0.3 -0.3,-0.4 -0.1,-0.8 -0.1,-0.8 0,-0.1 0.4,-0.1 0.7,0.4"
   class="st0" />
	<path
   style="fill:#969696"
   id="path240"
   clip-path="url(#SVGID_2_)"
   d="m 45.9,13.9 c 0.1,0.4 -0.2,0.6 -0.3,0.6 -0.1,0 -0.4,-0.1 -0.5,-0.5 -0.1,-0.5 0.2,-0.8 0.2,-0.8 0.1,0 0.5,0.3 0.6,0.7"
   class="st0" />
	<path
   style="fill:#969696"
   id="path242"
   clip-path="url(#SVGID_2_)"
   d="m 45.1,19.4 c -0.1,0.4 -0.4,0.4 -0.5,0.4 -0.1,0 -0.3,-0.2 -0.2,-0.6 0.1,-0.5 0.6,-0.6 0.6,-0.6 -0.1,-0.1 0.2,0.3 0.1,0.8"
   class="st0" />
	<path
   style="fill:#969696"
   id="path244"
   clip-path="url(#SVGID_2_)"
   d="M 46.1,19.6 C 46,20 45.7,20 45.6,20 c -0.1,0 -0.3,-0.2 -0.2,-0.6 0.1,-0.5 0.6,-0.6 0.6,-0.6 -0.1,0 0.2,0.4 0.1,0.8"
   class="st0" />
	<path
   style="fill:#969696"
   id="path246"
   clip-path="url(#SVGID_2_)"
   d="m 43.1,18.8 c 0.3,0.3 0.2,0.6 0.2,0.7 0,0 -0.4,0.1 -0.7,-0.1 -0.3,-0.3 -0.3,-0.8 -0.3,-0.8 0,0 0.4,-0.1 0.8,0.2"
   class="st0" />
	<path
   style="fill:#969696"
   id="path248"
   clip-path="url(#SVGID_2_)"
   d="m 44.1,19 c 0.1,0.4 -0.2,0.6 -0.3,0.6 -0.1,0 -0.4,-0.1 -0.5,-0.5 -0.1,-0.5 0.2,-0.8 0.2,-0.8 0.2,0 0.6,0.2 0.6,0.7"
   class="st0" />
	<path
   style="fill:#969696"
   id="path250"
   clip-path="url(#SVGID_2_)"
   d="m 46.6,22.3 c 0.4,-0.1 0.6,0.2 0.6,0.3 0,0.1 -0.1,0.4 -0.5,0.4 -0.5,0.1 -0.8,-0.2 -0.8,-0.2 0,0 0.2,-0.4 0.7,-0.5"
   class="st0" />
	<path
   style="fill:#969696"
   id="path252"
   clip-path="url(#SVGID_2_)"
   d="m 47.3,22.9 c 0.3,-0.2 0.6,0 0.7,0.1 0,0.1 0,0.4 -0.3,0.6 -0.4,0.2 -0.8,0 -0.8,0.1 -0.1,0 0,-0.5 0.4,-0.8"
   class="st0" />
	<path
   style="fill:#969696"
   id="path254"
   clip-path="url(#SVGID_2_)"
   d="m 48.3,23.5 c 0.3,-0.3 0.6,-0.1 0.7,-0.1 0,0.1 0.1,0.4 -0.2,0.6 -0.4,0.3 -0.8,0.2 -0.8,0.2 -0.1,0.1 -0.1,-0.4 0.3,-0.7"
   class="st0" />
	<path
   style="fill:#969696"
   id="path256"
   clip-path="url(#SVGID_2_)"
   d="m 49.3,22.1 c -0.1,0.4 -0.4,0.4 -0.5,0.4 -0.1,0 -0.3,-0.2 -0.2,-0.6 0.1,-0.5 0.6,-0.6 0.6,-0.6 0,0 0.3,0.4 0.1,0.8"
   class="st0" />
	<path
   style="fill:#969696"
   id="path258"
   clip-path="url(#SVGID_2_)"
   d="m 51.5,19.7 c -0.1,0.4 -0.4,0.4 -0.5,0.4 -0.1,0 -0.3,-0.2 -0.2,-0.6 0.1,-0.5 0.6,-0.6 0.6,-0.6 -0.1,-0.1 0.2,0.4 0.1,0.8"
   class="st0" />
	<path
   style="fill:#969696"
   id="path260"
   clip-path="url(#SVGID_2_)"
   d="m 50.3,22.2 c -0.1,0.4 -0.4,0.4 -0.5,0.4 -0.1,0 -0.3,-0.2 -0.2,-0.6 0.1,-0.5 0.6,-0.6 0.6,-0.6 -0.1,-0.1 0.2,0.3 0.1,0.8"
   class="st0" />
	<path
   style="fill:#969696"
   id="path262"
   clip-path="url(#SVGID_2_)"
   d="m 52.3,20.4 c -0.2,0.3 -0.5,0.3 -0.6,0.3 -0.1,0 -0.2,-0.3 -0.1,-0.7 0.2,-0.4 0.7,-0.5 0.7,-0.5 0,0 0.2,0.5 0,0.9"
   class="st0" />
	<path
   style="fill:#969696"
   id="path264"
   clip-path="url(#SVGID_2_)"
   d="m 46.1,21.5 c 0.4,0.1 0.5,0.5 0.5,0.5 0,0.1 -0.3,0.3 -0.6,0.2 -0.5,-0.1 -0.6,-0.5 -0.6,-0.5 -0.1,0 0.3,-0.4 0.7,-0.2"
   class="st0" />
	<path
   style="fill:#969696"
   id="path266"
   clip-path="url(#SVGID_2_)"
   d="m 49.6,20.2 c 0.4,-0.1 0.6,0.2 0.6,0.3 0,0.1 -0.1,0.4 -0.5,0.4 -0.5,0.1 -0.8,-0.2 -0.8,-0.2 0,0 0.2,-0.4 0.7,-0.5"
   class="st0" />
	<path
   style="fill:#969696"
   id="path268"
   clip-path="url(#SVGID_2_)"
   d="m 49.7,19.1 c 0.4,0.1 0.5,0.5 0.5,0.5 0,0.1 -0.3,0.3 -0.6,0.2 -0.5,-0.1 -0.6,-0.5 -0.6,-0.5 -0.2,0 0.2,-0.3 0.7,-0.2"
   class="st0" />
	<path
   style="fill:#969696"
   id="path270"
   clip-path="url(#SVGID_2_)"
   d="m 48.4,21.6 c 0.1,0.4 -0.2,0.6 -0.3,0.6 -0.1,0 -0.4,-0.1 -0.5,-0.5 -0.1,-0.5 0.2,-0.8 0.2,-0.8 0.1,-0.1 0.5,0.2 0.6,0.7"
   class="st0" />
	<path
   style="fill:#969696"
   id="path272"
   clip-path="url(#SVGID_2_)"
   d="m 47.4,21.1 c 0.1,0.4 -0.2,0.6 -0.3,0.6 -0.1,0 -0.4,-0.1 -0.5,-0.5 -0.1,-0.5 0.2,-0.8 0.2,-0.8 0.1,0 0.5,0.2 0.6,0.7"
   class="st0" />
	<path
   style="fill:#969696"
   id="path274"
   clip-path="url(#SVGID_2_)"
   d="M 47.3,15.7 C 47.1,16 46.8,16 46.7,16 c -0.1,0 -0.3,-0.3 -0.1,-0.7 0.2,-0.5 0.7,-0.5 0.7,-0.5 0,0 0.2,0.5 0,0.9"
   class="st0" />
	<path
   style="fill:#969696"
   id="path276"
   clip-path="url(#SVGID_2_)"
   d="m 47.5,16.8 c -0.3,0.3 -0.6,0.2 -0.7,0.2 -0.1,0 -0.1,-0.4 0.1,-0.7 0.3,-0.4 0.8,-0.3 0.8,-0.3 0.1,0.1 0.1,0.5 -0.2,0.8"
   class="st0" />
	<path
   style="fill:#969696"
   id="path278"
   clip-path="url(#SVGID_2_)"
   d="M 50.2,8 C 50,8.3 49.7,8.3 49.6,8.3 49.5,8.3 49.4,8 49.6,7.6 49.8,7.2 50.3,7.1 50.3,7.1 50.2,7.2 50.4,7.7 50.2,8"
   class="st0" />
	<path
   style="fill:#969696"
   id="path280"
   clip-path="url(#SVGID_2_)"
   d="m 50.4,9.2 c -0.1,0.3 -0.5,0.4 -0.6,0.4 -0.1,0 -0.3,-0.3 -0.1,-0.7 0.2,-0.5 0.6,-0.6 0.6,-0.6 0,0 0.2,0.5 0.1,0.9"
   class="st0" />
	<path
   style="fill:#969696"
   id="path282"
   clip-path="url(#SVGID_2_)"
   d="M 60.3,4.4 C 59.9,4.5 59.7,4.2 59.7,4.1 59.7,4 59.8,3.7 60.2,3.6 60.6,3.6 61,4 61,4 61,4 60.7,4.3 60.3,4.4"
   class="st0" />
	<path
   style="fill:#969696"
   id="path284"
   clip-path="url(#SVGID_2_)"
   d="M 62.5,6.5 C 62.1,6.6 61.9,6.3 61.9,6.2 61.9,6.1 62,5.8 62.4,5.7 62.9,5.6 63.2,6 63.2,6 63.2,6.1 63,6.4 62.5,6.5"
   class="st0" />
	<path
   style="fill:#969696"
   id="path286"
   clip-path="url(#SVGID_2_)"
   d="M 60.1,5.4 C 59.7,5.5 59.5,5.2 59.5,5.1 59.5,5 59.6,4.7 60,4.6 c 0.5,0 0.8,0.4 0.8,0.4 0,0 -0.3,0.4 -0.7,0.4"
   class="st0" />
	<path
   style="fill:#969696"
   id="path288"
   clip-path="url(#SVGID_2_)"
   d="m 62,7.5 c -0.4,0 -0.6,-0.2 -0.6,-0.3 0,-0.1 0.2,-0.4 0.6,-0.4 0.5,0 0.8,0.4 0.8,0.4 0,0 -0.3,0.3 -0.8,0.3"
   class="st0" />
	<path
   style="fill:#969696"
   id="path290"
   clip-path="url(#SVGID_2_)"
   d="m 55.4,10.8 c -0.4,0.1 -0.6,-0.2 -0.6,-0.3 0,-0.1 0.1,-0.4 0.5,-0.5 0.5,-0.1 0.8,0.3 0.8,0.3 0,0.1 -0.2,0.4 -0.7,0.5"
   class="st0" />
	<path
   style="fill:#969696"
   id="path292"
   clip-path="url(#SVGID_2_)"
   d="m 55.5,11.8 c -0.4,0 -0.6,-0.3 -0.6,-0.3 0,-0.1 0.2,-0.4 0.6,-0.4 0.5,0 0.7,0.4 0.7,0.4 0.1,0 -0.2,0.3 -0.7,0.3"
   class="st0" />
	<path
   style="fill:#969696"
   id="path294"
   clip-path="url(#SVGID_2_)"
   d="m 55.6,12.9 c -0.4,0 -0.6,-0.3 -0.6,-0.3 0,-0.1 0.2,-0.4 0.6,-0.4 0.5,0 0.7,0.4 0.7,0.4 0,-0.1 -0.3,0.3 -0.7,0.3"
   class="st0" />
	<path
   style="fill:#969696"
   id="path296"
   clip-path="url(#SVGID_2_)"
   d="m 49.8,7 c -0.2,0.3 -0.5,0.4 -0.6,0.4 -0.1,0 -0.3,-0.3 -0.1,-0.7 0.2,-0.5 0.6,-0.6 0.6,-0.5 0.1,0 0.3,0.4 0.1,0.8"
   class="st0" />
	<path
   style="fill:#969696"
   id="path298"
   clip-path="url(#SVGID_2_)"
   d="M 48.3,5.5 C 48,5.8 47.7,5.7 47.6,5.7 47.5,5.7 47.5,5.3 47.7,5 48,4.6 48.5,4.7 48.5,4.7 c 0.1,0 0.2,0.5 -0.2,0.8"
   class="st0" />
	<path
   style="fill:#969696"
   id="path300"
   clip-path="url(#SVGID_2_)"
   d="M 60.7,3.3 C 60.4,3.5 60.1,3.5 60,3.4 60,3.4 59.9,3 60.2,2.7 60.6,2.4 61,2.5 61,2.6 c 0,0 0.1,0.4 -0.3,0.7"
   class="st0" />
	<path
   style="fill:#969696"
   id="path302"
   clip-path="url(#SVGID_2_)"
   d="m 66,4.1 c 0.3,0.3 0.3,0.6 0.2,0.7 C 66.2,4.9 65.8,5 65.5,4.7 65.2,4.4 65.2,4 65.2,4 c 0,0 0.4,-0.2 0.8,0.1"
   class="st0" />
	<path
   style="fill:#969696"
   id="path304"
   clip-path="url(#SVGID_2_)"
   d="m 65.4,9 c 0.3,0.3 0.3,0.6 0.2,0.7 0,0.1 -0.4,0.2 -0.7,-0.1 C 64.5,9.3 64.5,8.9 64.5,8.9 64.6,8.9 65,8.7 65.4,9"
   class="st0" />
	<path
   style="fill:#969696"
   id="path306"
   clip-path="url(#SVGID_2_)"
   d="M 67,3.8 C 67,4.2 66.7,4.3 66.6,4.3 66.5,4.3 66.2,4.1 66.2,3.8 66.2,3.3 66.6,3 66.6,3 66.6,3 67,3.3 67,3.8"
   class="st0" />
	<path
   style="fill:#969696"
   id="path308"
   clip-path="url(#SVGID_2_)"
   d="m 69,5.8 c 0.3,0.3 0.1,0.6 0.1,0.7 C 69,6.5 68.7,6.6 68.4,6.3 68.1,6 68.2,5.5 68.2,5.5 c 0,0 0.5,-0.1 0.8,0.3"
   class="st0" />
	<path
   style="fill:#969696"
   id="path310"
   clip-path="url(#SVGID_2_)"
   d="m 71.1,8.5 c 0.3,0.3 0.1,0.6 0.1,0.7 -0.1,0 -0.4,0.1 -0.7,-0.2 -0.3,-0.3 -0.2,-0.8 -0.2,-0.8 0,0 0.5,-0.1 0.8,0.3"
   class="st0" />
	<path
   style="fill:#969696"
   id="path312"
   clip-path="url(#SVGID_2_)"
   d="m 70.6,9.3 c 0.2,0.4 0,0.6 0,0.7 -0.1,0 -0.4,0 -0.6,-0.3 -0.2,-0.4 -0.1,-0.8 -0.1,-0.8 0,0 0.4,0 0.7,0.4"
   class="st0" />
	<path
   style="fill:#969696"
   id="path314"
   clip-path="url(#SVGID_2_)"
   d="m 69.7,9.5 c 0.2,0.4 -0.1,0.6 -0.1,0.7 -0.1,0 -0.4,0 -0.6,-0.4 C 68.8,9.4 69.1,9 69.1,9 c 0,-0.1 0.4,0 0.6,0.5"
   class="st0" />
	<path
   style="fill:#969696"
   id="path316"
   clip-path="url(#SVGID_2_)"
   d="M 70,5.7 C 69.9,6.1 69.6,6.1 69.5,6.1 69.4,6.1 69.2,5.9 69.3,5.5 69.4,5 69.9,4.8 69.9,4.8 69.8,4.8 70.1,5.3 70,5.7"
   class="st0" />
	<path
   style="fill:#969696"
   id="path318"
   clip-path="url(#SVGID_2_)"
   d="M 67.5,4.9 C 67.2,5.1 66.9,5.1 66.8,5 66.8,5 66.7,4.6 67,4.3 67.4,4 67.8,4.1 67.8,4.1 c 0,0 0.1,0.5 -0.3,0.8"
   class="st0" />
	<path
   style="fill:#969696"
   id="path320"
   clip-path="url(#SVGID_2_)"
   d="M 70.1,6.9 C 69.8,7.1 69.5,7.1 69.4,7 69.4,7 69.3,6.6 69.6,6.3 70,6 70.4,6.1 70.4,6.1 c 0,0.1 0.1,0.5 -0.3,0.8"
   class="st0" />
	<path
   style="fill:#969696"
   id="path322"
   clip-path="url(#SVGID_2_)"
   d="m 66.7,9.6 c -0.2,0.3 -0.6,0.3 -0.6,0.3 -0.1,0 -0.2,-0.3 0,-0.7 0.2,-0.4 0.7,-0.4 0.7,-0.4 0,0 0.2,0.5 -0.1,0.8"
   class="st0" />
	<path
   style="fill:#969696"
   id="path324"
   clip-path="url(#SVGID_2_)"
   d="M 66.6,10.8 C 66.3,11 66,10.9 66,10.9 c 0,0 -0.1,-0.4 0.2,-0.7 C 66.5,9.9 67,10 67,10 c 0,0 0,0.5 -0.4,0.8"
   class="st0" />
	<path
   style="fill:#969696"
   id="path326"
   clip-path="url(#SVGID_2_)"
   d="m 72.2,8.4 c -0.1,0.4 -0.4,0.4 -0.5,0.4 -0.1,0 -0.3,-0.2 -0.2,-0.6 0,-0.4 0.5,-0.6 0.5,-0.6 0,0 0.3,0.4 0.2,0.8"
   class="st0" />
	<path
   style="fill:#969696"
   id="path328"
   clip-path="url(#SVGID_2_)"
   d="m 70.3,11.9 c -0.1,0.4 -0.4,0.4 -0.5,0.4 -0.1,0 -0.3,-0.2 -0.2,-0.6 0.1,-0.5 0.6,-0.7 0.6,-0.7 -0.1,0.1 0.2,0.5 0.1,0.9"
   class="st0" />
	<path
   style="fill:#969696"
   id="path330"
   clip-path="url(#SVGID_2_)"
   d="m 69.2,12.1 c -0.1,0.4 -0.4,0.4 -0.5,0.4 -0.1,0 -0.3,-0.2 -0.2,-0.6 0.1,-0.5 0.6,-0.7 0.6,-0.7 0,0.1 0.3,0.5 0.1,0.9"
   class="st0" />
	<path
   style="fill:#969696"
   id="path332"
   clip-path="url(#SVGID_2_)"
   d="m 68.3,12.5 c -0.1,0.4 -0.4,0.4 -0.5,0.4 -0.1,0 -0.3,-0.2 -0.2,-0.6 0.1,-0.5 0.6,-0.7 0.6,-0.7 -0.1,0.1 0.2,0.5 0.1,0.9"
   class="st0" />
	<path
   style="fill:#969696"
   id="path334"
   clip-path="url(#SVGID_2_)"
   d="m 72.3,9.6 c -0.3,0.2 -0.6,0.2 -0.7,0.1 0,0 -0.1,-0.4 0.2,-0.7 0.4,-0.3 0.8,-0.2 0.8,-0.2 0,0.1 0.1,0.5 -0.3,0.8"
   class="st0" />
	<path
   style="fill:#969696"
   id="path336"
   clip-path="url(#SVGID_2_)"
   d="m 71.5,10.7 c -0.4,0.1 -0.6,-0.1 -0.7,-0.1 0,-0.1 0,-0.4 0.4,-0.6 0.4,-0.2 0.8,0.1 0.8,0.1 0.1,0.1 -0.1,0.5 -0.5,0.6"
   class="st0" />
	<path
   style="fill:#969696"
   id="path338"
   clip-path="url(#SVGID_2_)"
   d="M 72.7,10.9 C 72.3,11 72.1,10.8 72,10.8 c 0,-0.1 0,-0.4 0.4,-0.6 0.4,-0.2 0.8,0.1 0.8,0.1 0.1,0 0,0.5 -0.5,0.6"
   class="st0" />
	<path
   style="fill:#969696"
   id="path340"
   clip-path="url(#SVGID_2_)"
   d="M 67.7,5.9 C 67.4,6.2 67,6.1 67,6 67,5.9 66.9,5.6 67.2,5.3 67.6,5 68,5.2 68,5.2 c 0.1,0 0.1,0.5 -0.3,0.7"
   class="st0" />
	<path
   style="fill:#969696"
   id="path342"
   clip-path="url(#SVGID_2_)"
   d="M 67.7,7 C 67.3,7.1 67.1,7 67,6.9 c 0,-0.1 0,-0.4 0.4,-0.6 0.4,-0.2 0.8,0.1 0.8,0.1 0,0 -0.1,0.4 -0.5,0.6"
   class="st0" />
	<path
   style="fill:#969696"
   id="path344"
   clip-path="url(#SVGID_2_)"
   d="m 69.9,8 c -0.4,0.2 -0.6,0 -0.7,-0.1 0,-0.1 0,-0.4 0.4,-0.6 0.4,-0.2 0.8,0.1 0.8,0.1 0,0 -0.1,0.5 -0.5,0.6"
   class="st0" />
	<path
   style="fill:#969696"
   id="path346"
   clip-path="url(#SVGID_2_)"
   d="M 67.9,7.9 C 67.5,8 67.3,7.8 67.3,7.7 c 0,-0.1 0.1,-0.4 0.4,-0.6 0.5,-0.1 0.8,0.2 0.8,0.2 0,0.1 -0.2,0.5 -0.6,0.6"
   class="st0" />
	<path
   style="fill:#969696"
   id="path348"
   clip-path="url(#SVGID_2_)"
   d="m 62.8,5.3 c -0.3,0.2 -0.6,0.2 -0.7,0.1 0,0 -0.1,-0.4 0.2,-0.7 0.4,-0.3 0.8,-0.2 0.8,-0.2 0.1,0.1 0.1,0.6 -0.3,0.8"
   class="st0" />
	<path
   style="fill:#969696"
   id="path350"
   clip-path="url(#SVGID_2_)"
   d="M 63.6,9.8 C 63.2,9.8 63,9.5 63.1,9.4 63.1,9.3 63.3,9 63.7,9 c 0.5,0 0.7,0.5 0.7,0.5 0,0 -0.3,0.3 -0.8,0.3"
   class="st0" />
	<path
   style="fill:#969696"
   id="path352"
   clip-path="url(#SVGID_2_)"
   d="m 63.4,10.8 c -0.4,0 -0.5,-0.3 -0.5,-0.4 0,-0.1 0.2,-0.4 0.6,-0.3 0.5,0.1 0.7,0.5 0.7,0.5 0,0 -0.3,0.3 -0.8,0.2"
   class="st0" />
	<path
   style="fill:#969696"
   id="path354"
   clip-path="url(#SVGID_2_)"
   d="m 72.1,11.8 c -0.3,-0.2 -0.4,-0.5 -0.3,-0.6 0,-0.1 0.3,-0.3 0.7,-0.1 0.4,0.2 0.5,0.7 0.5,0.7 -0.1,0 -0.5,0.2 -0.9,0"
   class="st0" />
	<path
   style="fill:#969696"
   id="path356"
   clip-path="url(#SVGID_2_)"
   d="m 71,11.9 c -0.3,-0.2 -0.4,-0.5 -0.3,-0.6 0,-0.1 0.3,-0.3 0.7,-0.1 0.4,0.2 0.5,0.7 0.5,0.7 0,0.1 -0.4,0.2 -0.9,0"
   class="st0" />
	<path
   style="fill:#969696"
   id="path358"
   clip-path="url(#SVGID_2_)"
   d="m 69.9,13.4 c -0.3,-0.2 -0.4,-0.5 -0.3,-0.6 0,-0.1 0.3,-0.3 0.7,-0.1 0.4,0.2 0.5,0.7 0.5,0.7 0,0 -0.5,0.2 -0.9,0"
   class="st0" />
	<path
   style="fill:#969696"
   id="path360"
   clip-path="url(#SVGID_2_)"
   d="m 68.9,13.7 c -0.3,-0.2 -0.4,-0.5 -0.3,-0.6 0,-0.1 0.3,-0.3 0.7,-0.1 0.4,0.2 0.5,0.7 0.5,0.7 -0.1,0.1 -0.5,0.2 -0.9,0"
   class="st0" />
	<path
   style="fill:#969696"
   id="path362"
   clip-path="url(#SVGID_2_)"
   d="M 73.3,21.5 C 73,21.3 72.9,21 73,20.9 c 0,-0.1 0.3,-0.3 0.7,-0.1 0.4,0.2 0.5,0.7 0.5,0.7 -0.1,0 -0.5,0.2 -0.9,0"
   class="st0" />
	<path
   style="fill:#969696"
   id="path364"
   clip-path="url(#SVGID_2_)"
   d="M 64.2,8.9 C 63.8,9 63.6,8.8 63.6,8.7 c 0,-0.1 0.1,-0.4 0.5,-0.5 0.5,-0.1 0.8,0.2 0.8,0.2 0,0 -0.2,0.4 -0.7,0.5"
   class="st0" />
	<path
   style="fill:#969696"
   id="path366"
   clip-path="url(#SVGID_2_)"
   d="m 70.1,18.8 c 0.2,0.3 0.1,0.6 0,0.7 -0.1,0 -0.4,0.1 -0.6,-0.2 -0.3,-0.3 -0.1,-0.8 -0.1,-0.8 0,-0.1 0.5,-0.1 0.7,0.3"
   class="st0" />
	<path
   style="fill:#969696"
   id="path368"
   clip-path="url(#SVGID_2_)"
   d="m 70.8,18 c 0,0.4 -0.4,0.5 -0.4,0.5 -0.1,0 -0.4,-0.2 -0.3,-0.6 0,-0.5 0.4,-0.7 0.4,-0.7 0,0 0.3,0.4 0.3,0.8"
   class="st0" />
	<path
   style="fill:#969696"
   id="path370"
   clip-path="url(#SVGID_2_)"
   d="m 73.5,17 c 0.1,0.4 -0.1,0.6 -0.2,0.6 -0.1,0 -0.4,-0.1 -0.5,-0.4 -0.1,-0.4 0.2,-0.8 0.2,-0.8 -0.1,0 0.4,0.1 0.5,0.6"
   class="st0" />
	<path
   style="fill:#969696"
   id="path372"
   clip-path="url(#SVGID_2_)"
   d="m 72.8,17.8 c 0.1,0.4 -0.1,0.6 -0.2,0.6 -0.1,0 -0.4,-0.1 -0.5,-0.4 -0.2,-0.4 0.1,-0.8 0.1,-0.8 0,0 0.5,0.1 0.6,0.6"
   class="st0" />
	<path
   style="fill:#969696"
   id="path374"
   clip-path="url(#SVGID_2_)"
   d="m 71.8,14.9 c -0.4,0 -0.6,-0.3 -0.5,-0.4 0,-0.1 0.2,-0.4 0.6,-0.4 0.5,0 0.7,0.5 0.7,0.5 0,0 -0.3,0.4 -0.8,0.3"
   class="st0" />
	<path
   style="fill:#969696"
   id="path376"
   clip-path="url(#SVGID_2_)"
   d="m 75.4,15.9 c -0.4,0 -0.6,-0.3 -0.5,-0.4 0,-0.1 0.2,-0.4 0.6,-0.4 0.5,0 0.7,0.5 0.7,0.5 0,0 -0.3,0.3 -0.8,0.3"
   class="st0" />
	<path
   style="fill:#969696"
   id="path378"
   clip-path="url(#SVGID_2_)"
   d="m 66.4,19.8 c -0.4,0.1 -0.6,-0.1 -0.7,-0.1 0,-0.1 0,-0.4 0.4,-0.6 0.4,-0.2 0.8,0.1 0.8,0.1 0.1,0 0,0.4 -0.5,0.6"
   class="st0" />
	<path
   style="fill:#969696"
   id="path380"
   clip-path="url(#SVGID_2_)"
   d="m 65.8,20.8 c -0.4,0 -0.6,-0.3 -0.5,-0.4 0,-0.1 0.2,-0.4 0.6,-0.4 0.5,0 0.7,0.5 0.7,0.5 0,0 -0.3,0.4 -0.8,0.3"
   class="st0" />
	<path
   style="fill:#969696"
   id="path382"
   clip-path="url(#SVGID_2_)"
   d="m 74.9,20 c -0.4,0 -0.6,-0.3 -0.5,-0.4 0,-0.1 0.2,-0.4 0.6,-0.4 0.5,0 0.7,0.5 0.7,0.5 0,0 -0.4,0.3 -0.8,0.3"
   class="st0" />
	<path
   style="fill:#969696"
   id="path384"
   clip-path="url(#SVGID_2_)"
   d="m 74.6,17.6 c -0.3,0.3 -0.6,0.2 -0.7,0.2 -0.1,0 -0.2,-0.4 0.1,-0.7 0.3,-0.4 0.8,-0.3 0.8,-0.3 0,0 0.1,0.5 -0.2,0.8"
   class="st0" />
	<path
   style="fill:#969696"
   id="path386"
   clip-path="url(#SVGID_2_)"
   d="M 73.8,19.7 C 73.7,20 73.3,20 73.2,20 c -0.1,0 -0.3,-0.3 -0.1,-0.7 0.2,-0.5 0.7,-0.5 0.7,-0.5 0,0 0.2,0.5 0,0.9"
   class="st0" />
	<path
   style="fill:#969696"
   id="path388"
   clip-path="url(#SVGID_2_)"
   d="m 72.8,20 c -0.2,0.3 -0.5,0.4 -0.6,0.3 -0.1,0 -0.3,-0.3 -0.1,-0.7 0.2,-0.5 0.7,-0.5 0.7,-0.5 0,0.1 0.2,0.5 0,0.9"
   class="st0" />
	<path
   style="fill:#969696"
   id="path390"
   clip-path="url(#SVGID_2_)"
   d="m 74.1,18.8 c -0.4,0 -0.6,-0.3 -0.5,-0.4 0,-0.1 0.2,-0.4 0.6,-0.4 0.5,0 0.7,0.5 0.7,0.5 0,0 -0.3,0.3 -0.8,0.3"
   class="st0" />
	<path
   style="fill:#969696"
   id="path392"
   clip-path="url(#SVGID_2_)"
   d="m 71.3,15.9 c -0.4,0 -0.5,-0.3 -0.5,-0.4 0,-0.1 0.2,-0.4 0.6,-0.3 0.5,0.1 0.7,0.5 0.7,0.5 0,-0.1 -0.3,0.2 -0.8,0.2"
   class="st0" />
	<path
   style="fill:#969696"
   id="path394"
   clip-path="url(#SVGID_2_)"
   d="m 74.4,16.5 c -0.3,-0.2 -0.3,-0.5 -0.3,-0.6 0,-0.1 0.3,-0.3 0.7,-0.1 0.4,0.3 0.4,0.7 0.4,0.7 0,0.1 -0.5,0.2 -0.8,0"
   class="st0" />
	<path
   style="fill:#969696"
   id="path396"
   clip-path="url(#SVGID_2_)"
   d="M 72.1,21.7 C 71.8,21.4 72,21.1 72,21 c 0.1,-0.1 0.4,-0.1 0.7,0.2 0.3,0.4 0.2,0.8 0.2,0.8 0,0.1 -0.5,0 -0.8,-0.3"
   class="st0" />
	<path
   style="fill:#969696"
   id="path398"
   clip-path="url(#SVGID_2_)"
   d="m 74.1,20.8 c -0.3,-0.2 -0.3,-0.5 -0.3,-0.6 0,-0.1 0.3,-0.3 0.7,-0.1 0.4,0.3 0.4,0.7 0.4,0.7 0.1,0.1 -0.4,0.2 -0.8,0"
   class="st0" />
	<path
   style="fill:#969696"
   id="path400"
   clip-path="url(#SVGID_2_)"
   d="m 72.4,14 c -0.4,0.1 -0.6,-0.1 -0.6,-0.2 0,-0.1 0.1,-0.4 0.5,-0.5 0.5,-0.1 0.8,0.2 0.8,0.2 -0.1,0 -0.3,0.3 -0.7,0.5"
   class="st0" />
	<path
   style="fill:#969696"
   id="path402"
   clip-path="url(#SVGID_2_)"
   d="m 69.1,16.3 c -0.4,0.1 -0.6,-0.1 -0.6,-0.2 0,-0.1 0.1,-0.4 0.5,-0.5 0.5,-0.1 0.8,0.2 0.8,0.2 -0.1,0 -0.3,0.4 -0.7,0.5"
   class="st0" />
	<path
   style="fill:#969696"
   id="path404"
   clip-path="url(#SVGID_2_)"
   d="m 55.2,9.8 c -0.3,0.2 -0.6,0.2 -0.7,0.1 0,0 -0.1,-0.4 0.2,-0.7 0.4,-0.3 0.8,-0.2 0.8,-0.2 0,0 0,0.5 -0.3,0.8"
   class="st0" />
	<path
   style="fill:#969696"
   id="path406"
   clip-path="url(#SVGID_2_)"
   d="m 53.4,15.8 c -0.3,0.2 -0.6,0.2 -0.7,0.1 0,0 -0.1,-0.4 0.2,-0.7 0.4,-0.3 0.8,-0.2 0.8,-0.2 0.1,0 0.1,0.5 -0.3,0.8"
   class="st0" />
	<path
   style="fill:#969696"
   id="path408"
   clip-path="url(#SVGID_2_)"
   d="m 54.1,14.3 c -0.2,0.3 -0.5,0.3 -0.6,0.3 -0.1,0 -0.2,-0.3 0,-0.7 0.2,-0.4 0.7,-0.5 0.7,-0.5 -0.1,0 0.1,0.5 -0.1,0.9"
   class="st0" />
	<path
   style="fill:#969696"
   id="path410"
   clip-path="url(#SVGID_2_)"
   d="m 45.6,10.7 c -0.1,0.4 -0.4,0.4 -0.5,0.4 -0.1,0 -0.3,-0.2 -0.2,-0.6 0.1,-0.5 0.6,-0.6 0.6,-0.6 -0.1,0 0.2,0.4 0.1,0.8"
   class="st0" />
	<path
   style="fill:#969696"
   id="path412"
   clip-path="url(#SVGID_2_)"
   d="m 43.6,16.2 c 0,0.4 -0.3,0.6 -0.4,0.6 -0.1,0 -0.4,-0.1 -0.4,-0.5 0,-0.5 0.3,-0.8 0.3,-0.8 0.1,0 0.5,0.3 0.5,0.7"
   class="st0" />
	<path
   style="fill:#969696"
   id="path414"
   clip-path="url(#SVGID_2_)"
   d="m 44.4,16.9 c 0,0.4 -0.3,0.5 -0.4,0.5 -0.1,0 -0.4,-0.2 -0.4,-0.5 0,-0.5 0.4,-0.8 0.4,-0.8 0.1,0.1 0.4,0.4 0.4,0.8"
   class="st0" />
	<path
   style="fill:#969696"
   id="path416"
   clip-path="url(#SVGID_2_)"
   d="m 45.3,17.5 c -0.2,0.3 -0.5,0.4 -0.6,0.4 -0.1,0 -0.3,-0.3 -0.1,-0.7 0.2,-0.5 0.6,-0.6 0.6,-0.6 0,0.1 0.3,0.5 0.1,0.9"
   class="st0" />
	<path
   style="fill:#969696"
   id="path418"
   clip-path="url(#SVGID_2_)"
   d="m 48.3,10.3 c -0.2,0.3 -0.6,0.3 -0.6,0.3 -0.1,0 -0.2,-0.3 0,-0.7 0.3,-0.4 0.7,-0.4 0.7,-0.4 0,-0.1 0.1,0.4 -0.1,0.8"
   class="st0" />
	<path
   style="fill:#969696"
   id="path420"
   clip-path="url(#SVGID_2_)"
   d="m 48.3,11.5 c -0.3,0.3 -0.6,0.2 -0.7,0.2 -0.1,0 -0.2,-0.4 0.1,-0.7 0.3,-0.4 0.8,-0.3 0.8,-0.3 0.1,0 0.1,0.5 -0.2,0.8"
   class="st0" />
	<path
   style="fill:#969696"
   id="path422"
   clip-path="url(#SVGID_2_)"
   d="M 52.6,7.9 C 52.5,8.2 52.1,8.3 52,8.3 51.9,8.3 51.7,8 51.9,7.6 52,7.1 52.5,7 52.5,7 c 0,0 0.2,0.5 0.1,0.9"
   class="st0" />
	<path
   style="fill:#969696"
   id="path424"
   clip-path="url(#SVGID_2_)"
   d="m 53,8.8 c -0.2,0.3 -0.6,0.3 -0.6,0.3 -0.1,0 -0.2,-0.3 0,-0.7 C 52.7,8 53.1,8 53.1,8 53.1,7.9 53.3,8.4 53,8.8"
   class="st0" />
	<path
   style="fill:#969696"
   id="path426"
   clip-path="url(#SVGID_2_)"
   d="m 46.7,8.8 c 0.2,0.3 0.1,0.6 0.1,0.7 -0.1,0 -0.4,0.1 -0.6,-0.2 C 45.8,8.9 46,8.4 46,8.4 c 0,0 0.4,0 0.7,0.4"
   class="st0" />
	<path
   style="fill:#969696"
   id="path428"
   clip-path="url(#SVGID_2_)"
   d="m 107.7,38.1 c -0.3,-0.3 -0.8,-0.6 -1.2,-0.8 -0.5,-0.2 -1,-0.3 -1.5,-0.3 -0.5,0 -0.9,0.1 -1.3,0.2 -0.4,0.2 -0.7,0.4 -1,0.6 -0.3,0.3 -0.5,0.6 -0.6,0.9 -0.1,0.3 -0.2,0.7 -0.2,1 0,0.4 0.1,0.8 0.2,1.1 0.1,0.3 0.3,0.6 0.5,0.8 0.2,0.2 0.5,0.4 0.8,0.5 0.3,0.1 0.6,0.2 0.9,0.3 0.3,0.1 0.6,0.2 0.9,0.3 0.3,0.1 0.5,0.2 0.8,0.3 0.2,0.1 0.4,0.3 0.5,0.5 0.1,0.2 0.2,0.4 0.2,0.8 0,0.3 0,0.5 -0.1,0.8 -0.1,0.2 -0.2,0.4 -0.4,0.6 -0.2,0.2 -0.4,0.3 -0.6,0.4 -0.3,0.1 -0.5,0.1 -0.9,0.1 -0.4,0 -0.7,-0.1 -1,-0.2 -0.3,-0.1 -0.5,-0.2 -0.7,-0.3 -0.2,-0.1 -0.3,-0.2 -0.5,-0.3 -0.1,-0.1 -0.2,-0.2 -0.3,-0.2 -0.1,0 -0.1,0 -0.2,0.1 -0.1,0 -0.1,0.1 -0.1,0.1 l -0.4,0.6 c 0.4,0.4 0.8,0.7 1.4,1 0.5,0.2 1.1,0.4 1.8,0.4 0.5,0 1,-0.1 1.4,-0.2 0.4,-0.2 0.8,-0.4 1.1,-0.7 0.3,-0.3 0.5,-0.6 0.7,-1 0.2,-0.4 0.2,-0.8 0.2,-1.2 0,-0.4 -0.1,-0.8 -0.2,-1.1 -0.1,-0.3 -0.3,-0.5 -0.6,-0.7 -0.2,-0.2 -0.5,-0.4 -0.8,-0.5 -0.3,-0.1 -0.6,-0.2 -0.9,-0.3 -0.3,-0.1 -0.6,-0.2 -0.9,-0.3 -0.3,-0.1 -0.5,-0.2 -0.8,-0.3 -0.2,-0.1 -0.4,-0.3 -0.6,-0.5 -0.1,-0.2 -0.2,-0.4 -0.2,-0.7 0,-0.2 0,-0.4 0.1,-0.6 0.1,-0.2 0.2,-0.4 0.4,-0.5 0.2,-0.1 0.4,-0.3 0.6,-0.3 0.2,-0.1 0.5,-0.1 0.8,-0.1 0.3,0 0.6,0 0.8,0.1 0.2,0.1 0.4,0.2 0.6,0.3 0.2,0.1 0.3,0.2 0.4,0.3 0.1,0.1 0.2,0.1 0.3,0.1 0.1,0 0.1,0 0.2,-0.1 0,0 0.1,-0.1 0.1,-0.2 z m -15.5,-1 v 10.1 h 6.2 v -1.1 h -4.9 v -3.5 h 3.9 v -1.1 h -3.9 v -3.4 h 4.9 V 37 h -6.2 z m -4.1,0 h -1.4 v 4.5 h -5.5 v -4.5 h -1.4 v 10.1 h 1.4 v -4.6 h 5.5 v 4.6 h 1.4 z m -11.9,1 C 75.9,37.8 75.4,37.5 75,37.3 74.5,37.1 74,37 73.5,37 c -0.5,0 -0.9,0.1 -1.3,0.2 -0.4,0.2 -0.7,0.4 -1,0.6 -0.3,0.3 -0.5,0.6 -0.6,0.9 -0.1,0.3 -0.2,0.7 -0.2,1 0,0.4 0.1,0.8 0.2,1.1 0.1,0.3 0.3,0.6 0.5,0.8 0.2,0.2 0.5,0.4 0.8,0.5 0.3,0.1 0.6,0.2 0.9,0.3 0.3,0.1 0.6,0.2 0.9,0.3 0.3,0.1 0.5,0.2 0.8,0.3 0.2,0.1 0.4,0.3 0.5,0.5 0.1,0.2 0.2,0.4 0.2,0.8 0,0.3 0,0.5 -0.1,0.8 -0.1,0.2 -0.2,0.4 -0.4,0.6 -0.2,0.2 -0.4,0.3 -0.6,0.4 -0.3,0.1 -0.5,0.1 -0.9,0.1 -0.4,0 -0.7,-0.1 -1,-0.2 -0.3,-0.1 -0.5,-0.2 -0.7,-0.3 -0.2,-0.1 -0.3,-0.2 -0.5,-0.3 -0.1,-0.1 -0.2,-0.2 -0.3,-0.2 -0.1,0 -0.1,0 -0.2,0.1 -0.1,0 -0.1,0.1 -0.1,0.1 L 69.9,46 c 0.4,0.4 0.8,0.7 1.4,1 0.5,0.2 1.1,0.4 1.8,0.4 0.5,0 1,-0.1 1.4,-0.2 0.4,-0.2 0.8,-0.4 1.1,-0.7 0.3,-0.3 0.5,-0.6 0.7,-1 0.2,-0.4 0.2,-0.8 0.2,-1.2 0,-0.4 -0.1,-0.8 -0.2,-1.1 C 76.2,42.9 76,42.7 75.7,42.5 75.5,42.3 75.2,42.1 74.9,42 74.6,41.9 74.3,41.8 74,41.7 73.7,41.6 73.4,41.5 73.1,41.4 72.8,41.3 72.6,41.2 72.3,41.1 72.1,41 71.9,40.8 71.7,40.6 c -0.1,-0.2 -0.2,-0.4 -0.2,-0.7 0,-0.2 0,-0.4 0.1,-0.6 0.1,-0.2 0.2,-0.4 0.4,-0.5 0.2,-0.1 0.4,-0.3 0.6,-0.3 0.2,-0.1 0.5,-0.1 0.8,-0.1 0.3,0 0.6,0 0.8,0.1 0.2,0.1 0.4,0.2 0.6,0.3 0.2,0.1 0.3,0.2 0.4,0.3 0.1,0.1 0.2,0.1 0.3,0.1 0.1,0 0.1,0 0.2,-0.1 0,0 0.1,-0.1 0.1,-0.2 z m -13.5,1.3 c 0,-0.1 0.1,-0.3 0.1,-0.4 0,-0.2 0.1,-0.3 0.2,-0.5 0.1,0.4 0.2,0.7 0.3,1 l 1.6,4.1 h -3.8 z m 1,-2.3 h -1.4 l -4,10.1 h 1.1 c 0.1,0 0.2,0 0.3,-0.1 0.1,-0.1 0.1,-0.1 0.2,-0.2 l 0.9,-2.4 h 4.5 l 0.9,2.4 c 0,0.1 0.1,0.2 0.2,0.2 0.1,0.1 0.2,0.1 0.3,0.1 h 1.1 z M 45.9,46 c -0.5,-0.2 -0.8,-0.4 -1.2,-0.8 -0.3,-0.3 -0.6,-0.8 -0.8,-1.3 -0.2,-0.5 -0.3,-1.1 -0.3,-1.7 0,-0.6 0.1,-1.2 0.3,-1.7 0.2,-0.5 0.4,-0.9 0.7,-1.3 0.3,-0.3 0.7,-0.6 1.2,-0.8 0.5,-0.2 1,-0.3 1.5,-0.3 0.4,0 0.7,0 1,0.1 0.3,0.1 0.5,0.1 0.7,0.2 0.2,0.1 0.4,0.2 0.5,0.3 0.1,0.1 0.3,0.2 0.4,0.2 0.1,0.1 0.2,0.1 0.2,0.1 0.1,0 0.2,-0.1 0.3,-0.2 l 0.4,-0.6 C 50.6,38 50.4,37.8 50.1,37.7 49.8,37.5 49.6,37.4 49.3,37.3 49,37.2 48.7,37.1 48.3,37 c 0,0 -0.4,0 -0.8,0 -0.8,0 -1.5,0.1 -2.1,0.4 -0.6,0.2 -1.2,0.6 -1.6,1.1 -0.4,0.5 -0.8,1 -1,1.6 -0.2,0.6 -0.4,1.3 -0.4,2.1 0,0.8 0.1,1.5 0.4,2.1 0.2,0.6 0.6,1.2 1,1.6 0.4,0.5 1,0.8 1.6,1.1 0.6,0.3 1.3,0.4 2,0.4 0.4,0 0.8,0 1.2,-0.1 0.4,0 0.7,-0.1 1,-0.2 0.3,-0.1 0.6,-0.2 0.9,-0.3 0.3,-0.1 0.5,-0.3 0.8,-0.5 v -3.9 h -3.1 v 0.8 c 0,0.1 0,0.1 0.1,0.2 0.1,0.1 0.1,0.1 0.2,0.1 h 1.6 v 2.2 c -0.2,0.1 -0.4,0.2 -0.5,0.3 -0.4,0 -0.6,0 -0.8,0.1 -0.2,0.1 -0.4,0.1 -0.6,0.1 -0.2,0 -0.5,0 -0.8,0 -0.5,0 -1,0 -1.5,-0.2 M 31.2,37.1 h -0.7 v 10.1 h 1.2 V 40 c 0,-0.1 0,-0.2 0,-0.3 0,-0.1 0,-0.2 0,-0.3 l 5.9,7.6 c 0.1,0.1 0.1,0.2 0.2,0.2 0.1,0 0.2,0.1 0.3,0.1 h 0.7 V 37.1 h -1.2 v 7.2 c 0,0.1 0,0.2 0,0.3 0,0.1 0,0.2 0,0.4 l -5.9,-7.6 c -0.1,-0.1 -0.1,-0.2 -0.2,-0.2 0,-0.1 -0.1,-0.1 -0.3,-0.1 m -5.9,6.8 c -0.2,0.5 -0.4,0.9 -0.7,1.2 -0.3,0.3 -0.7,0.6 -1.1,0.8 -0.4,0.2 -0.9,0.3 -1.5,0.3 -0.5,0 -1,-0.1 -1.5,-0.3 -0.4,-0.2 -0.8,-0.4 -1.1,-0.8 -0.3,-0.3 -0.6,-0.8 -0.7,-1.2 -0.2,-0.5 -0.3,-1 -0.3,-1.7 0,-0.6 0.1,-1.2 0.3,-1.7 0.2,-0.5 0.4,-0.9 0.7,-1.3 0.3,-0.3 0.7,-0.6 1.1,-0.8 0.4,-0.2 0.9,-0.3 1.5,-0.3 0.5,0 1,0.1 1.5,0.3 0.4,0.2 0.8,0.4 1.1,0.8 0.3,0.3 0.6,0.8 0.7,1.3 0.2,0.5 0.3,1.1 0.3,1.7 0,0.6 -0.1,1.2 -0.3,1.7 m 1.3,-3.8 C 26.4,39.5 26,38.9 25.6,38.5 25.2,38 24.6,37.7 24,37.4 23.4,37.1 22.7,37 22,37 c -0.7,0 -1.4,0.1 -2,0.4 -0.6,0.3 -1.1,0.6 -1.6,1.1 -0.4,0.5 -0.8,1 -1,1.6 -0.2,0.6 -0.4,1.3 -0.4,2.1 0,0.8 0.1,1.5 0.4,2.1 0.2,0.6 0.6,1.2 1,1.6 0.4,0.5 1,0.8 1.6,1.1 0.6,0.3 1.3,0.4 2,0.4 0.7,0 1.4,-0.1 2,-0.4 0.6,-0.3 1.1,-0.6 1.6,-1.1 0.4,-0.5 0.8,-1 1,-1.6 0.2,-0.6 0.4,-1.3 0.4,-2.1 0,-0.8 -0.1,-1.5 -0.4,-2.1 m -16,-3 H 9.2 v 10.1 h 5.7 V 46 h -4.4 v -8.9 z"
   class="st0" />
	<path
   style="fill:#969696"
   id="path430"
   clip-path="url(#SVGID_2_)"
   d="m 63.7,51.1 h -0.4 v 2.8 h 0.4 v -1.3 h 0.2 c 0,0 0.1,0 0.1,0 0,0 0,0 0.1,0 0.1,0 0,0 0,0 0,0 0,0 0,0 l 1,1.1 c 0,0 0,0 0,0 0,0 0,0 0,0 0,0 0,0 0,0 0,0 0,0 0.1,0 h 0.3 l -1.1,-1.3 c 0,0 -0.1,-0.1 -0.1,-0.1 0,0 -0.1,0 -0.1,-0.1 0,0 0.1,0 0.1,-0.1 0,0 0,0 0.1,-0.1 l 1.1,-1.2 h -0.3 c 0,0 -0.1,0 -0.1,0 0,0 -0.1,0 -0.1,0.1 L 64.1,52 c 0,0 -0.1,0.1 -0.1,0.1 0,0 -0.1,0 -0.1,0 h -0.1 v -1 z m -4.1,0.3 H 60 c 0.2,0 0.4,0 0.5,0.1 0.1,0.1 0.2,0.2 0.2,0.4 0,0.1 0,0.2 0,0.2 0,0.1 -0.1,0.1 -0.1,0.2 -0.1,0 -0.1,0.1 -0.2,0.1 -0.1,0 -0.2,0 -0.3,0 h -0.4 v -1 z m 0.2,1.3 c 0.1,0 0.1,0 0.1,0 0,0 0.1,0 0.1,0.1 l 0.7,1 c 0,0.1 0.1,0.1 0.2,0.1 h 0.3 l -0.8,-1.1 c 0,-0.1 -0.1,-0.1 -0.1,-0.1 0.1,0 0.2,-0.1 0.3,-0.1 0.1,0 0.2,-0.1 0.2,-0.2 0.1,-0.1 0.1,-0.1 0.1,-0.2 0,-0.1 0,-0.2 0,-0.3 0,-0.1 0,-0.2 -0.1,-0.3 0,-0.1 -0.1,-0.2 -0.2,-0.2 -0.1,-0.1 -0.2,-0.1 -0.3,-0.2 -0.1,0 -0.3,-0.1 -0.5,-0.1 H 59 v 2.8 h 0.4 v -1.2 z m -4.1,-1 c 0,0 0,-0.1 0,-0.1 0,0 0,-0.1 0,-0.1 0,0.1 0.1,0.2 0.1,0.3 L 56.2,53 H 55.1 Z M 56,51.1 h -0.4 l -1.1,2.8 h 0.3 c 0,0 0.1,0 0.1,0 0,0 0,0 0,-0.1 l 0.3,-0.7 h 1.3 l 0.3,0.7 c 0,0 0,0 0,0.1 0,0 0,0 0.1,0 h 0.3 z m -4.5,0.3 H 52 c 0.2,0 0.4,0.1 0.5,0.2 0.1,0.1 0.2,0.2 0.2,0.4 0,0.1 0,0.2 0,0.2 0,0 -0.1,0.1 -0.1,0.2 -0.1,0.1 -0.1,0.1 -0.2,0.1 -0.1,0 -0.2,0 -0.3,0 h -0.5 v -1.1 z m 0.4,1.5 c 0.2,0 0.3,0 0.5,-0.1 0.1,0 0.2,-0.1 0.3,-0.2 0.1,-0.1 0.2,-0.2 0.2,-0.3 0,-0.1 0.1,-0.2 0.1,-0.4 0,-0.1 0,-0.3 -0.1,-0.4 0,-0.1 -0.1,-0.2 -0.2,-0.3 -0.1,-0.1 -0.2,-0.1 -0.3,-0.2 -0.1,0 -0.3,-0.1 -0.5,-0.1 h -0.8 v 2.8 h 0.4 v -1.1 h 0.4 z"
   class="st0" />
</g>
</svg>
