<svg xmlns="http://www.w3.org/2000/svg" viewBox="0 0 197.58 155.24"><defs><style>.cls-1{fill:#ffffff;}.cls-1,.cls-2{fill-rule:evenodd;}.cls-2{fill:#ffffff;}</style></defs><title>roydon-logo-main</title><g id="Layer_2" data-name="Layer 2"><g id="Layer_1-2" data-name="Layer 1"><g id="Group-7"><path id="Fill-1" class="cls-1" d="M102.4,90.4c1.2-6,4.54-9.05,7.68-11.62,2.8-2.3,5.44-4.22,6.69-8a13.07,13.07,0,0,1-.46,3.13c-.91,3.25-3.13,5.35-5.69,7.54C107.78,83.82,104.45,86.41,102.4,90.4Zm-.79-7.79a6.4,6.4,0,0,1-1.2,3.73,8.82,8.82,0,0,0-1.52,4.94,4.32,4.32,0,0,1,.43-5.11C100.16,85,101.25,84,101.61,82.61ZM95.19,90.4c-1.21-6-4.55-9.05-7.68-11.62-2.8-2.3-5.45-4.22-6.7-8a13.07,13.07,0,0,0,.46,3.13c.91,3.25,3.13,5.35,5.69,7.54C89.8,83.82,93.13,86.41,95.19,90.4ZM109.1,45.86l2.31,12.78.15.81-.79,0-.52,0-2.42-12.9a52.87,52.87,0,0,0-9-1.14h0a52.53,52.53,0,0,0-9,1.14L87.41,59.52l-.58,0-.79,0,.15-.82L88.5,45.86l.09-.5.48-.08A55.68,55.68,0,0,1,98.8,44h0a55.46,55.46,0,0,1,9.73,1.25l.48.08ZM98.8,81.41C92,77.77,86.86,73.49,83.49,67.8l.31-5.17c1.37-2.83,5.62,2.24,15-5.26,9.38,7.5,13.63,2.43,15,5.26l.32,5.17C110.74,73.49,105.56,77.77,98.8,81.41Zm21-14.59c7.09,7.19,11.17,11.7,12.4,21.9l2.29-2.78a47.94,47.94,0,0,0,10.24-21.22,54.22,54.22,0,0,0-3.35-31.2A63.39,63.39,0,0,0,122.42,8.17,55.94,55.94,0,0,0,110.18.69c9.65,8.62,22.93,22.71,27.64,34.22A50.45,50.45,0,0,1,141,64a43.88,43.88,0,0,1-7.31,16.8,24,24,0,0,0-4-6.41,40.07,40.07,0,0,0,4.86-16.46c.59-8.39-1.45-17.11-6.08-25.69-7-13-18-22.71-29.67-30.83C87.1,9.53,76.13,19.22,69.12,32.24,64.5,40.82,62.45,49.54,63,57.93A40.31,40.31,0,0,0,67.9,74.4a23.85,23.85,0,0,0-4,6.4A44,44,0,0,1,56.62,64a50.53,50.53,0,0,1,3.14-29.09C65.11,21.84,78.17,9.27,89.13,0a55,55,0,0,0-14,8.17A63.37,63.37,0,0,0,56.23,33.52a54.14,54.14,0,0,0-3.35,31.2A47.91,47.91,0,0,0,63.11,85.94l2.3,2.78C66.63,78.52,70.72,74,77.8,66.82a25.6,25.6,0,0,0-7.25,4.81,55.33,55.33,0,0,1-2.93-14C67.08,50,69,42,73.23,34.1,78.35,24.58,86.9,15.2,98.79,6.7c11.89,8.5,20.44,17.88,25.57,27.4C128.61,42,130.5,50,130,57.67a55.56,55.56,0,0,1-2.92,14A25.83,25.83,0,0,0,119.78,66.82Z"/><path id="Fill-3" class="cls-2" d="M175.71,112.8v23.25h-3.86V105.59h3l18.87,23.72V105.63h3.86v30.42h-3.26Zm-38.62,8a13.6,13.6,0,0,0,.76,4.48,12.26,12.26,0,0,0,2.12,3.84,10.15,10.15,0,0,0,3.3,2.66,9.22,9.22,0,0,0,4.29,1,8.92,8.92,0,0,0,4.37-1.06,10.72,10.72,0,0,0,3.28-2.74,12.25,12.25,0,0,0,2.06-3.84,13.77,13.77,0,0,0,.7-4.33,13.55,13.55,0,0,0-.75-4.48,11.8,11.8,0,0,0-2.14-3.82,10.81,10.81,0,0,0-3.3-2.64,9,9,0,0,0-4.22-1,9.25,9.25,0,0,0-4.38,1,10.63,10.63,0,0,0-3.28,2.71,12.33,12.33,0,0,0-2.08,3.81A13.69,13.69,0,0,0,137.09,120.82Zm10.42,15.44a13,13,0,0,1-5.85-1.31,14.45,14.45,0,0,1-4.52-3.47,15.92,15.92,0,0,1-2.92-5,16.45,16.45,0,0,1-1-5.7,15.77,15.77,0,0,1,1.1-5.83,16,16,0,0,1,3-4.94,14.59,14.59,0,0,1,4.56-3.41,13.13,13.13,0,0,1,5.73-1.26,12.52,12.52,0,0,1,5.83,1.35,15,15,0,0,1,4.5,3.54,16.38,16.38,0,0,1,3.95,10.59,15.77,15.77,0,0,1-1.1,5.83,16.17,16.17,0,0,1-3,4.92,14.68,14.68,0,0,1-4.54,3.39A13.13,13.13,0,0,1,147.51,136.26Zm-26.44-15.48a15.21,15.21,0,0,0-.7-4.74,9.76,9.76,0,0,0-5.51-6.14,11.49,11.49,0,0,0-4.59-.88h-6.69v23.59h6.69a11.41,11.41,0,0,0,4.65-.9,9.38,9.38,0,0,0,3.39-2.48,11,11,0,0,0,2.06-3.76A15.07,15.07,0,0,0,121.07,120.78ZM99.72,136.05V105.59h10.55a16,16,0,0,1,6.41,1.2,13.14,13.14,0,0,1,4.61,3.26,13.43,13.43,0,0,1,2.76,4.83,19.42,19.42,0,0,1-.1,12.18,13.64,13.64,0,0,1-3,4.8,13.34,13.34,0,0,1-4.65,3.09,16.16,16.16,0,0,1-6.07,1.1ZM68.61,105.59l9.22,15.87,9.3-15.87h4.2L79.76,124.94v11.11H75.9v-11.2L64.37,105.59ZM34.84,120.82a13.59,13.59,0,0,0,.75,4.48,12.47,12.47,0,0,0,2.12,3.84A10.29,10.29,0,0,0,41,131.8a9.21,9.21,0,0,0,4.28,1,8.93,8.93,0,0,0,4.38-1.06A10.72,10.72,0,0,0,53,129a12.23,12.23,0,0,0,2-3.84,13.66,13.66,0,0,0,0-8.81,11.8,11.8,0,0,0-2.14-3.82,10.81,10.81,0,0,0-3.3-2.64,9.06,9.06,0,0,0-4.23-1,9.21,9.21,0,0,0-4.37,1,10.51,10.51,0,0,0-3.28,2.71,12.33,12.33,0,0,0-2.08,3.81A13.42,13.42,0,0,0,34.84,120.82Zm10.42,15.44A13,13,0,0,1,39.41,135a14.49,14.49,0,0,1-4.53-3.47,16.49,16.49,0,0,1-3.94-10.66A15.76,15.76,0,0,1,32,115a16.07,16.07,0,0,1,3-4.94,14.36,14.36,0,0,1,4.56-3.41,13.13,13.13,0,0,1,5.73-1.26,12.55,12.55,0,0,1,5.83,1.35,15,15,0,0,1,4.5,3.54,16.18,16.18,0,0,1,2.85,16.42,16.17,16.17,0,0,1-3,4.92A14.6,14.6,0,0,1,51,135,13.06,13.06,0,0,1,45.26,136.26ZM3.86,121.68h9.22a4.42,4.42,0,0,0,2.16-.52,5.24,5.24,0,0,0,1.65-1.39,6.61,6.61,0,0,0,1.07-2,7.45,7.45,0,0,0,.39-2.4,6.47,6.47,0,0,0-.45-2.42,7,7,0,0,0-1.2-2,5.28,5.28,0,0,0-1.76-1.37,4.75,4.75,0,0,0-2.12-.5h-9ZM0,136.05V105.59H13a8.22,8.22,0,0,1,3.71.84,9.27,9.27,0,0,1,2.92,2.23,10.79,10.79,0,0,1,1.91,3.13,9.72,9.72,0,0,1,.68,3.54,10.39,10.39,0,0,1-.45,3.06,9.68,9.68,0,0,1-1.28,2.69,8.78,8.78,0,0,1-2,2.06,8,8,0,0,1-2.64,1.24l7.38,11.67H18.86l-6.94-10.94H3.86v10.94Z"/><path id="Fill-5" class="cls-2" d="M170.51,151.05h4.07v-.78h-4.07v-2.86h4.35v-.78h-5.2V155H175v-.78h-4.49ZM163,147.54a4.05,4.05,0,0,0-3-1.12,4.41,4.41,0,0,0,0,8.82,6.51,6.51,0,0,0,3.17-.86v-4.11h-2.85v.78h2v2.81a4.78,4.78,0,0,1-2.32.6,3.63,3.63,0,0,1,0-7.26,3.17,3.17,0,0,1,2.39,1Zm-16.33.09,1.81,4.41h-3.63Zm-2.14,5.19h4.29l.92,2.2h1l-3.65-8.39h-.83L142.6,155h1Zm-10.14-6.19h-.86V155h4.77v-.78h-3.91Zm-10.22,0h-.85V155h4.76v-.78h-3.91Zm-8.27,8.4h.86v-8.4h-.86Zm-11.75-8.4h-1l3.19,8.39h.85l3.28-8.39h-.93l-2.75,7.11h0Zm-19.15,1L86.81,152H83.17Zm-2.14,5.19h4.29l.92,2.2h1l-3.65-8.39h-.83L80.93,155h1Zm-13.23-6.19H68.56V155h.85v-7.18h0l5,7.18H75.5v-8.39h-.85v7.11h0ZM61.14,155H62v-8.4h-.86Zm-10.46-7.62H52.2c1.53,0,2,.65,2,1.46s-.52,1.47-2,1.47H50.68Zm0,3.71H52.1l2.3,3.9h1.05L53,151a2.13,2.13,0,0,0,2.14-2.17c0-1.5-1.05-2.24-2.76-2.24H49.83V155h.85Zm-10.34-3.49L42.15,152H38.51Zm-2.15,5.19h4.29l.93,2.2h1l-3.65-8.39h-.83L36.27,155h1Zm-14.31-6.19h-1.3V155h.85v-7.25h0l3,7.25h.45l3-7.25h0V155h.85v-8.39h-1.3l-2.84,6.83Z"/></g></g></g></svg>