<svg id="Layer_1" data-name="Layer 1" xmlns="http://www.w3.org/2000/svg" xmlns:xlink="http://www.w3.org/1999/xlink" viewBox="0 0 74.46 59.2"><defs><style>.cls-1{fill:none;}.cls-2{clip-path:url(#clip-path);}.cls-3{fill:#dddbd8;}</style></defs><title>Roydon Marina Village Logo [2019]</title><g class="cls-2"><path class="cls-3" d="M104.1,61.23h-.78V72.51h1.34v-8c0-.1,0-.22,0-.34l0-.39,6.53,8.5a.75.75,0,0,0,.24.21.67.67,0,0,0,.3.06h.77V61.23h-1.33V69.6c0,.12,0,.26,0,.39l-6.54-8.5a1,1,0,0,0-.22-.21.8.8,0,0,0-.31-.05m-6.61,7.51a3.87,3.87,0,0,1-.8,1.39,3.48,3.48,0,0,1-1.26.87,4.55,4.55,0,0,1-3.3,0,3.48,3.48,0,0,1-1.26-.87,3.89,3.89,0,0,1-.81-1.39,6.35,6.35,0,0,1,0-3.73,3.94,3.94,0,0,1,.81-1.4,3.48,3.48,0,0,1,1.26-.87,4.55,4.55,0,0,1,3.3,0,3.48,3.48,0,0,1,1.26.87,3.92,3.92,0,0,1,.8,1.4,6.14,6.14,0,0,1,0,3.73m1.45-4.19a5.42,5.42,0,0,0-1.13-1.83,5.12,5.12,0,0,0-1.76-1.19,6.34,6.34,0,0,0-4.54,0,5,5,0,0,0-1.75,1.19,5.45,5.45,0,0,0-1.14,1.83,7,7,0,0,0,0,4.65A5.21,5.21,0,0,0,89.76,71a5,5,0,0,0,1.75,1.19,6.34,6.34,0,0,0,4.54,0A5.12,5.12,0,0,0,97.81,71a5.19,5.19,0,0,0,1.13-1.82,7,7,0,0,0,0-4.65M83.05,68.73a3.89,3.89,0,0,1-.8,1.38A3.48,3.48,0,0,1,81,71a4.4,4.4,0,0,1-1.65.3H76.66V62.47h2.68a4.4,4.4,0,0,1,1.65.3,3.45,3.45,0,0,1,1.26.86,4,4,0,0,1,.8,1.39,6.28,6.28,0,0,1,0,3.71m1.45-4.16a5.13,5.13,0,0,0-1.14-1.78,4.89,4.89,0,0,0-1.75-1.15,6.12,6.12,0,0,0-2.27-.41H75.12V72.51h4.22a6.11,6.11,0,0,0,2.27-.4A5,5,0,0,0,83.36,71a5.13,5.13,0,0,0,1.14-1.78,6.84,6.84,0,0,0,0-4.61M71.82,61.23H70.46a.44.44,0,0,0-.32.12.88.88,0,0,0-.19.24L67.38,66a4.11,4.11,0,0,0-.26.51c-.07.16-.13.33-.19.49-.06-.16-.12-.32-.19-.48s-.16-.34-.27-.52l-2.58-4.38a1.09,1.09,0,0,0-.21-.26.49.49,0,0,0-.32-.1H62L66.16,68v4.49h1.52V68ZM58.14,68.74a3.89,3.89,0,0,1-.81,1.39,3.31,3.31,0,0,1-1.26.87,4.52,4.52,0,0,1-3.29,0,3.43,3.43,0,0,1-1.27-.87,3.89,3.89,0,0,1-.81-1.39,6.35,6.35,0,0,1,0-3.73,3.94,3.94,0,0,1,.81-1.4,3.43,3.43,0,0,1,1.27-.87,4.52,4.52,0,0,1,3.29,0,3.31,3.31,0,0,1,1.26.87,3.94,3.94,0,0,1,.81,1.4,6.35,6.35,0,0,1,0,3.73m1.44-4.19a5.27,5.27,0,0,0-1.13-1.83,5,5,0,0,0-1.76-1.19,6.34,6.34,0,0,0-4.54,0,5.08,5.08,0,0,0-1.75,1.19,5.45,5.45,0,0,0-1.14,1.83,7,7,0,0,0,0,4.65A5.21,5.21,0,0,0,50.4,71a5.08,5.08,0,0,0,1.75,1.19,6.34,6.34,0,0,0,4.54,0,5.11,5.11,0,0,0,2.89-3,6.8,6.8,0,0,0,0-4.65M39.52,62.44h1.67a3.25,3.25,0,0,1,2,.51,1.81,1.81,0,0,1,.66,1.52,2.19,2.19,0,0,1-.17.9,1.92,1.92,0,0,1-.52.71,2.29,2.29,0,0,1-.85.45,3.76,3.76,0,0,1-1.17.16h-1.6Zm1.16,5.36a1,1,0,0,1,.47.09.81.81,0,0,1,.29.27l2.93,4a.67.67,0,0,0,.61.32h1.36L43.05,68a1.65,1.65,0,0,0-.51-.48,4.06,4.06,0,0,0,1.17-.44,3.19,3.19,0,0,0,.87-.7,2.87,2.87,0,0,0,.55-.94,3.08,3.08,0,0,0,.19-1.11,3.38,3.38,0,0,0-.24-1.3,2.69,2.69,0,0,0-.76-1A3.4,3.4,0,0,0,43,61.45a6.75,6.75,0,0,0-1.85-.22H38V72.51h1.52V67.8Z" transform="translate(-38 -20.8)"/><path class="cls-3" d="M102.29,76.81V80h1.95v-.35h-1.52V78.54H104V78.2h-1.23v-1h1.52v-.35Zm-4.1,2.76a1.05,1.05,0,0,1-.37-.25,1.22,1.22,0,0,1-.24-.4,1.69,1.69,0,0,1-.08-.53,1.67,1.67,0,0,1,.08-.52,1.09,1.09,0,0,1,.23-.39,1.05,1.05,0,0,1,.37-.25,1.28,1.28,0,0,1,.48-.09,1.45,1.45,0,0,1,.32,0,1,1,0,0,1,.23.07l.17.08.12.08a.13.13,0,0,0,.08,0,.12.12,0,0,0,.1-.06l.12-.19a1.84,1.84,0,0,0-.22-.17,1,1,0,0,0-.26-.12A1.38,1.38,0,0,0,99,76.8a2,2,0,0,0-.35,0,1.78,1.78,0,0,0-.67.12,1.5,1.5,0,0,0-.51.33,1.34,1.34,0,0,0-.32.51,1.76,1.76,0,0,0-.12.66,1.71,1.71,0,0,0,.12.65,1.34,1.34,0,0,0,.32.51,1.51,1.51,0,0,0,.49.33,1.64,1.64,0,0,0,.63.12L99,80a2.84,2.84,0,0,0,.31-.06l.28-.11a1.65,1.65,0,0,0,.25-.15V78.45h-1v.24a.07.07,0,0,0,0,.06l.07,0h.49v.7l-.17.08-.18.06-.2,0h-.23a1.16,1.16,0,0,1-.47-.08m-4.63-2.06s0-.08,0-.13a.84.84,0,0,0,.05-.17,1.5,1.5,0,0,0,.1.3l.49,1.28H93.06Zm.31-.7h-.43L92.17,80h.33a.17.17,0,0,0,.15-.11l.29-.76h1.42l.3.76a.22.22,0,0,0,0,.08.12.12,0,0,0,.09,0h.33Zm-5,0h-.43V80h1.8v-.36H88.89Zm-4.07,0h-.43V80h1.79v-.36H84.82Zm-3.09,0h-.42V80h.42ZM77.34,80h.39L79,76.81h-.35a.16.16,0,0,0-.09,0,.18.18,0,0,0,0,.07l-.89,2.23a.75.75,0,0,0,0,.16c0,.06,0,.12,0,.18a1.21,1.21,0,0,0-.05-.18.75.75,0,0,0,0-.16l-.9-2.23s0-.06-.05-.07a.12.12,0,0,0-.09,0h-.34ZM70,77.51s0-.08,0-.13,0-.11,0-.17a2.82,2.82,0,0,0,.09.3l.5,1.28H69.49Zm.31-.7h-.44L68.6,80h.33a.13.13,0,0,0,.09,0,.2.2,0,0,0,.06-.07l.29-.76h1.42l.29.76a.16.16,0,0,0,.06.08.12.12,0,0,0,.09,0h.33Zm-6.26,0h-.22V80h.38V77.71s0-.06,0-.09v-.11L66,79.89l.07.06.09,0h.21V76.81H66v2.34a.45.45,0,0,0,0,.11l-1.83-2.38a.33.33,0,0,0-.06-.06H64m-2.87,0h-.43V80h.43Zm-4.69.33H57a.89.89,0,0,1,.56.15.49.49,0,0,1,.18.42.55.55,0,0,1,0,.26.52.52,0,0,1-.14.19.62.62,0,0,1-.24.13,1,1,0,0,1-.33,0h-.45Zm.33,1.51a.24.24,0,0,1,.13,0,.2.2,0,0,1,.08.08l.82,1.12A.19.19,0,0,0,58,80h.38l-.92-1.26a.43.43,0,0,0-.14-.13,1.2,1.2,0,0,0,.33-.13,1.12,1.12,0,0,0,.24-.19.92.92,0,0,0,.16-.27,1,1,0,0,0,0-.31.86.86,0,0,0-.07-.36.83.83,0,0,0-.21-.28,1.2,1.2,0,0,0-.36-.17,2,2,0,0,0-.52-.06h-.89V80h.42V78.65Zm-4.58-1.14s0-.08.05-.13a1.54,1.54,0,0,1,0-.17,2.82,2.82,0,0,0,.09.3l.5,1.28H51.74Zm.32-.7h-.44L50.85,80h.33a.13.13,0,0,0,.09,0,.12.12,0,0,0,0-.07l.3-.76H53l.29.76a.22.22,0,0,0,.05.08.17.17,0,0,0,.1,0h.33Zm-5.65,2-1.09-1.94a.17.17,0,0,0-.06-.06h-.4V80h.37V77.54s0-.07,0-.11l1.1,2a.17.17,0,0,0,.16.1H47a.15.15,0,0,0,.15-.1l1.09-2a.37.37,0,0,0,0,.11V80h.37V76.81h-.4a.17.17,0,0,0-.06.06L47.1,78.82l-.05.11a.61.61,0,0,0,0,.12l0-.12-.05-.11" transform="translate(-38 -20.8)"/><path class="cls-3" d="M76.54,55.29a7.26,7.26,0,0,1,2.93-4.44A6.44,6.44,0,0,0,82,47.78a4.75,4.75,0,0,1-.17,1.2,6,6,0,0,1-2.17,2.87,11.64,11.64,0,0,0-3.14,3.44m-.3-3a2.48,2.48,0,0,1-.46,1.42,3.31,3.31,0,0,0-.58,1.88,1.65,1.65,0,0,1,.16-1.95,4.19,4.19,0,0,0,.88-1.35m-2.45,3a7.27,7.27,0,0,0-2.94-4.44,6.55,6.55,0,0,1-2.55-3.07,5.25,5.25,0,0,0,.17,1.2,5.92,5.92,0,0,0,2.18,2.87,11.91,11.91,0,0,1,3.14,3.44m5.31-17L80,43.17l0,.31-.3,0h-.2l-.92-4.92a20,20,0,0,0-3.45-.43h0a19.91,19.91,0,0,0-3.44.43l-.9,4.92h-.23l-.3,0,.06-.31.88-4.87,0-.19.18,0a22.29,22.29,0,0,1,3.71-.47h0a22,22,0,0,1,3.72.47l.18,0ZM75.16,51.86a14.44,14.44,0,0,1-5.84-5.19l.12-2c.52-1.09,2.14.85,5.72-2,3.59,2.86,5.21.92,5.73,2l.12,2a14.41,14.41,0,0,1-5.85,5.19m8-5.57c2.71,2.74,4.26,4.47,4.73,8.36l.88-1.06a18.24,18.24,0,0,0,3.9-8.1,20.59,20.59,0,0,0-1.27-11.9,24.2,24.2,0,0,0-7.23-9.67,21.56,21.56,0,0,0-4.67-2.85c3.68,3.28,8.75,8.66,10.55,13a19.31,19.31,0,0,1,1.2,11.1,16.87,16.87,0,0,1-2.79,6.4A9.23,9.23,0,0,0,87,49.18,15.13,15.13,0,0,0,88.8,42.9a17.93,17.93,0,0,0-2.31-9.8c-2.68-5-6.87-8.66-11.33-11.76-4.46,3.1-8.65,6.79-11.32,11.76a17.85,17.85,0,0,0-2.32,9.8,15.28,15.28,0,0,0,1.85,6.28,9.17,9.17,0,0,0-1.51,2.44,16.57,16.57,0,0,1-2.79-6.4,19.23,19.23,0,0,1,1.2-11.1c2-5,7-9.78,11.2-13.32a21,21,0,0,0-5.33,3.12,24.09,24.09,0,0,0-7.22,9.67,20.59,20.59,0,0,0-1.28,11.9,18.24,18.24,0,0,0,3.9,8.1l.88,1.06c.47-3.89,2-5.62,4.73-8.36a9.84,9.84,0,0,0-2.77,1.84,21.57,21.57,0,0,1-1.12-5.33,16.52,16.52,0,0,1,2.15-9,31.74,31.74,0,0,1,9.75-10.45,31.89,31.89,0,0,1,9.76,10.45,16.59,16.59,0,0,1,2.14,9,21.57,21.57,0,0,1-1.12,5.33,9.84,9.84,0,0,0-2.77-1.84" transform="translate(-38 -20.8)"/></g></svg>
