<svg xmlns="http://www.w3.org/2000/svg" viewBox="0 0 320.74 91.28"><defs><style>.cls-1{fill:#ffffff;fill-rule:evenodd;}</style></defs><title>roydon-logo-landscape</title><g id="Layer_2" data-name="Layer 2"><g id="Layer_1-2" data-name="Layer 1"><path class="cls-1" d="M50.5,90.4c1.2-6,4.54-9.05,7.68-11.62,2.8-2.3,5.44-4.22,6.69-8a13.07,13.07,0,0,1-.46,3.13c-.9,3.25-3.12,5.35-5.69,7.54C55.88,83.82,52.56,86.41,50.5,90.4Zm-.79-7.79a6.47,6.47,0,0,1-1.19,3.73A8.74,8.74,0,0,0,47,91.28a4.34,4.34,0,0,1,.43-5.11C48.27,85,49.35,84,49.71,82.61ZM43.29,90.4c-1.21-6-4.55-9.05-7.68-11.62-2.8-2.3-5.45-4.22-6.7-8a13.59,13.59,0,0,0,.46,3.13c.91,3.25,3.13,5.35,5.7,7.54C37.91,83.82,41.23,86.41,43.29,90.4ZM57.2,45.86l2.32,12.78.14.82-.79,0-.52,0L55.93,46.64a52.1,52.1,0,0,0-9-1.15h0a51.76,51.76,0,0,0-9,1.15L35.51,59.52l-.58,0-.79,0,.15-.82L36.6,45.86l.09-.5.48-.08A55.68,55.68,0,0,1,46.9,44h0a55.46,55.46,0,0,1,9.73,1.25l.48.08ZM46.9,81.42C40.14,77.77,35,73.49,31.59,67.8l.32-5.17c1.36-2.83,5.61,2.24,15-5.26,9.38,7.5,13.63,2.43,15,5.26l.31,5.17C58.84,73.49,53.66,77.77,46.9,81.42Zm21-14.6C75,74,79.05,78.52,80.28,88.72l2.3-2.78A48,48,0,0,0,92.81,64.72a54.22,54.22,0,0,0-3.35-31.2A63.39,63.39,0,0,0,70.52,8.17,55.69,55.69,0,0,0,58.29.7c9.64,8.61,22.93,22.71,27.63,34.21A50.45,50.45,0,0,1,89.06,64a43.88,43.88,0,0,1-7.31,16.8,23.6,23.6,0,0,0-4-6.4,40,40,0,0,0,4.86-16.47c.59-8.39-1.45-17.11-6.07-25.69-7-13-18-22.71-29.68-30.83C35.2,9.53,24.23,19.22,17.22,32.24c-4.62,8.58-6.66,17.3-6.07,25.69A40.1,40.1,0,0,0,16,74.4a24.11,24.11,0,0,0-4,6.4A44,44,0,0,1,4.72,64,50.54,50.54,0,0,1,7.87,34.91C13.21,21.84,26.27,9.27,37.23,0a55,55,0,0,0-14,8.17A63.46,63.46,0,0,0,4.33,33.52,54.14,54.14,0,0,0,1,64.72,48,48,0,0,0,11.21,85.94l2.3,2.78c1.22-10.2,5.31-14.71,12.4-21.9a25.72,25.72,0,0,0-7.26,4.81,55.77,55.77,0,0,1-2.93-14C15.18,50,17.07,42,21.33,34.1,26.45,24.58,35,15.2,46.89,6.7c11.89,8.5,20.44,17.88,25.57,27.4C76.72,42,78.6,50,78.07,57.67a56.06,56.06,0,0,1-2.93,14A25.91,25.91,0,0,0,67.88,66.82Z"/><path class="cls-1" d="M298.87,28.63V51.88H295V21.43h3l18.86,23.72V21.47h3.86V51.88h-3.26Zm-38.61,8a13.55,13.55,0,0,0,.75,4.48A12.35,12.35,0,0,0,263.13,45a10.23,10.23,0,0,0,3.3,2.66,9.28,9.28,0,0,0,4.29,1,9,9,0,0,0,4.37-1,10.64,10.64,0,0,0,3.28-2.75A12.2,12.2,0,0,0,280.43,41a13.89,13.89,0,0,0,.71-4.34,13.59,13.59,0,0,0-.75-4.48,11.93,11.93,0,0,0-2.15-3.82,10.58,10.58,0,0,0-3.3-2.64,9.68,9.68,0,0,0-8.59.05,10.35,10.35,0,0,0-3.28,2.7A12.29,12.29,0,0,0,261,32.28,13.4,13.4,0,0,0,260.26,36.65Zm10.42,15.44a13,13,0,0,1-5.85-1.3,14.52,14.52,0,0,1-4.53-3.48,15.55,15.55,0,0,1-2.91-5,16.28,16.28,0,0,1-1-5.71,15.8,15.8,0,0,1,1.09-5.83,16.19,16.19,0,0,1,3-4.93A14.52,14.52,0,0,1,265,22.48a13,13,0,0,1,5.72-1.27,12.49,12.49,0,0,1,5.83,1.35,14.89,14.89,0,0,1,4.51,3.54A16.2,16.2,0,0,1,284,31.05a16,16,0,0,1,1,5.65A15.8,15.8,0,0,1,284,42.53a16,16,0,0,1-3,4.91,14.41,14.41,0,0,1-4.55,3.39A13.09,13.09,0,0,1,270.68,52.09ZM244.24,36.61a15.2,15.2,0,0,0-.71-4.74,10.17,10.17,0,0,0-2.1-3.71A9.67,9.67,0,0,0,238,25.74a11.29,11.29,0,0,0-4.59-.88h-6.68V48.45h6.68a11.43,11.43,0,0,0,4.66-.9,9.34,9.34,0,0,0,3.38-2.49,11,11,0,0,0,2.06-3.75A15.13,15.13,0,0,0,244.24,36.61ZM222.89,51.88V21.43h10.54a16,16,0,0,1,6.41,1.2,12.93,12.93,0,0,1,4.61,3.26,13.64,13.64,0,0,1,2.77,4.82,18.69,18.69,0,0,1,.92,5.9,18,18,0,0,1-1,6.28,13.31,13.31,0,0,1-3,4.81,13.16,13.16,0,0,1-4.65,3.09,16.12,16.12,0,0,1-6.07,1.09ZM191.78,21.43,201,37.3l9.31-15.87h4.2L202.92,40.77V51.88h-3.86V40.68L187.53,21.43ZM158,36.65a13.55,13.55,0,0,0,.75,4.48A12.15,12.15,0,0,0,160.88,45a10,10,0,0,0,3.3,2.66,9.28,9.28,0,0,0,4.29,1,9,9,0,0,0,4.37-1,10.64,10.64,0,0,0,3.28-2.75A12.2,12.2,0,0,0,178.18,41a13.89,13.89,0,0,0,.71-4.34,13.34,13.34,0,0,0-.76-4.48A11.9,11.9,0,0,0,176,28.35a10.81,10.81,0,0,0-3.3-2.64,9.7,9.7,0,0,0-8.6.05,10.46,10.46,0,0,0-3.28,2.7,12.27,12.27,0,0,0-2.07,3.82A13.4,13.4,0,0,0,158,36.65Zm10.41,15.44a13,13,0,0,1-5.85-1.3,14.48,14.48,0,0,1-4.52-3.48,15.76,15.76,0,0,1-2.92-5,16.51,16.51,0,0,1-1-5.71,15.81,15.81,0,0,1,1.1-5.83,16,16,0,0,1,3-4.93,14.52,14.52,0,0,1,4.57-3.41,12.92,12.92,0,0,1,5.72-1.27,12.52,12.52,0,0,1,5.83,1.35,14.84,14.84,0,0,1,4.5,3.54,16.38,16.38,0,0,1,3.95,10.6,16.1,16.1,0,0,1-4.1,10.74,14.26,14.26,0,0,1-4.54,3.39A13.13,13.13,0,0,1,168.42,52.09ZM127,37.51h9.22a4.6,4.6,0,0,0,2.17-.51,5.27,5.27,0,0,0,1.65-1.4,6.82,6.82,0,0,0,1.07-2,7.44,7.44,0,0,0,.38-2.4,6.51,6.51,0,0,0-.45-2.42,7.16,7.16,0,0,0-1.2-2,5.51,5.51,0,0,0-1.75-1.37,4.78,4.78,0,0,0-2.13-.49h-9Zm-3.86,14.37V21.43h13a8.24,8.24,0,0,1,3.71.83,9.38,9.38,0,0,1,2.91,2.23,10.57,10.57,0,0,1,1.91,3.13,9.53,9.53,0,0,1,.69,3.54,10.51,10.51,0,0,1-.45,3.07,9.37,9.37,0,0,1-1.29,2.68,8.59,8.59,0,0,1-2,2.06A7.68,7.68,0,0,1,139,40.21l7.37,11.67H142l-6.95-10.94H127V51.88Z"/><path class="cls-1" d="M293.68,66.89h4.06V66.1h-4.06V63.25H298v-.79h-5.21v8.4h5.35v-.78h-4.49Zm-7.53-3.51a4,4,0,0,0-3-1.13,4.41,4.41,0,0,0,0,8.82,6.53,6.53,0,0,0,3.18-.85V66.1h-2.86v.79h2V69.7a4.86,4.86,0,0,1-2.32.59,3.63,3.63,0,0,1,0-7.26,3.17,3.17,0,0,1,2.39,1Zm-16.32.08,1.81,4.41H268Zm-2.15,5.19H272l.93,2.21h1l-3.65-8.4h-.83l-3.65,8.4h1Zm-10.14-6.19h-.85v8.4h4.76v-.78h-3.91Zm-10.21,0h-.86v8.4h4.77v-.78h-3.91Zm-8.27,8.4h.85v-8.4h-.85Zm-11.76-8.4h-.94l3.19,8.4h.85l3.27-8.4h-.93L230,69.58h0Zm-19.14,1L210,67.87h-3.64ZM206,68.65h4.29l.93,2.21h1l-3.65-8.4h-.83l-3.65,8.4h1Zm-13.22-6.19h-1.07v8.4h.86V63.67h0l5,7.19h1.07v-8.4h-.86v7.12h0Zm-8.48,8.4h.85v-8.4h-.85Zm-10.46-7.61h1.51c1.53,0,2,.65,2,1.45s-.52,1.47-2,1.47h-1.51Zm0,3.71h1.42l2.3,3.9h1l-2.42-4a2.12,2.12,0,0,0,2.15-2.17c0-1.5-1.06-2.24-2.76-2.24H173v8.4h.86Zm-10.35-3.5,1.82,4.41h-3.64Zm-2.14,5.19h4.29l.92,2.21h1l-3.65-8.4h-.83l-3.65,8.4h1ZM147,62.46h-1.3v8.4h.86V63.6h0l3,7.26h.45l3-7.26h0v7.26H154v-8.4h-1.3l-2.83,6.83Z"/></g></g></svg>