<?xml version="1.0" encoding="UTF-8" standalone="no"?>
<svg
   xmlns:dc="http://purl.org/dc/elements/1.1/"
   xmlns:cc="http://creativecommons.org/ns#"
   xmlns:rdf="http://www.w3.org/1999/02/22-rdf-syntax-ns#"
   xmlns:svg="http://www.w3.org/2000/svg"
   xmlns="http://www.w3.org/2000/svg"
   version="1.1"
   id="svg815"
   xml:space="preserve"
   viewBox="0 0 1221.6675 130.66946"><defs
     id="defs819"><clipPath
       clipPathUnits="userSpaceOnUse"
       id="clipPath831"><path
         d="M 0,841.89 H 1190.55 V 0 H 0 Z"
         id="path829" /></clipPath></defs><g
     id="g823"
     transform="matrix(1.3333333,0,0,-1.3333333,-93.255198,583.85292)"><g
   id="g825"><g
     id="g827"
     clip-path="url(#clipPath831)"><g
       id="g833"
       transform="translate(657.9551,357.0258)" /><g
       id="g837"
       transform="translate(891.791,357.2172)" /><g
       id="g841"
       transform="translate(164.3369,386.0365)" /><g
       id="g845"
       transform="translate(84.8677,355.6879)" /><g
       id="g849"
       transform="translate(150.9907,351.267)" /><g
       id="g853"
       transform="translate(136.0752,372.8373)" /><g
       id="g857"
       transform="translate(101.5488,423.7787)" /><g
       id="g861"
       transform="translate(94.832,365.0355)" /><g
       id="g865"
       transform="translate(148.5864,345.9486)" /></g></g><g
   id="text871"
   style="font-variant:normal;font-weight:300;font-stretch:normal;font-size:50px;font-family:'Lato Light';-inkscape-font-specification:Lato-Light;writing-mode:lr-tb;fill:#ffffff;fill-opacity:1;fill-rule:nonzero;stroke:none"
   transform="matrix(1,0,0,-1,206.667,376.8896)"
   aria-label="SAUL JUNCTION " />
<g
   id="text875"
   style="font-variant:normal;font-weight:normal;font-stretch:normal;font-size:50px;font-family:Lato;-inkscape-font-specification:Lato-Regular;writing-mode:lr-tb;fill:#ffffff;fill-opacity:1;fill-rule:nonzero;stroke:none"
   transform="matrix(1,0,0,-1,738.667,376.8896)"
   aria-label="MARINA"><path
     d="m -606.02344,-61 -34.54883,10.648438 -5.0332,42.5527339 c 1.325,-0.16 2.63564,-0.3541719 3.93164,-0.5761719 l 4.55469,-38.513672 31.0957,-9.583984 31.09375,9.583984 4.55664,38.513672 c 1.296,0.222 2.6086,0.4161719 3.9336,0.5761719 l -5.03516,-42.5527339 z m 0,9.054688 -27.64062,8.517578 -4.05469,34.2812496 c 12.707,-2.7969996 23.407,-8.0344996 28.5,-10.8124996 v -6.333985 h 6.39063 v 6.333985 c 5.09299,2.778 15.79104,8.0155 28.49804,10.8124996 l -4.05273,-34.2812496 z M 4.3496094,-35.824219 V 0 h 4.25 v -26.324219 c 0,-0.35 -0.015495,-0.733724 -0.048828,-1.15039 C 8.5341146,-27.891276 8.4992187,-28.316667 8.4492188,-28.75 L 21,-6.2753906 c 0.416667,0.75 1,1.125 1.75,1.125 h 0.699219 c 0.75,0 1.333333,-0.375 1.75,-1.125 l 12.27539,-22.4003904 c -0.03333,0.416666 -0.05755,0.826562 -0.07422,1.226562 -0.01667,0.4 -0.02539,0.775 -0.02539,1.125 V 0 h 4.25 v -35.824219 h -3.574219 c -0.433333,0 -0.766666,0.04167 -1,0.125 C 36.817448,-35.615885 36.591667,-35.383333 36.375,-35 L 24.25,-12.974609 c -0.233333,0.433333 -0.441667,0.865494 -0.625,1.298828 -0.183333,0.416666 -0.358724,0.859505 -0.525391,1.326172 -0.166666,-0.45 -0.342057,-0.892839 -0.52539,-1.326172 -0.166667,-0.45 -0.366276,-0.873438 -0.59961,-1.273438 L 9.5996094,-35 c -0.2166667,-0.383333 -0.4404948,-0.615885 -0.6738282,-0.699219 -0.2333333,-0.08333 -0.5666666,-0.125 -1,-0.125 z m 66.6249996,0 L 56.650391,0 h 3.75 c 0.416666,0 0.765494,-0.11627604 1.048828,-0.34960938 0.283333,-0.23333333 0.484896,-0.50078125 0.601562,-0.80078122 l 3.34961,-8.6503906 h 16.074218 l 3.34961,8.6503906 c 0.133333,0.33333331 0.334896,0.60950518 0.601562,0.82617185 C 85.692448,-0.10755208 86.041276,0 86.474609,0 h 3.75 L 75.900391,-35.824219 Z m 34.125001,0 V 0 h 4.82617 v -14.949219 h 3.67383 c 0.66667,0 1.16667,0.0901 1.5,0.273438 0.33333,0.166666 0.64245,0.451562 0.92578,0.851562 l 9.29883,12.7988284 C 125.74089,-0.34205729 126.39206,0 127.27539,0 h 4.29883 L 121.125,-14.224609 C 120.65833,-14.891276 120.12539,-15.4 119.52539,-15.75 c 1.38333,-0.316667 2.61589,-0.783724 3.69922,-1.400391 1.1,-0.616666 2.02539,-1.357942 2.77539,-2.224609 0.76667,-0.883333 1.35,-1.874609 1.75,-2.974609 0.4,-1.1 0.59961,-2.284115 0.59961,-3.550782 0,-1.516666 -0.25872,-2.882942 -0.77539,-4.099609 -0.51667,-1.233333 -1.31511,-2.283724 -2.39844,-3.150391 -1.06667,-0.866666 -2.42617,-1.524609 -4.07617,-1.974609 -1.65,-0.466667 -3.60833,-0.699219 -5.875,-0.699219 z m 41.70117,0 V 0 h 4.84961 v -35.824219 z m 23.09961,0 V 0 h 4.25 v -25.525391 c 0,-0.333333 -0.009,-0.699609 -0.0254,-1.099609 -0.0167,-0.4 -0.0409,-0.807943 -0.0742,-1.224609 L 194.77539,-0.875 c 0.25,0.31666667 0.5,0.54244792 0.75,0.67578125 C 195.79206,-0.06588542 196.11667,0 196.5,0 h 2.44922 v -35.824219 h -4.25 v 25.375 c 0,0.383334 0.009,0.7825523 0.0254,1.199219 0.0167,0.4 0.0496,0.8166667 0.0996,1.25 l -20.75,-27 c -0.26667,-0.333333 -0.50794,-0.550391 -0.72461,-0.650391 -0.2,-0.116666 -0.51589,-0.173828 -0.94922,-0.173828 z m 58.375,0 L 213.94922,0 h 3.75 c 0.41667,0 0.76745,-0.11627604 1.05078,-0.34960938 0.28333,-0.23333333 0.48294,-0.50078125 0.59961,-0.80078122 l 3.34961,-8.6503906 h 16.07617 l 3.34961,8.6503906 c 0.13333,0.33333331 0.33294,0.60950518 0.59961,0.82617185 C 242.99128,-0.10755208 243.34206,0 243.77539,0 h 3.75 l -14.32617,-35.824219 z m -746.25,0.04883 c -1.63333,0 -3.09167,0.258724 -4.375,0.775391 -1.26667,0.5 -2.3345,1.175391 -3.20117,2.025391 -0.86667,0.833333 -1.52461,1.80039 -1.97461,2.90039 -0.45,1.1 -0.67383,2.240495 -0.67383,3.423828 0,1.516667 0.25,2.784115 0.75,3.800782 0.51667,1 1.19011,1.842057 2.02344,2.52539 0.83333,0.666667 1.77617,1.215104 2.82617,1.648438 1.06667,0.433333 2.15872,0.825781 3.27539,1.175781 1.11667,0.35 2.2,0.707552 3.25,1.074219 1.06667,0.366666 2.01628,0.825 2.84961,1.375 0.83333,0.533333 1.5,1.208724 2,2.02539 0.51667,0.8 0.77539,1.826172 0.77539,3.0761722 0,1.15 -0.20156,2.2333334 -0.60156,3.25 -0.4,1 -0.98333,1.8662761 -1.75,2.5996094 -0.75,0.7333334 -1.67344,1.3166667 -2.77344,1.75 -1.1,0.4166667 -2.35,0.625 -3.75,0.625 -1.01667,0 -1.92656,-0.1007812 -2.72656,-0.3007812 -0.8,-0.2 -1.50833,-0.4412761 -2.125,-0.7246094 -0.61667,-0.3 -1.15833,-0.6158854 -1.625,-0.9492188 -0.46667,-0.3499999 -0.86589,-0.6678385 -1.19922,-0.9511718 -0.33333,-0.3 -0.61628,-0.55 -0.84961,-0.75 -0.23333,-0.2 -0.42617,-0.2988282 -0.57617,-0.2988282 -0.26667,0 -0.49922,0.1250001 -0.69922,0.375 l -0.69922,1.0996094 c 1.26667,1.4333334 2.7405,2.5670573 4.42383,3.40039065 1.68333,0.81666667 3.69206,1.22460937 6.02539,1.22460937 1.8,0 3.40078,-0.27617187 4.80078,-0.82617187 1.4,-0.56666667 2.58216,-1.33216145 3.54883,-2.29882815 0.96667,-0.9666666 1.70117,-2.1003906 2.20117,-3.4003906 0.51667,-1.3166667 0.77344,-2.7158854 0.77344,-4.199219 0,-1.45 -0.25677,-2.658333 -0.77344,-3.625 -0.5,-0.983333 -1.16667,-1.809896 -2,-2.476562 -0.83333,-0.666667 -1.78489,-1.215104 -2.85156,-1.648438 -1.05,-0.45 -2.13333,-0.859896 -3.25,-1.226562 -1.11667,-0.366667 -2.20677,-0.732943 -3.27344,-1.09961 -1.05,-0.383333 -1.99284,-0.85039 -2.82617,-1.40039 -0.83333,-0.55 -1.50872,-1.216667 -2.02539,-2 -0.5,-0.783334 -0.75,-1.77461 -0.75,-2.97461 0,-0.916666 0.16667,-1.791666 0.5,-2.625 0.35,-0.833333 0.85,-1.565885 1.5,-2.199218 0.66667,-0.633334 1.4845,-1.133334 2.45117,-1.5 0.98333,-0.366667 2.11706,-0.550782 3.40039,-0.550782 1.28333,0 2.35794,0.157943 3.22461,0.47461 0.88333,0.316666 1.61589,0.667448 2.19922,1.050781 0.58333,0.366667 1.04167,0.708724 1.375,1.025391 0.35,0.3 0.63294,0.449218 0.84961,0.449218 0.28333,0 0.50039,-0.140494 0.65039,-0.423828 l 0.59961,-1.15039 c -1.2,-1.2 -2.53333,-2.092448 -4,-2.675782 -1.45,-0.583333 -3.0905,-0.875 -4.92383,-0.875 z m 311.67383,0 c -2.56667,0 -4.9155,0.442839 -7.04883,1.326172 -2.11667,0.866667 -3.94128,2.099219 -5.47461,3.699219 -1.51667,1.583333 -2.70078,3.482552 -3.55078,5.699219 -0.83333,2.216666 -1.25,4.668229 -1.25,7.351562 0,2.733334 0.40794,5.215886 1.22461,7.449219 0.81667,2.2333333 1.95039,4.141276 3.40039,5.7246094 1.46667,1.5666666 3.21667,2.7837239 5.25,3.6503906 2.05,0.85 4.3,1.27539062 6.75,1.27539062 1.46667,0 2.80872,-0.125 4.02539,-0.37499999 1.23333,-0.23333334 2.35833,-0.56666667 3.375,-1.00000001 1.03333,-0.45000002 1.98294,-0.98294272 2.84961,-1.59960942 0.86667,-0.6333333 1.66706,-1.3416666 2.40039,-2.125 l -1,-1.0761718 c -0.11667,-0.1166667 -0.25911,-0.1738282 -0.42578,-0.1738282 -0.1,10e-8 -0.19206,0.024219 -0.27539,0.074219 -0.0667,0.033333 -0.14128,0.083724 -0.22461,0.1503906 -0.7,0.65 -1.40833,1.2158854 -2.125,1.6992188 -0.71667,0.4833333 -1.49089,0.891276 -2.32422,1.2246094 -0.83333,0.3333333 -1.75,0.5833333 -2.75,0.75 -0.98333,0.1666666 -2.10833,0.25 -3.375,0.25 -2.01667,0 -3.89167,-0.3575521 -5.625,-1.0742188 -1.71667,-0.7333333 -3.20794,-1.775 -4.47461,-3.125 -1.26667,-1.3666667 -2.25989,-3.0333333 -2.97656,-5 -0.71667,-1.966667 -1.07422,-4.199219 -1.07422,-6.699219 0,-2.433333 0.35755,-4.626172 1.07422,-6.576172 0.73333,-1.966666 1.75078,-3.633333 3.05078,-5 1.3,-1.383333 2.85039,-2.440494 4.65039,-3.173828 1.8,-0.75 3.77383,-1.125 5.92383,-1.125 1.16667,0 2.20833,0.0901 3.125,0.273438 0.91667,0.166666 1.72578,0.383724 2.42578,0.65039 0.7,0.25 1.30078,0.532943 1.80078,0.84961 0.51667,0.3 0.94883,0.584896 1.29883,0.851562 0.36667,0.25 0.66706,0.465104 0.90039,0.648438 0.23333,0.166666 0.42422,0.25 0.57422,0.25 0.28333,0 0.49167,-0.09883 0.625,-0.298828 l 0.77539,-1.125 c -0.78333,-0.7 -1.58372,-1.316276 -2.40039,-1.84961 -0.81667,-0.533333 -1.69167,-0.976172 -2.625,-1.326172 -0.91667,-0.366666 -1.90794,-0.640885 -2.97461,-0.824218 -1.06667,-0.2 -2.24206,-0.300782 -3.52539,-0.300782 z m 105.25,0 c -2.48333,0 -4.75755,0.434115 -6.82422,1.300782 -2.06667,0.866666 -3.84089,2.090494 -5.32422,3.673828 -1.48333,1.566666 -2.64323,3.467838 -3.47656,5.701172 -0.81667,2.216666 -1.22461,4.683724 -1.22461,7.40039 0,2.733334 0.40794,5.215886 1.22461,7.449219 0.83333,2.2166667 1.99323,4.1158854 3.47656,5.6992188 1.48333,1.5666666 3.25755,2.7837239 5.32422,3.65039058 2.06667,0.84999999 4.34089,1.27539062 6.82422,1.27539062 2.516665,0 4.808332,-0.42539063 6.874999,-1.27539062 2.066666,-0.86666668 3.842838,-2.08372398 5.326172,-3.65039058 1.483333,-1.5833334 2.632552,-3.4825521 3.449218,-5.6992188 0.816667,-2.233333 1.22461,-4.715885 1.22461,-7.449219 0,-2.716666 -0.407943,-5.183724 -1.22461,-7.40039 -0.816666,-2.233334 -1.965885,-4.141276 -3.449218,-5.72461 -1.483334,-1.583333 -3.259506,-2.80039 -5.326172,-3.65039 -2.066667,-0.866667 -4.358334,-1.300782 -6.874999,-1.300782 z M -480.92578,-35.375 -495.40039,0 h 1.95117 c 0.23333,0 0.43294,-0.06588542 0.59961,-0.19921875 0.16667,-0.13333333 0.28294,-0.29322917 0.34961,-0.4765625 l 4.15039,-10.27343775 h 17.375 l 4.17383,10.27343775 c 0.0833,0.2 0.20156,0.36666667 0.35156,0.5 C -466.29922,-0.05911458 -466.10833,0 -465.875,0 h 1.97461 L -478.375,-35.375 Z m 32.10156,0 V -13.5 c 0,1.95 0.30716,3.7746094 0.92383,5.4746094 0.61667,1.6833333 1.50039,3.1591146 2.65039,4.4257812 1.16667,1.25 2.57461,2.2325521 4.22461,2.94921878 1.66667,0.71666666 3.53294,1.07617187 5.59961,1.07617187 2.06667,0 3.92617,-0.35950521 5.57617,-1.07617187 1.66667,-0.71666668 3.07461,-1.69921878 4.22461,-2.94921878 1.16667,-1.2666666 2.05911,-2.7424479 2.67578,-4.4257812 0.61667,-1.7 0.92383,-3.5246094 0.92383,-5.4746094 v -21.875 h -2.54883 V -13.5 c 0,1.65 -0.25,3.191667 -0.75,4.625 -0.48333,1.4166667 -1.19167,2.6492187 -2.125,3.6992188 -0.93333,1.0499999 -2.07578,1.8765625 -3.42578,2.4765624 -1.33333,0.5833334 -2.85078,0.875 -4.55078,0.875 -1.7,10e-8 -3.22422,-0.3003906 -4.57422,-0.9003906 -1.33333,-0.6 -2.46706,-1.4246093 -3.40039,-2.4746094 -0.91667,-1.0499999 -1.625,-2.2845052 -2.125,-3.7011718 -0.48333,-1.4333334 -0.72461,-2.9750004 -0.72461,-4.6250004 V -35.375 Z m 46.67383,0 V 0 h 19.32617 v -2.1757812 h -16.77539 V -35.375 Z m 65.5,0 v 23.625 c 0,1.7 -0.19089,3.1825521 -0.57422,4.4492188 -0.36667,1.25 -0.90833,2.2916666 -1.625,3.125 -0.71667,0.8166666 -1.58294,1.4261718 -2.59961,1.8261718 -1.01667,0.4 -2.15911,0.5996094 -3.42578,0.5996094 -0.5,0 -0.94089,-0.024219 -1.32422,-0.074219 -0.36667,-0.066667 -0.7,-0.1345052 -1,-0.2011718 -0.28333,-0.066667 -0.53333,-0.1238281 -0.75,-0.1738282 -0.2,-0.066667 -0.37539,-0.1015624 -0.52539,-0.1015624 -0.23333,-1e-7 -0.4,0.059114 -0.5,0.1757812 -0.0833,0.1166667 -0.14245,0.2503906 -0.17578,0.4003906 -0.0167,0.2333334 -0.0409,0.4658854 -0.0742,0.6992188 -0.0167,0.23333331 -0.0428,0.46783852 -0.0762,0.70117185 0.81667,0.25 1.60833,0.43216146 2.375,0.54882813 0.76667,0.11666666 1.52539,0.17578125 2.27539,0.17578124 1.63333,0 3.10039,-0.25872395 4.40039,-0.77539062 1.31667,-0.53333333 2.42422,-1.316276 3.32422,-2.3496094 0.91667,-1.0333333 1.61823,-2.3095052 2.10156,-3.8261718 0.5,-1.5166667 0.75,-3.2666667 0.75,-5.2499998 V -35.375 Z m 20.75,0 V -13.5 c 0,1.95 0.30911,3.7746094 0.92578,5.4746094 0.61667,1.6833333 1.50039,3.1591146 2.65039,4.4257812 1.16667,1.25 2.57461,2.2325521 4.22461,2.94921878 1.66667,0.71666666 3.53294,1.07617187 5.59961,1.07617187 2.06667,0 3.92422,-0.35950521 5.57422,-1.07617187 1.66667,-0.71666668 3.07656,-1.69921878 4.22656,-2.94921878 1.16667,-1.2666666 2.05716,-2.7424479 2.67383,-4.4257812 0.61667,-1.7 0.92578,-3.5246094 0.92578,-5.4746094 v -21.875 h -2.55078 V -13.5 c 0,1.65 -0.25,3.191667 -0.75,4.625 -0.48333,1.4166667 -1.19167,2.6492187 -2.125,3.6992188 -0.93333,1.0499999 -2.07383,1.8765624 -3.42383,2.4765624 -1.33333,0.5833334 -2.85078,0.875 -4.55078,0.875 -1.7,10e-8 -3.22422,-0.3003906 -4.57422,-0.9003906 -1.33333,-0.6 -2.46706,-1.4246093 -3.40039,-2.4746094 -0.91667,-1.0499999 -1.625,-2.2845052 -2.125,-3.7011718 -0.48333,-1.4333334 -0.72461,-2.9750004 -0.72461,-4.6250004 V -35.375 Z m 46.67578,0 V 0 H -267 v -29.775391 c 0,-0.45 -0.0242,-0.923828 -0.0742,-1.423828 l 23,30.699219 c 0.23333,0.33333333 0.5405,0.5 0.92383,0.5 h 1.22461 v -35.375 h -2.25 v 29.6757812 c 0,0.4666667 0.0262,0.9492188 0.0762,1.4492188 L -267,-34.900391 c -0.15,-0.2 -0.29245,-0.325 -0.42578,-0.375 -0.13333,-0.06667 -0.3155,-0.09961 -0.54883,-0.09961 z m 87.17383,0 v 2.175781 h 12.5 V 0 H -167 v -33.199219 h 12.42578 V -35.375 Z m 44.25,0 V 0 h 2.57617 v -35.375 z m 71.624999,0 V 0 h 2.226562 v -29.775391 c 0,-0.45 -0.02617,-0.923828 -0.07617,-1.423828 l 23,30.699219 c 0.233334,0.33333333 0.542448,0.5 0.925782,0.5 H -38.875 v -35.375 h -2.25 v 29.6757812 c 0,0.4666667 0.02422,0.9492188 0.07422,1.4492188 l -22.898438,-30.650391 c -0.15,-0.2 -0.292448,-0.325 -0.425781,-0.375 -0.133333,-0.06667 -0.317448,-0.09961 -0.550781,-0.09961 z m -34.874999,1.800781 c 2.133332,0 4.076171,0.366276 5.826171,1.09961 1.75,0.716666 3.241276,1.758333 4.474609,3.125 1.25,1.366666 2.217057,3.033333 2.900391,5 0.683333,1.966666 1.02539,4.183724 1.02539,6.65039 0,2.483334 -0.342057,4.707162 -1.02539,6.673828 -0.683334,1.9500004 -1.650391,3.6079431 -2.900391,4.9746098 -1.233333,1.3666666 -2.724609,2.4083333 -4.474609,3.125 -1.75,0.7166666 -3.692839,1.0761718 -5.826171,1.0761718 -2.1,0 -4.02344,-0.3595052 -5.77344,-1.0761718 -1.73333,-0.7166667 -3.23333,-1.7583334 -4.5,-3.125 -1.25,-1.3666667 -2.22578,-3.0246094 -2.92578,-4.9746098 -0.68333,-1.966666 -1.02539,-4.190494 -1.02539,-6.673828 0,-2.466666 0.34206,-4.683724 1.02539,-6.65039 0.7,-1.966667 1.67578,-3.633334 2.92578,-5 1.26667,-1.366667 2.76667,-2.408334 4.5,-3.125 1.75,-0.733334 3.67344,-1.09961 5.77344,-1.09961 z m -378.59961,0.75 c 0.11667,0.4 0.23294,0.781771 0.34961,1.148438 0.11667,0.35 0.23489,0.667838 0.35156,0.951172 l 7.22461,17.875 h -15.84961 l 7.22461,-17.84961 c 0.11667,-0.3 0.23294,-0.626562 0.34961,-0.976562 0.11667,-0.366667 0.23294,-0.748438 0.34961,-1.148438 z M 109.92578,-32 h 5.29883 c 2.78333,0 4.87539,0.541667 6.27539,1.625 1.41667,1.083333 2.125,2.690885 2.125,4.824219 0,1.05 -0.18411,2.008333 -0.55078,2.875 -0.36667,0.866666 -0.91511,1.616666 -1.64844,2.25 -0.71667,0.616666 -1.61784,1.101172 -2.70117,1.451172 -1.06667,0.333333 -2.30794,0.5 -3.72461,0.5 h -5.07422 z m -36.499999,0.75 c 0.35,1.35 0.707552,2.475 1.074219,3.375 l 5.625,14.574219 H 66.75 l 5.625,-14.548828 c 0.166667,-0.433334 0.333333,-0.933334 0.5,-1.5 0.183333,-0.583334 0.367448,-1.217058 0.550781,-1.900391 z m 157.298829,0 c 0.35,1.35 0.7095,2.475 1.07617,3.375 l 5.625,14.574219 h -13.375 l 5.625,-14.548828 c 0.16667,-0.433334 0.33333,-0.933334 0.5,-1.5 0.18333,-0.583334 0.3655,-1.217058 0.54883,-1.900391 z M -602.5918,-16.371094 V 4.0527344 c 11.303,4.147 24.00058,6.4944376 34.14258,7.7734376 4.713,0.596 8.86627,0.966266 12.07227,1.197266 0.674,-4.0240005 1.11328,-9.0735943 1.11328,-15.4335942 0,0 -19.16813,6.6270625 -47.32813,-13.9609378 z m -7.09961,0.02734 c -28.161,20.588 -47.32812,13.9628906 -47.32812,13.9628906 0,6.36 0.43928,11.4086407 1.11328,15.4316404 3.206,-0.23 7.35731,-0.602265 12.07031,-1.197265 10.143,-1.28 22.84153,-3.6254379 34.14453,-7.7734379 z m 7.09961,22.5429688 V 23.384766 c 0,0 1.68077,0.604156 4.50977,1.410156 3.407,0.502 6.86725,0.821125 10.40625,0.828125 12.295,0.021 22.69526,-4.201391 30.57226,-9.025391 0.122,-0.513 0.24343,-1.026984 0.35743,-1.583984 -3.206,-0.234 -7.30508,-0.604406 -11.95508,-1.191406 -10.03,-1.268 -22.54063,-3.553047 -33.89063,-7.6230472 z m -7.09961,0.027344 c -11.35,4.0709995 -23.86062,6.3550465 -33.89062,7.6230465 -4.649,0.587 -8.75103,0.956407 -11.95703,1.191407 0.508,2.489 1.11023,4.500156 1.74023,6.160156 15.658,-5.924 29.65942,-1.969688 44.10742,1.320312 z m 63.66993,3.2539063 c 0,0 -17.2406,21.5089372 -44.0586,21.4609372 -26.818,-0.047 -48.80548,-19.228453 -78.64648,6.060547 0,0 22.11328,-7.202828 35.23828,-4.423828 13.125,2.779 75.0738,12.247344 87.4668,-23.0976562 z M 171.63086,19.503906 c -0.757,0 -1.42967,0.11561 -2.01367,0.34961 -0.584,0.233 -1.07461,0.545593 -1.47461,0.933593 -0.4,0.389 -0.70506,0.834891 -0.91406,1.337891 -0.209,0.503 -0.3125,1.022547 -0.3125,1.560547 0,0.673 0.1035,1.237359 0.3125,1.693359 0.209,0.457 0.48421,0.838578 0.82421,1.142578 0.34,0.304 0.72797,0.551188 1.16797,0.742188 0.437,0.191 0.88489,0.359859 1.33789,0.505859 0.453,0.144 0.89794,0.285828 1.33594,0.423828 0.44,0.138 0.83092,0.306907 1.16992,0.503907 0.34,0.199 0.61327,0.444281 0.82227,0.738281 0.209,0.294 0.3125,0.672812 0.3125,1.132812 0,0.418 -0.0709,0.794766 -0.21289,1.134766 -0.141,0.34 -0.34338,0.631 -0.60938,0.875 -0.266,0.245 -0.59065,0.433359 -0.97265,0.568359 -0.383,0.134 -0.81669,0.203125 -1.30469,0.203125 -0.39,0 -0.73878,-0.03828 -1.05078,-0.113281 -0.312,-0.074 -0.58999,-0.16825 -0.83399,-0.28125 -0.244,-0.113 -0.46134,-0.236094 -0.65234,-0.371094 -0.191,-0.135 -0.36077,-0.258093 -0.50977,-0.371093 -0.149,-0.113 -0.28243,-0.20725 -0.39843,-0.28125 -0.117,-0.074 -0.2205,-0.111328 -0.3125,-0.111329 -0.1,0 -0.19144,0.02513 -0.27344,0.07813 -0.081,0.052 -0.15003,0.119265 -0.20703,0.197265 l -0.5918,0.976563 c 0.573,0.61 1.26231,1.092218 2.07031,1.449218 0.806,0.358 1.70532,0.53711 2.69532,0.53711 0.808,0 1.52615,-0.125047 2.16015,-0.373047 0.633,-0.247 1.16947,-0.586531 1.60547,-1.019531 0.435,-0.431 0.76419,-0.938485 0.99219,-1.521485 0.226,-0.585 0.33984,-1.21 0.33984,-1.875 0,-0.63 -0.10445,-1.16175 -0.31445,-1.59375 -0.208,-0.431 -0.48513,-0.794797 -0.82813,-1.091797 -0.344,-0.298 -0.73096,-0.544281 -1.16796,-0.738281 -0.434,-0.194 -0.88189,-0.370344 -1.33789,-0.527344 -0.457,-0.155 -0.9019,-0.304218 -1.3379,-0.449218 -0.435,-0.145 -0.82396,-0.318625 -1.16796,-0.515625 -0.342,-0.2 -0.61913,-0.437797 -0.82813,-0.716797 -0.21,-0.28 -0.3125,-0.631641 -0.3125,-1.056641 0,-0.332 0.0606,-0.640734 0.18164,-0.927734 0.12,-0.287 0.29816,-0.538 0.53516,-0.75 0.237,-0.212 0.53086,-0.379906 0.88086,-0.503906 0.35,-0.124 0.75579,-0.185547 1.21679,-0.185547 0.488,0 0.9031,0.05969 1.2461,0.179687 0.343,0.12 0.63686,0.254438 0.88086,0.398438 0.244,0.146 0.44928,0.277437 0.61328,0.398437 0.162,0.121 0.30283,0.179688 0.42383,0.179688 0.106,0 0.19553,-0.02512 0.26953,-0.07813 0.075,-0.054 0.14398,-0.134235 0.20898,-0.240235 l 0.49805,-0.976562 c -0.531,-0.509 -1.14675,-0.898969 -1.84375,-1.167969 -0.697,-0.269 -1.46936,-0.402344 -2.31836,-0.402344 z m 70.87305,0 c -0.757,0 -1.42772,0.11561 -2.01172,0.34961 -0.583,0.233 -1.07461,0.545593 -1.47461,0.933593 -0.4,0.389 -0.70506,0.834891 -0.91406,1.337891 -0.208,0.503 -0.31446,1.022547 -0.31446,1.560547 0,0.673 0.10646,1.237359 0.31446,1.693359 0.209,0.457 0.48421,0.838578 0.82421,1.142578 0.339,0.304 0.72797,0.551188 1.16797,0.742188 0.438,0.191 0.88294,0.359859 1.33594,0.505859 0.454,0.144 0.89889,0.285828 1.33789,0.423828 0.439,0.138 0.82897,0.306907 1.16797,0.503907 0.34,0.199 0.61622,0.444281 0.82422,0.738281 0.209,0.294 0.3125,0.672812 0.3125,1.132812 0,0.418 -0.0719,0.794766 -0.21289,1.134766 -0.142,0.34 -0.34338,0.631 -0.60938,0.875 -0.266,0.245 -0.58965,0.433359 -0.97265,0.568359 -0.382,0.134 -0.81669,0.203125 -1.30469,0.203125 -0.39,0 -0.74074,-0.03828 -1.05273,-0.113281 -0.31101,-0.074 -0.58804,-0.16825 -0.83204,-0.28125 -0.244,-0.113 -0.46329,-0.236094 -0.65429,-0.371094 -0.191,-0.135 -0.35982,-0.258093 -0.50782,-0.371093 -0.15,-0.113 -0.28339,-0.20725 -0.40039,-0.28125 -0.117,-0.074 -0.2205,-0.111329 -0.3125,-0.111329 -0.1,0 -0.19048,0.02513 -0.27148,0.07813 -0.082,0.052 -0.15103,0.119265 -0.20703,0.197265 l -0.59375,0.976563 c 0.573,0.61 1.26231,1.092218 2.07031,1.449218 0.807,0.358 1.70531,0.53711 2.69531,0.53711 0.808,0 1.52911,-0.125047 2.16211,-0.373047 0.634,-0.247 1.16847,-0.586531 1.60547,-1.019531 0.434,-0.431 0.76419,-0.938485 0.99219,-1.521485 0.227,-0.585 0.33984,-1.21 0.33984,-1.875 0,-0.63 -0.10545,-1.16175 -0.31445,-1.59375 -0.209,-0.431 -0.48513,-0.794797 -0.82813,-1.091797 -0.343,-0.298 -0.73196,-0.544281 -1.16796,-0.738281 -0.435,-0.194 -0.8819,-0.370344 -1.33789,-0.527344 -0.456,-0.155 -0.9019,-0.304218 -1.3379,-0.449218 -0.435,-0.145 -0.82496,-0.318625 -1.16796,-0.515625 -0.343,-0.2 -0.61913,-0.437797 -0.82813,-0.716797 -0.209,-0.28 -0.3125,-0.631641 -0.3125,-1.056641 0,-0.332 0.0587,-0.640734 0.17969,-0.927734 0.12,-0.287 0.29911,-0.538 0.53711,-0.75 0.237,-0.212 0.53086,-0.379906 0.88086,-0.503906 0.351,-0.124 0.75384,-0.185547 1.21484,-0.185547 0.488,0 0.90605,0.05969 1.24805,0.179687 0.343,0.12 0.63586,0.254438 0.88086,0.398438 0.243,0.146 0.44832,0.277437 0.61132,0.398437 0.16201,0.121 0.30283,0.179688 0.42383,0.179688 0.106,0 0.19849,-0.02512 0.27149,-0.07813 0.075,-0.054 0.14303,-0.134235 0.20703,-0.240235 l 0.5,-0.976562 c -0.531,-0.509 -1.14675,-0.898969 -1.84375,-1.167969 -0.697,-0.269 -1.47131,-0.402344 -2.32031,-0.402344 z m -89.38086,0.167969 v 15.216797 h 9.375 l 0.0117,-1.677734 h -7.32618 v -5.19336 h 5.92383 v -1.613281 h -5.92383 v -5.054688 h 7.31446 v -1.677734 z m 26.40625,0 v 1.730469 h 4.93945 v 13.486328 h 2.04883 V 21.402344 h 4.92578 v -1.730469 z m 19.00586,0 -6.08204,15.216797 h 1.5918 c 0.178,0 0.32431,-0.05039 0.44531,-0.150391 0.121,-0.097 0.20115,-0.21189 0.24415,-0.33789 l 1.42382,-3.675782 h 6.82618 l 1.42382,3.675782 c 0.057,0.141 0.14091,0.257609 0.25391,0.349609 0.113,0.092 0.26427,0.138672 0.44727,0.138672 h 1.59179 l -6.08398,-15.216797 z m 9.17578,0 v 1.730469 h 4.93554 v 13.486328 h 2.04883 V 21.402344 h 4.92774 v -1.730469 z m 16.28711,0 v 15.216797 h 9.375 l 0.0117,-1.677734 h -7.32618 v -5.19336 h 5.92383 v -1.613281 h -5.92383 v -5.054688 h 7.31446 v -1.677734 z m -134.898441,0.02148 c -0.695,0 -1.313468,0.108219 -1.855468,0.324219 -0.541,0.216 -0.995282,0.503328 -1.363282,0.861328 -0.367,0.357 -0.64789,0.769328 -0.83789,1.236328 -0.192,0.468 -0.28711,0.952078 -0.28711,1.455078 0,0.644 0.106266,1.179422 0.322266,1.607422 0.217,0.429 0.501469,0.786266 0.855469,1.072266 0.354,0.286 0.757031,0.522031 1.207031,0.707031 0.449,0.184 0.910766,0.348047 1.384766,0.498047 0.474,0.148 0.935765,0.301031 1.384765,0.457031 0.448,0.155 0.851078,0.348125 1.205078,0.578125 0.354,0.23 0.638469,0.518328 0.855469,0.861328 0.215,0.344001 0.324219,0.779547 0.324219,1.310547 0,0.487 -0.08586,0.947 -0.25586,1.375 -0.17,0.429 -0.414328,0.798375 -0.736328,1.109375 -0.323,0.312 -0.717546,0.557282 -1.185546,0.738282 -0.467,0.181 -0.996797,0.271484 -1.591797,0.271484 -0.432,0 -0.818203,-0.04391 -1.158203,-0.128906 -0.340001,-0.085 -0.639391,-0.1885 -0.900391,-0.3125 -0.263,-0.123 -0.492406,-0.258297 -0.691406,-0.404297 -0.199,-0.144 -0.369766,-0.278344 -0.509766,-0.402344 -0.142,-0.124 -0.261328,-0.229453 -0.361328,-0.314453 -0.098,-0.084 -0.180141,-0.125 -0.244141,-0.125 -0.113,0 -0.211875,0.0512 -0.296875,0.158203 l -0.296875,0.466797 c 0.537,0.609 1.163907,1.088453 1.878906,1.439453 0.715001,0.351 1.567594,0.525391 2.558594,0.525391 0.764,0 1.444063,-0.119469 2.039063,-0.355469 0.595,-0.237 1.096812,-0.562656 1.507812,-0.972656 0.41,-0.41 0.722453,-0.893219 0.939453,-1.449219 0.216,-0.556 0.322266,-1.149297 0.322266,-1.779297 0,-0.616 -0.106266,-1.129922 -0.322266,-1.544922 -0.217,-0.414 -0.500515,-0.761922 -0.853515,-1.044922 -0.355,-0.283 -0.758031,-0.518078 -1.207031,-0.705078 -0.450001,-0.188 -0.911766,-0.360625 -1.384766,-0.515625 -0.475,-0.155 -0.938719,-0.311656 -1.386719,-0.472656 -0.449,-0.159 -0.850078,-0.356844 -1.205078,-0.589844 -0.353,-0.234 -0.637516,-0.516609 -0.853516,-0.849609 -0.216,-0.333 -0.324218,-0.752719 -0.324218,-1.261719 0,-0.389 0.0718,-0.762187 0.216797,-1.117187 0.144999,-0.353 0.358671,-0.663641 0.638671,-0.931641 0.28,-0.269 0.625063,-0.483672 1.039063,-0.638672 0.415,-0.156 0.894453,-0.234375 1.439453,-0.234375 0.545,0 1.003,0.06812 1.375,0.203125 0.372,0.134 0.682687,0.280453 0.929687,0.439453 0.248001,0.159 0.443844,0.305547 0.589844,0.435547 0.144,0.131 0.261516,0.197266 0.353516,0.197266 0.12,0 0.213344,-0.06064 0.277344,-0.181641 l 0.253906,-0.488281 c -0.51,-0.51 -1.075359,-0.886766 -1.69336,-1.134766 -0.62,-0.248 -1.317703,-0.373047 -2.095703,-0.373047 z m -170.90625,0.169922 v 15.025391 h 8.208985 v -0.923828 h -7.113282 V 19.863281 Z m 17.074219,0 -6.148437,15.025391 h 0.828125 c 0.1,0 0.185859,-0.02894 0.255859,-0.08594 0.07,-0.056 0.119438,-0.123171 0.148437,-0.201172 l 1.761719,-4.363281 h 7.38086 l 1.761718,4.363281 c 0.035,0.085 0.08444,0.155032 0.148438,0.207032 0.064,0.053 0.146141,0.08008 0.244141,0.08008 h 0.839843 l -6.146484,-15.025391 z m 11.837891,0 v 15.025391 h 1.095703 v -7.242188 h 0.964844 c 0.17,0 0.309921,0.0093 0.419922,0.02734 0.109999,0.017 0.205109,0.04594 0.287109,0.08594 0.081,0.039 0.154656,0.08463 0.222656,0.140625 0.067,0.058 0.138797,0.126125 0.216797,0.203125 l 6.351562,6.498046 c 0.078,0.100001 0.156282,0.170797 0.238282,0.216797 0.081,0.047 0.214437,0.07031 0.398437,0.07031 h 0.88086 l -6.91211,-7.220703 c -0.121,-0.143 -0.241328,-0.256703 -0.361328,-0.345703 -0.12,-0.089 -0.254344,-0.153313 -0.402344,-0.195313 0.128,-0.05 0.24075,-0.114406 0.34375,-0.191406 0.102,-0.079 0.220469,-0.187078 0.355469,-0.330078 l 6.5625,-6.742188 h -0.871094 c -0.141,0 -0.264187,0.02245 -0.367187,0.06445 -0.102,0.043 -0.2065,0.123141 -0.3125,0.244141 l -6.0625,6.232422 c -0.078,0.078 -0.15075,0.145266 -0.21875,0.197265 -0.067,0.053 -0.139703,0.09309 -0.220703,0.121094 -0.081,0.029 -0.172485,0.04759 -0.271485,0.05859 -0.099,0.01 -0.216609,0.01563 -0.349609,0.01563 h -0.892578 v -6.933594 z m 15.609375,0 v 15.025391 h 9.005859 l 0.01953,-0.902344 h -7.93164 v -6.265625 h 6.583984 v -0.880859 h -6.583984 v -6.074219 h 7.912109 v -0.902344 z m 14.439453,0 v 15.025391 h 8.207031 V 33.964844 H -21.75 V 19.863281 Z m 17.0742186,0 -6.1484376,15.025391 h 0.828125 c 0.1,0 0.18586,-0.02894 0.255859,-0.08594 0.071,-0.056 0.120438,-0.123171 0.148438,-0.201172 l 1.7617188,-4.363281 h 7.3789062 l 1.76367188,4.363281 c 0.036,0.085 0.0844375,0.155032 0.1484375,0.207032 0.064,0.053 0.14614062,0.08008 0.24414062,0.08008 H 1.4472656 L -4.6992188,19.863281 Z m 11.8378906,0 V 34.888672 H 7.0234375 V 22.242188 c 0,-0.185 -0.011203,-0.38175 -0.033203,-0.59375 L 16.75,34.677734 l 0.173828,0.16211 c 0.06,0.032 0.135516,0.04883 0.228516,0.04883 h 0.509765 V 19.863281 H 16.716797 V 32.46875 c 0,0.198 0.0112,0.402234 0.0332,0.615234 L 7.0136719,20.066406 c -0.065,-0.085 -0.1217813,-0.141015 -0.1757813,-0.166015 -0.053,-0.024 -0.1304687,-0.03711 -0.2304687,-0.03711 z m 18.1582028,0 v 15.025391 h 5.488282 c 1.061,0 2.035015,-0.173484 2.916015,-0.521484 0.881,-0.347001 1.635625,-0.845094 2.265625,-1.496094 0.63,-0.652 1.117844,-1.442141 1.464844,-2.369141 0.347,-0.927 0.521484,-1.969859 0.521484,-3.130859 0,-1.153 -0.174484,-2.195094 -0.521484,-3.121094 -0.347,-0.928 -0.834844,-1.718141 -1.464844,-2.369141 -0.63,-0.652 -1.384625,-1.150093 -2.265625,-1.496093 -0.881,-0.348 -1.855015,-0.521485 -2.916015,-0.521485 z m 26.150391,0 v 15.025391 h 8.208984 V 33.964844 H 51.470703 V 19.863281 Z m 12.869141,0 V 34.888672 H 72.25 l 0.01953,-0.902344 h -7.93164 v -6.265625 h 6.583984 V 26.839844 H 64.337891 V 20.765625 H 72.25 v -0.902344 z m 14.439453,0 v 15.025391 h 1.09375 V 19.863281 Z m 20.949218,0 v 9.291016 c 0,0.828 0.131579,1.602312 0.392579,2.320312 0.263,0.719 0.638859,1.343907 1.130859,1.878907 0.491,0.534 1.09092,0.953812 1.79492,1.257812 0.704,0.305 1.49505,0.457031 2.37305,0.457031 0.878,0 1.66905,-0.152031 2.37305,-0.457031 0.704,-0.304 1.30292,-0.723812 1.79492,-1.257812 0.491,-0.535 0.86986,-1.159907 1.13086,-1.878907 0.262,-0.718 0.39257,-1.492312 0.39257,-2.320312 v -9.291016 h -1.08398 v 9.291016 c 0,0.7 -0.1045,1.353984 -0.3125,1.958984 -0.209,0.605 -0.51125,1.131172 -0.90625,1.576172 -0.398,0.446 -0.88022,0.795875 -1.44922,1.046875 -0.571,0.252 -1.21745,0.376953 -1.93945,0.376953 -0.723,0 -1.3685,-0.127812 -1.9375,-0.382812 -0.571,-0.255 -1.05231,-0.603781 -1.44531,-1.050781 -0.392,-0.445001 -0.69239,-0.971172 -0.90039,-1.576172 -0.209004,-0.605 -0.314457,-1.258938 -0.314458,-1.960938 v -9.279297 z m 17.753908,0 v 15.025391 h 1.0918 V 28.09375 h 1.96484 c 0.15,0 0.27495,0.0055 0.37695,0.01953 0.103,0.015 0.19358,0.03831 0.26758,0.07031 l 0.20117,0.132812 c 0.06,0.057 0.11783,0.123172 0.17383,0.201172 l 4.82031,6.09375 c 0.071,0.106 0.14847,0.17875 0.23047,0.21875 0.08,0.038 0.17978,0.05859 0.30078,0.05859 H 126.75 l -5.17188,-6.498047 c -0.134,-0.176 -0.28507,-0.320781 -0.45507,-0.425781 0.65,-0.072 1.23957,-0.221172 1.76757,-0.451172 0.526,-0.23 0.97566,-0.521906 1.34766,-0.878906 0.371,-0.359 0.65738,-0.776 0.85938,-1.25 0.202,-0.474 0.30273,-0.997313 0.30273,-1.570313 0,-1.296 -0.43001,-2.278265 -1.29101,-2.947265 -0.859,-0.668 -2.15286,-1.003907 -3.88086,-1.003907 z m 15.01172,0 v 15.025391 h 9.0039 l 0.0234,-0.902344 h -7.93359 v -6.265625 h 6.58398 v -0.880859 h -6.58398 v -6.074219 h 7.91015 v -0.902344 z m -13.91992,0.861328 h 2.75 c 1.338,0 2.35573,0.256438 3.05273,0.773438 0.697,0.517 1.04687,1.308906 1.04687,2.378906 0,0.524 -0.0951,0.99411 -0.2871,1.412109 -0.191,0.418 -0.46804,0.774266 -0.83204,1.072266 -0.364,0.297 -0.81284,0.525547 -1.33984,0.685547 -0.527,0.16 -1.12111,0.238281 -1.78711,0.238281 h -2.60351 z m -92.162114,0.02148 h 4.396485 c 0.899,0 1.721843,0.148312 2.464843,0.445312 0.742,0.297 1.379157,0.729922 1.910157,1.294922 0.53,0.567 0.941422,1.260078 1.232421,2.080078 0.29,0.822 0.435547,1.757688 0.435547,2.804688 0,1.055 -0.145547,1.992453 -0.435547,2.814453 -0.290999,0.821 -0.702421,1.515078 -1.232421,2.080078 -0.531,0.567 -1.168157,0.997922 -1.910157,1.294922 -0.743,0.297 -1.565843,0.445312 -2.464843,0.445312 h -4.396485 z m -89.517578,0.201172 c 0.098,0.347 0.201641,0.643625 0.306641,0.890625 l 3.060547,7.591797 h -6.732422 l 3.068359,-7.580079 c 0.05,-0.12 0.09844,-0.257062 0.148438,-0.414062 0.05,-0.155 0.09844,-0.318281 0.148437,-0.488281 z m 58.9609376,0 c 0.098,0.347 0.2006407,0.643625 0.3066406,0.890625 L -1.875,29.429688 h -6.7324219 l 3.0703125,-7.580079 c 0.049,-0.12 0.096484,-0.257062 0.1464844,-0.414062 0.05,-0.155 0.1013906,-0.318281 0.1503906,-0.488281 z M 199.56641,21.636719 c 0.079,0.275 0.15451,0.53439 0.22851,0.77539 0.074,0.24 0.15052,0.451719 0.22852,0.636719 l 2.38867,6.191406 h -5.68164 l 2.39062,-6.179687 c 0.077,-0.185 0.15352,-0.398578 0.22852,-0.642578 0.074,-0.244 0.1468,-0.50625 0.2168,-0.78125 z"
     id="path1494" /></g>
</g></svg>