<svg id="Layer_1" data-name="Layer 1" xmlns="http://www.w3.org/2000/svg" xmlns:xlink="http://www.w3.org/1999/xlink" viewBox="0 0 147.18 55.43"><defs><style>.cls-1{fill:none;}.cls-2{clip-path:url(#clip-path);}.cls-3{fill:#dddbd8;}</style></defs><title>Saul Junction Marina Logo [2019]</title><g class="cls-2"><path class="cls-3" d="M109.59,38.27l-1.22-10.38L100,25.31l-8.37,2.58L90.4,38.27A34.16,34.16,0,0,0,99,35V33.08H101V35a34.48,34.48,0,0,0,8.63,3.27" transform="translate(-26 -22.57)"/><path class="cls-3" d="M85.53,47.46c4.74-1.79,9-.6,13.36.4V42.93a49.81,49.81,0,0,1-10.27,2.3c-1.4.18-2.65.29-3.62.36a12.53,12.53,0,0,0,.53,1.87" transform="translate(-26 -22.57)"/><path class="cls-3" d="M105.55,48.8a17.66,17.66,0,0,0,9.26-2.74c0-.15.07-.31.11-.47-1-.08-2.22-.19-3.62-.37A49.59,49.59,0,0,1,101,42.92v5.2s.5.18,1.36.43a21.83,21.83,0,0,0,3.15.25" transform="translate(-26 -22.57)"/><path class="cls-3" d="M101,42.27a49.24,49.24,0,0,0,10.33,2.35c1.43.18,2.69.29,3.66.36a28.8,28.8,0,0,0,.34-4.67s-5.81,2-14.33-4.23Z" transform="translate(-26 -22.57)"/><path class="cls-3" d="M90.58,26.84l9.42-2.9,9.41,2.9,1.38,11.66c.39.07.79.13,1.19.18l-1.52-12.89L100,22.57,89.54,25.79,88,38.68c.4,0,.8-.11,1.19-.18Z" transform="translate(-26 -22.57)"/><path class="cls-3" d="M88.55,44.63a48.89,48.89,0,0,0,10.34-2.36V36.09c-8.53,6.23-14.33,4.23-14.33,4.23A29.05,29.05,0,0,0,84.89,45c1-.07,2.23-.18,3.66-.36" transform="translate(-26 -22.57)"/><path class="cls-3" d="M104.82,50.41c-8.12,0-14.77-5.82-23.81,1.83,0,0,6.7-2.18,10.67-1.34s22.73,3.71,26.48-7c0,0-5.22,6.51-13.34,6.5" transform="translate(-26 -22.57)"/><path class="cls-3" d="M164.5,58.56h-.82v11.7h1.39V61.92c0-.1,0-.22,0-.36s0-.26,0-.4L171.81,70a.82.82,0,0,0,.25.22.71.71,0,0,0,.31.06h.81V58.56h-1.39v8.68c0,.13,0,.27,0,.41l-6.78-8.82a.92.92,0,0,0-.24-.22.76.76,0,0,0-.31,0m-6.86,7.79a4.09,4.09,0,0,1-.84,1.44,3.52,3.52,0,0,1-1.3.91,4.9,4.9,0,0,1-3.43,0,3.64,3.64,0,0,1-1.31-.91,3.92,3.92,0,0,1-.83-1.44,6.39,6.39,0,0,1,0-3.87,4,4,0,0,1,.83-1.45,3.64,3.64,0,0,1,1.31-.91,4.76,4.76,0,0,1,3.43,0,3.52,3.52,0,0,1,1.3.91,4.13,4.13,0,0,1,.84,1.45,6.6,6.6,0,0,1,0,3.87m1.5-4.35A5.55,5.55,0,0,0,158,60.11a5.17,5.17,0,0,0-1.82-1.24,6.52,6.52,0,0,0-4.71,0,5.17,5.17,0,0,0-1.82,1.24A5.55,5.55,0,0,0,148.43,62a7.15,7.15,0,0,0,0,4.83,5.55,5.55,0,0,0,1.18,1.89A5.14,5.14,0,0,0,151.43,70a6.52,6.52,0,0,0,4.71,0A5.14,5.14,0,0,0,158,68.72a5.55,5.55,0,0,0,1.18-1.89,7.15,7.15,0,0,0,0-4.83m-15.55-3.44H142V70.27h1.59Zm-14.68,0v1.33h3.8V70.26h1.59V59.89h3.78V58.56Zm-4,9.41c-.21.18-.42.34-.62.48a3.7,3.7,0,0,1-.66.33,3.77,3.77,0,0,1-.77.19A6.65,6.65,0,0,1,122,69a4,4,0,0,1-1.6-.31,3.66,3.66,0,0,1-1.29-.9,4.43,4.43,0,0,1-.86-1.45,5.62,5.62,0,0,1-.31-2,5.52,5.52,0,0,1,.31-1.92,4.1,4.1,0,0,1,.88-1.46,3.82,3.82,0,0,1,1.34-.92,4.58,4.58,0,0,1,1.72-.32,5.12,5.12,0,0,1,.93.08,3.92,3.92,0,0,1,.7.19,5.2,5.2,0,0,1,.52.24l.39.25a2.79,2.79,0,0,0,.28.19.42.42,0,0,0,.22.08.41.41,0,0,0,.21,0,.44.44,0,0,0,.13-.14l.52-.73a5.72,5.72,0,0,0-1.66-1.08,5.62,5.62,0,0,0-2.23-.4,6.35,6.35,0,0,0-2.39.43,5.69,5.69,0,0,0-1.86,1.23,5.55,5.55,0,0,0-1.2,1.9,6.53,6.53,0,0,0-.43,2.43,6.94,6.94,0,0,0,.4,2.42,5.41,5.41,0,0,0,1.13,1.89A5,5,0,0,0,119.55,70a5.86,5.86,0,0,0,2.3.44,6,6,0,0,0,2.47-.47,5,5,0,0,0,1.74-1.3l-.62-.68a.32.32,0,0,0-.23-.1.41.41,0,0,0-.27.12m-21.48-9.41h-.82v11.7H104V61.92c0-.1,0-.22,0-.36s0-.26,0-.4L110.77,70a.82.82,0,0,0,.25.22.71.71,0,0,0,.31.06h.81V58.56h-1.39v8.68c0,.13,0,.27,0,.41L104,58.83a.92.92,0,0,0-.24-.22.76.76,0,0,0-.31,0M92,68.76a2.85,2.85,0,0,1-1-.69,3,3,0,0,1-.6-1.06,4.09,4.09,0,0,1-.21-1.34V58.56H88.64v7.11A5.41,5.41,0,0,0,89,67.55a4.42,4.42,0,0,0,.93,1.5,4.24,4.24,0,0,0,1.47,1,5.43,5.43,0,0,0,3.89,0,4.24,4.24,0,0,0,1.47-1,4.4,4.4,0,0,0,.92-1.5A5.41,5.41,0,0,0,98,65.67V58.56H96.39v7.11A4.15,4.15,0,0,1,96.18,67a3,3,0,0,1-.61,1.06,2.62,2.62,0,0,1-1,.68,3.3,3.3,0,0,1-1.29.25A3.4,3.4,0,0,1,92,68.76m-8.06-10.2H82.37v7.69a4.71,4.71,0,0,1-.15,1.27,2.22,2.22,0,0,1-.45.88,1.73,1.73,0,0,1-.71.51,2.61,2.61,0,0,1-1,.16,2.3,2.3,0,0,1-.65-.07,1.41,1.41,0,0,0-.39-.08.34.34,0,0,0-.26.09.35.35,0,0,0-.1.23c0,.15,0,.3,0,.46s0,.31,0,.47a6.49,6.49,0,0,0,1.65.23,4.12,4.12,0,0,0,1.58-.29A3.07,3.07,0,0,0,83,69.29,3.53,3.53,0,0,0,83.7,68a6,6,0,0,0,.24-1.76Zm-18.29,0H64.07v11.7h6.65V68.93H65.65ZM53.43,68.76a2.76,2.76,0,0,1-1-.69A3,3,0,0,1,51.85,67a4.09,4.09,0,0,1-.21-1.34V58.56H50.07v7.11a5.19,5.19,0,0,0,.32,1.88,4.13,4.13,0,0,0,.93,1.5,4.24,4.24,0,0,0,1.47,1,5,5,0,0,0,1.94.36,5.06,5.06,0,0,0,2-.36,4.18,4.18,0,0,0,2.38-2.49,5.19,5.19,0,0,0,.33-1.88V58.56H57.81v7.11A4.15,4.15,0,0,1,57.6,67a3.15,3.15,0,0,1-.6,1.06,2.79,2.79,0,0,1-1,.68,3.31,3.31,0,0,1-1.3.25,3.35,3.35,0,0,1-1.3-.25m-12.06-7.6c.05-.14.11-.3.16-.49s.12-.39.18-.62a8.69,8.69,0,0,0,.35,1.11l1.84,4.76H39.53Zm1.15-2.6H40.91l-4.68,11.7h1.22a.52.52,0,0,0,.35-.11.67.67,0,0,0,.19-.26l1.1-2.83h5.25l1.09,2.83a.68.68,0,0,0,.2.27.53.53,0,0,0,.34.1H47.2Zm-9.19,1.08a4,4,0,0,0-1.42-.9,4.82,4.82,0,0,0-1.78-.31,4.13,4.13,0,0,0-1.55.27,3.32,3.32,0,0,0-1.13.72,3,3,0,0,0-.7,1,3.06,3.06,0,0,0-.24,1.2,3.14,3.14,0,0,0,.24,1.3,2.71,2.71,0,0,0,.63.88,3.56,3.56,0,0,0,.89.57,9.88,9.88,0,0,0,1,.39l1,.32a4.68,4.68,0,0,1,.9.39,1.93,1.93,0,0,1,.63.57,1.49,1.49,0,0,1,.24.87,2.21,2.21,0,0,1-.16.87,1.93,1.93,0,0,1-.47.68,2,2,0,0,1-.75.43,2.84,2.84,0,0,1-1,.16,3.19,3.19,0,0,1-1.15-.18,4.57,4.57,0,0,1-.8-.41,6.71,6.71,0,0,1-.55-.4.69.69,0,0,0-.4-.19.31.31,0,0,0-.2.07.46.46,0,0,0-.16.15l-.46.75A4.69,4.69,0,0,0,27.6,70a5,5,0,0,0,2.07.42,4.55,4.55,0,0,0,1.66-.29,3.5,3.5,0,0,0,1.23-.78,3.45,3.45,0,0,0,.77-1.18,4,4,0,0,0,.26-1.44,2.79,2.79,0,0,0-.24-1.22,2.61,2.61,0,0,0-.64-.85,3.7,3.7,0,0,0-.9-.56c-.33-.15-.68-.29-1-.41l-1-.35a5.3,5.3,0,0,1-.9-.39,2.12,2.12,0,0,1-.63-.55,1.35,1.35,0,0,1-.24-.82,1.7,1.7,0,0,1,.14-.71,1.66,1.66,0,0,1,.41-.58,1.94,1.94,0,0,1,.68-.38,2.73,2.73,0,0,1,.94-.15,3,3,0,0,1,1,.14,3.94,3.94,0,0,1,.68.31,4.64,4.64,0,0,1,.46.3.54.54,0,0,0,.33.14.37.37,0,0,0,.21-.06.71.71,0,0,0,.15-.18Z" transform="translate(-26 -22.57)"/><path class="cls-3" d="M112.23,75.45s0-.08,0-.14a1.54,1.54,0,0,1,0-.17,3.09,3.09,0,0,0,.09.31l.52,1.33h-1.23Zm.32-.73h-.45L110.79,78h.34a.17.17,0,0,0,.1,0,.15.15,0,0,0,0-.07l.31-.8h1.47l.31.8a.18.18,0,0,0,0,.07.17.17,0,0,0,.1,0h.34Zm-6.49,0h-.23V78h.39V75.56s0-.07,0-.11l1.9,2.47a.13.13,0,0,0,.07.06l.09,0h.22V74.72h-.39v2.43s0,.08,0,.12l-1.9-2.47a.17.17,0,0,0-.06-.06l-.09,0m-3,0h-.45V78h.45Zm-4.86.35h.48a.94.94,0,0,1,.58.15.52.52,0,0,1,.19.44.76.76,0,0,1,0,.27.48.48,0,0,1-.15.2.66.66,0,0,1-.25.13,1.16,1.16,0,0,1-.34,0h-.46Zm.33,1.56a.26.26,0,0,1,.14,0,.22.22,0,0,1,.09.08l.85,1.17a.18.18,0,0,0,.17.09h.4l-1-1.3a.47.47,0,0,0-.14-.14,1.26,1.26,0,0,0,.34-.13,1.22,1.22,0,0,0,.25-.2.92.92,0,0,0,.16-.27,1.2,1.2,0,0,0,.05-.33,1,1,0,0,0-.07-.38.74.74,0,0,0-.22-.28.91.91,0,0,0-.37-.18,1.73,1.73,0,0,0-.54-.07h-.92V78h.44V76.63Zm-4.74-1.18a1.27,1.27,0,0,0,0-.14.84.84,0,0,0,.05-.17c0,.12.07.23.1.31l.52,1.33H93.29Zm.32-.73h-.45L92.37,78h.34a.17.17,0,0,0,.1,0l0-.07.31-.8h1.47l.31.8A.18.18,0,0,0,95,78a.17.17,0,0,0,.1,0h.34Zm-5.86,2.1-1.13-2a.14.14,0,0,0-.06-.07h-.42V78h.39V75.59a.34.34,0,0,0,0-.1.49.49,0,0,0,0-.12l1.15,2.06a.19.19,0,0,0,.16.1h.07a.19.19,0,0,0,.16-.1l1.12-2.05s0,.07,0,.11V78h.39V74.72h-.42a.14.14,0,0,0-.06.07l-1.11,2-.06.12a.61.61,0,0,1,0,.12l0-.12-.06-.11" transform="translate(-26 -22.57)"/></g></svg>
