<svg xmlns="http://www.w3.org/2000/svg" viewBox="0 0 122.7 98"><defs><style>.cls-1{fill:#a8a8a7;}</style></defs><title>boat-icon</title><g id="Layer_2" data-name="Layer 2"><g id="Layer_1-2" data-name="Layer 1"><path class="cls-1" d="M94.4,51.85,90.34,17.57,62.7,9.05,35.06,17.57,31,51.85A112.31,112.31,0,0,0,59.51,41V34.71H65.9V41A112,112,0,0,0,94.4,51.85Z"/><path class="cls-1" d="M14.93,82.2c15.65-5.92,29.66-2,44.1,1.32V67.23c-11.35,4.07-23.86,6.35-33.89,7.62-4.65.59-8.75,1-12,1.19A38.7,38.7,0,0,0,14.93,82.2Z"/><path class="cls-1" d="M81.05,86.62a58.32,58.32,0,0,0,30.57-9c.12-.52.25-1,.36-1.59-3.21-.23-7.31-.6-12-1.19-10-1.27-22.54-3.55-33.89-7.62V84.38s1.68.61,4.51,1.41A70.18,70.18,0,0,0,81.05,86.62Z"/><path class="cls-1" d="M66.13,65.05c11.31,4.15,24,6.5,34.15,7.78,4.71.59,8.86,1,12.07,1.19a94.39,94.39,0,0,0,1.11-15.43s-19.17,6.63-47.33-14Z"/><path class="cls-1" d="M31.61,14.11,62.7,4.53l31.1,9.58,4.55,38.52q2,.33,3.93.57l-5-42.55L62.7,0,28.15,10.65l-5,42.55q2-.24,3.93-.57Z"/><path class="cls-1" d="M24.89,72.85C35,71.57,47.73,69.23,59,65.08V44.66c-28.16,20.58-47.32,14-47.32,14a94.39,94.39,0,0,0,1.11,15.43C16,73.82,20.18,73.45,24.89,72.85Z"/><path class="cls-1" d="M78.64,91.94C51.83,91.89,29.84,72.71,0,98c0,0,22.11-7.2,35.24-4.42s75.07,12.25,87.46-23.1C122.7,70.48,105.46,92,78.64,91.94Z"/></g></g></svg>