<?xml version="1.0" encoding="UTF-8" standalone="no"?>
<svg
   xmlns="http://www.w3.org/2000/svg"
   viewBox="0 0 43.867466 39.689602"
   xml:space="preserve"
   id="svg10"
   version="1.1"><defs
     id="defs14"><clipPath
       id="clipPath26"
       clipPathUnits="userSpaceOnUse"><path
         id="path24"
         d="M 0,29.767 H 32.901 V 0 H 0 Z" /></clipPath></defs><g
     transform="matrix(1.3333333,0,0,-1.3333333,0,39.6896)"
     id="g18"><g
       id="g20"><g
         clip-path="url(#clipPath26)"
         id="g22"><g
           transform="translate(4.3084,7.4541)"
           id="g28"><path
             id="path30"
             style="fill-opacity:1;fill-rule:nonzero;stroke:none"
             d="m 0,0 c -0.024,0.001 -0.049,0.001 -0.073,0 -0.433,-0.001 -0.783,-0.353 -0.781,-0.786 0,-0.426 0.342,-0.773 0.769,-0.781 L 7.748,-2.35 c 0.426,-0.076 0.833,0.208 0.908,0.634 0.076,0.426 -0.208,0.833 -0.634,0.908 -0.038,0.007 -0.077,0.011 -0.115,0.012 L 0.074,-0.012 C 0.049,-0.007 0.025,-0.003 0,0 m 0,5.483 c -0.024,0.001 -0.049,0.001 -0.073,0 C -0.506,5.481 -0.855,5.129 -0.854,4.697 -0.852,4.271 -0.511,3.925 -0.085,3.917 L 7.748,3.133 C 8.174,3.058 8.581,3.342 8.656,3.768 8.732,4.194 8.448,4.601 8.022,4.676 7.984,4.683 7.945,4.687 7.907,4.688 L 0.074,5.471 C 0.049,5.477 0.025,5.48 0,5.483 m 0,5.484 c -0.024,10e-4 -0.049,10e-4 -0.073,0 C -0.506,10.965 -0.855,10.613 -0.854,10.18 -0.852,9.755 -0.511,9.408 -0.085,9.4 L 7.748,8.617 C 8.174,8.541 8.581,8.825 8.656,9.251 8.732,9.677 8.448,10.084 8.022,10.16 7.984,10.166 7.945,10.17 7.907,10.171 L 0.074,10.955 C 0.049,10.96 0.025,10.964 0,10.967 m 0,5.483 c -0.024,0.001 -0.049,0.001 -0.073,0 -0.433,-0.002 -0.782,-0.354 -0.781,-0.786 0.002,-0.426 0.343,-0.772 0.769,-0.781 L 7.748,14.1 c 0.426,-0.076 0.833,0.209 0.908,0.634 0.076,0.427 -0.208,0.833 -0.634,0.909 -0.038,0.006 -0.077,0.01 -0.115,0.012 L 0.074,16.438 C 0.049,16.443 0.025,16.447 0,16.45 M 24.284,17.221 16.45,16.438 V 6.254 l 7.834,0.784 z m 4.308,5.092 v -28.2 l -16.45,-1.567 -16.451,1.567 v 28.2 l 16.451,-1.566 z" /></g></g></g></g></svg>