<?xml version="1.0" encoding="UTF-8" standalone="no"?>
<svg
   xmlns="http://www.w3.org/2000/svg"
   viewBox="0 0 40.890934 43.464001"
   xml:space="preserve"
   id="svg66"
   version="1.1"><defs
     id="defs70"><clipPath
       id="clipPath82"
       clipPathUnits="userSpaceOnUse"><path
         id="path80"
         d="M 0,32.598 H 30.668 V 0 H 0 Z" /></clipPath></defs><g
     transform="matrix(1.3333333,0,0,-1.3333333,0,43.464)"
     id="g74"><g
       id="g76"><g
         clip-path="url(#clipPath82)"
         id="g78"><g
           transform="translate(14.2133,28.0823)"
           id="g84"><path
             id="path86"
             style="fill-opacity:1;fill-rule:nonzero;stroke:none"
             d="M 0,0 V -1.612 H 2.242 V 0 h 6.252 v -1.612 h 2.241 V 0 h 3.477 V -4.105 H -11.971 V 0 h 3.479 v -1.612 h 2.242 l 0,1.612 z m 14.213,-24.102 c 0,-0.959 -0.781,-1.738 -1.738,-1.738 H -11.97 V -6.349 H 14.213 Z M -8.492,4.515 V 2.242 h -5.721 v -8.59 h 0.002 v -21.735 h 26.686 c 2.193,0 3.98,1.786 3.98,3.981 V -4.107 H 16.454 V 2.242 H 10.735 V 4.516 H 8.494 V 2.242 H 2.242 V 4.516 H 0 V 2.242 h -6.25 v 2.274 h -2.242 z" /></g><path
           id="path88"
           style="
           fill-opacity:1;fill-rule:nonzero;stroke:none"
           d="M 6.468,18.032 H 9.831 V 15.79 H 6.468 Z" /><path
           id="path90"
           style="
           fill-opacity:1;fill-rule:nonzero;stroke:none"
           d="m 13.5,18.032 h 3.668 V 15.79 H 13.5 Z" /><path
           id="path92"
           style="
           fill-opacity:1;fill-rule:nonzero;stroke:none"
           d="M 20.837,18.032 H 24.2 V 15.79 h -3.363 z" /><path
           id="path94"
           style="
           fill-opacity:1;fill-rule:nonzero;stroke:none"
           d="M 6.468,13.11 H 9.831 V 10.868 H 6.468 Z" /><path
           id="path96"
           style="
           fill-opacity:1;fill-rule:nonzero;stroke:none"
           d="m 13.5,13.11 h 3.668 V 10.868 H 13.5 Z" /><path
           id="path98"
           style="
           fill-opacity:1;fill-rule:nonzero;stroke:none"
           d="M 20.837,13.11 H 24.2 v -2.242 h -3.363 z" /><path
           id="path100"
           style="
           fill-opacity:1;fill-rule:nonzero;stroke:none"
           d="M 6.468,8.185 H 9.831 V 5.943 H 6.468 Z" /><path
           id="path102"
           style="
           fill-opacity:1;fill-rule:nonzero;stroke:none"
           d="m 13.5,8.185 h 3.668 V 5.943 H 13.5 Z" /><path
           id="path104"
           style="
           fill-opacity:1;fill-rule:nonzero;stroke:none"
           d="M 20.837,8.185 H 24.2 V 5.943 h -3.363 z" /></g></g></g></svg>