<svg xmlns="http://www.w3.org/2000/svg" viewBox="0 0 40 49.89"><defs></defs><title>Asset 4</title><g id="Layer_2" data-name="Layer 2"><g id="Layer_1-2" data-name="Layer 1"><path class="cls-1" d="M15.18,32.46c.5-2.54,1.36-4.51,1.1-7.12-.33-3.27-4.48-2.11-5.59-1.58A24.94,24.94,0,0,0,4.27,29.2c-1.67,2.09-2.35,4.45-1,7.17a17.88,17.88,0,0,0,1.48,2.47S6.18,41.53,7,43.29c1,2.1,1.4,4.61,2.27,5.49,1.41,1.41,2.87,1.33,4.7.54a4.71,4.71,0,0,0,2.72-2.92c.89-2.87-.34-4.84-1.09-7.5A25.52,25.52,0,0,1,15.18,32.46Z"/><path class="cls-1" d="M6.25,24.46c1-.51.41-3.09-1.17-2.68a1.36,1.36,0,0,0-1,.71C3.48,23.48,5.11,25,6.25,24.46Z"/><path class="cls-1" d="M7.9,22.48a1.59,1.59,0,0,0,1.85-.27c.53-.38.61-2.59-.66-2.77a1.49,1.49,0,0,0-1.53.5A1.79,1.79,0,0,0,7.9,22.48Z"/><path class="cls-1" d="M14.62,21.27c1.95-.43,2.64-5.25.42-6a5,5,0,0,0-2.32.14C9.8,16.44,10.52,22.18,14.62,21.27Z"/><path class="cls-1" d="M3.27,27.05c.37-.08.7-.18.81-.54.2-.61-.07-2.32-1.54-2.09C.6,24.72,2.24,27.28,3.27,27.05Z"/><path class="cls-1" d="M1.32,27.47A1.15,1.15,0,0,0,0,28.21C-.25,29,1,30,1.7,29.6a1,1,0,0,0,.42-.4A1.18,1.18,0,0,0,1.32,27.47Z"/><path class="cls-1" d="M29.3,8.58C28.19,8.05,24,6.9,23.71,10.17c-.26,2.61.6,4.58,1.1,7.12a25.59,25.59,0,0,1-.41,6.44c-.75,2.66-2,4.64-1.09,7.5A4.71,4.71,0,0,0,26,34.15c1.83.79,3.29.87,4.7-.54.88-.88,1.3-3.38,2.27-5.49.81-1.76,2.23-4.45,2.23-4.45a17.93,17.93,0,0,0,1.48-2.47c1.36-2.72.68-5.08-1-7.17A25,25,0,0,0,29.3,8.58Z"/><path class="cls-1" d="M33.75,9.29c1.13.57,2.77-1,2.18-2a1.36,1.36,0,0,0-1-.71C33.34,6.19,32.73,8.78,33.75,9.29Z"/><path class="cls-1" d="M30.25,7a1.59,1.59,0,0,0,1.84.27,1.79,1.79,0,0,0,.35-2.54,1.5,1.5,0,0,0-1.53-.5C29.64,4.45,29.72,6.66,30.25,7Z"/><path class="cls-1" d="M25.38,6.1c4.1.91,4.82-4.83,1.9-5.86A5,5,0,0,0,25,.1C22.74.84,23.44,5.67,25.38,6.1Z"/><path class="cls-1" d="M35.91,11.33c.12.36.44.46.81.54,1,.23,2.68-2.33.72-2.63C36,9,35.72,10.72,35.91,11.33Z"/><path class="cls-1" d="M40,13a1.15,1.15,0,0,0-1.27-.73A1.18,1.18,0,0,0,37.87,14a1,1,0,0,0,.42.4C39,14.83,40.25,13.8,40,13Z"/></g></g></svg>