<svg xmlns="http://www.w3.org/2000/svg" viewBox="0 0 50 50"><defs></defs><g id="Layer_2" data-name="Layer 2"><g id="Layer_1-2" data-name="Layer 1"><path class="cls-1" d="M42.24,19.91h-4V14.68H36v5.23H30.77v2.2H36v5.28h2.24V22.11H43A19.93,19.93,0,0,0,42.24,19.91Z"/><path class="cls-1" d="M25,0A25,25,0,1,0,50,25,25,25,0,0,0,25,0Zm0,47h-.59a21.88,21.88,0,0,1-12.06-4v.06C10,41.31,9.27,40.52,9.07,40.17A22,22,0,1,1,25,47Z"/><path class="cls-1" d="M30.52,40.83c0-3.23-1.87-4.83-3.94-6.55L24.9,33a2.56,2.56,0,0,1-1.21-2A3.24,3.24,0,0,1,25,28.66c2-1.55,3.92-3.18,3.92-6.65a7.89,7.89,0,0,0-3.32-6.33h2.9l3-1.68H21.85a12.8,12.8,0,0,0-8.39,2.57,8.46,8.46,0,0,0-3,6.28,7.41,7.41,0,0,0,7.78,7.35c.47,0,1-.05,1.5-.1a4.12,4.12,0,0,0-.47,1.82,4.92,4.92,0,0,0,1.41,3.2c-2.12.13-6,.37-9,2.15A7.59,7.59,0,0,0,9,39.91H9s.13,0,0,0,0,.11,0,.26A22.11,22.11,0,0,0,12.35,43a4.83,4.83,0,0,1-.1-1c0-3.33,3-4.46,4-4.83a18.61,18.61,0,0,1,4.92-.74,10.5,10.5,0,0,1,1.08,0c3.57,2.54,5.1,3.8,5.1,6.19a4.59,4.59,0,0,1-3,4.32h.2a20.27,20.27,0,0,0,3-.25A7.78,7.78,0,0,0,30.52,40.83ZM20.45,28.9c-4,0-5.86-5.2-5.86-8.35a5.41,5.41,0,0,1,1-3.46,4.41,4.41,0,0,1,3.28-1.55c3.89,0,5.9,5.24,5.9,8.62a4.71,4.71,0,0,1-1.16,3.42A4.87,4.87,0,0,1,20.45,28.9Z"/></g></g></svg>