<?xml version="1.0" encoding="UTF-8"?>
<svg width="25px" height="25px" viewBox="0 0 25 25" version="1.1" xmlns="http://www.w3.org/2000/svg" xmlns:xlink="http://www.w3.org/1999/xlink">
    <!-- Generator: Sketch 50 (54983) - http://www.bohemiancoding.com/sketch -->
    <title>ico_close</title>
    <desc>Created with Sketch.</desc>
    <defs>
        <polygon id="path-1" points="0 0 24.7843103 0 24.7843103 24.7844397 0 24.7844397"></polygon>
    </defs>
    <g id="Page-1" stroke="none" stroke-width="1" fill="none" fill-rule="evenodd">
        <g id="ico_close">
            <mask id="mask-2" fill="white">
                <use xlink:href="#path-1"></use>
            </mask>
            <g id="Clip-2"></g>
            <path d="M13.4588793,12.3921983 L16.7282759,9.12280172 C17.0235345,8.82840517 17.0235345,8.35038793 16.7282759,8.05599138 C16.4334483,7.76116379 15.9562931,7.76116379 15.6614655,8.05599138 L12.392069,11.3253879 L9.12267241,8.05599138 C8.82784483,7.76116379 8.35068966,7.76116379 8.05586207,8.05599138 C7.76103448,8.35038793 7.76103448,8.82840517 8.05586207,9.12280172 L11.3252586,12.3921983 L8.05586207,15.6615948 C7.76103448,15.9564224 7.76103448,16.4335776 8.05586207,16.7284052 C8.2037069,16.875819 8.39637931,16.9495259 8.58905172,16.9495259 C8.78172414,16.9495259 8.97568966,16.875819 9.12224138,16.7284052 L12.392069,13.4590086 L15.6614655,16.7284052 C15.8088793,16.875819 16.0015517,16.9495259 16.1950862,16.9495259 C16.3877586,16.9495259 16.5808621,16.875819 16.7278448,16.7284052 C17.0231034,16.4335776 17.0231034,15.9564224 16.7278448,15.6615948 L13.4588793,12.3921983 Z M12.392069,1.50857759 C6.3912069,1.50857759 1.50844828,6.39090517 1.50844828,12.3921983 C1.50844828,18.3934914 6.3912069,23.275819 12.392069,23.275819 C18.3933621,23.275819 23.2756897,18.3934914 23.2756897,12.3921983 C23.2756897,6.39090517 18.3933621,1.50857759 12.392069,1.50857759 Z M12.392069,24.7844397 C5.55887931,24.7844397 -0.000172413793,19.2253879 -0.000172413793,12.3921983 C-0.000172413793,5.55900862 5.55887931,-4.31034483e-05 12.392069,-4.31034483e-05 C19.2252586,-4.31034483e-05 24.7843103,5.55900862 24.7843103,12.3921983 C24.7843103,19.2253879 19.2252586,24.7844397 12.392069,24.7844397 Z" id="Fill-1" fill="#fff" mask="url(#mask-2)"></path>
        </g>
    </g>
</svg>