<svg xmlns="http://www.w3.org/2000/svg" viewBox="0 0 44.08 50.3"><defs></defs><g id="Layer_2" data-name="Layer 2"><g id="Layer_1-2" data-name="Layer 1"><path class="cls-1" d="M12.06,29.83c0-1.71,1.62-4.71,3.88-4.71,3.21,0,3.7,2.59,3.7,4.37S18.49,34,16.59,34s-4.53-1.15-4.53-4.12m-3.23.3c-2.26,0-5-2.61-5-5.36s2-5.64,3.44-5.64,4.14,1.32,4.14,5.68C11.46,27.52,10.2,30.14,8.83,30.14Zm13-11.43c-.67,1.88-1.35,3.6-3.25,3.6a2.88,2.88,0,0,1-3.13-2.82c0-2,2.09-3.64,4-3.64S22.47,16.83,21.81,18.71ZM3.52,29.62c.33,1.68.24,2.23-.6,2.37-.47.08-1.26-.44-1.76-2s-.54-3,.58-3.51C2.52,26.1,3.19,27.95,3.52,29.62Zm3.29,1.77c0,1.08-.49,2-1.09,2s-1.09-.88-1.09-2S5,30,5.57,30,6.81,30.31,6.81,31.39Zm20.8-17.75c-.6.76-1.11,1.2-2,.9s-1.3-.87-1-1.78a2,2,0,0,1,2.4-1A1.15,1.15,0,0,1,27.61,13.64Zm-6.75-.8c-1,1.15-1.84,1.84-3.29,1.38s-2.16-1.33-1.64-2.72,2.54-2,4-1.58S21.86,11.69,20.86,12.84Zm-5.45,2.58c-.37,1.15-.78,1.89-2,1.92s-1.87-.35-1.94-1.55a2.14,2.14,0,0,1,2.21-2.16C14.9,13.6,15.78,14.28,15.41,15.42ZM13.67,6.77c4.22-2,1.83,2.86.9,3.88S11,13.8,10.26,12.72,10.24,8.41,13.67,6.77ZM7.75,16.12c-1,1.26-1.93,1.42-2.52.9-.33-.3-.42-1.18.39-2.52s1.26-2.57,2.76-1.72C9.06,13.16,8.72,14.87,7.75,16.12Zm6.15,3.76c0,.91-.44,1.65-1,1.65s-1-.74-1-1.65.31-1.16.86-1.16A1,1,0,0,1,13.9,19.88ZM19,23.47c.71-.53,1.35-.52,1.66-.09s.2,1.12-.51,1.65-1.1.43-1.42,0A1,1,0,0,1,19,23.47ZM23.24,16c.64-.33,1.15-.23,1.34.16s0,.92-.63,1.25-.94.19-1.14-.19A.82.82,0,0,1,23.24,16Zm-1.09-2.59c.94-.13,1.52.2,1.6.77s-.38,1.15-1.32,1.28-1.25-.16-1.33-.72A1.08,1.08,0,0,1,22.15,13.36ZM12.1,7.12c-1.09.65-1.49.74-1.81.18-.18-.31,0-1,1-1.75s2-1.14,2.59-.49C14.3,5.53,13.19,6.46,12.1,7.12ZM19,8.26c-1.39.57-1.88.58-2.12-.22-.13-.45.21-1.29,1.51-2s2.52-1,3.09,0C21.87,6.75,20.38,7.69,19,8.26Zm3.08-1c.38-.9.77-1.48,1.78-1.41s1.5.41,1.47,1.4a1.74,1.74,0,0,1-1.95,1.6C22.35,8.76,21.68,8.15,22.06,7.25Zm12.3,0c1.18,1.06,1.06,1.7.51,2.27-.31.32-1.19.37-2.51-.48-.81-.53-1.58-1.45-.77-2.31C32.19,6.06,33.58,6.5,34.36,7.21Zm-4.21,3.23c-1,.47-1.72.68-2.54,0s-1-1.45-.32-2.2a2.44,2.44,0,0,1,3.06.07A1.19,1.19,0,0,1,30.16,10.44ZM18,5c-1.63.5-2.19.47-2.42-.35-.13-.47.31-1.3,1.85-2s2.91-.84,3.13.35C20.71,3.91,19.63,4.5,18,5Zm5.52-2c1.15.1,1.66.56,1.59,1.13,0,.32-.53.74-1.67.82-.71.05-1.41-.19-1.52-1C21.86,3.31,22.75,2.89,23.52,3Zm1.92-1.7c.73,0,1.12.38,1.1.81s-.45.81-1.18.78-.92-.3-.9-.74A.83.83,0,0,1,25.44,1.26ZM28.34,5c-1.62-.54-2.07-.9-1.81-1.76.15-.48,1-.95,2.6-.61s2.87,1,2.39,2.19C31.18,5.68,30,5.55,28.34,5Zm9.23-1c.65.39.85.89.61,1.29s-.82.52-1.47.13-.7-.73-.46-1.12A.87.87,0,0,1,37.57,4ZM32.39,2.88A1.22,1.22,0,0,1,34,2.51c.81.36,1.48.7,1.17,1.49s-1.1.43-1.91.07S32,3.61,32.39,2.88ZM43.13,10c.48.38,1.12,1.51.9,1.81s-1.24-.37-1.72-.75-.49-.65-.26-.94A.7.7,0,0,1,43.13,10ZM16.44,2.42A3.71,3.71,0,0,0,18,1,25,25,0,0,0,13.28,3C14,3.45,15.19,3.12,16.44,2.42ZM7,10.14c1.67-1.9,2.5-3.45,2-3.89a.81.81,0,0,0-.24-.13,25.3,25.3,0,0,0-5.14,6.1C4.14,12.55,5.37,11.95,7,10.14ZM.6,25c.77.18,1.88-1,2.62-4.3s.68-5.38-.09-5.56a1.73,1.73,0,0,0-1.31.5A25,25,0,0,0,0,24.07C.14,24.63.35,25,.6,25ZM30.35,46.48c-4.41-1.05-7-4.09-9.09-6.9S19.06,36,17.38,36s-2.29,1-2.29,1.86S15.42,40,14.87,40s-1.46-2.79-2.22-4.1-1.92-3.24-3.76-3.24-2.32,1.84-2.32,3.58a6.81,6.81,0,0,0,1.8,4.12c.79,1,1.07,1.92.24,1.5s-4.53-5.78-5.26-7.4a1.55,1.55,0,0,0-2-1A25.16,25.16,0,0,0,39.08,46.08C38.9,46.12,34.17,47.39,30.35,46.48ZM31.1,1.66a1.9,1.9,0,0,0,1.48-.53A25,25,0,0,0,29.7.42C29.6,1.13,30.22,1.6,31.1,1.66ZM21,.33c.22.4.83.52,2.08.56,1.58.05,3.38-.15,3.5-.85-.5,0-1,0-1.51,0A25.32,25.32,0,0,0,21,.33Z"/><path class="cls-1" d="M15.5,22.09c1,.57,1.24,1.3.9,1.88s-1.19.76-2.14.19-1-1.06-.68-1.63A1.26,1.26,0,0,1,15.5,22.09Z"/><path class="cls-1" d="M23.54,9.54c1.11-.11,1.78.3,1.85,1s-.5,1.33-1.61,1.45-1.46-.24-1.53-.91A1.27,1.27,0,0,1,23.54,9.54Z"/><path class="cls-1" d="M27.49,5.2c1,.12,1.51.61,1.43,1.22s-.7,1.07-1.7,1-1.23-.5-1.16-1.1A1.14,1.14,0,0,1,27.49,5.2Z"/><path class="cls-1" d="M8.34,16.9c.29-1.22,1-1.78,1.72-1.6s1.23,1,.93,2.24-.8,1.46-1.53,1.28A1.42,1.42,0,0,1,8.34,16.9Z"/><path class="cls-1" d="M40.36,7.43c1.45,1.31,1.3,2.09.63,2.79-.38.39-1.46.46-3.08-.59C36.91,9,36,7.83,37,6.78,37.69,6,39.4,6.55,40.36,7.43Z"/><path class="cls-1" d="M35.5,5.25c.64.39.84.88.6,1.27s-.8.52-1.45.13-.69-.71-.46-1.1A.85.85,0,0,1,35.5,5.25Z"/><path class="cls-1" d="M7.58,10c.59-.76,1.25-.93,1.71-.57s.53,1.11-.06,1.87-1,.77-1.48.41A1.1,1.1,0,0,1,7.58,10Z"/></g></g></svg>