<svg xmlns="http://www.w3.org/2000/svg" viewBox="0 0 681.92 155.33"><defs></defs><g id="Layer_2" data-name="Layer 2"><g id="Layer_1-2" data-name="Layer 1"><path class="cls-1" d="M488.67,58.63a11.85,11.85,0,0,0-4-2.68,13.21,13.21,0,0,0-4.94-.87,11.71,11.71,0,0,0-4.36.76,9.7,9.7,0,0,0-3.21,2,8.5,8.5,0,0,0-2,2.91,9,9,0,0,0-.68,3.42,8.37,8.37,0,0,0,.76,3.79,7.6,7.6,0,0,0,2,2.52,11.22,11.22,0,0,0,2.84,1.66q1.59.65,3.26,1.17t3.26,1.08a13,13,0,0,1,2.84,1.36,6.58,6.58,0,0,1,2,2,5.71,5.71,0,0,1,.76,3.09,8.69,8.69,0,0,1-.6,3.24,7.38,7.38,0,0,1-1.74,2.61,8.2,8.2,0,0,1-2.79,1.74,10.35,10.35,0,0,1-3.75.64,11.25,11.25,0,0,1-2.72-.3,11.41,11.41,0,0,1-2.12-.74,9.87,9.87,0,0,1-1.62-1q-.7-.51-1.2-.95l-.85-.74a1,1,0,0,0-.58-.3.88.88,0,0,0-.7.38l-.7,1.1A14.18,14.18,0,0,0,472.32,90a13.56,13.56,0,0,0,6,1.24,12.87,12.87,0,0,0,4.8-.84,10.39,10.39,0,0,0,3.55-2.29,9.79,9.79,0,0,0,2.21-3.41,11.45,11.45,0,0,0,.76-4.19,7.81,7.81,0,0,0-.76-3.64,7.63,7.63,0,0,0-2-2.46,11.78,11.78,0,0,0-2.84-1.66q-1.59-.66-3.26-1.21t-3.26-1.11a13,13,0,0,1-2.84-1.39,6.86,6.86,0,0,1-2-2,5.36,5.36,0,0,1-.76-3,6.86,6.86,0,0,1,.51-2.62,6.36,6.36,0,0,1,1.5-2.2,7,7,0,0,1,2.45-1.5,11,11,0,0,1,6.63-.08,10.7,10.7,0,0,1,3.57,2.06,1.44,1.44,0,0,0,.84.46.7.7,0,0,0,.65-.42Zm-56.77-3.15V90.85h21.2l0-2.12H434.47V74H450V71.9h-15.5V57.6h18.63V55.48Zm-20.45,0h-2.58V72H386.72V55.48h-2.58V90.85h2.58v-17h22.15v17h2.58Zm-46.27,3.15a11.85,11.85,0,0,0-4-2.68,13.21,13.21,0,0,0-4.94-.87,11.71,11.71,0,0,0-4.36.76,9.7,9.7,0,0,0-3.21,2,8.5,8.5,0,0,0-2,2.91A9,9,0,0,0,346,64.2a8.37,8.37,0,0,0,.76,3.79,7.6,7.6,0,0,0,2,2.52,11.22,11.22,0,0,0,2.84,1.66q1.59.65,3.26,1.17t3.26,1.08A13,13,0,0,1,361,75.79a6.58,6.58,0,0,1,2,2,5.71,5.71,0,0,1,.76,3.09,8.69,8.69,0,0,1-.6,3.24,7.38,7.38,0,0,1-1.74,2.61,8.2,8.2,0,0,1-2.79,1.74,10.35,10.35,0,0,1-3.75.64,11.25,11.25,0,0,1-2.72-.3,11.41,11.41,0,0,1-2.12-.74,9.87,9.87,0,0,1-1.62-1q-.7-.51-1.2-.95l-.85-.74a1,1,0,0,0-.58-.3.88.88,0,0,0-.7.38l-.7,1.1A14.18,14.18,0,0,0,348.82,90a13.56,13.56,0,0,0,6,1.24,12.87,12.87,0,0,0,4.8-.84,10.39,10.39,0,0,0,3.55-2.29,9.79,9.79,0,0,0,2.21-3.41,11.45,11.45,0,0,0,.76-4.19,7.81,7.81,0,0,0-.76-3.64,7.63,7.63,0,0,0-2-2.46,11.78,11.78,0,0,0-2.84-1.66q-1.59-.66-3.26-1.21T354,70.44a13,13,0,0,1-2.84-1.39,6.86,6.86,0,0,1-2-2,5.36,5.36,0,0,1-.76-3,6.86,6.86,0,0,1,.51-2.62,6.36,6.36,0,0,1,1.5-2.2,7,7,0,0,1,2.45-1.5,11,11,0,0,1,6.63-.08,10.7,10.7,0,0,1,3.57,2.06,1.44,1.44,0,0,0,.84.46.7.7,0,0,0,.65-.42Zm-50.1,1.52q.17-.42.35-1t.35-1.15a17.85,17.85,0,0,0,.72,2.1L323.69,78H307.84Zm2-4.67h-2.53L300,90.85H302a.93.93,0,0,0,.6-.2,1.07,1.07,0,0,0,.35-.47l4.15-10.28h17.38l4.15,10.28a1.25,1.25,0,0,0,.35.49.87.87,0,0,0,.58.19h2Zm-52.85,31.9V74.8h-9.75v1.4a.53.53,0,0,0,.19.4.65.65,0,0,0,.46.17h6.77V86.3q-1.18.68-2.31,1.21a17.66,17.66,0,0,1-2.35.91,16.26,16.26,0,0,1-2.55.56,21,21,0,0,1-2.91.19,18,18,0,0,1-6.48-1.1,13.33,13.33,0,0,1-4.89-3.17,13.81,13.81,0,0,1-3.08-5,19.83,19.83,0,0,1-1.06-6.7,19.45,19.45,0,0,1,1.06-6.62,14,14,0,0,1,3-5,13.18,13.18,0,0,1,4.75-3.15,16.87,16.87,0,0,1,6.24-1.1,17.66,17.66,0,0,1,4.41.48,16.5,16.5,0,0,1,3,1.07A11.08,11.08,0,0,1,260.69,60a5,5,0,0,0,1.07.7.72.72,0,0,0,1.05-.28l.7-1.1a18.48,18.48,0,0,0-2.45-1.81,15,15,0,0,0-2.75-1.33,17.35,17.35,0,0,0-3.19-.81,23.6,23.6,0,0,0-3.74-.28A20,20,0,0,0,244,56.36,15.79,15.79,0,0,0,238.43,60a16,16,0,0,0-3.55,5.7,21.26,21.26,0,0,0-1.24,7.44,21,21,0,0,0,1.26,7.45,15.87,15.87,0,0,0,3.63,5.71A16.17,16.17,0,0,0,244.24,90a20.91,20.91,0,0,0,7.55,1.29,21.3,21.3,0,0,0,6.75-1A21.54,21.54,0,0,0,264.19,87.38Zm-74.72-31.9H188.2V90.85h2.25V61.08q0-.65-.08-1.4l23,30.67a1.26,1.26,0,0,0,.41.39,1.14,1.14,0,0,0,.54.11h1.2V55.48h-2.23V85.15q0,.7.08,1.45L190.42,56a1.24,1.24,0,0,0-.41-.39A1.3,1.3,0,0,0,189.47,55.48Zm-23.1,24.34a14.23,14.23,0,0,1-2.9,5,12.38,12.38,0,0,1-4.5,3.13,16.11,16.11,0,0,1-11.58,0,12.49,12.49,0,0,1-4.51-3.12,14.27,14.27,0,0,1-2.92-5,21.87,21.87,0,0,1,0-13.31,14.25,14.25,0,0,1,2.92-5,12.61,12.61,0,0,1,4.51-3.14,15.94,15.94,0,0,1,11.58,0,12.49,12.49,0,0,1,4.5,3.14,14.21,14.21,0,0,1,2.9,5,22.13,22.13,0,0,1,0,13.31Zm2.45-14.08A16.62,16.62,0,0,0,165.37,60,15.16,15.16,0,0,0,160,56.36a17.79,17.79,0,0,0-6.86-1.29,17.53,17.53,0,0,0-6.85,1.3A15.39,15.39,0,0,0,141,60a16.46,16.46,0,0,0-3.45,5.7,23.11,23.11,0,0,0,0,14.85,16.46,16.46,0,0,0,3.45,5.7,15.25,15.25,0,0,0,5.32,3.65,18.91,18.91,0,0,0,13.71,0,15.24,15.24,0,0,0,5.34-3.65,16.48,16.48,0,0,0,3.45-5.7,23.11,23.11,0,0,0,0-14.85ZM108,55.48h-2.57V90.85H124.8V88.68H108Z"/><path class="cls-1" d="M658.09,55h-4.83V90.85h4.83V74.45h2.2a4.43,4.43,0,0,1,1.75.26,3,3,0,0,1,1.08.89l12.35,14.22a3.21,3.21,0,0,0,.36.44,1.9,1.9,0,0,0,.44.33,1.92,1.92,0,0,0,.59.2,4.51,4.51,0,0,0,.81.06h4.2l-14.25-17a6.16,6.16,0,0,0-1.08-1.14,4,4,0,0,0-1.22-.66,4.65,4.65,0,0,0,1-.64,7.85,7.85,0,0,0,1-1L680.92,55h-4.1a3.26,3.26,0,0,0-1.35.25,2.87,2.87,0,0,0-1.05.9l-11.92,13.5a2.72,2.72,0,0,1-1,.81,4.07,4.07,0,0,1-1.53.24h-1.82Zm-41.33,3.83h5.3q4.2,0,6.3,1.63a5.72,5.72,0,0,1,2.1,4.83,7.31,7.31,0,0,1-.55,2.88,6,6,0,0,1-1.64,2.24,7.61,7.61,0,0,1-2.7,1.45,12.26,12.26,0,0,1-3.71.51h-5.1Zm3.67,17a3.33,3.33,0,0,1,1.51.26,2.77,2.77,0,0,1,.91.86l9.3,12.8a2.12,2.12,0,0,0,2,1h4.3L628,76.63a5.59,5.59,0,0,0-1.6-1.53,13,13,0,0,0,3.71-1.39,10.62,10.62,0,0,0,2.77-2.25,9.36,9.36,0,0,0,1.74-3,10.3,10.3,0,0,0,.6-3.55,10.49,10.49,0,0,0-.78-4.11A8,8,0,0,0,632,57.7a11.23,11.23,0,0,0-4.09-2,22.14,22.14,0,0,0-5.87-.69H611.94V90.85h4.83v-15ZM579.37,63a15.37,15.37,0,0,0,.54-1.51q.26-.86.51-1.84.27,1,.54,1.83a15.91,15.91,0,0,0,.54,1.5l5.63,14.58H573.74Zm3.53-8H578L563.67,90.85h3.75a1.6,1.6,0,0,0,1-.35,1.76,1.76,0,0,0,.58-.8l3.35-8.65h16.08l3.35,8.65a2,2,0,0,0,.6.83,1.61,1.61,0,0,0,1,.33h3.75Zm-47.5,3.83h5.75q4.3,0,6.41,1.92a6.88,6.88,0,0,1,2.11,5.35,8.08,8.08,0,0,1-.55,3,6.31,6.31,0,0,1-1.64,2.36,7.62,7.62,0,0,1-2.67,1.54,11.19,11.19,0,0,1-3.66.55h-5.75Zm5.75,18.6a18,18,0,0,0,5.74-.84,11.92,11.92,0,0,0,4.17-2.34,9.85,9.85,0,0,0,2.56-3.58,11.66,11.66,0,0,0,.88-4.57,12.33,12.33,0,0,0-.81-4.58,9,9,0,0,0-2.46-3.5,11.34,11.34,0,0,0-4.16-2.24,19.83,19.83,0,0,0-5.91-.79H530.57V90.85h4.83V77.45Z"/><path class="cls-1" d="M37.25,92.13c0-5.3,5-14.54,12-14.54,9.92,0,11.42,8,11.42,13.48s-3.56,13.79-9.43,13.79-14-3.56-14-12.73m-10,.94C20.28,93.07,12,85,12,76.52S18.18,59.1,22.61,59.1s12.77,4.07,12.77,17.55C35.38,85,31.51,93.07,27.26,93.07Zm40.09-35.3c-2.06,5.8-4.17,11.13-10,11.13S47.64,65,47.64,60.19C47.64,54,54.1,48.95,60,48.95S69.4,52,67.35,57.77ZM10.87,91.48c1,5.18.75,6.89-1.85,7.33-1.46.25-3.88-1.37-5.43-6.31S1.94,83.17,5.37,81.66C7.79,80.61,9.86,86.3,10.87,91.48ZM21,96.94c0,3.33-1.51,6-3.38,6s-3.38-2.7-3.38-6,1.06-4.27,2.93-4.27S21,93.61,21,96.94ZM85.26,42.13c-1.85,2.33-3.42,3.72-6.11,2.79s-4-2.7-3.05-5.5,4.72-4.13,7.41-3.2S87.11,39.81,85.26,42.13ZM64.42,39.66c-3.08,3.56-5.68,5.67-10.15,4.26s-6.67-4.12-5.07-8.4,7.85-6.3,12.31-4.89S67.49,36.11,64.42,39.66Zm-16.82,8c-1.15,3.55-2.42,5.85-6.26,5.92s-5.79-1.07-6-4.79,3-6.61,6.83-6.68S48.75,44.09,47.6,47.63ZM42.2,20.9c13-6.25,5.66,8.82,2.78,12-2.67,2.92-11,9.75-13.28,6.41S31.63,26,42.2,20.9ZM23.94,49.79c-3,3.89-6,4.39-7.78,2.77-1-.91-1.31-3.65,1.21-7.79s3.9-7.93,8.53-5.31C28,40.65,26.93,45.91,23.94,49.79Zm19,11.61c0,2.81-1.36,5.08-3,5.08s-3.06-2.28-3.06-5.08,1-3.6,2.65-3.6S42.92,58.6,42.92,61.4ZM58.62,72.48c2.21-1.63,4.16-1.6,5.14-.26s.63,3.45-1.58,5.08-3.4,1.32-4.38,0S56.4,74.11,58.62,72.48ZM71.77,49.26c2-1,3.54-.71,4.15.49s0,2.84-2,3.85-2.9.6-3.51-.6A2.54,2.54,0,0,1,71.77,49.26Zm-3.37-8c2.9-.4,4.71.63,4.94,2.37s-1.18,3.54-4.08,3.94-3.85-.49-4.09-2.23S65.5,41.66,68.4,41.26ZM37.36,22c-3.36,2-4.62,2.27-5.58.57-.55-1,0-3.06,3-5.39s6.09-3.52,8-1.51C44.17,17.07,40.72,20,37.36,22Zm21.28,3.53c-4.3,1.78-5.81,1.79-6.54-.67-.41-1.39.65-4,4.67-6.25s7.78-3,9.53.07C67.54,20.84,62.94,23.73,58.64,25.51Zm9.5-3.13c1.18-2.79,2.37-4.58,5.5-4.36s4.63,1.28,4.53,4.31a5.38,5.38,0,0,1-6,4.94C69,27.06,67,25.17,68.14,22.38Zm38-.11c3.64,3.28,3.27,5.24,1.59,7-1,1-3.68,1.15-7.74-1.48-2.52-1.62-4.87-4.49-2.39-7.14C99.39,18.72,103.69,20.08,106.12,22.28Zm-13,10c-3,1.45-5.32,2.1-7.85,0s-3.24-4.47-1-6.78,6.91-1.91,9.45.22S96.14,30.8,93.13,32.25ZM55.59,15.46c-5,1.54-6.77,1.46-7.48-1.07-.4-1.44,1-4,5.71-6.07s9-2.6,9.67,1.09C64,12.07,60.63,13.91,55.59,15.46ZM72.64,9.14c3.56.32,5.11,1.73,4.9,3.49-.11,1-1.63,2.28-5.15,2.53-2.18.16-4.36-.59-4.68-3.22C67.5,10.21,70.26,8.93,72.64,9.14Zm5.93-5.25C80.83,4,82,5.05,82,6.41s-1.4,2.52-3.66,2.4-2.85-.93-2.78-2.29A2.56,2.56,0,0,1,78.58,3.89Zm8.93,11.58c-5-1.68-6.4-2.78-5.6-5.43.45-1.5,3-2.93,8-1.87s8.86,3.12,7.39,6.76C96.28,17.54,92.52,17.15,87.51,15.47ZM116,12.38c2,1.21,2.63,2.76,1.9,4s-2.52,1.62-4.54.41-2.16-2.24-1.43-3.46A2.67,2.67,0,0,1,116,12.38ZM100,8.89c.62-1.21,2.56-2.25,5.06-1.14s4.58,2.17,3.61,4.59-3.41,1.34-5.9.23S98.86,11.16,100,8.89Zm33.18,22c1.49,1.17,3.47,4.68,2.77,5.58s-3.82-1.16-5.31-2.32-1.5-2-.81-2.92A2.16,2.16,0,0,1,133.2,30.89ZM50.76,7.47A11.46,11.46,0,0,0,55.49,3.2,77.23,77.23,0,0,0,41,9.15C43.34,10.67,46.91,9.64,50.76,7.47ZM21.54,31.3c5.17-5.86,7.73-10.67,6-12a2.49,2.49,0,0,0-.74-.41A78.14,78.14,0,0,0,11,37.7C12.78,38.74,16.59,36.9,21.54,31.3Zm-19.68,46c2.38.56,5.82-3.21,8.08-13.27s2.11-16.62-.27-17.18c-1-.24-2.52.3-4.06,1.55A77.3,77.3,0,0,0,0,74.33C.44,76.06,1.09,77.15,1.86,77.34Zm91.86,66.19C80.1,140.27,72,130.9,65.65,122.22s-6.8-11.12-12-11.12-7.06,3-7.06,5.74,1,6.62-.68,6.62-4.5-8.61-6.87-12.66-5.93-10-11.61-10-7.17,5.68-7.17,11,3.12,9.62,5.55,12.73,3.31,5.93.75,4.62-14-17.84-16.23-22.84c-1.34-3-4.1-4-6.11-3.09a77.71,77.71,0,0,0,116.44,39C120.13,142.44,105.54,146.34,93.72,143.53ZM96,5.11a5.87,5.87,0,0,0,4.58-1.64,77.27,77.27,0,0,0-8.9-2.18C91.41,3.48,93.32,4.93,96,5.11ZM65,1c.68,1.22,2.58,1.6,6.43,1.74,4.89.17,10.42-.46,10.81-2.62C80.7.05,79.15,0,77.59,0A78.18,78.18,0,0,0,65,1Z"/><path class="cls-1" d="M47.87,68.2c2.94,1.76,3.83,4,2.77,5.8S47,76.36,44,74.6s-3.15-3.27-2.09-5S44.93,66.43,47.87,68.2Z"/><path class="cls-1" d="M72.7,29.46c3.43-.34,5.51.94,5.72,3s-1.54,4.11-5,4.46-4.51-.74-4.72-2.82S69.27,29.8,72.7,29.46Z"/><path class="cls-1" d="M84.89,16.07c3.08.37,4.65,1.9,4.43,3.76s-2.16,3.31-5.24,2.95-3.81-1.53-3.59-3.39S81.81,15.69,84.89,16.07Z"/><path class="cls-1" d="M25.74,52.19c.9-3.76,3-5.49,5.31-4.94s3.79,3.16,2.89,6.92-2.46,4.5-4.73,4S24.83,55.95,25.74,52.19Z"/><path class="cls-1" d="M124.65,22.94c4.47,4,4,6.44,1.95,8.6-1.17,1.21-4.52,1.41-9.51-1.82-3.09-2-6-5.52-2.93-8.77C116.38,18.56,121.66,20.23,124.65,22.94Z"/><path class="cls-1" d="M109.63,16.23c2,1.19,2.59,2.71,1.86,3.91s-2.48,1.59-4.46.41-2.12-2.21-1.41-3.4A2.63,2.63,0,0,1,109.63,16.23Z"/><path class="cls-1" d="M23.42,30.89c1.83-2.35,3.87-2.88,5.29-1.77s1.65,3.42-.18,5.77-3.15,2.37-4.57,1.27S21.58,33.24,23.42,30.89Z"/><path class="cls-1" d="M547.69,111.59V129h10.46l0-1H549v-7.27h7.64v-1H549v-7.05h9.18v-1Zm-16.16,1h3.19a5.9,5.9,0,0,1,3.54.9,3.21,3.21,0,0,1,1.21,2.76,3.89,3.89,0,0,1-.33,1.64,3.43,3.43,0,0,1-1,1.25,4.47,4.47,0,0,1-1.55.79,7.16,7.16,0,0,1-2.08.28h-3Zm2.28,8.56.44,0a1.2,1.2,0,0,1,.31.08l.23.15a1.64,1.64,0,0,1,.2.23l5.6,7.08a.7.7,0,0,0,.27.25.81.81,0,0,0,.35.07h1.08l-6-7.54a2,2,0,0,0-.53-.49,7,7,0,0,0,2.05-.52,5.3,5.3,0,0,0,1.57-1,4.35,4.35,0,0,0,1-1.45,4.61,4.61,0,0,0,.35-1.83,4.07,4.07,0,0,0-1.5-3.42,7.27,7.27,0,0,0-4.51-1.17h-4.46V129h1.27v-7.89ZM514,127.69a4.83,4.83,0,0,1-1.68-1.22,5.4,5.4,0,0,1-1-1.83,6.94,6.94,0,0,1-.36-2.28V111.59h-1.27v10.79a7.81,7.81,0,0,0,.46,2.69,6.45,6.45,0,0,0,1.31,2.18,6.07,6.07,0,0,0,2.08,1.46,7.42,7.42,0,0,0,5.51,0,6.07,6.07,0,0,0,2.08-1.46,6.45,6.45,0,0,0,1.31-2.18,7.81,7.81,0,0,0,.46-2.69V111.59h-1.26v10.79a6.93,6.93,0,0,1-.36,2.27,5.34,5.34,0,0,1-1.05,1.83,4.83,4.83,0,0,1-1.68,1.21,5.52,5.52,0,0,1-2.25.44A5.45,5.45,0,0,1,514,127.69Zm-11-14.55a5.84,5.84,0,0,0-2-1.32,6.51,6.51,0,0,0-2.44-.43,5.77,5.77,0,0,0-2.15.38,4.8,4.8,0,0,0-1.58,1,4.21,4.21,0,0,0-1,1.44,4.43,4.43,0,0,0-.33,1.69,4.12,4.12,0,0,0,.38,1.87,3.74,3.74,0,0,0,1,1.25,5.56,5.56,0,0,0,1.4.82q.78.32,1.61.58l1.61.53a6.43,6.43,0,0,1,1.4.67,3.24,3.24,0,0,1,1,1,2.81,2.81,0,0,1,.38,1.52,4.29,4.29,0,0,1-.3,1.6,3.63,3.63,0,0,1-.86,1.29,4.05,4.05,0,0,1-1.37.86,5.09,5.09,0,0,1-1.85.31,5.55,5.55,0,0,1-1.34-.15,5.68,5.68,0,0,1-1-.36,4.84,4.84,0,0,1-.8-.47q-.35-.25-.59-.47l-.42-.36a.49.49,0,0,0-.28-.15.43.43,0,0,0-.34.18l-.34.54a7,7,0,0,0,2.18,1.67,6.68,6.68,0,0,0,3,.61,6.35,6.35,0,0,0,2.37-.41,5.13,5.13,0,0,0,1.75-1.13A4.82,4.82,0,0,0,503.1,126a5.65,5.65,0,0,0,.38-2.07,3.85,3.85,0,0,0-.38-1.79,3.77,3.77,0,0,0-1-1.21,5.83,5.83,0,0,0-1.4-.82q-.78-.33-1.61-.6l-1.61-.55a6.41,6.41,0,0,1-1.4-.68,3.39,3.39,0,0,1-1-1,2.64,2.64,0,0,1-.38-1.47,3.37,3.37,0,0,1,.25-1.29,3.15,3.15,0,0,1,.74-1.08,3.5,3.5,0,0,1,1.21-.74,5.41,5.41,0,0,1,3.27,0,5.36,5.36,0,0,1,1.08.51,5.43,5.43,0,0,1,.68.5.71.71,0,0,0,.41.23.35.35,0,0,0,.32-.21Zm-16.38-1.55h-1.27V129h1.27Zm-18,0V129H479l0-1h-9.21v-7.27h7.64v-1h-7.64v-7.05H479v-1Zm-13.67,0h-1.27V129h9.53V128h-8.26Zm-18.75,12a6.8,6.8,0,0,1-1.43,2.42,6.11,6.11,0,0,1-2.22,1.5,7.65,7.65,0,0,1-2.86.52h-5.1v-15.4h5.1a7.65,7.65,0,0,1,2.86.52,6.11,6.11,0,0,1,2.22,1.5,6.81,6.81,0,0,1,1.43,2.42,10.79,10.79,0,0,1,0,6.52Zm1.21-6.89a7.85,7.85,0,0,0-1.7-2.75,7.36,7.36,0,0,0-2.63-1.74,9.15,9.15,0,0,0-3.38-.6h-6.37V129h6.37a9.15,9.15,0,0,0,3.38-.6,7.36,7.36,0,0,0,2.63-1.74,7.85,7.85,0,0,0,1.7-2.75,11.22,11.22,0,0,0,0-7.26Zm-34.54-5.09h-.63V129h1.11V114.35q0-.32,0-.69l11.33,15.13.2.19a.56.56,0,0,0,.27.06h.59V111.59h-1.1v14.63q0,.34,0,.71l-11.3-15.11a.62.62,0,0,0-.2-.19A.66.66,0,0,0,402.8,111.59Zm-14.1,2.31q.09-.21.17-.48l.17-.57a8.67,8.67,0,0,0,.36,1L393,122.7h-7.82Zm1-2.31h-1.25L381.29,129h1a.46.46,0,0,0,.3-.1.53.53,0,0,0,.17-.23l2-5.07h8.57l2,5.07a.61.61,0,0,0,.17.24.43.43,0,0,0,.28.09h1Zm-19.8,0H368.6V129h9.53V128h-8.26Zm-18,0V129h10.46l0-1h-9.21v-7.27h7.64v-1h-7.64v-7.05h9.18v-1Zm-16.85,0h-1.27V129H335v-8.41h1.12a3.15,3.15,0,0,1,.49,0,1.23,1.23,0,0,1,.33.1,1.21,1.21,0,0,1,.26.17l.25.23,7.37,7.54a.75.75,0,0,0,.74.33h1l-8-8.38a2.53,2.53,0,0,0-.42-.4,1.45,1.45,0,0,0-.47-.23,1.66,1.66,0,0,0,.4-.22,3.59,3.59,0,0,0,.41-.38l7.62-7.83h-1a1.1,1.1,0,0,0-.43.07,1,1,0,0,0-.36.28l-7,7.24-.25.23a.88.88,0,0,1-.26.14,1.43,1.43,0,0,1-.31.07l-.41,0h-1Zm-14.75,2.31q.09-.21.17-.48l.17-.57a8.67,8.67,0,0,0,.36,1l3.55,8.81h-7.82Zm1-2.31H320L312.83,129h1a.46.46,0,0,0,.3-.1.53.53,0,0,0,.17-.23l2-5.07h8.57l2,5.07a.61.61,0,0,0,.17.24.43.43,0,0,0,.28.09h1Zm-19.8,0h-1.27V129h9.53V128h-8.26Z"/><path class="cls-1" d="M681.53,113a6.34,6.34,0,0,0-2.14-1.36,7.43,7.43,0,0,0-2.69-.47,6.27,6.27,0,0,0-2.34.41,5.21,5.21,0,0,0-1.71,1.08,4.69,4.69,0,0,0-1.42,3.37,4.71,4.71,0,0,0,.36,2,4,4,0,0,0,1,1.33,5,5,0,0,0,1.36.86q.76.33,1.55.59l1.55.49a6.66,6.66,0,0,1,1.36.58,3,3,0,0,1,1,.86,2.21,2.21,0,0,1,.36,1.31,3.4,3.4,0,0,1-.25,1.32,2.86,2.86,0,0,1-.71,1,3.22,3.22,0,0,1-1.13.66,4.55,4.55,0,0,1-1.52.23,5.3,5.3,0,0,1-1.22-.13,5.11,5.11,0,0,1-1-.33,4.83,4.83,0,0,1-.76-.43l-.59-.43-.46-.33a.7.7,0,0,0-.36-.13.56.56,0,0,0-.31.09.89.89,0,0,0-.24.23l-.69,1.13a7.33,7.33,0,0,0,2.4,1.68,7.63,7.63,0,0,0,3.13.62,6.84,6.84,0,0,0,2.51-.43,5.38,5.38,0,0,0,1.86-1.18,5,5,0,0,0,1.15-1.77,6,6,0,0,0,.39-2.18,4.22,4.22,0,0,0-.36-1.85,3.9,3.9,0,0,0-1-1.27,5.46,5.46,0,0,0-1.36-.86q-.76-.34-1.55-.61l-1.55-.52a7.36,7.36,0,0,1-1.36-.6,3.14,3.14,0,0,1-1-.83,2,2,0,0,1-.36-1.23,2.76,2.76,0,0,1,.21-1.08,2.4,2.4,0,0,1,.62-.87,3,3,0,0,1,1-.59,4.24,4.24,0,0,1,1.41-.22,4.4,4.4,0,0,1,1.45.21,5.76,5.76,0,0,1,1,.46q.42.25.71.46a.87.87,0,0,0,.49.21.52.52,0,0,0,.31-.09.92.92,0,0,0,.24-.28Zm-26.32-1.63V129h10.89v-1.95H657.6v-6h6.88v-1.87H657.6v-5.87h8.49v-1.95Zm-18.91,0v2H642V129h2.38V113.38h5.72v-2Zm-10,3.93a7.75,7.75,0,0,0,.26-.75c.09-.28.17-.59.25-.91.09.32.18.62.26.9s.17.53.27.74l2.77,7.19h-6.6Zm1.74-3.93h-2.42L618.58,129h1.85a.79.79,0,0,0,.52-.17.86.86,0,0,0,.28-.39l1.65-4.27h7.93l1.65,4.27a1,1,0,0,0,.3.41.8.8,0,0,0,.52.16h1.85Zm-24.48,0v2h5.73V129h2.38V113.38h5.72v-2ZM599.24,113a6.34,6.34,0,0,0-2.14-1.36,7.43,7.43,0,0,0-2.69-.47,6.27,6.27,0,0,0-2.34.41,5.21,5.21,0,0,0-1.71,1.08,4.69,4.69,0,0,0-1.42,3.37,4.71,4.71,0,0,0,.36,2,4,4,0,0,0,1,1.33,5,5,0,0,0,1.36.86q.76.33,1.55.59l1.55.49a6.66,6.66,0,0,1,1.36.58,3,3,0,0,1,1,.86,2.21,2.21,0,0,1,.36,1.31,3.4,3.4,0,0,1-.25,1.32,2.86,2.86,0,0,1-.71,1,3.22,3.22,0,0,1-1.13.66,4.55,4.55,0,0,1-1.52.23,5.3,5.3,0,0,1-1.22-.13,5.11,5.11,0,0,1-1-.33,4.83,4.83,0,0,1-.76-.43l-.59-.43-.46-.33a.7.7,0,0,0-.36-.13.56.56,0,0,0-.31.09.89.89,0,0,0-.24.23l-.69,1.13a7.33,7.33,0,0,0,2.4,1.68,7.63,7.63,0,0,0,3.13.62,6.84,6.84,0,0,0,2.51-.43,5.38,5.38,0,0,0,1.86-1.18,5,5,0,0,0,1.15-1.77,6,6,0,0,0,.39-2.18,4.22,4.22,0,0,0-.36-1.85,3.9,3.9,0,0,0-1-1.27,5.46,5.46,0,0,0-1.36-.86q-.76-.34-1.55-.61l-1.55-.52a7.36,7.36,0,0,1-1.36-.6,3.14,3.14,0,0,1-1-.83,2,2,0,0,1-.36-1.23,2.76,2.76,0,0,1,.21-1.08A2.4,2.4,0,0,1,592,114a3,3,0,0,1,1-.59,4.24,4.24,0,0,1,1.41-.22,4.4,4.4,0,0,1,1.45.21,5.76,5.76,0,0,1,1,.46q.42.25.71.46a.87.87,0,0,0,.49.21.52.52,0,0,0,.31-.09.92.92,0,0,0,.24-.28Zm-26.32-1.63V129H583.8v-1.95h-8.51v-6h6.88v-1.87h-6.88v-5.87h8.49v-1.95Z"/></g></g></svg>