<svg xmlns="http://www.w3.org/2000/svg" viewBox="0 0 53.56 24.66"><defs></defs><g id="Layer_2" data-name="Layer 2"><g id="Layer_1-2" data-name="Layer 1"><path class="cls-1" d="M40,15.36a.42.42,0,0,0,.35-.18L52.09,0H20L31.9,15.36Z"/><path class="cls-1" d="M41.55,16.13a2,2,0,0,1-1.59.77H32.84l6.06,7.77H53.56V.71Z"/><polygon class="cls-1" points="16.24 0.06 0 0.06 1.47 1.94 17.71 1.94 16.24 0.06"/><polygon class="cls-1" points="20.66 5.71 4.41 5.71 5.88 7.59 22.13 7.59 20.66 5.71"/><polygon class="cls-1" points="25.01 11.42 8.83 11.42 10.3 13.3 26.48 13.3 25.01 11.42"/><polygon class="cls-1" points="29.43 17.13 13.24 17.13 14.71 19.01 30.9 19.01 29.43 17.13"/><polygon class="cls-1" points="17.66 22.78 19.13 24.66 35.31 24.66 33.84 22.78 17.66 22.78"/></g></g></svg>