<svg xmlns="http://www.w3.org/2000/svg" viewBox="0 0 28.02 36"><defs></defs><title>Asset 8</title><g id="Layer_2" data-name="Layer 2"><g id="Layer_1-2" data-name="Layer 1"><path class="cls-1" d="M15.6,6.1a5.9,5.9,0,0,1,4.2,1A5.46,5.46,0,0,1,22,11.3a3.09,3.09,0,0,0,1.1,2,2.93,2.93,0,0,0,2.2.7A3,3,0,0,0,28,10.7a11.52,11.52,0,0,0-4.6-8.5A12.13,12.13,0,0,0,16.1,0h0A4.1,4.1,0,0,0,15,.1,12.13,12.13,0,0,0,4,13.2c0,.6.1,1.2.1,1.8H3a3,3,0,0,0,0,6H4.7c.1,1.1.2,2.1.2,3a11.67,11.67,0,0,1-2.4,7.3,3,3,0,0,0,.8,4.2A3.37,3.37,0,0,0,5,36H25a3,3,0,0,0,3-3,3,3,0,0,0-3-3H9.7a15.41,15.41,0,0,0,1.1-5.9c0-1-.1-2-.1-3.1H18a3,3,0,0,0,0-6H10.2c-.1-.7-.1-1.4-.2-2.2A6,6,0,0,1,15.6,6.1Z"/></g></g></svg>