<svg xmlns="http://www.w3.org/2000/svg" viewBox="0 0 50 50"><defs></defs><g id="Layer_2" data-name="Layer 2">
    <g id="Layer_1-2" data-name="Layer 1"><path class="cls-1" d="M25,0A25,25,0,1,0,50,25,25,25,0,0,0,25,0Zm0,47A22,22,0,1,1,47,25,22,22,0,0,1,25,47Z"/><circle cx="19" cy="25.98" r="1" class="cls-1" /><path d="M19,23a3,3,0,1,0,3,3A3,3,0,0,0,19,23Zm0,5a2,2,0,1,1,2-2A2,2,0,0,1,19,28Z" class="cls-1" /><circle cx="31" cy="25.98" r="1" class="cls-1" /><path d="M31,23a3,3,0,1,0,3,3A3,3,0,0,0,31,23Zm0,5a2,2,0,1,1,2-2A2,2,0,0,1,31,28Z" class="cls-1" /><path d="M36.93,20.82A.5.5,0,0,0,36.5,20H32.74a16,16,0,0,0-15.48,0H13.5a.5.5,0,0,0-.38.82A5,5,0,0,1,14,22.59,6,6,0,0,0,23.48,30l1.09,1.79a.5.5,0,0,0,.85,0L26.52,30A6,6,0,0,0,36,22.59,5.07,5.07,0,0,1,36.93,20.82ZM19,31a5,5,0,0,1-1.16-9.88l.31-.06A5,5,0,1,1,19,31Zm16.8-3.79a5,5,0,0,1-8.94,1.58,3.24,3.24,0,0,1-.22-.41A7.32,7.32,0,0,1,26,25.84a4.92,4.92,0,0,1,5.86-4.75l.3.06A5,5,0,0,1,35.8,27.21Z" class="cls-1" /></g></g></svg>